%TF.GenerationSoftware,KiCad,Pcbnew,5.1.10-1.fc33*%
%TF.CreationDate,2021-08-28T17:16:11-07:00*%
%TF.ProjectId,hardware,68617264-7761-4726-952e-6b696361645f,rev?*%
%TF.SameCoordinates,Original*%
%TF.FileFunction,Copper,L3,Inr*%
%TF.FilePolarity,Positive*%
%FSLAX46Y46*%
G04 Gerber Fmt 4.6, Leading zero omitted, Abs format (unit mm)*
G04 Created by KiCad (PCBNEW 5.1.10-1.fc33) date 2021-08-28 17:16:11*
%MOMM*%
%LPD*%
G01*
G04 APERTURE LIST*
%TA.AperFunction,ComponentPad*%
%ADD10R,3.000000X3.000000*%
%TD*%
%TA.AperFunction,ComponentPad*%
%ADD11C,2.000000*%
%TD*%
%TA.AperFunction,ComponentPad*%
%ADD12C,2.500000*%
%TD*%
%TA.AperFunction,ComponentPad*%
%ADD13C,1.600000*%
%TD*%
%TA.AperFunction,ComponentPad*%
%ADD14O,1.700000X1.700000*%
%TD*%
%TA.AperFunction,ComponentPad*%
%ADD15R,1.700000X1.700000*%
%TD*%
%TA.AperFunction,ComponentPad*%
%ADD16C,1.500000*%
%TD*%
%TA.AperFunction,ComponentPad*%
%ADD17C,0.450000*%
%TD*%
%TA.AperFunction,ViaPad*%
%ADD18C,0.400000*%
%TD*%
%TA.AperFunction,ViaPad*%
%ADD19C,1.000000*%
%TD*%
%TA.AperFunction,Conductor*%
%ADD20C,1.000000*%
%TD*%
%TA.AperFunction,Conductor*%
%ADD21C,0.254000*%
%TD*%
%TA.AperFunction,Conductor*%
%ADD22C,0.100000*%
%TD*%
G04 APERTURE END LIST*
D10*
%TO.N,GND*%
%TO.C,PS1*%
X118750000Y-126750000D03*
%TO.N,Net-(C2-Pad2)*%
X126750000Y-126750000D03*
%TO.N,Net-(C2-Pad1)*%
X130750000Y-126750000D03*
%TO.N,Net-(C4-Pad1)*%
X114750000Y-126750000D03*
%TO.N,/AC_N*%
X134750000Y-126750000D03*
%TO.N,Net-(L5-Pad2)*%
X138750000Y-126750000D03*
%TD*%
D11*
%TO.N,/AC_L*%
%TO.C,F1*%
X143830000Y-97010000D03*
%TO.N,Net-(F1-Pad1)*%
X138750000Y-97000000D03*
%TD*%
D12*
%TO.N,/AC_L*%
%TO.C,J2*%
X143700000Y-103540814D03*
X143000000Y-100740814D03*
X143100000Y-106240814D03*
%TD*%
%TO.N,/AC_N*%
%TO.C,J1*%
X143700000Y-119354000D03*
X143000000Y-116554000D03*
X143100000Y-122054000D03*
%TD*%
D11*
%TO.N,Net-(C2-Pad2)*%
%TO.C,CY3*%
X131250000Y-96000000D03*
%TO.N,GND*%
X121250000Y-96000000D03*
%TD*%
D13*
%TO.N,Net-(C2-Pad2)*%
%TO.C,C2*%
X123000000Y-107000000D03*
%TO.N,Net-(C2-Pad1)*%
X128000000Y-107000000D03*
%TD*%
D14*
%TO.N,+1V1*%
%TO.C,J3*%
X105240000Y-96000000D03*
%TO.N,+1V35*%
X102700000Y-96000000D03*
%TO.N,+2V5*%
X100160000Y-96000000D03*
%TO.N,+3V0*%
X97620000Y-96000000D03*
%TO.N,+3V3*%
X95080000Y-96000000D03*
%TO.N,+5V*%
X92540000Y-96000000D03*
D15*
%TO.N,GND*%
X90000000Y-96000000D03*
%TD*%
D16*
%TO.N,Net-(L5-Pad2)*%
%TO.C,L5*%
X133500000Y-111500000D03*
%TO.N,Net-(C1-Pad1)*%
X138500000Y-111500000D03*
%TD*%
D13*
%TO.N,Net-(F1-Pad1)*%
%TO.C,NTC1*%
X134750000Y-98000000D03*
%TO.N,Net-(C1-Pad1)*%
X134750000Y-103000000D03*
%TD*%
D17*
%TO.N,GND*%
%TO.C,U6*%
X102651200Y-101111880D03*
X103651200Y-101111880D03*
X103151200Y-101611880D03*
X102651200Y-102111880D03*
X103651200Y-102111880D03*
%TD*%
%TO.N,GND*%
%TO.C,U5*%
X94389880Y-112561380D03*
X94389880Y-111561380D03*
X94889880Y-112061380D03*
X95389880Y-112561380D03*
X95389880Y-111561380D03*
%TD*%
%TO.N,GND*%
%TO.C,U4*%
X94557860Y-101241240D03*
X94557860Y-102241240D03*
X94057860Y-101741240D03*
X93557860Y-101241240D03*
X93557860Y-102241240D03*
%TD*%
%TO.N,GND*%
%TO.C,U3*%
X94099880Y-118609500D03*
X94099880Y-119609500D03*
X93599880Y-119109500D03*
X93099880Y-118609500D03*
X93099880Y-119609500D03*
%TD*%
D18*
%TO.N,+1V35*%
X102600000Y-109400000D03*
X102000000Y-109400000D03*
X101438889Y-109161111D03*
%TO.N,GND*%
X94907980Y-120404900D03*
X94907980Y-121192300D03*
X90539180Y-119363500D03*
X91047180Y-119363500D03*
X88326840Y-117382300D03*
X104446600Y-100303780D03*
X105249240Y-100308860D03*
X103420440Y-105134860D03*
X103405200Y-104164580D03*
X100651840Y-106501380D03*
X101426540Y-107890760D03*
X101426540Y-106989060D03*
X93583240Y-109996360D03*
X101530960Y-112552220D03*
X98231440Y-111807380D03*
X93581780Y-110765980D03*
X99882440Y-115558960D03*
X99880980Y-114575980D03*
X97442580Y-111807380D03*
X101530960Y-113312760D03*
X95365960Y-103036640D03*
X95365960Y-103925640D03*
X90679660Y-101995240D03*
X91505160Y-101995240D03*
X89168360Y-99175840D03*
X89168360Y-98337640D03*
X87999960Y-100014040D03*
X89054060Y-100014040D03*
X88710380Y-115705900D03*
X88710380Y-116467900D03*
X107078040Y-101083560D03*
X99966040Y-101591560D03*
X93750000Y-125250000D03*
X109600000Y-95200000D03*
X109600000Y-96000000D03*
X111800000Y-96600000D03*
X112400000Y-96600000D03*
D19*
X96200000Y-123000000D03*
X96200000Y-124600000D03*
X111750000Y-108500000D03*
X117800000Y-121400000D03*
D18*
X96500000Y-116750000D03*
X96500000Y-98000000D03*
X91250000Y-112000000D03*
X104000000Y-97000000D03*
X106500000Y-99250000D03*
%TO.N,+1V1*%
X107000000Y-108000000D03*
X107375000Y-107625000D03*
X107750000Y-107250000D03*
%TO.N,+3V3*%
X87250000Y-124000000D03*
X86875000Y-123625000D03*
X86675010Y-123074990D03*
X86675010Y-122574990D03*
%TO.N,+5V*%
X93876740Y-121547900D03*
X92276540Y-117737900D03*
X105589600Y-101345180D03*
X101779600Y-102945380D03*
X92723580Y-115934500D03*
X93434780Y-116747300D03*
X94623180Y-109622980D03*
X96223380Y-113432980D03*
X95766180Y-115236380D03*
X95054980Y-114423580D03*
X93181560Y-98566240D03*
X93892760Y-99379040D03*
X94324560Y-104179640D03*
X92724360Y-100369640D03*
X101782140Y-103801360D03*
X99958439Y-102441561D03*
X95091040Y-115091040D03*
X94591040Y-115591040D03*
X93991040Y-116191040D03*
%TO.N,Net-(C10-Pad1)*%
X92240980Y-121446300D03*
X96667379Y-121972901D03*
%TO.N,Net-(C14-Pad1)*%
X92698960Y-104078040D03*
X97125359Y-104604641D03*
%TO.N,Net-(C22-Pad1)*%
X96248780Y-109724580D03*
X91822381Y-109197979D03*
%TO.N,Net-(C23-Pad1)*%
X105488000Y-102970780D03*
X106014601Y-98544381D03*
%TO.N,Net-(L1-Pad1)*%
X93000000Y-125250000D03*
%TO.N,+3V0*%
X88250000Y-106000000D03*
X88250000Y-105500000D03*
%TO.N,+2V5*%
X111500000Y-102000000D03*
%TD*%
D20*
%TO.N,+5V*%
X96382080Y-113800000D02*
X95091040Y-115091040D01*
X99116039Y-108115323D02*
X96382080Y-110849282D01*
X97232078Y-99000000D02*
X99116039Y-100883961D01*
X93400000Y-99000000D02*
X97232078Y-99000000D01*
X96382080Y-110849282D02*
X96382080Y-113800000D01*
X92540000Y-98140000D02*
X93400000Y-99000000D01*
X92540000Y-96000000D02*
X92540000Y-98140000D01*
X99758439Y-102441561D02*
X99958439Y-102441561D01*
X99116039Y-100883961D02*
X99116039Y-102516039D01*
X99116039Y-102516039D02*
X99116039Y-108115323D01*
X99958439Y-102441561D02*
X100374041Y-102441561D01*
X99116039Y-102516039D02*
X99683961Y-102516039D01*
X99683961Y-102516039D02*
X99758439Y-102441561D01*
X95091040Y-115091040D02*
X94591040Y-115591040D01*
X94591040Y-115591040D02*
X93991040Y-116191040D01*
X93991040Y-116191040D02*
X93434780Y-116747300D01*
%TD*%
D21*
%TO.N,GND*%
X113096257Y-94140769D02*
X113185955Y-94177923D01*
X113262976Y-94237024D01*
X113322077Y-94314045D01*
X113359231Y-94403743D01*
X113373000Y-94508328D01*
X113373000Y-112220011D01*
X113374033Y-112236174D01*
X113390231Y-112362411D01*
X113398393Y-112393692D01*
X113445938Y-112511749D01*
X113461732Y-112539954D01*
X113537543Y-112642184D01*
X113559947Y-112665488D01*
X113659112Y-112745265D01*
X113672354Y-112754592D01*
X120937995Y-117207726D01*
X121018141Y-117272203D01*
X121074540Y-117348255D01*
X121109909Y-117436079D01*
X121123000Y-117538101D01*
X121123000Y-129014415D01*
X121109207Y-129119089D01*
X121071992Y-129208848D01*
X121012792Y-129285906D01*
X120935658Y-129344995D01*
X120845841Y-129382090D01*
X120741157Y-129395738D01*
X87707806Y-129350261D01*
X87603332Y-129336373D01*
X87513749Y-129299159D01*
X87436842Y-129240048D01*
X87377834Y-129163055D01*
X87340743Y-129073424D01*
X87327000Y-128968938D01*
X87327000Y-125203020D01*
X92523000Y-125203020D01*
X92523000Y-125296980D01*
X92541331Y-125389136D01*
X92577288Y-125475944D01*
X92629490Y-125554070D01*
X92695930Y-125620510D01*
X92774056Y-125672712D01*
X92860864Y-125708669D01*
X92953020Y-125727000D01*
X93046980Y-125727000D01*
X93139136Y-125708669D01*
X93225944Y-125672712D01*
X93304070Y-125620510D01*
X93370510Y-125554070D01*
X93422712Y-125475944D01*
X93458669Y-125389136D01*
X93477000Y-125296980D01*
X93477000Y-125250000D01*
X112971660Y-125250000D01*
X112971660Y-128250000D01*
X112977008Y-128304301D01*
X112992847Y-128356516D01*
X113018569Y-128404637D01*
X113053184Y-128446816D01*
X113095363Y-128481431D01*
X113143484Y-128507153D01*
X113195699Y-128522992D01*
X113250000Y-128528340D01*
X116250000Y-128528340D01*
X116304301Y-128522992D01*
X116356516Y-128507153D01*
X116404637Y-128481431D01*
X116446816Y-128446816D01*
X116481431Y-128404637D01*
X116507153Y-128356516D01*
X116522992Y-128304301D01*
X116528340Y-128250000D01*
X116611928Y-128250000D01*
X116624188Y-128374482D01*
X116660498Y-128494180D01*
X116719463Y-128604494D01*
X116798815Y-128701185D01*
X116895506Y-128780537D01*
X117005820Y-128839502D01*
X117125518Y-128875812D01*
X117250000Y-128888072D01*
X118464250Y-128885000D01*
X118623000Y-128726250D01*
X118623000Y-126877000D01*
X118877000Y-126877000D01*
X118877000Y-128726250D01*
X119035750Y-128885000D01*
X120250000Y-128888072D01*
X120374482Y-128875812D01*
X120494180Y-128839502D01*
X120604494Y-128780537D01*
X120701185Y-128701185D01*
X120780537Y-128604494D01*
X120839502Y-128494180D01*
X120875812Y-128374482D01*
X120888072Y-128250000D01*
X120885000Y-127035750D01*
X120726250Y-126877000D01*
X118877000Y-126877000D01*
X118623000Y-126877000D01*
X116773750Y-126877000D01*
X116615000Y-127035750D01*
X116611928Y-128250000D01*
X116528340Y-128250000D01*
X116528340Y-125250000D01*
X116611928Y-125250000D01*
X116615000Y-126464250D01*
X116773750Y-126623000D01*
X118623000Y-126623000D01*
X118623000Y-124773750D01*
X118877000Y-124773750D01*
X118877000Y-126623000D01*
X120726250Y-126623000D01*
X120885000Y-126464250D01*
X120888072Y-125250000D01*
X120875812Y-125125518D01*
X120839502Y-125005820D01*
X120780537Y-124895506D01*
X120701185Y-124798815D01*
X120604494Y-124719463D01*
X120494180Y-124660498D01*
X120374482Y-124624188D01*
X120250000Y-124611928D01*
X119035750Y-124615000D01*
X118877000Y-124773750D01*
X118623000Y-124773750D01*
X118464250Y-124615000D01*
X117250000Y-124611928D01*
X117125518Y-124624188D01*
X117005820Y-124660498D01*
X116895506Y-124719463D01*
X116798815Y-124798815D01*
X116719463Y-124895506D01*
X116660498Y-125005820D01*
X116624188Y-125125518D01*
X116611928Y-125250000D01*
X116528340Y-125250000D01*
X116522992Y-125195699D01*
X116507153Y-125143484D01*
X116481431Y-125095363D01*
X116446816Y-125053184D01*
X116404637Y-125018569D01*
X116356516Y-124992847D01*
X116304301Y-124977008D01*
X116250000Y-124971660D01*
X113250000Y-124971660D01*
X113195699Y-124977008D01*
X113143484Y-124992847D01*
X113095363Y-125018569D01*
X113053184Y-125053184D01*
X113018569Y-125095363D01*
X112992847Y-125143484D01*
X112977008Y-125195699D01*
X112971660Y-125250000D01*
X93477000Y-125250000D01*
X93477000Y-125203020D01*
X93458669Y-125110864D01*
X93422712Y-125024056D01*
X93370510Y-124945930D01*
X93304070Y-124879490D01*
X93225944Y-124827288D01*
X93139136Y-124791331D01*
X93046980Y-124773000D01*
X92953020Y-124773000D01*
X92860864Y-124791331D01*
X92774056Y-124827288D01*
X92695930Y-124879490D01*
X92629490Y-124945930D01*
X92577288Y-125024056D01*
X92541331Y-125110864D01*
X92523000Y-125203020D01*
X87327000Y-125203020D01*
X87327000Y-124471029D01*
X87389136Y-124458669D01*
X87475944Y-124422712D01*
X87554070Y-124370510D01*
X87620510Y-124304070D01*
X87672712Y-124225944D01*
X87708669Y-124139136D01*
X87727000Y-124046980D01*
X87727000Y-123953020D01*
X87708669Y-123860864D01*
X87672712Y-123774056D01*
X87620510Y-123695930D01*
X87554070Y-123629490D01*
X87475944Y-123577288D01*
X87389136Y-123541331D01*
X87342872Y-123532128D01*
X87333669Y-123485864D01*
X87327000Y-123469764D01*
X87327000Y-121399320D01*
X91763980Y-121399320D01*
X91763980Y-121493280D01*
X91782311Y-121585436D01*
X91818268Y-121672244D01*
X91870470Y-121750370D01*
X91936910Y-121816810D01*
X92015036Y-121869012D01*
X92101844Y-121904969D01*
X92194000Y-121923300D01*
X92287960Y-121923300D01*
X92380116Y-121904969D01*
X92466924Y-121869012D01*
X92545050Y-121816810D01*
X92611490Y-121750370D01*
X92663692Y-121672244D01*
X92699649Y-121585436D01*
X92716460Y-121500920D01*
X93399740Y-121500920D01*
X93399740Y-121594880D01*
X93418071Y-121687036D01*
X93454028Y-121773844D01*
X93506230Y-121851970D01*
X93572670Y-121918410D01*
X93650796Y-121970612D01*
X93737604Y-122006569D01*
X93829760Y-122024900D01*
X93923720Y-122024900D01*
X94015876Y-122006569D01*
X94102684Y-121970612D01*
X94169568Y-121925921D01*
X96190379Y-121925921D01*
X96190379Y-122019881D01*
X96208710Y-122112037D01*
X96244667Y-122198845D01*
X96296869Y-122276971D01*
X96363309Y-122343411D01*
X96441435Y-122395613D01*
X96528243Y-122431570D01*
X96620399Y-122449901D01*
X96714359Y-122449901D01*
X96806515Y-122431570D01*
X96893323Y-122395613D01*
X96971449Y-122343411D01*
X97037889Y-122276971D01*
X97090091Y-122198845D01*
X97126048Y-122112037D01*
X97144379Y-122019881D01*
X97144379Y-121925921D01*
X97126048Y-121833765D01*
X97090091Y-121746957D01*
X97037889Y-121668831D01*
X96971449Y-121602391D01*
X96893323Y-121550189D01*
X96806515Y-121514232D01*
X96714359Y-121495901D01*
X96620399Y-121495901D01*
X96528243Y-121514232D01*
X96441435Y-121550189D01*
X96363309Y-121602391D01*
X96296869Y-121668831D01*
X96244667Y-121746957D01*
X96208710Y-121833765D01*
X96190379Y-121925921D01*
X94169568Y-121925921D01*
X94180810Y-121918410D01*
X94247250Y-121851970D01*
X94299452Y-121773844D01*
X94335409Y-121687036D01*
X94353740Y-121594880D01*
X94353740Y-121500920D01*
X94335409Y-121408764D01*
X94299452Y-121321956D01*
X94247250Y-121243830D01*
X94180810Y-121177390D01*
X94102684Y-121125188D01*
X94015876Y-121089231D01*
X93923720Y-121070900D01*
X93829760Y-121070900D01*
X93737604Y-121089231D01*
X93650796Y-121125188D01*
X93572670Y-121177390D01*
X93506230Y-121243830D01*
X93454028Y-121321956D01*
X93418071Y-121408764D01*
X93399740Y-121500920D01*
X92716460Y-121500920D01*
X92717980Y-121493280D01*
X92717980Y-121399320D01*
X92699649Y-121307164D01*
X92663692Y-121220356D01*
X92611490Y-121142230D01*
X92545050Y-121075790D01*
X92466924Y-121023588D01*
X92380116Y-120987631D01*
X92287960Y-120969300D01*
X92194000Y-120969300D01*
X92101844Y-120987631D01*
X92015036Y-121023588D01*
X91936910Y-121075790D01*
X91870470Y-121142230D01*
X91818268Y-121220356D01*
X91782311Y-121307164D01*
X91763980Y-121399320D01*
X87327000Y-121399320D01*
X87327000Y-117690920D01*
X91799540Y-117690920D01*
X91799540Y-117784880D01*
X91817871Y-117877036D01*
X91853828Y-117963844D01*
X91906030Y-118041970D01*
X91972470Y-118108410D01*
X92050596Y-118160612D01*
X92137404Y-118196569D01*
X92229560Y-118214900D01*
X92323520Y-118214900D01*
X92415676Y-118196569D01*
X92502484Y-118160612D01*
X92580610Y-118108410D01*
X92647050Y-118041970D01*
X92699252Y-117963844D01*
X92735209Y-117877036D01*
X92753540Y-117784880D01*
X92753540Y-117690920D01*
X92735209Y-117598764D01*
X92699252Y-117511956D01*
X92647050Y-117433830D01*
X92580610Y-117367390D01*
X92502484Y-117315188D01*
X92415676Y-117279231D01*
X92323520Y-117260900D01*
X92229560Y-117260900D01*
X92137404Y-117279231D01*
X92050596Y-117315188D01*
X91972470Y-117367390D01*
X91906030Y-117433830D01*
X91853828Y-117511956D01*
X91817871Y-117598764D01*
X91799540Y-117690920D01*
X87327000Y-117690920D01*
X87327000Y-109150999D01*
X91345381Y-109150999D01*
X91345381Y-109244959D01*
X91363712Y-109337115D01*
X91399669Y-109423923D01*
X91451871Y-109502049D01*
X91518311Y-109568489D01*
X91596437Y-109620691D01*
X91683245Y-109656648D01*
X91775401Y-109674979D01*
X91869361Y-109674979D01*
X91961517Y-109656648D01*
X92048325Y-109620691D01*
X92115209Y-109576000D01*
X94146180Y-109576000D01*
X94146180Y-109669960D01*
X94164511Y-109762116D01*
X94200468Y-109848924D01*
X94252670Y-109927050D01*
X94319110Y-109993490D01*
X94397236Y-110045692D01*
X94484044Y-110081649D01*
X94576200Y-110099980D01*
X94670160Y-110099980D01*
X94762316Y-110081649D01*
X94849124Y-110045692D01*
X94927250Y-109993490D01*
X94993690Y-109927050D01*
X95045892Y-109848924D01*
X95081849Y-109762116D01*
X95100180Y-109669960D01*
X95100180Y-109576000D01*
X95081849Y-109483844D01*
X95045892Y-109397036D01*
X94993690Y-109318910D01*
X94927250Y-109252470D01*
X94849124Y-109200268D01*
X94762316Y-109164311D01*
X94670160Y-109145980D01*
X94576200Y-109145980D01*
X94484044Y-109164311D01*
X94397236Y-109200268D01*
X94319110Y-109252470D01*
X94252670Y-109318910D01*
X94200468Y-109397036D01*
X94164511Y-109483844D01*
X94146180Y-109576000D01*
X92115209Y-109576000D01*
X92126451Y-109568489D01*
X92192891Y-109502049D01*
X92245093Y-109423923D01*
X92281050Y-109337115D01*
X92299381Y-109244959D01*
X92299381Y-109150999D01*
X92281050Y-109058843D01*
X92245093Y-108972035D01*
X92192891Y-108893909D01*
X92126451Y-108827469D01*
X92048325Y-108775267D01*
X91961517Y-108739310D01*
X91869361Y-108720979D01*
X91775401Y-108720979D01*
X91683245Y-108739310D01*
X91596437Y-108775267D01*
X91518311Y-108827469D01*
X91451871Y-108893909D01*
X91399669Y-108972035D01*
X91363712Y-109058843D01*
X91345381Y-109150999D01*
X87327000Y-109150999D01*
X87327000Y-105453020D01*
X87773000Y-105453020D01*
X87773000Y-105546980D01*
X87791331Y-105639136D01*
X87827288Y-105725944D01*
X87843362Y-105750000D01*
X87827288Y-105774056D01*
X87791331Y-105860864D01*
X87773000Y-105953020D01*
X87773000Y-106046980D01*
X87791331Y-106139136D01*
X87827288Y-106225944D01*
X87879490Y-106304070D01*
X87945930Y-106370510D01*
X88024056Y-106422712D01*
X88110864Y-106458669D01*
X88203020Y-106477000D01*
X88296980Y-106477000D01*
X88389136Y-106458669D01*
X88475944Y-106422712D01*
X88554070Y-106370510D01*
X88620510Y-106304070D01*
X88672712Y-106225944D01*
X88708669Y-106139136D01*
X88727000Y-106046980D01*
X88727000Y-105953020D01*
X88708669Y-105860864D01*
X88672712Y-105774056D01*
X88656638Y-105750000D01*
X88672712Y-105725944D01*
X88708669Y-105639136D01*
X88727000Y-105546980D01*
X88727000Y-105453020D01*
X88708669Y-105360864D01*
X88672712Y-105274056D01*
X88620510Y-105195930D01*
X88554070Y-105129490D01*
X88475944Y-105077288D01*
X88389136Y-105041331D01*
X88296980Y-105023000D01*
X88203020Y-105023000D01*
X88110864Y-105041331D01*
X88024056Y-105077288D01*
X87945930Y-105129490D01*
X87879490Y-105195930D01*
X87827288Y-105274056D01*
X87791331Y-105360864D01*
X87773000Y-105453020D01*
X87327000Y-105453020D01*
X87327000Y-104031060D01*
X92221960Y-104031060D01*
X92221960Y-104125020D01*
X92240291Y-104217176D01*
X92276248Y-104303984D01*
X92328450Y-104382110D01*
X92394890Y-104448550D01*
X92473016Y-104500752D01*
X92559824Y-104536709D01*
X92651980Y-104555040D01*
X92745940Y-104555040D01*
X92838096Y-104536709D01*
X92924904Y-104500752D01*
X93003030Y-104448550D01*
X93069470Y-104382110D01*
X93121672Y-104303984D01*
X93157629Y-104217176D01*
X93174440Y-104132660D01*
X93847560Y-104132660D01*
X93847560Y-104226620D01*
X93865891Y-104318776D01*
X93901848Y-104405584D01*
X93954050Y-104483710D01*
X94020490Y-104550150D01*
X94098616Y-104602352D01*
X94185424Y-104638309D01*
X94277580Y-104656640D01*
X94371540Y-104656640D01*
X94463696Y-104638309D01*
X94550504Y-104602352D01*
X94617388Y-104557661D01*
X96648359Y-104557661D01*
X96648359Y-104651621D01*
X96666690Y-104743777D01*
X96702647Y-104830585D01*
X96754849Y-104908711D01*
X96821289Y-104975151D01*
X96899415Y-105027353D01*
X96986223Y-105063310D01*
X97078379Y-105081641D01*
X97172339Y-105081641D01*
X97264495Y-105063310D01*
X97351303Y-105027353D01*
X97429429Y-104975151D01*
X97495869Y-104908711D01*
X97548071Y-104830585D01*
X97584028Y-104743777D01*
X97602359Y-104651621D01*
X97602359Y-104557661D01*
X97584028Y-104465505D01*
X97548071Y-104378697D01*
X97495869Y-104300571D01*
X97429429Y-104234131D01*
X97351303Y-104181929D01*
X97264495Y-104145972D01*
X97172339Y-104127641D01*
X97078379Y-104127641D01*
X96986223Y-104145972D01*
X96899415Y-104181929D01*
X96821289Y-104234131D01*
X96754849Y-104300571D01*
X96702647Y-104378697D01*
X96666690Y-104465505D01*
X96648359Y-104557661D01*
X94617388Y-104557661D01*
X94628630Y-104550150D01*
X94695070Y-104483710D01*
X94747272Y-104405584D01*
X94783229Y-104318776D01*
X94801560Y-104226620D01*
X94801560Y-104132660D01*
X94783229Y-104040504D01*
X94747272Y-103953696D01*
X94695070Y-103875570D01*
X94628630Y-103809130D01*
X94550504Y-103756928D01*
X94463696Y-103720971D01*
X94371540Y-103702640D01*
X94277580Y-103702640D01*
X94185424Y-103720971D01*
X94098616Y-103756928D01*
X94020490Y-103809130D01*
X93954050Y-103875570D01*
X93901848Y-103953696D01*
X93865891Y-104040504D01*
X93847560Y-104132660D01*
X93174440Y-104132660D01*
X93175960Y-104125020D01*
X93175960Y-104031060D01*
X93157629Y-103938904D01*
X93121672Y-103852096D01*
X93069470Y-103773970D01*
X93003030Y-103707530D01*
X92924904Y-103655328D01*
X92838096Y-103619371D01*
X92745940Y-103601040D01*
X92651980Y-103601040D01*
X92559824Y-103619371D01*
X92473016Y-103655328D01*
X92394890Y-103707530D01*
X92328450Y-103773970D01*
X92276248Y-103852096D01*
X92240291Y-103938904D01*
X92221960Y-104031060D01*
X87327000Y-104031060D01*
X87327000Y-100322660D01*
X92247360Y-100322660D01*
X92247360Y-100416620D01*
X92265691Y-100508776D01*
X92301648Y-100595584D01*
X92353850Y-100673710D01*
X92420290Y-100740150D01*
X92498416Y-100792352D01*
X92585224Y-100828309D01*
X92677380Y-100846640D01*
X92771340Y-100846640D01*
X92863496Y-100828309D01*
X92950304Y-100792352D01*
X93028430Y-100740150D01*
X93094870Y-100673710D01*
X93147072Y-100595584D01*
X93183029Y-100508776D01*
X93201360Y-100416620D01*
X93201360Y-100322660D01*
X93183029Y-100230504D01*
X93147072Y-100143696D01*
X93094870Y-100065570D01*
X93028430Y-99999130D01*
X92950304Y-99946928D01*
X92863496Y-99910971D01*
X92771340Y-99892640D01*
X92677380Y-99892640D01*
X92585224Y-99910971D01*
X92498416Y-99946928D01*
X92420290Y-99999130D01*
X92353850Y-100065570D01*
X92301648Y-100143696D01*
X92265691Y-100230504D01*
X92247360Y-100322660D01*
X87327000Y-100322660D01*
X87327000Y-96850000D01*
X88511928Y-96850000D01*
X88524188Y-96974482D01*
X88560498Y-97094180D01*
X88619463Y-97204494D01*
X88698815Y-97301185D01*
X88795506Y-97380537D01*
X88905820Y-97439502D01*
X89025518Y-97475812D01*
X89150000Y-97488072D01*
X89714250Y-97485000D01*
X89873000Y-97326250D01*
X89873000Y-96127000D01*
X88673750Y-96127000D01*
X88515000Y-96285750D01*
X88511928Y-96850000D01*
X87327000Y-96850000D01*
X87327000Y-95150000D01*
X88511928Y-95150000D01*
X88515000Y-95714250D01*
X88673750Y-95873000D01*
X89873000Y-95873000D01*
X89873000Y-94673750D01*
X90127000Y-94673750D01*
X90127000Y-95873000D01*
X90147000Y-95873000D01*
X90147000Y-96127000D01*
X90127000Y-96127000D01*
X90127000Y-97326250D01*
X90285750Y-97485000D01*
X90850000Y-97488072D01*
X90974482Y-97475812D01*
X91094180Y-97439502D01*
X91204494Y-97380537D01*
X91301185Y-97301185D01*
X91380537Y-97204494D01*
X91439502Y-97094180D01*
X91475812Y-96974482D01*
X91488072Y-96850000D01*
X91485619Y-96399492D01*
X91541266Y-96533835D01*
X91664602Y-96718421D01*
X91763000Y-96816819D01*
X91763001Y-98101827D01*
X91759241Y-98140000D01*
X91774244Y-98292318D01*
X91818673Y-98438783D01*
X91890823Y-98573766D01*
X91963591Y-98662434D01*
X91987921Y-98692080D01*
X92017565Y-98716408D01*
X92823590Y-99522434D01*
X92847920Y-99552080D01*
X92877564Y-99576408D01*
X92877565Y-99576409D01*
X92966234Y-99649178D01*
X93054199Y-99696195D01*
X93101216Y-99721327D01*
X93247681Y-99765757D01*
X93361834Y-99777000D01*
X93361836Y-99777000D01*
X93400000Y-99780759D01*
X93438163Y-99777000D01*
X93629772Y-99777000D01*
X93666816Y-99801752D01*
X93753624Y-99837709D01*
X93845780Y-99856040D01*
X93939740Y-99856040D01*
X94031896Y-99837709D01*
X94118704Y-99801752D01*
X94155748Y-99777000D01*
X96910235Y-99777000D01*
X98339039Y-101205805D01*
X98339040Y-102477863D01*
X98335280Y-102516039D01*
X98339039Y-102554205D01*
X98339040Y-107793478D01*
X96656428Y-109476091D01*
X96619290Y-109420510D01*
X96552850Y-109354070D01*
X96474724Y-109301868D01*
X96387916Y-109265911D01*
X96295760Y-109247580D01*
X96201800Y-109247580D01*
X96109644Y-109265911D01*
X96022836Y-109301868D01*
X95944710Y-109354070D01*
X95878270Y-109420510D01*
X95826068Y-109498636D01*
X95790111Y-109585444D01*
X95771780Y-109677600D01*
X95771780Y-109771560D01*
X95790111Y-109863716D01*
X95826068Y-109950524D01*
X95878270Y-110028650D01*
X95944710Y-110095090D01*
X96000291Y-110132228D01*
X95859649Y-110272869D01*
X95830000Y-110297202D01*
X95805671Y-110326848D01*
X95732903Y-110415516D01*
X95660754Y-110550498D01*
X95660753Y-110550499D01*
X95616323Y-110696964D01*
X95605080Y-110811116D01*
X95601321Y-110849282D01*
X95605080Y-110887446D01*
X95605081Y-113478155D01*
X95130900Y-113952337D01*
X95101960Y-113946580D01*
X95008000Y-113946580D01*
X94915844Y-113964911D01*
X94829036Y-114000868D01*
X94750910Y-114053070D01*
X94684470Y-114119510D01*
X94632268Y-114197636D01*
X94596311Y-114284444D01*
X94577980Y-114376600D01*
X94577980Y-114470560D01*
X94583737Y-114499500D01*
X94068611Y-115014626D01*
X94068605Y-115014631D01*
X93468610Y-115614627D01*
X93468605Y-115614631D01*
X93199773Y-115883463D01*
X93182249Y-115795364D01*
X93146292Y-115708556D01*
X93094090Y-115630430D01*
X93027650Y-115563990D01*
X92949524Y-115511788D01*
X92862716Y-115475831D01*
X92770560Y-115457500D01*
X92676600Y-115457500D01*
X92584444Y-115475831D01*
X92497636Y-115511788D01*
X92419510Y-115563990D01*
X92353070Y-115630430D01*
X92300868Y-115708556D01*
X92264911Y-115795364D01*
X92246580Y-115887520D01*
X92246580Y-115981480D01*
X92264911Y-116073636D01*
X92300868Y-116160444D01*
X92353070Y-116238570D01*
X92419510Y-116305010D01*
X92497636Y-116357212D01*
X92584444Y-116393169D01*
X92676600Y-116411500D01*
X92733239Y-116411500D01*
X92713453Y-116448517D01*
X92669024Y-116594982D01*
X92654021Y-116747300D01*
X92669024Y-116899618D01*
X92713453Y-117046083D01*
X92785603Y-117181066D01*
X92882701Y-117299379D01*
X93001014Y-117396477D01*
X93135997Y-117468627D01*
X93282462Y-117513056D01*
X93434780Y-117528059D01*
X93587098Y-117513056D01*
X93733563Y-117468627D01*
X93868546Y-117396477D01*
X93957214Y-117323709D01*
X94567449Y-116713475D01*
X94567453Y-116713470D01*
X95167449Y-116113475D01*
X95167454Y-116113469D01*
X95597932Y-115682991D01*
X95627044Y-115695049D01*
X95719200Y-115713380D01*
X95813160Y-115713380D01*
X95905316Y-115695049D01*
X95992124Y-115659092D01*
X96070250Y-115606890D01*
X96136690Y-115540450D01*
X96188892Y-115462324D01*
X96224849Y-115375516D01*
X96243180Y-115283360D01*
X96243180Y-115189400D01*
X96224849Y-115097244D01*
X96212791Y-115068133D01*
X96904516Y-114376408D01*
X96934160Y-114352080D01*
X96958489Y-114322435D01*
X97031257Y-114233767D01*
X97103407Y-114098784D01*
X97117274Y-114053070D01*
X97147837Y-113952319D01*
X97159080Y-113838166D01*
X97159080Y-113838157D01*
X97162838Y-113800001D01*
X97159080Y-113761845D01*
X97159080Y-111171125D01*
X99216074Y-109114131D01*
X100961889Y-109114131D01*
X100961889Y-109208091D01*
X100980220Y-109300247D01*
X101016177Y-109387055D01*
X101068379Y-109465181D01*
X101134819Y-109531621D01*
X101212945Y-109583823D01*
X101299753Y-109619780D01*
X101391909Y-109638111D01*
X101485869Y-109638111D01*
X101574985Y-109620385D01*
X101577288Y-109625944D01*
X101629490Y-109704070D01*
X101695930Y-109770510D01*
X101774056Y-109822712D01*
X101860864Y-109858669D01*
X101953020Y-109877000D01*
X102046980Y-109877000D01*
X102139136Y-109858669D01*
X102225944Y-109822712D01*
X102300000Y-109773229D01*
X102374056Y-109822712D01*
X102460864Y-109858669D01*
X102553020Y-109877000D01*
X102646980Y-109877000D01*
X102739136Y-109858669D01*
X102825944Y-109822712D01*
X102904070Y-109770510D01*
X102970510Y-109704070D01*
X103022712Y-109625944D01*
X103058669Y-109539136D01*
X103077000Y-109446980D01*
X103077000Y-109353020D01*
X103058669Y-109260864D01*
X103022712Y-109174056D01*
X102970510Y-109095930D01*
X102904070Y-109029490D01*
X102825944Y-108977288D01*
X102739136Y-108941331D01*
X102646980Y-108923000D01*
X102553020Y-108923000D01*
X102460864Y-108941331D01*
X102374056Y-108977288D01*
X102300000Y-109026771D01*
X102225944Y-108977288D01*
X102139136Y-108941331D01*
X102046980Y-108923000D01*
X101953020Y-108923000D01*
X101863904Y-108940726D01*
X101861601Y-108935167D01*
X101809399Y-108857041D01*
X101742959Y-108790601D01*
X101664833Y-108738399D01*
X101578025Y-108702442D01*
X101485869Y-108684111D01*
X101391909Y-108684111D01*
X101299753Y-108702442D01*
X101212945Y-108738399D01*
X101134819Y-108790601D01*
X101068379Y-108857041D01*
X101016177Y-108935167D01*
X100980220Y-109021975D01*
X100961889Y-109114131D01*
X99216074Y-109114131D01*
X99638475Y-108691731D01*
X99668119Y-108667403D01*
X99692448Y-108637758D01*
X99765216Y-108549090D01*
X99832766Y-108422712D01*
X99837366Y-108414107D01*
X99881796Y-108267642D01*
X99893039Y-108153489D01*
X99893039Y-108153487D01*
X99896798Y-108115323D01*
X99893039Y-108077160D01*
X99893039Y-107953020D01*
X106523000Y-107953020D01*
X106523000Y-108046980D01*
X106541331Y-108139136D01*
X106577288Y-108225944D01*
X106629490Y-108304070D01*
X106695930Y-108370510D01*
X106774056Y-108422712D01*
X106860864Y-108458669D01*
X106953020Y-108477000D01*
X107046980Y-108477000D01*
X107139136Y-108458669D01*
X107225944Y-108422712D01*
X107304070Y-108370510D01*
X107370510Y-108304070D01*
X107422712Y-108225944D01*
X107458669Y-108139136D01*
X107467872Y-108092872D01*
X107514136Y-108083669D01*
X107600944Y-108047712D01*
X107679070Y-107995510D01*
X107745510Y-107929070D01*
X107797712Y-107850944D01*
X107833669Y-107764136D01*
X107842872Y-107717872D01*
X107889136Y-107708669D01*
X107975944Y-107672712D01*
X108054070Y-107620510D01*
X108120510Y-107554070D01*
X108172712Y-107475944D01*
X108208669Y-107389136D01*
X108227000Y-107296980D01*
X108227000Y-107203020D01*
X108208669Y-107110864D01*
X108172712Y-107024056D01*
X108120510Y-106945930D01*
X108054070Y-106879490D01*
X107975944Y-106827288D01*
X107889136Y-106791331D01*
X107796980Y-106773000D01*
X107703020Y-106773000D01*
X107610864Y-106791331D01*
X107524056Y-106827288D01*
X107445930Y-106879490D01*
X107379490Y-106945930D01*
X107327288Y-107024056D01*
X107291331Y-107110864D01*
X107282128Y-107157128D01*
X107235864Y-107166331D01*
X107149056Y-107202288D01*
X107070930Y-107254490D01*
X107004490Y-107320930D01*
X106952288Y-107399056D01*
X106916331Y-107485864D01*
X106907128Y-107532128D01*
X106860864Y-107541331D01*
X106774056Y-107577288D01*
X106695930Y-107629490D01*
X106629490Y-107695930D01*
X106577288Y-107774056D01*
X106541331Y-107860864D01*
X106523000Y-107953020D01*
X99893039Y-107953020D01*
X99893039Y-103264578D01*
X99982745Y-103237366D01*
X100017926Y-103218561D01*
X100412207Y-103218561D01*
X100526360Y-103207318D01*
X100672825Y-103162888D01*
X100807807Y-103090738D01*
X100926121Y-102993641D01*
X101004282Y-102898400D01*
X101302600Y-102898400D01*
X101302600Y-102992360D01*
X101320931Y-103084516D01*
X101356888Y-103171324D01*
X101409090Y-103249450D01*
X101475530Y-103315890D01*
X101553656Y-103368092D01*
X101567668Y-103373896D01*
X101556196Y-103378648D01*
X101478070Y-103430850D01*
X101411630Y-103497290D01*
X101359428Y-103575416D01*
X101323471Y-103662224D01*
X101305140Y-103754380D01*
X101305140Y-103848340D01*
X101323471Y-103940496D01*
X101359428Y-104027304D01*
X101411630Y-104105430D01*
X101478070Y-104171870D01*
X101556196Y-104224072D01*
X101643004Y-104260029D01*
X101735160Y-104278360D01*
X101829120Y-104278360D01*
X101921276Y-104260029D01*
X102008084Y-104224072D01*
X102086210Y-104171870D01*
X102152650Y-104105430D01*
X102204852Y-104027304D01*
X102240809Y-103940496D01*
X102259140Y-103848340D01*
X102259140Y-103754380D01*
X102240809Y-103662224D01*
X102204852Y-103575416D01*
X102152650Y-103497290D01*
X102086210Y-103430850D01*
X102008084Y-103378648D01*
X101994072Y-103372844D01*
X102005544Y-103368092D01*
X102083670Y-103315890D01*
X102150110Y-103249450D01*
X102202312Y-103171324D01*
X102238269Y-103084516D01*
X102256600Y-102992360D01*
X102256600Y-102923800D01*
X105011000Y-102923800D01*
X105011000Y-103017760D01*
X105029331Y-103109916D01*
X105065288Y-103196724D01*
X105117490Y-103274850D01*
X105183930Y-103341290D01*
X105262056Y-103393492D01*
X105348864Y-103429449D01*
X105441020Y-103447780D01*
X105534980Y-103447780D01*
X105627136Y-103429449D01*
X105713944Y-103393492D01*
X105792070Y-103341290D01*
X105858510Y-103274850D01*
X105910712Y-103196724D01*
X105946669Y-103109916D01*
X105965000Y-103017760D01*
X105965000Y-102923800D01*
X105946669Y-102831644D01*
X105910712Y-102744836D01*
X105858510Y-102666710D01*
X105792070Y-102600270D01*
X105713944Y-102548068D01*
X105627136Y-102512111D01*
X105534980Y-102493780D01*
X105441020Y-102493780D01*
X105348864Y-102512111D01*
X105262056Y-102548068D01*
X105183930Y-102600270D01*
X105117490Y-102666710D01*
X105065288Y-102744836D01*
X105029331Y-102831644D01*
X105011000Y-102923800D01*
X102256600Y-102923800D01*
X102256600Y-102898400D01*
X102238269Y-102806244D01*
X102202312Y-102719436D01*
X102150110Y-102641310D01*
X102083670Y-102574870D01*
X102005544Y-102522668D01*
X101918736Y-102486711D01*
X101826580Y-102468380D01*
X101732620Y-102468380D01*
X101640464Y-102486711D01*
X101553656Y-102522668D01*
X101475530Y-102574870D01*
X101409090Y-102641310D01*
X101356888Y-102719436D01*
X101320931Y-102806244D01*
X101302600Y-102898400D01*
X101004282Y-102898400D01*
X101023218Y-102875327D01*
X101095368Y-102740345D01*
X101139798Y-102593880D01*
X101154800Y-102441561D01*
X101139798Y-102289242D01*
X101095368Y-102142777D01*
X101023218Y-102007795D01*
X100978266Y-101953020D01*
X111023000Y-101953020D01*
X111023000Y-102046980D01*
X111041331Y-102139136D01*
X111077288Y-102225944D01*
X111129490Y-102304070D01*
X111195930Y-102370510D01*
X111274056Y-102422712D01*
X111360864Y-102458669D01*
X111453020Y-102477000D01*
X111546980Y-102477000D01*
X111639136Y-102458669D01*
X111725944Y-102422712D01*
X111804070Y-102370510D01*
X111870510Y-102304070D01*
X111922712Y-102225944D01*
X111958669Y-102139136D01*
X111977000Y-102046980D01*
X111977000Y-101953020D01*
X111958669Y-101860864D01*
X111922712Y-101774056D01*
X111870510Y-101695930D01*
X111804070Y-101629490D01*
X111725944Y-101577288D01*
X111639136Y-101541331D01*
X111546980Y-101523000D01*
X111453020Y-101523000D01*
X111360864Y-101541331D01*
X111274056Y-101577288D01*
X111195930Y-101629490D01*
X111129490Y-101695930D01*
X111077288Y-101774056D01*
X111041331Y-101860864D01*
X111023000Y-101953020D01*
X100978266Y-101953020D01*
X100926121Y-101889481D01*
X100807807Y-101792384D01*
X100672825Y-101720234D01*
X100526360Y-101675804D01*
X100412207Y-101664561D01*
X99893039Y-101664561D01*
X99893039Y-101298200D01*
X105112600Y-101298200D01*
X105112600Y-101392160D01*
X105130931Y-101484316D01*
X105166888Y-101571124D01*
X105219090Y-101649250D01*
X105285530Y-101715690D01*
X105363656Y-101767892D01*
X105450464Y-101803849D01*
X105542620Y-101822180D01*
X105636580Y-101822180D01*
X105728736Y-101803849D01*
X105815544Y-101767892D01*
X105893670Y-101715690D01*
X105960110Y-101649250D01*
X106012312Y-101571124D01*
X106048269Y-101484316D01*
X106066600Y-101392160D01*
X106066600Y-101298200D01*
X106048269Y-101206044D01*
X106012312Y-101119236D01*
X105960110Y-101041110D01*
X105893670Y-100974670D01*
X105815544Y-100922468D01*
X105728736Y-100886511D01*
X105636580Y-100868180D01*
X105542620Y-100868180D01*
X105450464Y-100886511D01*
X105363656Y-100922468D01*
X105285530Y-100974670D01*
X105219090Y-101041110D01*
X105166888Y-101119236D01*
X105130931Y-101206044D01*
X105112600Y-101298200D01*
X99893039Y-101298200D01*
X99893039Y-100922116D01*
X99896797Y-100883960D01*
X99893039Y-100845804D01*
X99893039Y-100845795D01*
X99881796Y-100731642D01*
X99837366Y-100585177D01*
X99765216Y-100450194D01*
X99692448Y-100361526D01*
X99692447Y-100361525D01*
X99668119Y-100331881D01*
X99638476Y-100307554D01*
X97828323Y-98497401D01*
X105537601Y-98497401D01*
X105537601Y-98591361D01*
X105555932Y-98683517D01*
X105591889Y-98770325D01*
X105644091Y-98848451D01*
X105710531Y-98914891D01*
X105788657Y-98967093D01*
X105875465Y-99003050D01*
X105967621Y-99021381D01*
X106061581Y-99021381D01*
X106153737Y-99003050D01*
X106240545Y-98967093D01*
X106318671Y-98914891D01*
X106385111Y-98848451D01*
X106437313Y-98770325D01*
X106473270Y-98683517D01*
X106491601Y-98591361D01*
X106491601Y-98497401D01*
X106473270Y-98405245D01*
X106437313Y-98318437D01*
X106385111Y-98240311D01*
X106318671Y-98173871D01*
X106240545Y-98121669D01*
X106153737Y-98085712D01*
X106061581Y-98067381D01*
X105967621Y-98067381D01*
X105875465Y-98085712D01*
X105788657Y-98121669D01*
X105710531Y-98173871D01*
X105644091Y-98240311D01*
X105591889Y-98318437D01*
X105555932Y-98405245D01*
X105537601Y-98497401D01*
X97828323Y-98497401D01*
X97808490Y-98477569D01*
X97784158Y-98447920D01*
X97665844Y-98350823D01*
X97530862Y-98278673D01*
X97384397Y-98234243D01*
X97270244Y-98223000D01*
X97270241Y-98223000D01*
X97232078Y-98219241D01*
X97193915Y-98223000D01*
X93721844Y-98223000D01*
X93317000Y-97818157D01*
X93317000Y-96816819D01*
X93415398Y-96718421D01*
X93538734Y-96533835D01*
X93623690Y-96328734D01*
X93667000Y-96111000D01*
X93667000Y-95889000D01*
X93953000Y-95889000D01*
X93953000Y-96111000D01*
X93996310Y-96328734D01*
X94081266Y-96533835D01*
X94204602Y-96718421D01*
X94361579Y-96875398D01*
X94546165Y-96998734D01*
X94751266Y-97083690D01*
X94969000Y-97127000D01*
X95191000Y-97127000D01*
X95408734Y-97083690D01*
X95613835Y-96998734D01*
X95798421Y-96875398D01*
X95955398Y-96718421D01*
X96078734Y-96533835D01*
X96163690Y-96328734D01*
X96207000Y-96111000D01*
X96207000Y-95889000D01*
X96493000Y-95889000D01*
X96493000Y-96111000D01*
X96536310Y-96328734D01*
X96621266Y-96533835D01*
X96744602Y-96718421D01*
X96901579Y-96875398D01*
X97086165Y-96998734D01*
X97291266Y-97083690D01*
X97509000Y-97127000D01*
X97731000Y-97127000D01*
X97948734Y-97083690D01*
X98153835Y-96998734D01*
X98338421Y-96875398D01*
X98495398Y-96718421D01*
X98618734Y-96533835D01*
X98703690Y-96328734D01*
X98747000Y-96111000D01*
X98747000Y-95889000D01*
X99033000Y-95889000D01*
X99033000Y-96111000D01*
X99076310Y-96328734D01*
X99161266Y-96533835D01*
X99284602Y-96718421D01*
X99441579Y-96875398D01*
X99626165Y-96998734D01*
X99831266Y-97083690D01*
X100049000Y-97127000D01*
X100271000Y-97127000D01*
X100488734Y-97083690D01*
X100693835Y-96998734D01*
X100878421Y-96875398D01*
X101035398Y-96718421D01*
X101158734Y-96533835D01*
X101243690Y-96328734D01*
X101287000Y-96111000D01*
X101287000Y-95889000D01*
X101573000Y-95889000D01*
X101573000Y-96111000D01*
X101616310Y-96328734D01*
X101701266Y-96533835D01*
X101824602Y-96718421D01*
X101981579Y-96875398D01*
X102166165Y-96998734D01*
X102371266Y-97083690D01*
X102589000Y-97127000D01*
X102811000Y-97127000D01*
X103028734Y-97083690D01*
X103233835Y-96998734D01*
X103418421Y-96875398D01*
X103575398Y-96718421D01*
X103698734Y-96533835D01*
X103783690Y-96328734D01*
X103827000Y-96111000D01*
X103827000Y-95889000D01*
X104113000Y-95889000D01*
X104113000Y-96111000D01*
X104156310Y-96328734D01*
X104241266Y-96533835D01*
X104364602Y-96718421D01*
X104521579Y-96875398D01*
X104706165Y-96998734D01*
X104911266Y-97083690D01*
X105129000Y-97127000D01*
X105351000Y-97127000D01*
X105568734Y-97083690D01*
X105773835Y-96998734D01*
X105958421Y-96875398D01*
X106115398Y-96718421D01*
X106238734Y-96533835D01*
X106323690Y-96328734D01*
X106367000Y-96111000D01*
X106367000Y-95889000D01*
X106323690Y-95671266D01*
X106238734Y-95466165D01*
X106115398Y-95281579D01*
X105958421Y-95124602D01*
X105773835Y-95001266D01*
X105568734Y-94916310D01*
X105351000Y-94873000D01*
X105129000Y-94873000D01*
X104911266Y-94916310D01*
X104706165Y-95001266D01*
X104521579Y-95124602D01*
X104364602Y-95281579D01*
X104241266Y-95466165D01*
X104156310Y-95671266D01*
X104113000Y-95889000D01*
X103827000Y-95889000D01*
X103783690Y-95671266D01*
X103698734Y-95466165D01*
X103575398Y-95281579D01*
X103418421Y-95124602D01*
X103233835Y-95001266D01*
X103028734Y-94916310D01*
X102811000Y-94873000D01*
X102589000Y-94873000D01*
X102371266Y-94916310D01*
X102166165Y-95001266D01*
X101981579Y-95124602D01*
X101824602Y-95281579D01*
X101701266Y-95466165D01*
X101616310Y-95671266D01*
X101573000Y-95889000D01*
X101287000Y-95889000D01*
X101243690Y-95671266D01*
X101158734Y-95466165D01*
X101035398Y-95281579D01*
X100878421Y-95124602D01*
X100693835Y-95001266D01*
X100488734Y-94916310D01*
X100271000Y-94873000D01*
X100049000Y-94873000D01*
X99831266Y-94916310D01*
X99626165Y-95001266D01*
X99441579Y-95124602D01*
X99284602Y-95281579D01*
X99161266Y-95466165D01*
X99076310Y-95671266D01*
X99033000Y-95889000D01*
X98747000Y-95889000D01*
X98703690Y-95671266D01*
X98618734Y-95466165D01*
X98495398Y-95281579D01*
X98338421Y-95124602D01*
X98153835Y-95001266D01*
X97948734Y-94916310D01*
X97731000Y-94873000D01*
X97509000Y-94873000D01*
X97291266Y-94916310D01*
X97086165Y-95001266D01*
X96901579Y-95124602D01*
X96744602Y-95281579D01*
X96621266Y-95466165D01*
X96536310Y-95671266D01*
X96493000Y-95889000D01*
X96207000Y-95889000D01*
X96163690Y-95671266D01*
X96078734Y-95466165D01*
X95955398Y-95281579D01*
X95798421Y-95124602D01*
X95613835Y-95001266D01*
X95408734Y-94916310D01*
X95191000Y-94873000D01*
X94969000Y-94873000D01*
X94751266Y-94916310D01*
X94546165Y-95001266D01*
X94361579Y-95124602D01*
X94204602Y-95281579D01*
X94081266Y-95466165D01*
X93996310Y-95671266D01*
X93953000Y-95889000D01*
X93667000Y-95889000D01*
X93623690Y-95671266D01*
X93538734Y-95466165D01*
X93415398Y-95281579D01*
X93258421Y-95124602D01*
X93073835Y-95001266D01*
X92868734Y-94916310D01*
X92651000Y-94873000D01*
X92429000Y-94873000D01*
X92211266Y-94916310D01*
X92006165Y-95001266D01*
X91821579Y-95124602D01*
X91664602Y-95281579D01*
X91541266Y-95466165D01*
X91485619Y-95600508D01*
X91488072Y-95150000D01*
X91475812Y-95025518D01*
X91439502Y-94905820D01*
X91380537Y-94795506D01*
X91301185Y-94698815D01*
X91204494Y-94619463D01*
X91094180Y-94560498D01*
X90974482Y-94524188D01*
X90850000Y-94511928D01*
X90285750Y-94515000D01*
X90127000Y-94673750D01*
X89873000Y-94673750D01*
X89714250Y-94515000D01*
X89150000Y-94511928D01*
X89025518Y-94524188D01*
X88905820Y-94560498D01*
X88795506Y-94619463D01*
X88698815Y-94698815D01*
X88619463Y-94795506D01*
X88560498Y-94905820D01*
X88524188Y-95025518D01*
X88511928Y-95150000D01*
X87327000Y-95150000D01*
X87327000Y-94508328D01*
X87340769Y-94403743D01*
X87377923Y-94314045D01*
X87437024Y-94237024D01*
X87514045Y-94177923D01*
X87603743Y-94140769D01*
X87708328Y-94127000D01*
X112991672Y-94127000D01*
X113096257Y-94140769D01*
%TA.AperFunction,Conductor*%
D22*
G36*
X113096257Y-94140769D02*
G01*
X113185955Y-94177923D01*
X113262976Y-94237024D01*
X113322077Y-94314045D01*
X113359231Y-94403743D01*
X113373000Y-94508328D01*
X113373000Y-112220011D01*
X113374033Y-112236174D01*
X113390231Y-112362411D01*
X113398393Y-112393692D01*
X113445938Y-112511749D01*
X113461732Y-112539954D01*
X113537543Y-112642184D01*
X113559947Y-112665488D01*
X113659112Y-112745265D01*
X113672354Y-112754592D01*
X120937995Y-117207726D01*
X121018141Y-117272203D01*
X121074540Y-117348255D01*
X121109909Y-117436079D01*
X121123000Y-117538101D01*
X121123000Y-129014415D01*
X121109207Y-129119089D01*
X121071992Y-129208848D01*
X121012792Y-129285906D01*
X120935658Y-129344995D01*
X120845841Y-129382090D01*
X120741157Y-129395738D01*
X87707806Y-129350261D01*
X87603332Y-129336373D01*
X87513749Y-129299159D01*
X87436842Y-129240048D01*
X87377834Y-129163055D01*
X87340743Y-129073424D01*
X87327000Y-128968938D01*
X87327000Y-125203020D01*
X92523000Y-125203020D01*
X92523000Y-125296980D01*
X92541331Y-125389136D01*
X92577288Y-125475944D01*
X92629490Y-125554070D01*
X92695930Y-125620510D01*
X92774056Y-125672712D01*
X92860864Y-125708669D01*
X92953020Y-125727000D01*
X93046980Y-125727000D01*
X93139136Y-125708669D01*
X93225944Y-125672712D01*
X93304070Y-125620510D01*
X93370510Y-125554070D01*
X93422712Y-125475944D01*
X93458669Y-125389136D01*
X93477000Y-125296980D01*
X93477000Y-125250000D01*
X112971660Y-125250000D01*
X112971660Y-128250000D01*
X112977008Y-128304301D01*
X112992847Y-128356516D01*
X113018569Y-128404637D01*
X113053184Y-128446816D01*
X113095363Y-128481431D01*
X113143484Y-128507153D01*
X113195699Y-128522992D01*
X113250000Y-128528340D01*
X116250000Y-128528340D01*
X116304301Y-128522992D01*
X116356516Y-128507153D01*
X116404637Y-128481431D01*
X116446816Y-128446816D01*
X116481431Y-128404637D01*
X116507153Y-128356516D01*
X116522992Y-128304301D01*
X116528340Y-128250000D01*
X116611928Y-128250000D01*
X116624188Y-128374482D01*
X116660498Y-128494180D01*
X116719463Y-128604494D01*
X116798815Y-128701185D01*
X116895506Y-128780537D01*
X117005820Y-128839502D01*
X117125518Y-128875812D01*
X117250000Y-128888072D01*
X118464250Y-128885000D01*
X118623000Y-128726250D01*
X118623000Y-126877000D01*
X118877000Y-126877000D01*
X118877000Y-128726250D01*
X119035750Y-128885000D01*
X120250000Y-128888072D01*
X120374482Y-128875812D01*
X120494180Y-128839502D01*
X120604494Y-128780537D01*
X120701185Y-128701185D01*
X120780537Y-128604494D01*
X120839502Y-128494180D01*
X120875812Y-128374482D01*
X120888072Y-128250000D01*
X120885000Y-127035750D01*
X120726250Y-126877000D01*
X118877000Y-126877000D01*
X118623000Y-126877000D01*
X116773750Y-126877000D01*
X116615000Y-127035750D01*
X116611928Y-128250000D01*
X116528340Y-128250000D01*
X116528340Y-125250000D01*
X116611928Y-125250000D01*
X116615000Y-126464250D01*
X116773750Y-126623000D01*
X118623000Y-126623000D01*
X118623000Y-124773750D01*
X118877000Y-124773750D01*
X118877000Y-126623000D01*
X120726250Y-126623000D01*
X120885000Y-126464250D01*
X120888072Y-125250000D01*
X120875812Y-125125518D01*
X120839502Y-125005820D01*
X120780537Y-124895506D01*
X120701185Y-124798815D01*
X120604494Y-124719463D01*
X120494180Y-124660498D01*
X120374482Y-124624188D01*
X120250000Y-124611928D01*
X119035750Y-124615000D01*
X118877000Y-124773750D01*
X118623000Y-124773750D01*
X118464250Y-124615000D01*
X117250000Y-124611928D01*
X117125518Y-124624188D01*
X117005820Y-124660498D01*
X116895506Y-124719463D01*
X116798815Y-124798815D01*
X116719463Y-124895506D01*
X116660498Y-125005820D01*
X116624188Y-125125518D01*
X116611928Y-125250000D01*
X116528340Y-125250000D01*
X116522992Y-125195699D01*
X116507153Y-125143484D01*
X116481431Y-125095363D01*
X116446816Y-125053184D01*
X116404637Y-125018569D01*
X116356516Y-124992847D01*
X116304301Y-124977008D01*
X116250000Y-124971660D01*
X113250000Y-124971660D01*
X113195699Y-124977008D01*
X113143484Y-124992847D01*
X113095363Y-125018569D01*
X113053184Y-125053184D01*
X113018569Y-125095363D01*
X112992847Y-125143484D01*
X112977008Y-125195699D01*
X112971660Y-125250000D01*
X93477000Y-125250000D01*
X93477000Y-125203020D01*
X93458669Y-125110864D01*
X93422712Y-125024056D01*
X93370510Y-124945930D01*
X93304070Y-124879490D01*
X93225944Y-124827288D01*
X93139136Y-124791331D01*
X93046980Y-124773000D01*
X92953020Y-124773000D01*
X92860864Y-124791331D01*
X92774056Y-124827288D01*
X92695930Y-124879490D01*
X92629490Y-124945930D01*
X92577288Y-125024056D01*
X92541331Y-125110864D01*
X92523000Y-125203020D01*
X87327000Y-125203020D01*
X87327000Y-124471029D01*
X87389136Y-124458669D01*
X87475944Y-124422712D01*
X87554070Y-124370510D01*
X87620510Y-124304070D01*
X87672712Y-124225944D01*
X87708669Y-124139136D01*
X87727000Y-124046980D01*
X87727000Y-123953020D01*
X87708669Y-123860864D01*
X87672712Y-123774056D01*
X87620510Y-123695930D01*
X87554070Y-123629490D01*
X87475944Y-123577288D01*
X87389136Y-123541331D01*
X87342872Y-123532128D01*
X87333669Y-123485864D01*
X87327000Y-123469764D01*
X87327000Y-121399320D01*
X91763980Y-121399320D01*
X91763980Y-121493280D01*
X91782311Y-121585436D01*
X91818268Y-121672244D01*
X91870470Y-121750370D01*
X91936910Y-121816810D01*
X92015036Y-121869012D01*
X92101844Y-121904969D01*
X92194000Y-121923300D01*
X92287960Y-121923300D01*
X92380116Y-121904969D01*
X92466924Y-121869012D01*
X92545050Y-121816810D01*
X92611490Y-121750370D01*
X92663692Y-121672244D01*
X92699649Y-121585436D01*
X92716460Y-121500920D01*
X93399740Y-121500920D01*
X93399740Y-121594880D01*
X93418071Y-121687036D01*
X93454028Y-121773844D01*
X93506230Y-121851970D01*
X93572670Y-121918410D01*
X93650796Y-121970612D01*
X93737604Y-122006569D01*
X93829760Y-122024900D01*
X93923720Y-122024900D01*
X94015876Y-122006569D01*
X94102684Y-121970612D01*
X94169568Y-121925921D01*
X96190379Y-121925921D01*
X96190379Y-122019881D01*
X96208710Y-122112037D01*
X96244667Y-122198845D01*
X96296869Y-122276971D01*
X96363309Y-122343411D01*
X96441435Y-122395613D01*
X96528243Y-122431570D01*
X96620399Y-122449901D01*
X96714359Y-122449901D01*
X96806515Y-122431570D01*
X96893323Y-122395613D01*
X96971449Y-122343411D01*
X97037889Y-122276971D01*
X97090091Y-122198845D01*
X97126048Y-122112037D01*
X97144379Y-122019881D01*
X97144379Y-121925921D01*
X97126048Y-121833765D01*
X97090091Y-121746957D01*
X97037889Y-121668831D01*
X96971449Y-121602391D01*
X96893323Y-121550189D01*
X96806515Y-121514232D01*
X96714359Y-121495901D01*
X96620399Y-121495901D01*
X96528243Y-121514232D01*
X96441435Y-121550189D01*
X96363309Y-121602391D01*
X96296869Y-121668831D01*
X96244667Y-121746957D01*
X96208710Y-121833765D01*
X96190379Y-121925921D01*
X94169568Y-121925921D01*
X94180810Y-121918410D01*
X94247250Y-121851970D01*
X94299452Y-121773844D01*
X94335409Y-121687036D01*
X94353740Y-121594880D01*
X94353740Y-121500920D01*
X94335409Y-121408764D01*
X94299452Y-121321956D01*
X94247250Y-121243830D01*
X94180810Y-121177390D01*
X94102684Y-121125188D01*
X94015876Y-121089231D01*
X93923720Y-121070900D01*
X93829760Y-121070900D01*
X93737604Y-121089231D01*
X93650796Y-121125188D01*
X93572670Y-121177390D01*
X93506230Y-121243830D01*
X93454028Y-121321956D01*
X93418071Y-121408764D01*
X93399740Y-121500920D01*
X92716460Y-121500920D01*
X92717980Y-121493280D01*
X92717980Y-121399320D01*
X92699649Y-121307164D01*
X92663692Y-121220356D01*
X92611490Y-121142230D01*
X92545050Y-121075790D01*
X92466924Y-121023588D01*
X92380116Y-120987631D01*
X92287960Y-120969300D01*
X92194000Y-120969300D01*
X92101844Y-120987631D01*
X92015036Y-121023588D01*
X91936910Y-121075790D01*
X91870470Y-121142230D01*
X91818268Y-121220356D01*
X91782311Y-121307164D01*
X91763980Y-121399320D01*
X87327000Y-121399320D01*
X87327000Y-117690920D01*
X91799540Y-117690920D01*
X91799540Y-117784880D01*
X91817871Y-117877036D01*
X91853828Y-117963844D01*
X91906030Y-118041970D01*
X91972470Y-118108410D01*
X92050596Y-118160612D01*
X92137404Y-118196569D01*
X92229560Y-118214900D01*
X92323520Y-118214900D01*
X92415676Y-118196569D01*
X92502484Y-118160612D01*
X92580610Y-118108410D01*
X92647050Y-118041970D01*
X92699252Y-117963844D01*
X92735209Y-117877036D01*
X92753540Y-117784880D01*
X92753540Y-117690920D01*
X92735209Y-117598764D01*
X92699252Y-117511956D01*
X92647050Y-117433830D01*
X92580610Y-117367390D01*
X92502484Y-117315188D01*
X92415676Y-117279231D01*
X92323520Y-117260900D01*
X92229560Y-117260900D01*
X92137404Y-117279231D01*
X92050596Y-117315188D01*
X91972470Y-117367390D01*
X91906030Y-117433830D01*
X91853828Y-117511956D01*
X91817871Y-117598764D01*
X91799540Y-117690920D01*
X87327000Y-117690920D01*
X87327000Y-109150999D01*
X91345381Y-109150999D01*
X91345381Y-109244959D01*
X91363712Y-109337115D01*
X91399669Y-109423923D01*
X91451871Y-109502049D01*
X91518311Y-109568489D01*
X91596437Y-109620691D01*
X91683245Y-109656648D01*
X91775401Y-109674979D01*
X91869361Y-109674979D01*
X91961517Y-109656648D01*
X92048325Y-109620691D01*
X92115209Y-109576000D01*
X94146180Y-109576000D01*
X94146180Y-109669960D01*
X94164511Y-109762116D01*
X94200468Y-109848924D01*
X94252670Y-109927050D01*
X94319110Y-109993490D01*
X94397236Y-110045692D01*
X94484044Y-110081649D01*
X94576200Y-110099980D01*
X94670160Y-110099980D01*
X94762316Y-110081649D01*
X94849124Y-110045692D01*
X94927250Y-109993490D01*
X94993690Y-109927050D01*
X95045892Y-109848924D01*
X95081849Y-109762116D01*
X95100180Y-109669960D01*
X95100180Y-109576000D01*
X95081849Y-109483844D01*
X95045892Y-109397036D01*
X94993690Y-109318910D01*
X94927250Y-109252470D01*
X94849124Y-109200268D01*
X94762316Y-109164311D01*
X94670160Y-109145980D01*
X94576200Y-109145980D01*
X94484044Y-109164311D01*
X94397236Y-109200268D01*
X94319110Y-109252470D01*
X94252670Y-109318910D01*
X94200468Y-109397036D01*
X94164511Y-109483844D01*
X94146180Y-109576000D01*
X92115209Y-109576000D01*
X92126451Y-109568489D01*
X92192891Y-109502049D01*
X92245093Y-109423923D01*
X92281050Y-109337115D01*
X92299381Y-109244959D01*
X92299381Y-109150999D01*
X92281050Y-109058843D01*
X92245093Y-108972035D01*
X92192891Y-108893909D01*
X92126451Y-108827469D01*
X92048325Y-108775267D01*
X91961517Y-108739310D01*
X91869361Y-108720979D01*
X91775401Y-108720979D01*
X91683245Y-108739310D01*
X91596437Y-108775267D01*
X91518311Y-108827469D01*
X91451871Y-108893909D01*
X91399669Y-108972035D01*
X91363712Y-109058843D01*
X91345381Y-109150999D01*
X87327000Y-109150999D01*
X87327000Y-105453020D01*
X87773000Y-105453020D01*
X87773000Y-105546980D01*
X87791331Y-105639136D01*
X87827288Y-105725944D01*
X87843362Y-105750000D01*
X87827288Y-105774056D01*
X87791331Y-105860864D01*
X87773000Y-105953020D01*
X87773000Y-106046980D01*
X87791331Y-106139136D01*
X87827288Y-106225944D01*
X87879490Y-106304070D01*
X87945930Y-106370510D01*
X88024056Y-106422712D01*
X88110864Y-106458669D01*
X88203020Y-106477000D01*
X88296980Y-106477000D01*
X88389136Y-106458669D01*
X88475944Y-106422712D01*
X88554070Y-106370510D01*
X88620510Y-106304070D01*
X88672712Y-106225944D01*
X88708669Y-106139136D01*
X88727000Y-106046980D01*
X88727000Y-105953020D01*
X88708669Y-105860864D01*
X88672712Y-105774056D01*
X88656638Y-105750000D01*
X88672712Y-105725944D01*
X88708669Y-105639136D01*
X88727000Y-105546980D01*
X88727000Y-105453020D01*
X88708669Y-105360864D01*
X88672712Y-105274056D01*
X88620510Y-105195930D01*
X88554070Y-105129490D01*
X88475944Y-105077288D01*
X88389136Y-105041331D01*
X88296980Y-105023000D01*
X88203020Y-105023000D01*
X88110864Y-105041331D01*
X88024056Y-105077288D01*
X87945930Y-105129490D01*
X87879490Y-105195930D01*
X87827288Y-105274056D01*
X87791331Y-105360864D01*
X87773000Y-105453020D01*
X87327000Y-105453020D01*
X87327000Y-104031060D01*
X92221960Y-104031060D01*
X92221960Y-104125020D01*
X92240291Y-104217176D01*
X92276248Y-104303984D01*
X92328450Y-104382110D01*
X92394890Y-104448550D01*
X92473016Y-104500752D01*
X92559824Y-104536709D01*
X92651980Y-104555040D01*
X92745940Y-104555040D01*
X92838096Y-104536709D01*
X92924904Y-104500752D01*
X93003030Y-104448550D01*
X93069470Y-104382110D01*
X93121672Y-104303984D01*
X93157629Y-104217176D01*
X93174440Y-104132660D01*
X93847560Y-104132660D01*
X93847560Y-104226620D01*
X93865891Y-104318776D01*
X93901848Y-104405584D01*
X93954050Y-104483710D01*
X94020490Y-104550150D01*
X94098616Y-104602352D01*
X94185424Y-104638309D01*
X94277580Y-104656640D01*
X94371540Y-104656640D01*
X94463696Y-104638309D01*
X94550504Y-104602352D01*
X94617388Y-104557661D01*
X96648359Y-104557661D01*
X96648359Y-104651621D01*
X96666690Y-104743777D01*
X96702647Y-104830585D01*
X96754849Y-104908711D01*
X96821289Y-104975151D01*
X96899415Y-105027353D01*
X96986223Y-105063310D01*
X97078379Y-105081641D01*
X97172339Y-105081641D01*
X97264495Y-105063310D01*
X97351303Y-105027353D01*
X97429429Y-104975151D01*
X97495869Y-104908711D01*
X97548071Y-104830585D01*
X97584028Y-104743777D01*
X97602359Y-104651621D01*
X97602359Y-104557661D01*
X97584028Y-104465505D01*
X97548071Y-104378697D01*
X97495869Y-104300571D01*
X97429429Y-104234131D01*
X97351303Y-104181929D01*
X97264495Y-104145972D01*
X97172339Y-104127641D01*
X97078379Y-104127641D01*
X96986223Y-104145972D01*
X96899415Y-104181929D01*
X96821289Y-104234131D01*
X96754849Y-104300571D01*
X96702647Y-104378697D01*
X96666690Y-104465505D01*
X96648359Y-104557661D01*
X94617388Y-104557661D01*
X94628630Y-104550150D01*
X94695070Y-104483710D01*
X94747272Y-104405584D01*
X94783229Y-104318776D01*
X94801560Y-104226620D01*
X94801560Y-104132660D01*
X94783229Y-104040504D01*
X94747272Y-103953696D01*
X94695070Y-103875570D01*
X94628630Y-103809130D01*
X94550504Y-103756928D01*
X94463696Y-103720971D01*
X94371540Y-103702640D01*
X94277580Y-103702640D01*
X94185424Y-103720971D01*
X94098616Y-103756928D01*
X94020490Y-103809130D01*
X93954050Y-103875570D01*
X93901848Y-103953696D01*
X93865891Y-104040504D01*
X93847560Y-104132660D01*
X93174440Y-104132660D01*
X93175960Y-104125020D01*
X93175960Y-104031060D01*
X93157629Y-103938904D01*
X93121672Y-103852096D01*
X93069470Y-103773970D01*
X93003030Y-103707530D01*
X92924904Y-103655328D01*
X92838096Y-103619371D01*
X92745940Y-103601040D01*
X92651980Y-103601040D01*
X92559824Y-103619371D01*
X92473016Y-103655328D01*
X92394890Y-103707530D01*
X92328450Y-103773970D01*
X92276248Y-103852096D01*
X92240291Y-103938904D01*
X92221960Y-104031060D01*
X87327000Y-104031060D01*
X87327000Y-100322660D01*
X92247360Y-100322660D01*
X92247360Y-100416620D01*
X92265691Y-100508776D01*
X92301648Y-100595584D01*
X92353850Y-100673710D01*
X92420290Y-100740150D01*
X92498416Y-100792352D01*
X92585224Y-100828309D01*
X92677380Y-100846640D01*
X92771340Y-100846640D01*
X92863496Y-100828309D01*
X92950304Y-100792352D01*
X93028430Y-100740150D01*
X93094870Y-100673710D01*
X93147072Y-100595584D01*
X93183029Y-100508776D01*
X93201360Y-100416620D01*
X93201360Y-100322660D01*
X93183029Y-100230504D01*
X93147072Y-100143696D01*
X93094870Y-100065570D01*
X93028430Y-99999130D01*
X92950304Y-99946928D01*
X92863496Y-99910971D01*
X92771340Y-99892640D01*
X92677380Y-99892640D01*
X92585224Y-99910971D01*
X92498416Y-99946928D01*
X92420290Y-99999130D01*
X92353850Y-100065570D01*
X92301648Y-100143696D01*
X92265691Y-100230504D01*
X92247360Y-100322660D01*
X87327000Y-100322660D01*
X87327000Y-96850000D01*
X88511928Y-96850000D01*
X88524188Y-96974482D01*
X88560498Y-97094180D01*
X88619463Y-97204494D01*
X88698815Y-97301185D01*
X88795506Y-97380537D01*
X88905820Y-97439502D01*
X89025518Y-97475812D01*
X89150000Y-97488072D01*
X89714250Y-97485000D01*
X89873000Y-97326250D01*
X89873000Y-96127000D01*
X88673750Y-96127000D01*
X88515000Y-96285750D01*
X88511928Y-96850000D01*
X87327000Y-96850000D01*
X87327000Y-95150000D01*
X88511928Y-95150000D01*
X88515000Y-95714250D01*
X88673750Y-95873000D01*
X89873000Y-95873000D01*
X89873000Y-94673750D01*
X90127000Y-94673750D01*
X90127000Y-95873000D01*
X90147000Y-95873000D01*
X90147000Y-96127000D01*
X90127000Y-96127000D01*
X90127000Y-97326250D01*
X90285750Y-97485000D01*
X90850000Y-97488072D01*
X90974482Y-97475812D01*
X91094180Y-97439502D01*
X91204494Y-97380537D01*
X91301185Y-97301185D01*
X91380537Y-97204494D01*
X91439502Y-97094180D01*
X91475812Y-96974482D01*
X91488072Y-96850000D01*
X91485619Y-96399492D01*
X91541266Y-96533835D01*
X91664602Y-96718421D01*
X91763000Y-96816819D01*
X91763001Y-98101827D01*
X91759241Y-98140000D01*
X91774244Y-98292318D01*
X91818673Y-98438783D01*
X91890823Y-98573766D01*
X91963591Y-98662434D01*
X91987921Y-98692080D01*
X92017565Y-98716408D01*
X92823590Y-99522434D01*
X92847920Y-99552080D01*
X92877564Y-99576408D01*
X92877565Y-99576409D01*
X92966234Y-99649178D01*
X93054199Y-99696195D01*
X93101216Y-99721327D01*
X93247681Y-99765757D01*
X93361834Y-99777000D01*
X93361836Y-99777000D01*
X93400000Y-99780759D01*
X93438163Y-99777000D01*
X93629772Y-99777000D01*
X93666816Y-99801752D01*
X93753624Y-99837709D01*
X93845780Y-99856040D01*
X93939740Y-99856040D01*
X94031896Y-99837709D01*
X94118704Y-99801752D01*
X94155748Y-99777000D01*
X96910235Y-99777000D01*
X98339039Y-101205805D01*
X98339040Y-102477863D01*
X98335280Y-102516039D01*
X98339039Y-102554205D01*
X98339040Y-107793478D01*
X96656428Y-109476091D01*
X96619290Y-109420510D01*
X96552850Y-109354070D01*
X96474724Y-109301868D01*
X96387916Y-109265911D01*
X96295760Y-109247580D01*
X96201800Y-109247580D01*
X96109644Y-109265911D01*
X96022836Y-109301868D01*
X95944710Y-109354070D01*
X95878270Y-109420510D01*
X95826068Y-109498636D01*
X95790111Y-109585444D01*
X95771780Y-109677600D01*
X95771780Y-109771560D01*
X95790111Y-109863716D01*
X95826068Y-109950524D01*
X95878270Y-110028650D01*
X95944710Y-110095090D01*
X96000291Y-110132228D01*
X95859649Y-110272869D01*
X95830000Y-110297202D01*
X95805671Y-110326848D01*
X95732903Y-110415516D01*
X95660754Y-110550498D01*
X95660753Y-110550499D01*
X95616323Y-110696964D01*
X95605080Y-110811116D01*
X95601321Y-110849282D01*
X95605080Y-110887446D01*
X95605081Y-113478155D01*
X95130900Y-113952337D01*
X95101960Y-113946580D01*
X95008000Y-113946580D01*
X94915844Y-113964911D01*
X94829036Y-114000868D01*
X94750910Y-114053070D01*
X94684470Y-114119510D01*
X94632268Y-114197636D01*
X94596311Y-114284444D01*
X94577980Y-114376600D01*
X94577980Y-114470560D01*
X94583737Y-114499500D01*
X94068611Y-115014626D01*
X94068605Y-115014631D01*
X93468610Y-115614627D01*
X93468605Y-115614631D01*
X93199773Y-115883463D01*
X93182249Y-115795364D01*
X93146292Y-115708556D01*
X93094090Y-115630430D01*
X93027650Y-115563990D01*
X92949524Y-115511788D01*
X92862716Y-115475831D01*
X92770560Y-115457500D01*
X92676600Y-115457500D01*
X92584444Y-115475831D01*
X92497636Y-115511788D01*
X92419510Y-115563990D01*
X92353070Y-115630430D01*
X92300868Y-115708556D01*
X92264911Y-115795364D01*
X92246580Y-115887520D01*
X92246580Y-115981480D01*
X92264911Y-116073636D01*
X92300868Y-116160444D01*
X92353070Y-116238570D01*
X92419510Y-116305010D01*
X92497636Y-116357212D01*
X92584444Y-116393169D01*
X92676600Y-116411500D01*
X92733239Y-116411500D01*
X92713453Y-116448517D01*
X92669024Y-116594982D01*
X92654021Y-116747300D01*
X92669024Y-116899618D01*
X92713453Y-117046083D01*
X92785603Y-117181066D01*
X92882701Y-117299379D01*
X93001014Y-117396477D01*
X93135997Y-117468627D01*
X93282462Y-117513056D01*
X93434780Y-117528059D01*
X93587098Y-117513056D01*
X93733563Y-117468627D01*
X93868546Y-117396477D01*
X93957214Y-117323709D01*
X94567449Y-116713475D01*
X94567453Y-116713470D01*
X95167449Y-116113475D01*
X95167454Y-116113469D01*
X95597932Y-115682991D01*
X95627044Y-115695049D01*
X95719200Y-115713380D01*
X95813160Y-115713380D01*
X95905316Y-115695049D01*
X95992124Y-115659092D01*
X96070250Y-115606890D01*
X96136690Y-115540450D01*
X96188892Y-115462324D01*
X96224849Y-115375516D01*
X96243180Y-115283360D01*
X96243180Y-115189400D01*
X96224849Y-115097244D01*
X96212791Y-115068133D01*
X96904516Y-114376408D01*
X96934160Y-114352080D01*
X96958489Y-114322435D01*
X97031257Y-114233767D01*
X97103407Y-114098784D01*
X97117274Y-114053070D01*
X97147837Y-113952319D01*
X97159080Y-113838166D01*
X97159080Y-113838157D01*
X97162838Y-113800001D01*
X97159080Y-113761845D01*
X97159080Y-111171125D01*
X99216074Y-109114131D01*
X100961889Y-109114131D01*
X100961889Y-109208091D01*
X100980220Y-109300247D01*
X101016177Y-109387055D01*
X101068379Y-109465181D01*
X101134819Y-109531621D01*
X101212945Y-109583823D01*
X101299753Y-109619780D01*
X101391909Y-109638111D01*
X101485869Y-109638111D01*
X101574985Y-109620385D01*
X101577288Y-109625944D01*
X101629490Y-109704070D01*
X101695930Y-109770510D01*
X101774056Y-109822712D01*
X101860864Y-109858669D01*
X101953020Y-109877000D01*
X102046980Y-109877000D01*
X102139136Y-109858669D01*
X102225944Y-109822712D01*
X102300000Y-109773229D01*
X102374056Y-109822712D01*
X102460864Y-109858669D01*
X102553020Y-109877000D01*
X102646980Y-109877000D01*
X102739136Y-109858669D01*
X102825944Y-109822712D01*
X102904070Y-109770510D01*
X102970510Y-109704070D01*
X103022712Y-109625944D01*
X103058669Y-109539136D01*
X103077000Y-109446980D01*
X103077000Y-109353020D01*
X103058669Y-109260864D01*
X103022712Y-109174056D01*
X102970510Y-109095930D01*
X102904070Y-109029490D01*
X102825944Y-108977288D01*
X102739136Y-108941331D01*
X102646980Y-108923000D01*
X102553020Y-108923000D01*
X102460864Y-108941331D01*
X102374056Y-108977288D01*
X102300000Y-109026771D01*
X102225944Y-108977288D01*
X102139136Y-108941331D01*
X102046980Y-108923000D01*
X101953020Y-108923000D01*
X101863904Y-108940726D01*
X101861601Y-108935167D01*
X101809399Y-108857041D01*
X101742959Y-108790601D01*
X101664833Y-108738399D01*
X101578025Y-108702442D01*
X101485869Y-108684111D01*
X101391909Y-108684111D01*
X101299753Y-108702442D01*
X101212945Y-108738399D01*
X101134819Y-108790601D01*
X101068379Y-108857041D01*
X101016177Y-108935167D01*
X100980220Y-109021975D01*
X100961889Y-109114131D01*
X99216074Y-109114131D01*
X99638475Y-108691731D01*
X99668119Y-108667403D01*
X99692448Y-108637758D01*
X99765216Y-108549090D01*
X99832766Y-108422712D01*
X99837366Y-108414107D01*
X99881796Y-108267642D01*
X99893039Y-108153489D01*
X99893039Y-108153487D01*
X99896798Y-108115323D01*
X99893039Y-108077160D01*
X99893039Y-107953020D01*
X106523000Y-107953020D01*
X106523000Y-108046980D01*
X106541331Y-108139136D01*
X106577288Y-108225944D01*
X106629490Y-108304070D01*
X106695930Y-108370510D01*
X106774056Y-108422712D01*
X106860864Y-108458669D01*
X106953020Y-108477000D01*
X107046980Y-108477000D01*
X107139136Y-108458669D01*
X107225944Y-108422712D01*
X107304070Y-108370510D01*
X107370510Y-108304070D01*
X107422712Y-108225944D01*
X107458669Y-108139136D01*
X107467872Y-108092872D01*
X107514136Y-108083669D01*
X107600944Y-108047712D01*
X107679070Y-107995510D01*
X107745510Y-107929070D01*
X107797712Y-107850944D01*
X107833669Y-107764136D01*
X107842872Y-107717872D01*
X107889136Y-107708669D01*
X107975944Y-107672712D01*
X108054070Y-107620510D01*
X108120510Y-107554070D01*
X108172712Y-107475944D01*
X108208669Y-107389136D01*
X108227000Y-107296980D01*
X108227000Y-107203020D01*
X108208669Y-107110864D01*
X108172712Y-107024056D01*
X108120510Y-106945930D01*
X108054070Y-106879490D01*
X107975944Y-106827288D01*
X107889136Y-106791331D01*
X107796980Y-106773000D01*
X107703020Y-106773000D01*
X107610864Y-106791331D01*
X107524056Y-106827288D01*
X107445930Y-106879490D01*
X107379490Y-106945930D01*
X107327288Y-107024056D01*
X107291331Y-107110864D01*
X107282128Y-107157128D01*
X107235864Y-107166331D01*
X107149056Y-107202288D01*
X107070930Y-107254490D01*
X107004490Y-107320930D01*
X106952288Y-107399056D01*
X106916331Y-107485864D01*
X106907128Y-107532128D01*
X106860864Y-107541331D01*
X106774056Y-107577288D01*
X106695930Y-107629490D01*
X106629490Y-107695930D01*
X106577288Y-107774056D01*
X106541331Y-107860864D01*
X106523000Y-107953020D01*
X99893039Y-107953020D01*
X99893039Y-103264578D01*
X99982745Y-103237366D01*
X100017926Y-103218561D01*
X100412207Y-103218561D01*
X100526360Y-103207318D01*
X100672825Y-103162888D01*
X100807807Y-103090738D01*
X100926121Y-102993641D01*
X101004282Y-102898400D01*
X101302600Y-102898400D01*
X101302600Y-102992360D01*
X101320931Y-103084516D01*
X101356888Y-103171324D01*
X101409090Y-103249450D01*
X101475530Y-103315890D01*
X101553656Y-103368092D01*
X101567668Y-103373896D01*
X101556196Y-103378648D01*
X101478070Y-103430850D01*
X101411630Y-103497290D01*
X101359428Y-103575416D01*
X101323471Y-103662224D01*
X101305140Y-103754380D01*
X101305140Y-103848340D01*
X101323471Y-103940496D01*
X101359428Y-104027304D01*
X101411630Y-104105430D01*
X101478070Y-104171870D01*
X101556196Y-104224072D01*
X101643004Y-104260029D01*
X101735160Y-104278360D01*
X101829120Y-104278360D01*
X101921276Y-104260029D01*
X102008084Y-104224072D01*
X102086210Y-104171870D01*
X102152650Y-104105430D01*
X102204852Y-104027304D01*
X102240809Y-103940496D01*
X102259140Y-103848340D01*
X102259140Y-103754380D01*
X102240809Y-103662224D01*
X102204852Y-103575416D01*
X102152650Y-103497290D01*
X102086210Y-103430850D01*
X102008084Y-103378648D01*
X101994072Y-103372844D01*
X102005544Y-103368092D01*
X102083670Y-103315890D01*
X102150110Y-103249450D01*
X102202312Y-103171324D01*
X102238269Y-103084516D01*
X102256600Y-102992360D01*
X102256600Y-102923800D01*
X105011000Y-102923800D01*
X105011000Y-103017760D01*
X105029331Y-103109916D01*
X105065288Y-103196724D01*
X105117490Y-103274850D01*
X105183930Y-103341290D01*
X105262056Y-103393492D01*
X105348864Y-103429449D01*
X105441020Y-103447780D01*
X105534980Y-103447780D01*
X105627136Y-103429449D01*
X105713944Y-103393492D01*
X105792070Y-103341290D01*
X105858510Y-103274850D01*
X105910712Y-103196724D01*
X105946669Y-103109916D01*
X105965000Y-103017760D01*
X105965000Y-102923800D01*
X105946669Y-102831644D01*
X105910712Y-102744836D01*
X105858510Y-102666710D01*
X105792070Y-102600270D01*
X105713944Y-102548068D01*
X105627136Y-102512111D01*
X105534980Y-102493780D01*
X105441020Y-102493780D01*
X105348864Y-102512111D01*
X105262056Y-102548068D01*
X105183930Y-102600270D01*
X105117490Y-102666710D01*
X105065288Y-102744836D01*
X105029331Y-102831644D01*
X105011000Y-102923800D01*
X102256600Y-102923800D01*
X102256600Y-102898400D01*
X102238269Y-102806244D01*
X102202312Y-102719436D01*
X102150110Y-102641310D01*
X102083670Y-102574870D01*
X102005544Y-102522668D01*
X101918736Y-102486711D01*
X101826580Y-102468380D01*
X101732620Y-102468380D01*
X101640464Y-102486711D01*
X101553656Y-102522668D01*
X101475530Y-102574870D01*
X101409090Y-102641310D01*
X101356888Y-102719436D01*
X101320931Y-102806244D01*
X101302600Y-102898400D01*
X101004282Y-102898400D01*
X101023218Y-102875327D01*
X101095368Y-102740345D01*
X101139798Y-102593880D01*
X101154800Y-102441561D01*
X101139798Y-102289242D01*
X101095368Y-102142777D01*
X101023218Y-102007795D01*
X100978266Y-101953020D01*
X111023000Y-101953020D01*
X111023000Y-102046980D01*
X111041331Y-102139136D01*
X111077288Y-102225944D01*
X111129490Y-102304070D01*
X111195930Y-102370510D01*
X111274056Y-102422712D01*
X111360864Y-102458669D01*
X111453020Y-102477000D01*
X111546980Y-102477000D01*
X111639136Y-102458669D01*
X111725944Y-102422712D01*
X111804070Y-102370510D01*
X111870510Y-102304070D01*
X111922712Y-102225944D01*
X111958669Y-102139136D01*
X111977000Y-102046980D01*
X111977000Y-101953020D01*
X111958669Y-101860864D01*
X111922712Y-101774056D01*
X111870510Y-101695930D01*
X111804070Y-101629490D01*
X111725944Y-101577288D01*
X111639136Y-101541331D01*
X111546980Y-101523000D01*
X111453020Y-101523000D01*
X111360864Y-101541331D01*
X111274056Y-101577288D01*
X111195930Y-101629490D01*
X111129490Y-101695930D01*
X111077288Y-101774056D01*
X111041331Y-101860864D01*
X111023000Y-101953020D01*
X100978266Y-101953020D01*
X100926121Y-101889481D01*
X100807807Y-101792384D01*
X100672825Y-101720234D01*
X100526360Y-101675804D01*
X100412207Y-101664561D01*
X99893039Y-101664561D01*
X99893039Y-101298200D01*
X105112600Y-101298200D01*
X105112600Y-101392160D01*
X105130931Y-101484316D01*
X105166888Y-101571124D01*
X105219090Y-101649250D01*
X105285530Y-101715690D01*
X105363656Y-101767892D01*
X105450464Y-101803849D01*
X105542620Y-101822180D01*
X105636580Y-101822180D01*
X105728736Y-101803849D01*
X105815544Y-101767892D01*
X105893670Y-101715690D01*
X105960110Y-101649250D01*
X106012312Y-101571124D01*
X106048269Y-101484316D01*
X106066600Y-101392160D01*
X106066600Y-101298200D01*
X106048269Y-101206044D01*
X106012312Y-101119236D01*
X105960110Y-101041110D01*
X105893670Y-100974670D01*
X105815544Y-100922468D01*
X105728736Y-100886511D01*
X105636580Y-100868180D01*
X105542620Y-100868180D01*
X105450464Y-100886511D01*
X105363656Y-100922468D01*
X105285530Y-100974670D01*
X105219090Y-101041110D01*
X105166888Y-101119236D01*
X105130931Y-101206044D01*
X105112600Y-101298200D01*
X99893039Y-101298200D01*
X99893039Y-100922116D01*
X99896797Y-100883960D01*
X99893039Y-100845804D01*
X99893039Y-100845795D01*
X99881796Y-100731642D01*
X99837366Y-100585177D01*
X99765216Y-100450194D01*
X99692448Y-100361526D01*
X99692447Y-100361525D01*
X99668119Y-100331881D01*
X99638476Y-100307554D01*
X97828323Y-98497401D01*
X105537601Y-98497401D01*
X105537601Y-98591361D01*
X105555932Y-98683517D01*
X105591889Y-98770325D01*
X105644091Y-98848451D01*
X105710531Y-98914891D01*
X105788657Y-98967093D01*
X105875465Y-99003050D01*
X105967621Y-99021381D01*
X106061581Y-99021381D01*
X106153737Y-99003050D01*
X106240545Y-98967093D01*
X106318671Y-98914891D01*
X106385111Y-98848451D01*
X106437313Y-98770325D01*
X106473270Y-98683517D01*
X106491601Y-98591361D01*
X106491601Y-98497401D01*
X106473270Y-98405245D01*
X106437313Y-98318437D01*
X106385111Y-98240311D01*
X106318671Y-98173871D01*
X106240545Y-98121669D01*
X106153737Y-98085712D01*
X106061581Y-98067381D01*
X105967621Y-98067381D01*
X105875465Y-98085712D01*
X105788657Y-98121669D01*
X105710531Y-98173871D01*
X105644091Y-98240311D01*
X105591889Y-98318437D01*
X105555932Y-98405245D01*
X105537601Y-98497401D01*
X97828323Y-98497401D01*
X97808490Y-98477569D01*
X97784158Y-98447920D01*
X97665844Y-98350823D01*
X97530862Y-98278673D01*
X97384397Y-98234243D01*
X97270244Y-98223000D01*
X97270241Y-98223000D01*
X97232078Y-98219241D01*
X97193915Y-98223000D01*
X93721844Y-98223000D01*
X93317000Y-97818157D01*
X93317000Y-96816819D01*
X93415398Y-96718421D01*
X93538734Y-96533835D01*
X93623690Y-96328734D01*
X93667000Y-96111000D01*
X93667000Y-95889000D01*
X93953000Y-95889000D01*
X93953000Y-96111000D01*
X93996310Y-96328734D01*
X94081266Y-96533835D01*
X94204602Y-96718421D01*
X94361579Y-96875398D01*
X94546165Y-96998734D01*
X94751266Y-97083690D01*
X94969000Y-97127000D01*
X95191000Y-97127000D01*
X95408734Y-97083690D01*
X95613835Y-96998734D01*
X95798421Y-96875398D01*
X95955398Y-96718421D01*
X96078734Y-96533835D01*
X96163690Y-96328734D01*
X96207000Y-96111000D01*
X96207000Y-95889000D01*
X96493000Y-95889000D01*
X96493000Y-96111000D01*
X96536310Y-96328734D01*
X96621266Y-96533835D01*
X96744602Y-96718421D01*
X96901579Y-96875398D01*
X97086165Y-96998734D01*
X97291266Y-97083690D01*
X97509000Y-97127000D01*
X97731000Y-97127000D01*
X97948734Y-97083690D01*
X98153835Y-96998734D01*
X98338421Y-96875398D01*
X98495398Y-96718421D01*
X98618734Y-96533835D01*
X98703690Y-96328734D01*
X98747000Y-96111000D01*
X98747000Y-95889000D01*
X99033000Y-95889000D01*
X99033000Y-96111000D01*
X99076310Y-96328734D01*
X99161266Y-96533835D01*
X99284602Y-96718421D01*
X99441579Y-96875398D01*
X99626165Y-96998734D01*
X99831266Y-97083690D01*
X100049000Y-97127000D01*
X100271000Y-97127000D01*
X100488734Y-97083690D01*
X100693835Y-96998734D01*
X100878421Y-96875398D01*
X101035398Y-96718421D01*
X101158734Y-96533835D01*
X101243690Y-96328734D01*
X101287000Y-96111000D01*
X101287000Y-95889000D01*
X101573000Y-95889000D01*
X101573000Y-96111000D01*
X101616310Y-96328734D01*
X101701266Y-96533835D01*
X101824602Y-96718421D01*
X101981579Y-96875398D01*
X102166165Y-96998734D01*
X102371266Y-97083690D01*
X102589000Y-97127000D01*
X102811000Y-97127000D01*
X103028734Y-97083690D01*
X103233835Y-96998734D01*
X103418421Y-96875398D01*
X103575398Y-96718421D01*
X103698734Y-96533835D01*
X103783690Y-96328734D01*
X103827000Y-96111000D01*
X103827000Y-95889000D01*
X104113000Y-95889000D01*
X104113000Y-96111000D01*
X104156310Y-96328734D01*
X104241266Y-96533835D01*
X104364602Y-96718421D01*
X104521579Y-96875398D01*
X104706165Y-96998734D01*
X104911266Y-97083690D01*
X105129000Y-97127000D01*
X105351000Y-97127000D01*
X105568734Y-97083690D01*
X105773835Y-96998734D01*
X105958421Y-96875398D01*
X106115398Y-96718421D01*
X106238734Y-96533835D01*
X106323690Y-96328734D01*
X106367000Y-96111000D01*
X106367000Y-95889000D01*
X106323690Y-95671266D01*
X106238734Y-95466165D01*
X106115398Y-95281579D01*
X105958421Y-95124602D01*
X105773835Y-95001266D01*
X105568734Y-94916310D01*
X105351000Y-94873000D01*
X105129000Y-94873000D01*
X104911266Y-94916310D01*
X104706165Y-95001266D01*
X104521579Y-95124602D01*
X104364602Y-95281579D01*
X104241266Y-95466165D01*
X104156310Y-95671266D01*
X104113000Y-95889000D01*
X103827000Y-95889000D01*
X103783690Y-95671266D01*
X103698734Y-95466165D01*
X103575398Y-95281579D01*
X103418421Y-95124602D01*
X103233835Y-95001266D01*
X103028734Y-94916310D01*
X102811000Y-94873000D01*
X102589000Y-94873000D01*
X102371266Y-94916310D01*
X102166165Y-95001266D01*
X101981579Y-95124602D01*
X101824602Y-95281579D01*
X101701266Y-95466165D01*
X101616310Y-95671266D01*
X101573000Y-95889000D01*
X101287000Y-95889000D01*
X101243690Y-95671266D01*
X101158734Y-95466165D01*
X101035398Y-95281579D01*
X100878421Y-95124602D01*
X100693835Y-95001266D01*
X100488734Y-94916310D01*
X100271000Y-94873000D01*
X100049000Y-94873000D01*
X99831266Y-94916310D01*
X99626165Y-95001266D01*
X99441579Y-95124602D01*
X99284602Y-95281579D01*
X99161266Y-95466165D01*
X99076310Y-95671266D01*
X99033000Y-95889000D01*
X98747000Y-95889000D01*
X98703690Y-95671266D01*
X98618734Y-95466165D01*
X98495398Y-95281579D01*
X98338421Y-95124602D01*
X98153835Y-95001266D01*
X97948734Y-94916310D01*
X97731000Y-94873000D01*
X97509000Y-94873000D01*
X97291266Y-94916310D01*
X97086165Y-95001266D01*
X96901579Y-95124602D01*
X96744602Y-95281579D01*
X96621266Y-95466165D01*
X96536310Y-95671266D01*
X96493000Y-95889000D01*
X96207000Y-95889000D01*
X96163690Y-95671266D01*
X96078734Y-95466165D01*
X95955398Y-95281579D01*
X95798421Y-95124602D01*
X95613835Y-95001266D01*
X95408734Y-94916310D01*
X95191000Y-94873000D01*
X94969000Y-94873000D01*
X94751266Y-94916310D01*
X94546165Y-95001266D01*
X94361579Y-95124602D01*
X94204602Y-95281579D01*
X94081266Y-95466165D01*
X93996310Y-95671266D01*
X93953000Y-95889000D01*
X93667000Y-95889000D01*
X93623690Y-95671266D01*
X93538734Y-95466165D01*
X93415398Y-95281579D01*
X93258421Y-95124602D01*
X93073835Y-95001266D01*
X92868734Y-94916310D01*
X92651000Y-94873000D01*
X92429000Y-94873000D01*
X92211266Y-94916310D01*
X92006165Y-95001266D01*
X91821579Y-95124602D01*
X91664602Y-95281579D01*
X91541266Y-95466165D01*
X91485619Y-95600508D01*
X91488072Y-95150000D01*
X91475812Y-95025518D01*
X91439502Y-94905820D01*
X91380537Y-94795506D01*
X91301185Y-94698815D01*
X91204494Y-94619463D01*
X91094180Y-94560498D01*
X90974482Y-94524188D01*
X90850000Y-94511928D01*
X90285750Y-94515000D01*
X90127000Y-94673750D01*
X89873000Y-94673750D01*
X89714250Y-94515000D01*
X89150000Y-94511928D01*
X89025518Y-94524188D01*
X88905820Y-94560498D01*
X88795506Y-94619463D01*
X88698815Y-94698815D01*
X88619463Y-94795506D01*
X88560498Y-94905820D01*
X88524188Y-95025518D01*
X88511928Y-95150000D01*
X87327000Y-95150000D01*
X87327000Y-94508328D01*
X87340769Y-94403743D01*
X87377923Y-94314045D01*
X87437024Y-94237024D01*
X87514045Y-94177923D01*
X87603743Y-94140769D01*
X87708328Y-94127000D01*
X112991672Y-94127000D01*
X113096257Y-94140769D01*
G37*
%TD.AperFunction*%
%TD*%
M02*
