%TF.GenerationSoftware,KiCad,Pcbnew,5.1.10-1.fc33*%
%TF.CreationDate,2021-08-28T17:16:11-07:00*%
%TF.ProjectId,hardware,68617264-7761-4726-952e-6b696361645f,rev?*%
%TF.SameCoordinates,Original*%
%TF.FileFunction,Soldermask,Top*%
%TF.FilePolarity,Negative*%
%FSLAX46Y46*%
G04 Gerber Fmt 4.6, Leading zero omitted, Abs format (unit mm)*
G04 Created by KiCad (PCBNEW 5.1.10-1.fc33) date 2021-08-28 17:16:11*
%MOMM*%
%LPD*%
G01*
G04 APERTURE LIST*
%ADD10R,3.000000X3.000000*%
%ADD11R,2.300000X2.500000*%
%ADD12C,2.000000*%
%ADD13C,2.500000*%
%ADD14R,0.980000X3.400000*%
%ADD15C,1.600000*%
%ADD16O,1.700000X1.700000*%
%ADD17R,1.700000X1.700000*%
%ADD18C,1.500000*%
%ADD19R,0.650000X1.060000*%
%ADD20C,0.450000*%
%ADD21O,0.280000X0.850000*%
%ADD22O,0.850000X0.280000*%
%ADD23R,3.400000X0.980000*%
G04 APERTURE END LIST*
D10*
%TO.C,PS1*%
X118750000Y-126750000D03*
X126750000Y-126750000D03*
X130750000Y-126750000D03*
X114750000Y-126750000D03*
X134750000Y-126750000D03*
X138750000Y-126750000D03*
%TD*%
D11*
%TO.C,D1*%
X112000000Y-111350000D03*
X112000000Y-115650000D03*
%TD*%
D12*
%TO.C,F1*%
X143830000Y-97010000D03*
X138750000Y-97000000D03*
%TD*%
D13*
%TO.C,J2*%
X143700000Y-103540814D03*
X143000000Y-100740814D03*
X143100000Y-106240814D03*
%TD*%
%TO.C,J1*%
X143700000Y-119354000D03*
X143000000Y-116554000D03*
X143100000Y-122054000D03*
%TD*%
D14*
%TO.C,L6*%
X114185000Y-121750000D03*
X111815000Y-121750000D03*
%TD*%
D12*
%TO.C,CY3*%
X131250000Y-96000000D03*
X121250000Y-96000000D03*
%TD*%
%TO.C,C5*%
G36*
G01*
X104050000Y-114200000D02*
X104050000Y-115300000D01*
G75*
G02*
X103800000Y-115550000I-250000J0D01*
G01*
X100800000Y-115550000D01*
G75*
G02*
X100550000Y-115300000I0J250000D01*
G01*
X100550000Y-114200000D01*
G75*
G02*
X100800000Y-113950000I250000J0D01*
G01*
X103800000Y-113950000D01*
G75*
G02*
X104050000Y-114200000I0J-250000D01*
G01*
G37*
G36*
G01*
X109450000Y-114200000D02*
X109450000Y-115300000D01*
G75*
G02*
X109200000Y-115550000I-250000J0D01*
G01*
X106200000Y-115550000D01*
G75*
G02*
X105950000Y-115300000I0J250000D01*
G01*
X105950000Y-114200000D01*
G75*
G02*
X106200000Y-113950000I250000J0D01*
G01*
X109200000Y-113950000D01*
G75*
G02*
X109450000Y-114200000I0J-250000D01*
G01*
G37*
%TD*%
D15*
%TO.C,C2*%
X123000000Y-107000000D03*
X128000000Y-107000000D03*
%TD*%
D16*
%TO.C,J3*%
X105240000Y-96000000D03*
X102700000Y-96000000D03*
X100160000Y-96000000D03*
X97620000Y-96000000D03*
X95080000Y-96000000D03*
X92540000Y-96000000D03*
D17*
X90000000Y-96000000D03*
%TD*%
D18*
%TO.C,L5*%
X133500000Y-111500000D03*
X138500000Y-111500000D03*
%TD*%
%TO.C,C4*%
G36*
G01*
X101750000Y-122750000D02*
X101750000Y-124750000D01*
G75*
G02*
X101500000Y-125000000I-250000J0D01*
G01*
X97600000Y-125000000D01*
G75*
G02*
X97350000Y-124750000I0J250000D01*
G01*
X97350000Y-122750000D01*
G75*
G02*
X97600000Y-122500000I250000J0D01*
G01*
X101500000Y-122500000D01*
G75*
G02*
X101750000Y-122750000I0J-250000D01*
G01*
G37*
G36*
G01*
X110150000Y-122750000D02*
X110150000Y-124750000D01*
G75*
G02*
X109900000Y-125000000I-250000J0D01*
G01*
X106000000Y-125000000D01*
G75*
G02*
X105750000Y-124750000I0J250000D01*
G01*
X105750000Y-122750000D01*
G75*
G02*
X106000000Y-122500000I250000J0D01*
G01*
X109900000Y-122500000D01*
G75*
G02*
X110150000Y-122750000I0J-250000D01*
G01*
G37*
%TD*%
D15*
%TO.C,NTC1*%
X134750000Y-98000000D03*
X134750000Y-103000000D03*
%TD*%
%TO.C,C29*%
G36*
G01*
X117325000Y-120250000D02*
X117325000Y-119750000D01*
G75*
G02*
X117550000Y-119525000I225000J0D01*
G01*
X118000000Y-119525000D01*
G75*
G02*
X118225000Y-119750000I0J-225000D01*
G01*
X118225000Y-120250000D01*
G75*
G02*
X118000000Y-120475000I-225000J0D01*
G01*
X117550000Y-120475000D01*
G75*
G02*
X117325000Y-120250000I0J225000D01*
G01*
G37*
G36*
G01*
X115775000Y-120250000D02*
X115775000Y-119750000D01*
G75*
G02*
X116000000Y-119525000I225000J0D01*
G01*
X116450000Y-119525000D01*
G75*
G02*
X116675000Y-119750000I0J-225000D01*
G01*
X116675000Y-120250000D01*
G75*
G02*
X116450000Y-120475000I-225000J0D01*
G01*
X116000000Y-120475000D01*
G75*
G02*
X115775000Y-120250000I0J225000D01*
G01*
G37*
%TD*%
%TO.C,C1*%
G36*
G01*
X144400000Y-112150001D02*
X144400000Y-110849999D01*
G75*
G02*
X144649999Y-110600000I249999J0D01*
G01*
X145300001Y-110600000D01*
G75*
G02*
X145550000Y-110849999I0J-249999D01*
G01*
X145550000Y-112150001D01*
G75*
G02*
X145300001Y-112400000I-249999J0D01*
G01*
X144649999Y-112400000D01*
G75*
G02*
X144400000Y-112150001I0J249999D01*
G01*
G37*
G36*
G01*
X141450000Y-112150001D02*
X141450000Y-110849999D01*
G75*
G02*
X141699999Y-110600000I249999J0D01*
G01*
X142350001Y-110600000D01*
G75*
G02*
X142600000Y-110849999I0J-249999D01*
G01*
X142600000Y-112150001D01*
G75*
G02*
X142350001Y-112400000I-249999J0D01*
G01*
X141699999Y-112400000D01*
G75*
G02*
X141450000Y-112150001I0J249999D01*
G01*
G37*
%TD*%
%TO.C,C28*%
G36*
G01*
X113010040Y-98289840D02*
X112060040Y-98289840D01*
G75*
G02*
X111810040Y-98039840I0J250000D01*
G01*
X111810040Y-97539840D01*
G75*
G02*
X112060040Y-97289840I250000J0D01*
G01*
X113010040Y-97289840D01*
G75*
G02*
X113260040Y-97539840I0J-250000D01*
G01*
X113260040Y-98039840D01*
G75*
G02*
X113010040Y-98289840I-250000J0D01*
G01*
G37*
G36*
G01*
X113010040Y-100189840D02*
X112060040Y-100189840D01*
G75*
G02*
X111810040Y-99939840I0J250000D01*
G01*
X111810040Y-99439840D01*
G75*
G02*
X112060040Y-99189840I250000J0D01*
G01*
X113010040Y-99189840D01*
G75*
G02*
X113260040Y-99439840I0J-250000D01*
G01*
X113260040Y-99939840D01*
G75*
G02*
X113010040Y-100189840I-250000J0D01*
G01*
G37*
%TD*%
%TO.C,C26*%
G36*
G01*
X109214840Y-95115240D02*
X109214840Y-96065240D01*
G75*
G02*
X108964840Y-96315240I-250000J0D01*
G01*
X108464840Y-96315240D01*
G75*
G02*
X108214840Y-96065240I0J250000D01*
G01*
X108214840Y-95115240D01*
G75*
G02*
X108464840Y-94865240I250000J0D01*
G01*
X108964840Y-94865240D01*
G75*
G02*
X109214840Y-95115240I0J-250000D01*
G01*
G37*
G36*
G01*
X111114840Y-95115240D02*
X111114840Y-96065240D01*
G75*
G02*
X110864840Y-96315240I-250000J0D01*
G01*
X110364840Y-96315240D01*
G75*
G02*
X110114840Y-96065240I0J250000D01*
G01*
X110114840Y-95115240D01*
G75*
G02*
X110364840Y-94865240I250000J0D01*
G01*
X110864840Y-94865240D01*
G75*
G02*
X111114840Y-95115240I0J-250000D01*
G01*
G37*
%TD*%
%TO.C,C25*%
G36*
G01*
X103097440Y-106577560D02*
X103097440Y-107527560D01*
G75*
G02*
X102847440Y-107777560I-250000J0D01*
G01*
X102347440Y-107777560D01*
G75*
G02*
X102097440Y-107527560I0J250000D01*
G01*
X102097440Y-106577560D01*
G75*
G02*
X102347440Y-106327560I250000J0D01*
G01*
X102847440Y-106327560D01*
G75*
G02*
X103097440Y-106577560I0J-250000D01*
G01*
G37*
G36*
G01*
X104997440Y-106577560D02*
X104997440Y-107527560D01*
G75*
G02*
X104747440Y-107777560I-250000J0D01*
G01*
X104247440Y-107777560D01*
G75*
G02*
X103997440Y-107527560I0J250000D01*
G01*
X103997440Y-106577560D01*
G75*
G02*
X104247440Y-106327560I250000J0D01*
G01*
X104747440Y-106327560D01*
G75*
G02*
X104997440Y-106577560I0J-250000D01*
G01*
G37*
%TD*%
%TO.C,C24*%
G36*
G01*
X97731040Y-112275160D02*
X98681040Y-112275160D01*
G75*
G02*
X98931040Y-112525160I0J-250000D01*
G01*
X98931040Y-113025160D01*
G75*
G02*
X98681040Y-113275160I-250000J0D01*
G01*
X97731040Y-113275160D01*
G75*
G02*
X97481040Y-113025160I0J250000D01*
G01*
X97481040Y-112525160D01*
G75*
G02*
X97731040Y-112275160I250000J0D01*
G01*
G37*
G36*
G01*
X97731040Y-110375160D02*
X98681040Y-110375160D01*
G75*
G02*
X98931040Y-110625160I0J-250000D01*
G01*
X98931040Y-111125160D01*
G75*
G02*
X98681040Y-111375160I-250000J0D01*
G01*
X97731040Y-111375160D01*
G75*
G02*
X97481040Y-111125160I0J250000D01*
G01*
X97481040Y-110625160D01*
G75*
G02*
X97731040Y-110375160I250000J0D01*
G01*
G37*
%TD*%
%TO.C,C23*%
G36*
G01*
X103097440Y-104520160D02*
X103097440Y-105470160D01*
G75*
G02*
X102847440Y-105720160I-250000J0D01*
G01*
X102347440Y-105720160D01*
G75*
G02*
X102097440Y-105470160I0J250000D01*
G01*
X102097440Y-104520160D01*
G75*
G02*
X102347440Y-104270160I250000J0D01*
G01*
X102847440Y-104270160D01*
G75*
G02*
X103097440Y-104520160I0J-250000D01*
G01*
G37*
G36*
G01*
X104997440Y-104520160D02*
X104997440Y-105470160D01*
G75*
G02*
X104747440Y-105720160I-250000J0D01*
G01*
X104247440Y-105720160D01*
G75*
G02*
X103997440Y-105470160I0J250000D01*
G01*
X103997440Y-104520160D01*
G75*
G02*
X104247440Y-104270160I250000J0D01*
G01*
X104747440Y-104270160D01*
G75*
G02*
X104997440Y-104520160I0J-250000D01*
G01*
G37*
%TD*%
%TO.C,C22*%
G36*
G01*
X99763040Y-112270080D02*
X100713040Y-112270080D01*
G75*
G02*
X100963040Y-112520080I0J-250000D01*
G01*
X100963040Y-113020080D01*
G75*
G02*
X100713040Y-113270080I-250000J0D01*
G01*
X99763040Y-113270080D01*
G75*
G02*
X99513040Y-113020080I0J250000D01*
G01*
X99513040Y-112520080D01*
G75*
G02*
X99763040Y-112270080I250000J0D01*
G01*
G37*
G36*
G01*
X99763040Y-110370080D02*
X100713040Y-110370080D01*
G75*
G02*
X100963040Y-110620080I0J-250000D01*
G01*
X100963040Y-111120080D01*
G75*
G02*
X100713040Y-111370080I-250000J0D01*
G01*
X99763040Y-111370080D01*
G75*
G02*
X99513040Y-111120080I0J250000D01*
G01*
X99513040Y-110620080D01*
G75*
G02*
X99763040Y-110370080I250000J0D01*
G01*
G37*
%TD*%
%TO.C,C17*%
G36*
G01*
X99872040Y-105003160D02*
X100822040Y-105003160D01*
G75*
G02*
X101072040Y-105253160I0J-250000D01*
G01*
X101072040Y-105753160D01*
G75*
G02*
X100822040Y-106003160I-250000J0D01*
G01*
X99872040Y-106003160D01*
G75*
G02*
X99622040Y-105753160I0J250000D01*
G01*
X99622040Y-105253160D01*
G75*
G02*
X99872040Y-105003160I250000J0D01*
G01*
G37*
G36*
G01*
X99872040Y-103103160D02*
X100822040Y-103103160D01*
G75*
G02*
X101072040Y-103353160I0J-250000D01*
G01*
X101072040Y-103853160D01*
G75*
G02*
X100822040Y-104103160I-250000J0D01*
G01*
X99872040Y-104103160D01*
G75*
G02*
X99622040Y-103853160I0J250000D01*
G01*
X99622040Y-103353160D01*
G75*
G02*
X99872040Y-103103160I250000J0D01*
G01*
G37*
%TD*%
%TO.C,C16*%
G36*
G01*
X98478240Y-115576760D02*
X98478240Y-114626760D01*
G75*
G02*
X98728240Y-114376760I250000J0D01*
G01*
X99228240Y-114376760D01*
G75*
G02*
X99478240Y-114626760I0J-250000D01*
G01*
X99478240Y-115576760D01*
G75*
G02*
X99228240Y-115826760I-250000J0D01*
G01*
X98728240Y-115826760D01*
G75*
G02*
X98478240Y-115576760I0J250000D01*
G01*
G37*
G36*
G01*
X96578240Y-115576760D02*
X96578240Y-114626760D01*
G75*
G02*
X96828240Y-114376760I250000J0D01*
G01*
X97328240Y-114376760D01*
G75*
G02*
X97578240Y-114626760I0J-250000D01*
G01*
X97578240Y-115576760D01*
G75*
G02*
X97328240Y-115826760I-250000J0D01*
G01*
X96828240Y-115826760D01*
G75*
G02*
X96578240Y-115576760I0J250000D01*
G01*
G37*
%TD*%
%TO.C,C15*%
G36*
G01*
X89351260Y-101596040D02*
X88401260Y-101596040D01*
G75*
G02*
X88151260Y-101346040I0J250000D01*
G01*
X88151260Y-100846040D01*
G75*
G02*
X88401260Y-100596040I250000J0D01*
G01*
X89351260Y-100596040D01*
G75*
G02*
X89601260Y-100846040I0J-250000D01*
G01*
X89601260Y-101346040D01*
G75*
G02*
X89351260Y-101596040I-250000J0D01*
G01*
G37*
G36*
G01*
X89351260Y-103496040D02*
X88401260Y-103496040D01*
G75*
G02*
X88151260Y-103246040I0J250000D01*
G01*
X88151260Y-102746040D01*
G75*
G02*
X88401260Y-102496040I250000J0D01*
G01*
X89351260Y-102496040D01*
G75*
G02*
X89601260Y-102746040I0J-250000D01*
G01*
X89601260Y-103246040D01*
G75*
G02*
X89351260Y-103496040I-250000J0D01*
G01*
G37*
%TD*%
%TO.C,C14*%
G36*
G01*
X91383260Y-101596040D02*
X90433260Y-101596040D01*
G75*
G02*
X90183260Y-101346040I0J250000D01*
G01*
X90183260Y-100846040D01*
G75*
G02*
X90433260Y-100596040I250000J0D01*
G01*
X91383260Y-100596040D01*
G75*
G02*
X91633260Y-100846040I0J-250000D01*
G01*
X91633260Y-101346040D01*
G75*
G02*
X91383260Y-101596040I-250000J0D01*
G01*
G37*
G36*
G01*
X91383260Y-103496040D02*
X90433260Y-103496040D01*
G75*
G02*
X90183260Y-103246040I0J250000D01*
G01*
X90183260Y-102746040D01*
G75*
G02*
X90433260Y-102496040I250000J0D01*
G01*
X91383260Y-102496040D01*
G75*
G02*
X91633260Y-102746040I0J-250000D01*
G01*
X91633260Y-103246040D01*
G75*
G02*
X91383260Y-103496040I-250000J0D01*
G01*
G37*
%TD*%
%TO.C,C11*%
G36*
G01*
X90712260Y-98688140D02*
X90712260Y-99638140D01*
G75*
G02*
X90462260Y-99888140I-250000J0D01*
G01*
X89962260Y-99888140D01*
G75*
G02*
X89712260Y-99638140I0J250000D01*
G01*
X89712260Y-98688140D01*
G75*
G02*
X89962260Y-98438140I250000J0D01*
G01*
X90462260Y-98438140D01*
G75*
G02*
X90712260Y-98688140I0J-250000D01*
G01*
G37*
G36*
G01*
X92612260Y-98688140D02*
X92612260Y-99638140D01*
G75*
G02*
X92362260Y-99888140I-250000J0D01*
G01*
X91862260Y-99888140D01*
G75*
G02*
X91612260Y-99638140I0J250000D01*
G01*
X91612260Y-98688140D01*
G75*
G02*
X91862260Y-98438140I250000J0D01*
G01*
X92362260Y-98438140D01*
G75*
G02*
X92612260Y-98688140I0J-250000D01*
G01*
G37*
%TD*%
%TO.C,C10*%
G36*
G01*
X88801840Y-118913500D02*
X87851840Y-118913500D01*
G75*
G02*
X87601840Y-118663500I0J250000D01*
G01*
X87601840Y-118163500D01*
G75*
G02*
X87851840Y-117913500I250000J0D01*
G01*
X88801840Y-117913500D01*
G75*
G02*
X89051840Y-118163500I0J-250000D01*
G01*
X89051840Y-118663500D01*
G75*
G02*
X88801840Y-118913500I-250000J0D01*
G01*
G37*
G36*
G01*
X88801840Y-120813500D02*
X87851840Y-120813500D01*
G75*
G02*
X87601840Y-120563500I0J250000D01*
G01*
X87601840Y-120063500D01*
G75*
G02*
X87851840Y-119813500I250000J0D01*
G01*
X88801840Y-119813500D01*
G75*
G02*
X89051840Y-120063500I0J-250000D01*
G01*
X89051840Y-120563500D01*
G75*
G02*
X88801840Y-120813500I-250000J0D01*
G01*
G37*
%TD*%
%TO.C,C9*%
G36*
G01*
X90859240Y-118913500D02*
X89909240Y-118913500D01*
G75*
G02*
X89659240Y-118663500I0J250000D01*
G01*
X89659240Y-118163500D01*
G75*
G02*
X89909240Y-117913500I250000J0D01*
G01*
X90859240Y-117913500D01*
G75*
G02*
X91109240Y-118163500I0J-250000D01*
G01*
X91109240Y-118663500D01*
G75*
G02*
X90859240Y-118913500I-250000J0D01*
G01*
G37*
G36*
G01*
X90859240Y-120813500D02*
X89909240Y-120813500D01*
G75*
G02*
X89659240Y-120563500I0J250000D01*
G01*
X89659240Y-120063500D01*
G75*
G02*
X89909240Y-119813500I250000J0D01*
G01*
X90859240Y-119813500D01*
G75*
G02*
X91109240Y-120063500I0J-250000D01*
G01*
X91109240Y-120563500D01*
G75*
G02*
X90859240Y-120813500I-250000J0D01*
G01*
G37*
%TD*%
%TO.C,C6*%
G36*
G01*
X90300000Y-116025000D02*
X90300000Y-116975000D01*
G75*
G02*
X90050000Y-117225000I-250000J0D01*
G01*
X89550000Y-117225000D01*
G75*
G02*
X89300000Y-116975000I0J250000D01*
G01*
X89300000Y-116025000D01*
G75*
G02*
X89550000Y-115775000I250000J0D01*
G01*
X90050000Y-115775000D01*
G75*
G02*
X90300000Y-116025000I0J-250000D01*
G01*
G37*
G36*
G01*
X92200000Y-116025000D02*
X92200000Y-116975000D01*
G75*
G02*
X91950000Y-117225000I-250000J0D01*
G01*
X91450000Y-117225000D01*
G75*
G02*
X91200000Y-116975000I0J250000D01*
G01*
X91200000Y-116025000D01*
G75*
G02*
X91450000Y-115775000I250000J0D01*
G01*
X91950000Y-115775000D01*
G75*
G02*
X92200000Y-116025000I0J-250000D01*
G01*
G37*
%TD*%
%TO.C,C27*%
G36*
G01*
X107472640Y-98946240D02*
X107132640Y-98946240D01*
G75*
G02*
X106992640Y-98806240I0J140000D01*
G01*
X106992640Y-98526240D01*
G75*
G02*
X107132640Y-98386240I140000J0D01*
G01*
X107472640Y-98386240D01*
G75*
G02*
X107612640Y-98526240I0J-140000D01*
G01*
X107612640Y-98806240D01*
G75*
G02*
X107472640Y-98946240I-140000J0D01*
G01*
G37*
G36*
G01*
X107472640Y-99906240D02*
X107132640Y-99906240D01*
G75*
G02*
X106992640Y-99766240I0J140000D01*
G01*
X106992640Y-99486240D01*
G75*
G02*
X107132640Y-99346240I140000J0D01*
G01*
X107472640Y-99346240D01*
G75*
G02*
X107612640Y-99486240I0J-140000D01*
G01*
X107612640Y-99766240D01*
G75*
G02*
X107472640Y-99906240I-140000J0D01*
G01*
G37*
%TD*%
%TO.C,C21*%
G36*
G01*
X100280000Y-99830000D02*
X100280000Y-100170000D01*
G75*
G02*
X100140000Y-100310000I-140000J0D01*
G01*
X99860000Y-100310000D01*
G75*
G02*
X99720000Y-100170000I0J140000D01*
G01*
X99720000Y-99830000D01*
G75*
G02*
X99860000Y-99690000I140000J0D01*
G01*
X100140000Y-99690000D01*
G75*
G02*
X100280000Y-99830000I0J-140000D01*
G01*
G37*
G36*
G01*
X101240000Y-99830000D02*
X101240000Y-100170000D01*
G75*
G02*
X101100000Y-100310000I-140000J0D01*
G01*
X100820000Y-100310000D01*
G75*
G02*
X100680000Y-100170000I0J140000D01*
G01*
X100680000Y-99830000D01*
G75*
G02*
X100820000Y-99690000I140000J0D01*
G01*
X101100000Y-99690000D01*
G75*
G02*
X101240000Y-99830000I0J-140000D01*
G01*
G37*
%TD*%
%TO.C,C20*%
G36*
G01*
X102050000Y-98830000D02*
X102050000Y-99170000D01*
G75*
G02*
X101910000Y-99310000I-140000J0D01*
G01*
X101630000Y-99310000D01*
G75*
G02*
X101490000Y-99170000I0J140000D01*
G01*
X101490000Y-98830000D01*
G75*
G02*
X101630000Y-98690000I140000J0D01*
G01*
X101910000Y-98690000D01*
G75*
G02*
X102050000Y-98830000I0J-140000D01*
G01*
G37*
G36*
G01*
X103010000Y-98830000D02*
X103010000Y-99170000D01*
G75*
G02*
X102870000Y-99310000I-140000J0D01*
G01*
X102590000Y-99310000D01*
G75*
G02*
X102450000Y-99170000I0J140000D01*
G01*
X102450000Y-98830000D01*
G75*
G02*
X102590000Y-98690000I140000J0D01*
G01*
X102870000Y-98690000D01*
G75*
G02*
X103010000Y-98830000I0J-140000D01*
G01*
G37*
%TD*%
%TO.C,C19*%
G36*
G01*
X93180040Y-114411060D02*
X93180040Y-114751060D01*
G75*
G02*
X93040040Y-114891060I-140000J0D01*
G01*
X92760040Y-114891060D01*
G75*
G02*
X92620040Y-114751060I0J140000D01*
G01*
X92620040Y-114411060D01*
G75*
G02*
X92760040Y-114271060I140000J0D01*
G01*
X93040040Y-114271060D01*
G75*
G02*
X93180040Y-114411060I0J-140000D01*
G01*
G37*
G36*
G01*
X94140040Y-114411060D02*
X94140040Y-114751060D01*
G75*
G02*
X94000040Y-114891060I-140000J0D01*
G01*
X93720040Y-114891060D01*
G75*
G02*
X93580040Y-114751060I0J140000D01*
G01*
X93580040Y-114411060D01*
G75*
G02*
X93720040Y-114271060I140000J0D01*
G01*
X94000040Y-114271060D01*
G75*
G02*
X94140040Y-114411060I0J-140000D01*
G01*
G37*
%TD*%
%TO.C,C18*%
G36*
G01*
X91990840Y-112950000D02*
X92330840Y-112950000D01*
G75*
G02*
X92470840Y-113090000I0J-140000D01*
G01*
X92470840Y-113370000D01*
G75*
G02*
X92330840Y-113510000I-140000J0D01*
G01*
X91990840Y-113510000D01*
G75*
G02*
X91850840Y-113370000I0J140000D01*
G01*
X91850840Y-113090000D01*
G75*
G02*
X91990840Y-112950000I140000J0D01*
G01*
G37*
G36*
G01*
X91990840Y-111990000D02*
X92330840Y-111990000D01*
G75*
G02*
X92470840Y-112130000I0J-140000D01*
G01*
X92470840Y-112410000D01*
G75*
G02*
X92330840Y-112550000I-140000J0D01*
G01*
X91990840Y-112550000D01*
G75*
G02*
X91850840Y-112410000I0J140000D01*
G01*
X91850840Y-112130000D01*
G75*
G02*
X91990840Y-111990000I140000J0D01*
G01*
G37*
%TD*%
%TO.C,C13*%
G36*
G01*
X95920000Y-99050000D02*
X95580000Y-99050000D01*
G75*
G02*
X95440000Y-98910000I0J140000D01*
G01*
X95440000Y-98630000D01*
G75*
G02*
X95580000Y-98490000I140000J0D01*
G01*
X95920000Y-98490000D01*
G75*
G02*
X96060000Y-98630000I0J-140000D01*
G01*
X96060000Y-98910000D01*
G75*
G02*
X95920000Y-99050000I-140000J0D01*
G01*
G37*
G36*
G01*
X95920000Y-100010000D02*
X95580000Y-100010000D01*
G75*
G02*
X95440000Y-99870000I0J140000D01*
G01*
X95440000Y-99590000D01*
G75*
G02*
X95580000Y-99450000I140000J0D01*
G01*
X95920000Y-99450000D01*
G75*
G02*
X96060000Y-99590000I0J-140000D01*
G01*
X96060000Y-99870000D01*
G75*
G02*
X95920000Y-100010000I-140000J0D01*
G01*
G37*
%TD*%
%TO.C,C12*%
G36*
G01*
X96831360Y-100800000D02*
X96491360Y-100800000D01*
G75*
G02*
X96351360Y-100660000I0J140000D01*
G01*
X96351360Y-100380000D01*
G75*
G02*
X96491360Y-100240000I140000J0D01*
G01*
X96831360Y-100240000D01*
G75*
G02*
X96971360Y-100380000I0J-140000D01*
G01*
X96971360Y-100660000D01*
G75*
G02*
X96831360Y-100800000I-140000J0D01*
G01*
G37*
G36*
G01*
X96831360Y-101760000D02*
X96491360Y-101760000D01*
G75*
G02*
X96351360Y-101620000I0J140000D01*
G01*
X96351360Y-101340000D01*
G75*
G02*
X96491360Y-101200000I140000J0D01*
G01*
X96831360Y-101200000D01*
G75*
G02*
X96971360Y-101340000I0J-140000D01*
G01*
X96971360Y-101620000D01*
G75*
G02*
X96831360Y-101760000I-140000J0D01*
G01*
G37*
%TD*%
%TO.C,C8*%
G36*
G01*
X95420000Y-116800000D02*
X95080000Y-116800000D01*
G75*
G02*
X94940000Y-116660000I0J140000D01*
G01*
X94940000Y-116380000D01*
G75*
G02*
X95080000Y-116240000I140000J0D01*
G01*
X95420000Y-116240000D01*
G75*
G02*
X95560000Y-116380000I0J-140000D01*
G01*
X95560000Y-116660000D01*
G75*
G02*
X95420000Y-116800000I-140000J0D01*
G01*
G37*
G36*
G01*
X95420000Y-117760000D02*
X95080000Y-117760000D01*
G75*
G02*
X94940000Y-117620000I0J140000D01*
G01*
X94940000Y-117340000D01*
G75*
G02*
X95080000Y-117200000I140000J0D01*
G01*
X95420000Y-117200000D01*
G75*
G02*
X95560000Y-117340000I0J-140000D01*
G01*
X95560000Y-117620000D01*
G75*
G02*
X95420000Y-117760000I-140000J0D01*
G01*
G37*
%TD*%
%TO.C,C7*%
G36*
G01*
X96472440Y-118050000D02*
X96132440Y-118050000D01*
G75*
G02*
X95992440Y-117910000I0J140000D01*
G01*
X95992440Y-117630000D01*
G75*
G02*
X96132440Y-117490000I140000J0D01*
G01*
X96472440Y-117490000D01*
G75*
G02*
X96612440Y-117630000I0J-140000D01*
G01*
X96612440Y-117910000D01*
G75*
G02*
X96472440Y-118050000I-140000J0D01*
G01*
G37*
G36*
G01*
X96472440Y-119010000D02*
X96132440Y-119010000D01*
G75*
G02*
X95992440Y-118870000I0J140000D01*
G01*
X95992440Y-118590000D01*
G75*
G02*
X96132440Y-118450000I140000J0D01*
G01*
X96472440Y-118450000D01*
G75*
G02*
X96612440Y-118590000I0J-140000D01*
G01*
X96612440Y-118870000D01*
G75*
G02*
X96472440Y-119010000I-140000J0D01*
G01*
G37*
%TD*%
%TO.C,R19*%
G36*
G01*
X110764240Y-101319240D02*
X110394240Y-101319240D01*
G75*
G02*
X110259240Y-101184240I0J135000D01*
G01*
X110259240Y-100914240D01*
G75*
G02*
X110394240Y-100779240I135000J0D01*
G01*
X110764240Y-100779240D01*
G75*
G02*
X110899240Y-100914240I0J-135000D01*
G01*
X110899240Y-101184240D01*
G75*
G02*
X110764240Y-101319240I-135000J0D01*
G01*
G37*
G36*
G01*
X110764240Y-102339240D02*
X110394240Y-102339240D01*
G75*
G02*
X110259240Y-102204240I0J135000D01*
G01*
X110259240Y-101934240D01*
G75*
G02*
X110394240Y-101799240I135000J0D01*
G01*
X110764240Y-101799240D01*
G75*
G02*
X110899240Y-101934240I0J-135000D01*
G01*
X110899240Y-102204240D01*
G75*
G02*
X110764240Y-102339240I-135000J0D01*
G01*
G37*
%TD*%
D19*
%TO.C,U7*%
X110604680Y-99697600D03*
X108704680Y-99697600D03*
X108704680Y-97497600D03*
X109654680Y-97497600D03*
X110604680Y-97497600D03*
%TD*%
D20*
%TO.C,U6*%
X102651200Y-101111880D03*
X103651200Y-101111880D03*
X103151200Y-101611880D03*
X102651200Y-102111880D03*
X103651200Y-102111880D03*
D17*
X103151200Y-101611880D03*
D21*
X103901200Y-103087620D03*
X103401200Y-103087620D03*
X102901200Y-103087620D03*
X102401200Y-103087620D03*
D22*
X101675460Y-102361880D03*
X101675460Y-101861880D03*
X101675460Y-101361880D03*
X101675460Y-100861880D03*
D21*
X102401200Y-100136140D03*
X102901200Y-100136140D03*
X103401200Y-100136140D03*
X103901200Y-100136140D03*
D22*
X104626940Y-100861880D03*
X104626940Y-101361880D03*
X104626940Y-101861880D03*
X104626940Y-102361880D03*
%TD*%
D20*
%TO.C,U5*%
X94389880Y-112561380D03*
X94389880Y-111561380D03*
X94889880Y-112061380D03*
X95389880Y-112561380D03*
X95389880Y-111561380D03*
D17*
X94889880Y-112061380D03*
D22*
X96365620Y-111311380D03*
X96365620Y-111811380D03*
X96365620Y-112311380D03*
X96365620Y-112811380D03*
D21*
X95639880Y-113537120D03*
X95139880Y-113537120D03*
X94639880Y-113537120D03*
X94139880Y-113537120D03*
D22*
X93414140Y-112811380D03*
X93414140Y-112311380D03*
X93414140Y-111811380D03*
X93414140Y-111311380D03*
D21*
X94139880Y-110585640D03*
X94639880Y-110585640D03*
X95139880Y-110585640D03*
X95639880Y-110585640D03*
%TD*%
D20*
%TO.C,U4*%
X94557860Y-101241240D03*
X94557860Y-102241240D03*
X94057860Y-101741240D03*
X93557860Y-101241240D03*
X93557860Y-102241240D03*
D17*
X94057860Y-101741240D03*
D22*
X92582120Y-102491240D03*
X92582120Y-101991240D03*
X92582120Y-101491240D03*
X92582120Y-100991240D03*
D21*
X93307860Y-100265500D03*
X93807860Y-100265500D03*
X94307860Y-100265500D03*
X94807860Y-100265500D03*
D22*
X95533600Y-100991240D03*
X95533600Y-101491240D03*
X95533600Y-101991240D03*
X95533600Y-102491240D03*
D21*
X94807860Y-103216980D03*
X94307860Y-103216980D03*
X93807860Y-103216980D03*
X93307860Y-103216980D03*
%TD*%
%TO.C,R18*%
G36*
G01*
X105935000Y-106760000D02*
X105565000Y-106760000D01*
G75*
G02*
X105430000Y-106625000I0J135000D01*
G01*
X105430000Y-106355000D01*
G75*
G02*
X105565000Y-106220000I135000J0D01*
G01*
X105935000Y-106220000D01*
G75*
G02*
X106070000Y-106355000I0J-135000D01*
G01*
X106070000Y-106625000D01*
G75*
G02*
X105935000Y-106760000I-135000J0D01*
G01*
G37*
G36*
G01*
X105935000Y-107780000D02*
X105565000Y-107780000D01*
G75*
G02*
X105430000Y-107645000I0J135000D01*
G01*
X105430000Y-107375000D01*
G75*
G02*
X105565000Y-107240000I135000J0D01*
G01*
X105935000Y-107240000D01*
G75*
G02*
X106070000Y-107375000I0J-135000D01*
G01*
X106070000Y-107645000D01*
G75*
G02*
X105935000Y-107780000I-135000J0D01*
G01*
G37*
%TD*%
%TO.C,R17*%
G36*
G01*
X100010000Y-109315000D02*
X100010000Y-109685000D01*
G75*
G02*
X99875000Y-109820000I-135000J0D01*
G01*
X99605000Y-109820000D01*
G75*
G02*
X99470000Y-109685000I0J135000D01*
G01*
X99470000Y-109315000D01*
G75*
G02*
X99605000Y-109180000I135000J0D01*
G01*
X99875000Y-109180000D01*
G75*
G02*
X100010000Y-109315000I0J-135000D01*
G01*
G37*
G36*
G01*
X101030000Y-109315000D02*
X101030000Y-109685000D01*
G75*
G02*
X100895000Y-109820000I-135000J0D01*
G01*
X100625000Y-109820000D01*
G75*
G02*
X100490000Y-109685000I0J135000D01*
G01*
X100490000Y-109315000D01*
G75*
G02*
X100625000Y-109180000I135000J0D01*
G01*
X100895000Y-109180000D01*
G75*
G02*
X101030000Y-109315000I0J-135000D01*
G01*
G37*
%TD*%
%TO.C,R16*%
G36*
G01*
X88990000Y-104685000D02*
X88990000Y-104315000D01*
G75*
G02*
X89125000Y-104180000I135000J0D01*
G01*
X89395000Y-104180000D01*
G75*
G02*
X89530000Y-104315000I0J-135000D01*
G01*
X89530000Y-104685000D01*
G75*
G02*
X89395000Y-104820000I-135000J0D01*
G01*
X89125000Y-104820000D01*
G75*
G02*
X88990000Y-104685000I0J135000D01*
G01*
G37*
G36*
G01*
X87970000Y-104685000D02*
X87970000Y-104315000D01*
G75*
G02*
X88105000Y-104180000I135000J0D01*
G01*
X88375000Y-104180000D01*
G75*
G02*
X88510000Y-104315000I0J-135000D01*
G01*
X88510000Y-104685000D01*
G75*
G02*
X88375000Y-104820000I-135000J0D01*
G01*
X88105000Y-104820000D01*
G75*
G02*
X87970000Y-104685000I0J135000D01*
G01*
G37*
%TD*%
%TO.C,R15*%
G36*
G01*
X88240000Y-121935000D02*
X88240000Y-121565000D01*
G75*
G02*
X88375000Y-121430000I135000J0D01*
G01*
X88645000Y-121430000D01*
G75*
G02*
X88780000Y-121565000I0J-135000D01*
G01*
X88780000Y-121935000D01*
G75*
G02*
X88645000Y-122070000I-135000J0D01*
G01*
X88375000Y-122070000D01*
G75*
G02*
X88240000Y-121935000I0J135000D01*
G01*
G37*
G36*
G01*
X87220000Y-121935000D02*
X87220000Y-121565000D01*
G75*
G02*
X87355000Y-121430000I135000J0D01*
G01*
X87625000Y-121430000D01*
G75*
G02*
X87760000Y-121565000I0J-135000D01*
G01*
X87760000Y-121935000D01*
G75*
G02*
X87625000Y-122070000I-135000J0D01*
G01*
X87355000Y-122070000D01*
G75*
G02*
X87220000Y-121935000I0J135000D01*
G01*
G37*
%TD*%
%TO.C,R14*%
G36*
G01*
X104240440Y-98278160D02*
X103870440Y-98278160D01*
G75*
G02*
X103735440Y-98143160I0J135000D01*
G01*
X103735440Y-97873160D01*
G75*
G02*
X103870440Y-97738160I135000J0D01*
G01*
X104240440Y-97738160D01*
G75*
G02*
X104375440Y-97873160I0J-135000D01*
G01*
X104375440Y-98143160D01*
G75*
G02*
X104240440Y-98278160I-135000J0D01*
G01*
G37*
G36*
G01*
X104240440Y-99298160D02*
X103870440Y-99298160D01*
G75*
G02*
X103735440Y-99163160I0J135000D01*
G01*
X103735440Y-98893160D01*
G75*
G02*
X103870440Y-98758160I135000J0D01*
G01*
X104240440Y-98758160D01*
G75*
G02*
X104375440Y-98893160I0J-135000D01*
G01*
X104375440Y-99163160D01*
G75*
G02*
X104240440Y-99298160I-135000J0D01*
G01*
G37*
%TD*%
%TO.C,R13*%
G36*
G01*
X104886440Y-98758160D02*
X105256440Y-98758160D01*
G75*
G02*
X105391440Y-98893160I0J-135000D01*
G01*
X105391440Y-99163160D01*
G75*
G02*
X105256440Y-99298160I-135000J0D01*
G01*
X104886440Y-99298160D01*
G75*
G02*
X104751440Y-99163160I0J135000D01*
G01*
X104751440Y-98893160D01*
G75*
G02*
X104886440Y-98758160I135000J0D01*
G01*
G37*
G36*
G01*
X104886440Y-97738160D02*
X105256440Y-97738160D01*
G75*
G02*
X105391440Y-97873160I0J-135000D01*
G01*
X105391440Y-98143160D01*
G75*
G02*
X105256440Y-98278160I-135000J0D01*
G01*
X104886440Y-98278160D01*
G75*
G02*
X104751440Y-98143160I0J135000D01*
G01*
X104751440Y-97873160D01*
G75*
G02*
X104886440Y-97738160I135000J0D01*
G01*
G37*
%TD*%
%TO.C,R12*%
G36*
G01*
X91489040Y-110827360D02*
X91489040Y-111197360D01*
G75*
G02*
X91354040Y-111332360I-135000J0D01*
G01*
X91084040Y-111332360D01*
G75*
G02*
X90949040Y-111197360I0J135000D01*
G01*
X90949040Y-110827360D01*
G75*
G02*
X91084040Y-110692360I135000J0D01*
G01*
X91354040Y-110692360D01*
G75*
G02*
X91489040Y-110827360I0J-135000D01*
G01*
G37*
G36*
G01*
X92509040Y-110827360D02*
X92509040Y-111197360D01*
G75*
G02*
X92374040Y-111332360I-135000J0D01*
G01*
X92104040Y-111332360D01*
G75*
G02*
X91969040Y-111197360I0J135000D01*
G01*
X91969040Y-110827360D01*
G75*
G02*
X92104040Y-110692360I135000J0D01*
G01*
X92374040Y-110692360D01*
G75*
G02*
X92509040Y-110827360I0J-135000D01*
G01*
G37*
%TD*%
%TO.C,R11*%
G36*
G01*
X91969040Y-110181360D02*
X91969040Y-109811360D01*
G75*
G02*
X92104040Y-109676360I135000J0D01*
G01*
X92374040Y-109676360D01*
G75*
G02*
X92509040Y-109811360I0J-135000D01*
G01*
X92509040Y-110181360D01*
G75*
G02*
X92374040Y-110316360I-135000J0D01*
G01*
X92104040Y-110316360D01*
G75*
G02*
X91969040Y-110181360I0J135000D01*
G01*
G37*
G36*
G01*
X90949040Y-110181360D02*
X90949040Y-109811360D01*
G75*
G02*
X91084040Y-109676360I135000J0D01*
G01*
X91354040Y-109676360D01*
G75*
G02*
X91489040Y-109811360I0J-135000D01*
G01*
X91489040Y-110181360D01*
G75*
G02*
X91354040Y-110316360I-135000J0D01*
G01*
X91084040Y-110316360D01*
G75*
G02*
X90949040Y-110181360I0J135000D01*
G01*
G37*
%TD*%
%TO.C,R10*%
G36*
G01*
X97409360Y-102993040D02*
X97409360Y-102623040D01*
G75*
G02*
X97544360Y-102488040I135000J0D01*
G01*
X97814360Y-102488040D01*
G75*
G02*
X97949360Y-102623040I0J-135000D01*
G01*
X97949360Y-102993040D01*
G75*
G02*
X97814360Y-103128040I-135000J0D01*
G01*
X97544360Y-103128040D01*
G75*
G02*
X97409360Y-102993040I0J135000D01*
G01*
G37*
G36*
G01*
X96389360Y-102993040D02*
X96389360Y-102623040D01*
G75*
G02*
X96524360Y-102488040I135000J0D01*
G01*
X96794360Y-102488040D01*
G75*
G02*
X96929360Y-102623040I0J-135000D01*
G01*
X96929360Y-102993040D01*
G75*
G02*
X96794360Y-103128040I-135000J0D01*
G01*
X96524360Y-103128040D01*
G75*
G02*
X96389360Y-102993040I0J135000D01*
G01*
G37*
%TD*%
%TO.C,R9*%
G36*
G01*
X96929360Y-103639040D02*
X96929360Y-104009040D01*
G75*
G02*
X96794360Y-104144040I-135000J0D01*
G01*
X96524360Y-104144040D01*
G75*
G02*
X96389360Y-104009040I0J135000D01*
G01*
X96389360Y-103639040D01*
G75*
G02*
X96524360Y-103504040I135000J0D01*
G01*
X96794360Y-103504040D01*
G75*
G02*
X96929360Y-103639040I0J-135000D01*
G01*
G37*
G36*
G01*
X97949360Y-103639040D02*
X97949360Y-104009040D01*
G75*
G02*
X97814360Y-104144040I-135000J0D01*
G01*
X97544360Y-104144040D01*
G75*
G02*
X97409360Y-104009040I0J135000D01*
G01*
X97409360Y-103639040D01*
G75*
G02*
X97544360Y-103504040I135000J0D01*
G01*
X97814360Y-103504040D01*
G75*
G02*
X97949360Y-103639040I0J-135000D01*
G01*
G37*
%TD*%
%TO.C,R8*%
G36*
G01*
X96015840Y-120746500D02*
X96385840Y-120746500D01*
G75*
G02*
X96520840Y-120881500I0J-135000D01*
G01*
X96520840Y-121151500D01*
G75*
G02*
X96385840Y-121286500I-135000J0D01*
G01*
X96015840Y-121286500D01*
G75*
G02*
X95880840Y-121151500I0J135000D01*
G01*
X95880840Y-120881500D01*
G75*
G02*
X96015840Y-120746500I135000J0D01*
G01*
G37*
G36*
G01*
X96015840Y-119726500D02*
X96385840Y-119726500D01*
G75*
G02*
X96520840Y-119861500I0J-135000D01*
G01*
X96520840Y-120131500D01*
G75*
G02*
X96385840Y-120266500I-135000J0D01*
G01*
X96015840Y-120266500D01*
G75*
G02*
X95880840Y-120131500I0J135000D01*
G01*
X95880840Y-119861500D01*
G75*
G02*
X96015840Y-119726500I135000J0D01*
G01*
G37*
%TD*%
%TO.C,R7*%
G36*
G01*
X97376440Y-120266500D02*
X97006440Y-120266500D01*
G75*
G02*
X96871440Y-120131500I0J135000D01*
G01*
X96871440Y-119861500D01*
G75*
G02*
X97006440Y-119726500I135000J0D01*
G01*
X97376440Y-119726500D01*
G75*
G02*
X97511440Y-119861500I0J-135000D01*
G01*
X97511440Y-120131500D01*
G75*
G02*
X97376440Y-120266500I-135000J0D01*
G01*
G37*
G36*
G01*
X97376440Y-121286500D02*
X97006440Y-121286500D01*
G75*
G02*
X96871440Y-121151500I0J135000D01*
G01*
X96871440Y-120881500D01*
G75*
G02*
X97006440Y-120746500I135000J0D01*
G01*
X97376440Y-120746500D01*
G75*
G02*
X97511440Y-120881500I0J-135000D01*
G01*
X97511440Y-121151500D01*
G75*
G02*
X97376440Y-121286500I-135000J0D01*
G01*
G37*
%TD*%
D23*
%TO.C,L4*%
X107636840Y-104808560D03*
X107636840Y-102438560D03*
%TD*%
D14*
%TO.C,L3*%
X98044840Y-107380160D03*
X95674840Y-107380160D03*
%TD*%
%TO.C,L2*%
X91065560Y-106503740D03*
X93435560Y-106503740D03*
%TD*%
%TO.C,L1*%
X90316840Y-123681500D03*
X92686840Y-123681500D03*
%TD*%
D20*
%TO.C,U3*%
X94099880Y-118609500D03*
X94099880Y-119609500D03*
X93599880Y-119109500D03*
X93099880Y-118609500D03*
X93099880Y-119609500D03*
D17*
X93599880Y-119109500D03*
D22*
X92124140Y-119859500D03*
X92124140Y-119359500D03*
X92124140Y-118859500D03*
X92124140Y-118359500D03*
D21*
X92849880Y-117633760D03*
X93349880Y-117633760D03*
X93849880Y-117633760D03*
X94349880Y-117633760D03*
D22*
X95075620Y-118359500D03*
X95075620Y-118859500D03*
X95075620Y-119359500D03*
X95075620Y-119859500D03*
D21*
X94349880Y-120585240D03*
X93849880Y-120585240D03*
X93349880Y-120585240D03*
X92849880Y-120585240D03*
%TD*%
M02*
