M48
; DRILL file {KiCad 5.1.10-1.fc33} date Sat Aug 28 17:16:17 2021
; FORMAT={-:-/ absolute / inch / decimal}
; #@! TF.CreationDate,2021-08-28T17:16:17-07:00
; #@! TF.GenerationSoftware,Kicad,Pcbnew,5.1.10-1.fc33
; #@! TF.FileFunction,Plated,1,4,PTH
FMAT,2
INCH
T1C0.0079
T2C0.0080
T3C0.0197
T4C0.0295
T5C0.0315
T6C0.0394
T7C0.0512
T8C0.0551
%
G90
G05
T1
X3.4124Y-4.8258
X3.4124Y-4.8455
X3.4203Y-4.8671
X3.435Y-4.8819
X3.4646Y-3.9376
X3.4744Y-4.1535
X3.4744Y-4.1732
X3.4774Y-4.6214
X3.4925Y-4.5554
X3.4925Y-4.5854
X3.5061Y-3.9376
X3.5106Y-3.8716
X3.5106Y-3.9046
X3.5645Y-4.6994
X3.5701Y-4.0156
X3.5845Y-4.6994
X3.5925Y-4.4094
X3.6026Y-4.0156
X3.6151Y-4.2991
X3.6315Y-4.7814
X3.6329Y-4.6354
X3.6496Y-4.0976
X3.6505Y-4.5644
X3.6506Y-3.9516
X3.6614Y-4.9311
X3.6686Y-3.8806
X3.6785Y-4.5964
X3.6843Y-4.3609
X3.6844Y-4.3306
X3.6909Y-4.9311
X3.6959Y-4.7854
X3.6966Y-3.9126
X3.7004Y-4.5745
X3.7136Y-4.1016
X3.7241Y-4.5508
X3.7253Y-4.3159
X3.7365Y-4.7404
X3.7365Y-4.7714
X3.7423Y-4.5049
X3.7437Y-4.5311
X3.7546Y-4.0566
X3.7546Y-4.0916
X3.7703Y-4.5369
X3.7883Y-4.4659
X3.7893Y-4.3199
X3.7992Y-3.8583
X3.7992Y-4.5965
X3.8058Y-4.8021
X3.8238Y-4.1183
X3.8363Y-4.4019
X3.8674Y-4.4019
X3.9323Y-4.5109
X3.9324Y-4.5496
X3.9354Y-4.0331
X3.9357Y-3.9997
X3.9627Y-4.193
X3.9932Y-4.2122
X3.9932Y-4.2477
X3.9937Y-4.2977
X3.9973Y-4.4312
X3.9973Y-4.4611
X4.0071Y-4.053
X4.0072Y-4.0867
X4.0157Y-4.3071
X4.0394Y-4.3071
X4.0711Y-4.101
X4.0717Y-4.1392
X4.0945Y-3.8189
X4.1121Y-3.949
X4.1437Y-3.9492
X4.1531Y-4.054
X4.1571Y-3.99
X4.1738Y-3.8797
X4.1929Y-3.9075
X4.2126Y-4.252
X4.2157Y-3.9797
X4.2274Y-4.2372
X4.2421Y-4.2224
X4.315Y-3.748
X4.315Y-3.7795
X4.3898Y-4.0157
X4.4016Y-3.8031
X4.4252Y-3.8031
T2
X3.6653Y-4.6697
X3.6653Y-4.709
X3.6834Y-3.9859
X3.6834Y-4.0252
X3.685Y-4.6894
X3.7031Y-4.0056
X3.7047Y-4.6697
X3.7047Y-4.709
X3.7161Y-4.3922
X3.7161Y-4.4316
X3.7228Y-3.9859
X3.7228Y-4.0252
X3.7358Y-4.4119
X3.7555Y-4.3922
X3.7555Y-4.4316
X4.0414Y-3.9808
X4.0414Y-4.0202
X4.0611Y-4.0005
X4.0808Y-3.9808
X4.0808Y-4.0202
T3
X3.7874Y-4.8425
X3.7874Y-4.9055
X4.3996Y-4.2717
X4.6378Y-4.7795
T4
X5.2559Y-4.3898
X5.4528Y-4.3898
T5
X4.8425Y-4.2126
X5.0394Y-4.2126
X5.3051Y-3.8583
X5.3051Y-4.0551
T6
X3.5433Y-3.7795
X3.6433Y-3.7795
X3.7433Y-3.7795
X3.8433Y-3.7795
X3.9433Y-3.7795
X4.0433Y-3.7795
X4.1433Y-3.7795
X4.7736Y-3.7795
X5.1673Y-3.7795
X5.4626Y-3.8189
X5.6626Y-3.8193
T7
X5.6299Y-3.9662
X5.6299Y-4.5887
X5.6339Y-4.1827
X5.6339Y-4.8053
X5.6575Y-4.0764
X5.6575Y-4.699
T8
G00X4.5295Y-4.9902
M15
G01X4.5059Y-4.9902
M16
G05
G00X4.687Y-4.9902
M15
G01X4.6634Y-4.9902
M16
G05
G00X5.002Y-4.9902
M15
G01X4.9783Y-4.9902
M16
G05
G00X5.1594Y-4.9902
M15
G01X5.1358Y-4.9902
M16
G05
G00X5.3169Y-4.9902
M15
G01X5.2933Y-4.9902
M16
G05
G00X5.4744Y-4.9902
M15
G01X5.4508Y-4.9902
M16
G05
T0
M30
