%TF.GenerationSoftware,KiCad,Pcbnew,5.1.10-1.fc33*%
%TF.CreationDate,2021-08-29T09:58:40-07:00*%
%TF.ProjectId,hardware,68617264-7761-4726-952e-6b696361645f,rev?*%
%TF.SameCoordinates,Original*%
%TF.FileFunction,Legend,Bot*%
%TF.FilePolarity,Positive*%
%FSLAX46Y46*%
G04 Gerber Fmt 4.6, Leading zero omitted, Abs format (unit mm)*
G04 Created by KiCad (PCBNEW 5.1.10-1.fc33) date 2021-08-29 09:58:40*
%MOMM*%
%LPD*%
G01*
G04 APERTURE LIST*
%ADD10C,0.375000*%
%ADD11C,0.120000*%
%ADD12C,0.150000*%
G04 APERTURE END LIST*
D10*
X120041964Y-123553571D02*
X120541964Y-122839285D01*
X120899107Y-123553571D02*
X120899107Y-122053571D01*
X120327678Y-122053571D01*
X120184821Y-122125000D01*
X120113392Y-122196428D01*
X120041964Y-122339285D01*
X120041964Y-122553571D01*
X120113392Y-122696428D01*
X120184821Y-122767857D01*
X120327678Y-122839285D01*
X120899107Y-122839285D01*
X119541964Y-122553571D02*
X119184821Y-123553571D01*
X118827678Y-122553571D02*
X119184821Y-123553571D01*
X119327678Y-123910714D01*
X119399107Y-123982142D01*
X119541964Y-124053571D01*
X117613392Y-123553571D02*
X117613392Y-122767857D01*
X117684821Y-122625000D01*
X117827678Y-122553571D01*
X118113392Y-122553571D01*
X118256250Y-122625000D01*
X117613392Y-123482142D02*
X117756250Y-123553571D01*
X118113392Y-123553571D01*
X118256250Y-123482142D01*
X118327678Y-123339285D01*
X118327678Y-123196428D01*
X118256250Y-123053571D01*
X118113392Y-122982142D01*
X117756250Y-122982142D01*
X117613392Y-122910714D01*
X116899107Y-122553571D02*
X116899107Y-123553571D01*
X116899107Y-122696428D02*
X116827678Y-122625000D01*
X116684821Y-122553571D01*
X116470535Y-122553571D01*
X116327678Y-122625000D01*
X116256250Y-122767857D01*
X116256250Y-123553571D01*
X114541964Y-122053571D02*
X114184821Y-123553571D01*
X113899107Y-122482142D01*
X113613392Y-123553571D01*
X113256250Y-122053571D01*
X112041964Y-123553571D02*
X112041964Y-122767857D01*
X112113392Y-122625000D01*
X112256250Y-122553571D01*
X112541964Y-122553571D01*
X112684821Y-122625000D01*
X112041964Y-123482142D02*
X112184821Y-123553571D01*
X112541964Y-123553571D01*
X112684821Y-123482142D01*
X112756250Y-123339285D01*
X112756250Y-123196428D01*
X112684821Y-123053571D01*
X112541964Y-122982142D01*
X112184821Y-122982142D01*
X112041964Y-122910714D01*
X111113392Y-123553571D02*
X111256250Y-123482142D01*
X111327678Y-123339285D01*
X111327678Y-122053571D01*
X110541964Y-123553571D02*
X110541964Y-122053571D01*
X110399107Y-122982142D02*
X109970535Y-123553571D01*
X109970535Y-122553571D02*
X110541964Y-123125000D01*
X108756250Y-123482142D02*
X108899107Y-123553571D01*
X109184821Y-123553571D01*
X109327678Y-123482142D01*
X109399107Y-123339285D01*
X109399107Y-122767857D01*
X109327678Y-122625000D01*
X109184821Y-122553571D01*
X108899107Y-122553571D01*
X108756250Y-122625000D01*
X108684821Y-122767857D01*
X108684821Y-122910714D01*
X109399107Y-123053571D01*
X108041964Y-123553571D02*
X108041964Y-122553571D01*
X108041964Y-122839285D02*
X107970535Y-122696428D01*
X107899107Y-122625000D01*
X107756250Y-122553571D01*
X107613392Y-122553571D01*
X120899107Y-126178571D02*
X120899107Y-124678571D01*
X120184821Y-125178571D02*
X120184821Y-126178571D01*
X120184821Y-125321428D02*
X120113392Y-125250000D01*
X119970535Y-125178571D01*
X119756250Y-125178571D01*
X119613392Y-125250000D01*
X119541964Y-125392857D01*
X119541964Y-126178571D01*
X119041964Y-125178571D02*
X118470535Y-125178571D01*
X118827678Y-124678571D02*
X118827678Y-125964285D01*
X118756250Y-126107142D01*
X118613392Y-126178571D01*
X118470535Y-126178571D01*
X117399107Y-126107142D02*
X117541964Y-126178571D01*
X117827678Y-126178571D01*
X117970535Y-126107142D01*
X118041964Y-125964285D01*
X118041964Y-125392857D01*
X117970535Y-125250000D01*
X117827678Y-125178571D01*
X117541964Y-125178571D01*
X117399107Y-125250000D01*
X117327678Y-125392857D01*
X117327678Y-125535714D01*
X118041964Y-125678571D01*
X116684821Y-126178571D02*
X116684821Y-125178571D01*
X116684821Y-125464285D02*
X116613392Y-125321428D01*
X116541964Y-125250000D01*
X116399107Y-125178571D01*
X116256250Y-125178571D01*
X115756250Y-126178571D02*
X115756250Y-125178571D01*
X115756250Y-125464285D02*
X115684821Y-125321428D01*
X115613392Y-125250000D01*
X115470535Y-125178571D01*
X115327678Y-125178571D01*
X114184821Y-125178571D02*
X114184821Y-126178571D01*
X114827678Y-125178571D02*
X114827678Y-125964285D01*
X114756250Y-126107142D01*
X114613392Y-126178571D01*
X114399107Y-126178571D01*
X114256250Y-126107142D01*
X114184821Y-126035714D01*
X113470535Y-125178571D02*
X113470535Y-126678571D01*
X113470535Y-125250000D02*
X113327678Y-125178571D01*
X113041964Y-125178571D01*
X112899107Y-125250000D01*
X112827678Y-125321428D01*
X112756250Y-125464285D01*
X112756250Y-125892857D01*
X112827678Y-126035714D01*
X112899107Y-126107142D01*
X113041964Y-126178571D01*
X113327678Y-126178571D01*
X113470535Y-126107142D01*
X112327678Y-125178571D02*
X111756250Y-125178571D01*
X112113392Y-124678571D02*
X112113392Y-125964285D01*
X112041964Y-126107142D01*
X111899107Y-126178571D01*
X111756250Y-126178571D01*
X109399107Y-126178571D02*
X110113392Y-126178571D01*
X110113392Y-124678571D01*
X108256250Y-126178571D02*
X108256250Y-125392857D01*
X108327678Y-125250000D01*
X108470535Y-125178571D01*
X108756250Y-125178571D01*
X108899107Y-125250000D01*
X108256250Y-126107142D02*
X108399107Y-126178571D01*
X108756250Y-126178571D01*
X108899107Y-126107142D01*
X108970535Y-125964285D01*
X108970535Y-125821428D01*
X108899107Y-125678571D01*
X108756250Y-125607142D01*
X108399107Y-125607142D01*
X108256250Y-125535714D01*
X107541964Y-126178571D02*
X107541964Y-124678571D01*
X107541964Y-125250000D02*
X107399107Y-125178571D01*
X107113392Y-125178571D01*
X106970535Y-125250000D01*
X106899107Y-125321428D01*
X106827678Y-125464285D01*
X106827678Y-125892857D01*
X106899107Y-126035714D01*
X106970535Y-126107142D01*
X107113392Y-126178571D01*
X107399107Y-126178571D01*
X107541964Y-126107142D01*
X106256250Y-126107142D02*
X106113392Y-126178571D01*
X105827678Y-126178571D01*
X105684821Y-126107142D01*
X105613392Y-125964285D01*
X105613392Y-125892857D01*
X105684821Y-125750000D01*
X105827678Y-125678571D01*
X106041964Y-125678571D01*
X106184821Y-125607142D01*
X106256250Y-125464285D01*
X106256250Y-125392857D01*
X106184821Y-125250000D01*
X106041964Y-125178571D01*
X105827678Y-125178571D01*
X105684821Y-125250000D01*
X121041964Y-127303571D02*
X120684821Y-128803571D01*
X120399107Y-127732142D01*
X120113392Y-128803571D01*
X119756250Y-127303571D01*
X119184821Y-128803571D02*
X119184821Y-127803571D01*
X119184821Y-127303571D02*
X119256250Y-127375000D01*
X119184821Y-127446428D01*
X119113392Y-127375000D01*
X119184821Y-127303571D01*
X119184821Y-127446428D01*
X118684821Y-127803571D02*
X118113392Y-127803571D01*
X118470535Y-128803571D02*
X118470535Y-127517857D01*
X118399107Y-127375000D01*
X118256250Y-127303571D01*
X118113392Y-127303571D01*
X117613392Y-128803571D02*
X117613392Y-127803571D01*
X117613392Y-127303571D02*
X117684821Y-127375000D01*
X117613392Y-127446428D01*
X117541964Y-127375000D01*
X117613392Y-127303571D01*
X117613392Y-127446428D01*
X117041964Y-127303571D02*
X116684821Y-128803571D01*
X116399107Y-127732142D01*
X116113392Y-128803571D01*
X115756250Y-127303571D01*
X114541964Y-128803571D02*
X114541964Y-128017857D01*
X114613392Y-127875000D01*
X114756250Y-127803571D01*
X115041964Y-127803571D01*
X115184821Y-127875000D01*
X114541964Y-128732142D02*
X114684821Y-128803571D01*
X115041964Y-128803571D01*
X115184821Y-128732142D01*
X115256250Y-128589285D01*
X115256250Y-128446428D01*
X115184821Y-128303571D01*
X115041964Y-128232142D01*
X114684821Y-128232142D01*
X114541964Y-128160714D01*
X113827678Y-128803571D02*
X113827678Y-127803571D01*
X113827678Y-128089285D02*
X113756250Y-127946428D01*
X113684821Y-127875000D01*
X113541964Y-127803571D01*
X113399107Y-127803571D01*
X113113392Y-127803571D02*
X112541964Y-127803571D01*
X112899107Y-127303571D02*
X112899107Y-128589285D01*
X112827678Y-128732142D01*
X112684821Y-128803571D01*
X112541964Y-128803571D01*
X110899107Y-128232142D02*
X109756250Y-128232142D01*
X107899107Y-128803571D02*
X107899107Y-127303571D01*
X107327678Y-127303571D01*
X107184821Y-127375000D01*
X107113392Y-127446428D01*
X107041964Y-127589285D01*
X107041964Y-127803571D01*
X107113392Y-127946428D01*
X107184821Y-128017857D01*
X107327678Y-128089285D01*
X107899107Y-128089285D01*
X106184821Y-128803571D02*
X106327678Y-128732142D01*
X106399107Y-128660714D01*
X106470535Y-128517857D01*
X106470535Y-128089285D01*
X106399107Y-127946428D01*
X106327678Y-127875000D01*
X106184821Y-127803571D01*
X105970535Y-127803571D01*
X105827678Y-127875000D01*
X105756250Y-127946428D01*
X105684821Y-128089285D01*
X105684821Y-128517857D01*
X105756250Y-128660714D01*
X105827678Y-128732142D01*
X105970535Y-128803571D01*
X106184821Y-128803571D01*
X105184821Y-127803571D02*
X104899107Y-128803571D01*
X104613392Y-128089285D01*
X104327678Y-128803571D01*
X104041964Y-127803571D01*
X102899107Y-128732142D02*
X103041964Y-128803571D01*
X103327678Y-128803571D01*
X103470535Y-128732142D01*
X103541964Y-128589285D01*
X103541964Y-128017857D01*
X103470535Y-127875000D01*
X103327678Y-127803571D01*
X103041964Y-127803571D01*
X102899107Y-127875000D01*
X102827678Y-128017857D01*
X102827678Y-128160714D01*
X103541964Y-128303571D01*
X102184821Y-128803571D02*
X102184821Y-127803571D01*
X102184821Y-128089285D02*
X102113392Y-127946428D01*
X102041964Y-127875000D01*
X101899107Y-127803571D01*
X101756250Y-127803571D01*
X99613392Y-128017857D02*
X99399107Y-128089285D01*
X99327678Y-128160714D01*
X99256250Y-128303571D01*
X99256250Y-128517857D01*
X99327678Y-128660714D01*
X99399107Y-128732142D01*
X99541964Y-128803571D01*
X100113392Y-128803571D01*
X100113392Y-127303571D01*
X99613392Y-127303571D01*
X99470535Y-127375000D01*
X99399107Y-127446428D01*
X99327678Y-127589285D01*
X99327678Y-127732142D01*
X99399107Y-127875000D01*
X99470535Y-127946428D01*
X99613392Y-128017857D01*
X100113392Y-128017857D01*
X98399107Y-128803571D02*
X98541964Y-128732142D01*
X98613392Y-128660714D01*
X98684821Y-128517857D01*
X98684821Y-128089285D01*
X98613392Y-127946428D01*
X98541964Y-127875000D01*
X98399107Y-127803571D01*
X98184821Y-127803571D01*
X98041964Y-127875000D01*
X97970535Y-127946428D01*
X97899107Y-128089285D01*
X97899107Y-128517857D01*
X97970535Y-128660714D01*
X98041964Y-128732142D01*
X98184821Y-128803571D01*
X98399107Y-128803571D01*
X96613392Y-128803571D02*
X96613392Y-128017857D01*
X96684821Y-127875000D01*
X96827678Y-127803571D01*
X97113392Y-127803571D01*
X97256250Y-127875000D01*
X96613392Y-128732142D02*
X96756250Y-128803571D01*
X97113392Y-128803571D01*
X97256250Y-128732142D01*
X97327678Y-128589285D01*
X97327678Y-128446428D01*
X97256250Y-128303571D01*
X97113392Y-128232142D01*
X96756250Y-128232142D01*
X96613392Y-128160714D01*
X95899107Y-128803571D02*
X95899107Y-127803571D01*
X95899107Y-128089285D02*
X95827678Y-127946428D01*
X95756250Y-127875000D01*
X95613392Y-127803571D01*
X95470535Y-127803571D01*
X94327678Y-128803571D02*
X94327678Y-127303571D01*
X94327678Y-128732142D02*
X94470535Y-128803571D01*
X94756250Y-128803571D01*
X94899107Y-128732142D01*
X94970535Y-128660714D01*
X95041964Y-128517857D01*
X95041964Y-128089285D01*
X94970535Y-127946428D01*
X94899107Y-127875000D01*
X94756250Y-127803571D01*
X94470535Y-127803571D01*
X94327678Y-127875000D01*
X91613392Y-128803571D02*
X92113392Y-128089285D01*
X92470535Y-128803571D02*
X92470535Y-127303571D01*
X91899107Y-127303571D01*
X91756250Y-127375000D01*
X91684821Y-127446428D01*
X91613392Y-127589285D01*
X91613392Y-127803571D01*
X91684821Y-127946428D01*
X91756250Y-128017857D01*
X91899107Y-128089285D01*
X92470535Y-128089285D01*
X90684821Y-127303571D02*
X90541964Y-127303571D01*
X90399107Y-127375000D01*
X90327678Y-127446428D01*
X90256250Y-127589285D01*
X90184821Y-127875000D01*
X90184821Y-128232142D01*
X90256250Y-128517857D01*
X90327678Y-128660714D01*
X90399107Y-128732142D01*
X90541964Y-128803571D01*
X90684821Y-128803571D01*
X90827678Y-128732142D01*
X90899107Y-128660714D01*
X90970535Y-128517857D01*
X91041964Y-128232142D01*
X91041964Y-127875000D01*
X90970535Y-127589285D01*
X90899107Y-127446428D01*
X90827678Y-127375000D01*
X90684821Y-127303571D01*
X89541964Y-128660714D02*
X89470535Y-128732142D01*
X89541964Y-128803571D01*
X89613392Y-128732142D01*
X89541964Y-128660714D01*
X89541964Y-128803571D01*
X88041964Y-128803571D02*
X88899107Y-128803571D01*
X88470535Y-128803571D02*
X88470535Y-127303571D01*
X88613392Y-127517857D01*
X88756250Y-127660714D01*
X88899107Y-127732142D01*
D11*
%TO.C,J3*%
X88670000Y-96000000D02*
X88670000Y-97330000D01*
X88670000Y-97330000D02*
X90000000Y-97330000D01*
X91270000Y-97330000D02*
X106570000Y-97330000D01*
X106570000Y-94670000D02*
X106570000Y-97330000D01*
X91270000Y-94670000D02*
X106570000Y-94670000D01*
X91270000Y-94670000D02*
X91270000Y-97330000D01*
D12*
X92583333Y-93452380D02*
X92583333Y-94166666D01*
X92630952Y-94309523D01*
X92726190Y-94404761D01*
X92869047Y-94452380D01*
X92964285Y-94452380D01*
X92202380Y-93452380D02*
X91583333Y-93452380D01*
X91916666Y-93833333D01*
X91773809Y-93833333D01*
X91678571Y-93880952D01*
X91630952Y-93928571D01*
X91583333Y-94023809D01*
X91583333Y-94261904D01*
X91630952Y-94357142D01*
X91678571Y-94404761D01*
X91773809Y-94452380D01*
X92059523Y-94452380D01*
X92154761Y-94404761D01*
X92202380Y-94357142D01*
%TD*%
M02*
