%TF.GenerationSoftware,KiCad,Pcbnew,5.1.10-1.fc33*%
%TF.CreationDate,2021-08-29T09:58:40-07:00*%
%TF.ProjectId,hardware,68617264-7761-4726-952e-6b696361645f,rev?*%
%TF.SameCoordinates,Original*%
%TF.FileFunction,Legend,Top*%
%TF.FilePolarity,Positive*%
%FSLAX46Y46*%
G04 Gerber Fmt 4.6, Leading zero omitted, Abs format (unit mm)*
G04 Created by KiCad (PCBNEW 5.1.10-1.fc33) date 2021-08-29 09:58:40*
%MOMM*%
%LPD*%
G01*
G04 APERTURE LIST*
%ADD10C,0.120000*%
%ADD11C,0.200000*%
%ADD12C,0.127000*%
%ADD13C,0.203200*%
%ADD14C,0.150000*%
%ADD15C,0.015000*%
G04 APERTURE END LIST*
D10*
X98500000Y-102500000D02*
X98000000Y-103750000D01*
X104000000Y-95500000D02*
X104500000Y-97500000D01*
X106750000Y-110500000D02*
X100250000Y-111750000D01*
X98000000Y-120500000D02*
X97500000Y-120500000D01*
X98000000Y-117750000D02*
X98000000Y-120500000D01*
X98500000Y-117750000D02*
X98000000Y-117750000D01*
D11*
%TO.C,PS1*%
X141000000Y-124900000D02*
G75*
G03*
X141000000Y-124900000I-100000J0D01*
G01*
D12*
X139950000Y-118550000D02*
X113550000Y-118550000D01*
X113550000Y-129550000D02*
X139950000Y-129550000D01*
X139950000Y-124700000D02*
X139950000Y-118550000D01*
X139950000Y-129550000D02*
X139950000Y-128750000D01*
X113550000Y-124700000D02*
X113550000Y-118550000D01*
X113550000Y-129550000D02*
X113550000Y-128750000D01*
D10*
%TO.C,D1*%
X109850000Y-117050000D02*
X114150000Y-117050000D01*
X114150000Y-117050000D02*
X114150000Y-111350000D01*
X109850000Y-117050000D02*
X109850000Y-111350000D01*
%TO.C,F1*%
X145660000Y-99120000D02*
X136920000Y-99120000D01*
X145660000Y-99120000D02*
X145660000Y-94880000D01*
X136920000Y-94880000D02*
X136920000Y-99120000D01*
X136920000Y-94880000D02*
X145660000Y-94880000D01*
%TO.C,J2*%
X138000000Y-98440814D02*
X138000000Y-108440814D01*
X145500000Y-98440814D02*
X138000000Y-98440814D01*
X145500000Y-108440814D02*
X145500000Y-98440814D01*
X138000000Y-108440814D02*
X145500000Y-108440814D01*
%TO.C,J1*%
X138000000Y-114254000D02*
X138000000Y-124254000D01*
X145500000Y-114254000D02*
X138000000Y-114254000D01*
X145500000Y-124254000D02*
X145500000Y-114254000D01*
X138000000Y-124254000D02*
X145500000Y-124254000D01*
%TO.C,L6*%
X110846000Y-119596000D02*
X115154000Y-119596000D01*
X115154000Y-123904000D02*
X110846000Y-123904000D01*
%TO.C,CY3*%
X130120000Y-96636000D02*
X130120000Y-98620000D01*
X130120000Y-93380000D02*
X130120000Y-95364000D01*
X122380000Y-96636000D02*
X122380000Y-98620000D01*
X122380000Y-93380000D02*
X122380000Y-95364000D01*
X122380000Y-98620000D02*
X130120000Y-98620000D01*
X122380000Y-93380000D02*
X130120000Y-93380000D01*
%TO.C,C5*%
X109043750Y-116991250D02*
X109043750Y-116203750D01*
X109437500Y-116597500D02*
X108650000Y-116597500D01*
X108410000Y-112404437D02*
X107345563Y-111340000D01*
X108410000Y-117095563D02*
X107345563Y-118160000D01*
X108410000Y-117095563D02*
X108410000Y-115810000D01*
X108410000Y-112404437D02*
X108410000Y-113690000D01*
X107345563Y-111340000D02*
X101590000Y-111340000D01*
X107345563Y-118160000D02*
X101590000Y-118160000D01*
X101590000Y-118160000D02*
X101590000Y-115810000D01*
X101590000Y-111340000D02*
X101590000Y-113690000D01*
%TO.C,C2*%
X131870000Y-107000000D02*
G75*
G03*
X131870000Y-107000000I-6370000J0D01*
G01*
%TO.C,L5*%
X140500000Y-111500000D02*
G75*
G03*
X140500000Y-111500000I-4500000J0D01*
G01*
%TO.C,C4*%
X98390000Y-118390000D02*
X98390000Y-122240000D01*
X98390000Y-129110000D02*
X98390000Y-125260000D01*
X108045563Y-129110000D02*
X98390000Y-129110000D01*
X108045563Y-118390000D02*
X98390000Y-118390000D01*
X109110000Y-119454437D02*
X109110000Y-122240000D01*
X109110000Y-128045563D02*
X109110000Y-125260000D01*
X109110000Y-128045563D02*
X108045563Y-129110000D01*
X109110000Y-119454437D02*
X108045563Y-118390000D01*
X110600000Y-126510000D02*
X109350000Y-126510000D01*
X109975000Y-127135000D02*
X109975000Y-125885000D01*
%TO.C,NTC1*%
X133380000Y-105120000D02*
X133380000Y-95880000D01*
X136120000Y-105120000D02*
X136120000Y-95880000D01*
X133380000Y-105120000D02*
X136120000Y-105120000D01*
X133380000Y-95880000D02*
X136120000Y-95880000D01*
%TO.C,C29*%
X116859420Y-119490000D02*
X117140580Y-119490000D01*
X116859420Y-120510000D02*
X117140580Y-120510000D01*
%TO.C,C1*%
X142788748Y-110590000D02*
X144211252Y-110590000D01*
X142788748Y-112410000D02*
X144211252Y-112410000D01*
%TO.C,C28*%
X113270040Y-99001092D02*
X113270040Y-98478588D01*
X111800040Y-99001092D02*
X111800040Y-98478588D01*
%TO.C,C26*%
X109926092Y-94855240D02*
X109403588Y-94855240D01*
X109926092Y-96325240D02*
X109403588Y-96325240D01*
%TO.C,C25*%
X103808692Y-106317560D02*
X103286188Y-106317560D01*
X103808692Y-107787560D02*
X103286188Y-107787560D01*
%TO.C,C24*%
X97471040Y-111563908D02*
X97471040Y-112086412D01*
X98941040Y-111563908D02*
X98941040Y-112086412D01*
%TO.C,C23*%
X103808692Y-104260160D02*
X103286188Y-104260160D01*
X103808692Y-105730160D02*
X103286188Y-105730160D01*
%TO.C,C22*%
X99503040Y-111558828D02*
X99503040Y-112081332D01*
X100973040Y-111558828D02*
X100973040Y-112081332D01*
%TO.C,C17*%
X99612040Y-104291908D02*
X99612040Y-104814412D01*
X101082040Y-104291908D02*
X101082040Y-104814412D01*
%TO.C,C16*%
X97766988Y-115836760D02*
X98289492Y-115836760D01*
X97766988Y-114366760D02*
X98289492Y-114366760D01*
%TO.C,C15*%
X89611260Y-102307292D02*
X89611260Y-101784788D01*
X88141260Y-102307292D02*
X88141260Y-101784788D01*
%TO.C,C14*%
X91643260Y-102307292D02*
X91643260Y-101784788D01*
X90173260Y-102307292D02*
X90173260Y-101784788D01*
%TO.C,C11*%
X91423512Y-98428140D02*
X90901008Y-98428140D01*
X91423512Y-99898140D02*
X90901008Y-99898140D01*
%TO.C,C10*%
X89061840Y-119624752D02*
X89061840Y-119102248D01*
X87591840Y-119624752D02*
X87591840Y-119102248D01*
%TO.C,C9*%
X91119240Y-119624752D02*
X91119240Y-119102248D01*
X89649240Y-119624752D02*
X89649240Y-119102248D01*
%TO.C,C6*%
X91011252Y-115765000D02*
X90488748Y-115765000D01*
X91011252Y-117235000D02*
X90488748Y-117235000D01*
%TO.C,C27*%
X107662640Y-99254076D02*
X107662640Y-99038404D01*
X106942640Y-99254076D02*
X106942640Y-99038404D01*
%TO.C,C21*%
X100587836Y-99640000D02*
X100372164Y-99640000D01*
X100587836Y-100360000D02*
X100372164Y-100360000D01*
%TO.C,C20*%
X102357836Y-98640000D02*
X102142164Y-98640000D01*
X102357836Y-99360000D02*
X102142164Y-99360000D01*
%TO.C,C19*%
X93487876Y-114221060D02*
X93272204Y-114221060D01*
X93487876Y-114941060D02*
X93272204Y-114941060D01*
%TO.C,C18*%
X91800840Y-112642164D02*
X91800840Y-112857836D01*
X92520840Y-112642164D02*
X92520840Y-112857836D01*
%TO.C,C13*%
X96110000Y-99357836D02*
X96110000Y-99142164D01*
X95390000Y-99357836D02*
X95390000Y-99142164D01*
%TO.C,C12*%
X97021360Y-101107836D02*
X97021360Y-100892164D01*
X96301360Y-101107836D02*
X96301360Y-100892164D01*
%TO.C,C8*%
X95610000Y-117107836D02*
X95610000Y-116892164D01*
X94890000Y-117107836D02*
X94890000Y-116892164D01*
%TO.C,C7*%
X96662440Y-118357836D02*
X96662440Y-118142164D01*
X95942440Y-118357836D02*
X95942440Y-118142164D01*
%TO.C,R19*%
X110199240Y-101712881D02*
X110199240Y-101405599D01*
X110959240Y-101712881D02*
X110959240Y-101405599D01*
%TO.C,U7*%
X111264680Y-99497600D02*
X111264680Y-97047600D01*
X108044680Y-97697600D02*
X108044680Y-99497600D01*
D13*
%TO.C,U6*%
X104651200Y-100111880D02*
X104651200Y-103111880D01*
X101651200Y-100111880D02*
X104651200Y-100111880D01*
X101651200Y-103111880D02*
X101651200Y-100111880D01*
X104651200Y-103111880D02*
X101651200Y-103111880D01*
X104751200Y-103087620D02*
G75*
G03*
X104751200Y-103087620I-100000J0D01*
G01*
%TO.C,U5*%
X93389880Y-110561380D02*
X96389880Y-110561380D01*
X93389880Y-113561380D02*
X93389880Y-110561380D01*
X96389880Y-113561380D02*
X93389880Y-113561380D01*
X96389880Y-110561380D02*
X96389880Y-113561380D01*
X96465620Y-110561380D02*
G75*
G03*
X96465620Y-110561380I-100000J0D01*
G01*
%TO.C,U4*%
X95557860Y-103241240D02*
X92557860Y-103241240D01*
X95557860Y-100241240D02*
X95557860Y-103241240D01*
X92557860Y-100241240D02*
X95557860Y-100241240D01*
X92557860Y-103241240D02*
X92557860Y-100241240D01*
X92682120Y-103241240D02*
G75*
G03*
X92682120Y-103241240I-100000J0D01*
G01*
D10*
%TO.C,R18*%
X106130000Y-107153641D02*
X106130000Y-106846359D01*
X105370000Y-107153641D02*
X105370000Y-106846359D01*
%TO.C,R17*%
X100403641Y-109120000D02*
X100096359Y-109120000D01*
X100403641Y-109880000D02*
X100096359Y-109880000D01*
%TO.C,R16*%
X88596359Y-104880000D02*
X88903641Y-104880000D01*
X88596359Y-104120000D02*
X88903641Y-104120000D01*
%TO.C,R15*%
X87846359Y-122130000D02*
X88153641Y-122130000D01*
X87846359Y-121370000D02*
X88153641Y-121370000D01*
%TO.C,R14*%
X104435440Y-98671801D02*
X104435440Y-98364519D01*
X103675440Y-98671801D02*
X103675440Y-98364519D01*
%TO.C,R13*%
X104691440Y-98364519D02*
X104691440Y-98671801D01*
X105451440Y-98364519D02*
X105451440Y-98671801D01*
%TO.C,R12*%
X91882681Y-110632360D02*
X91575399Y-110632360D01*
X91882681Y-111392360D02*
X91575399Y-111392360D01*
%TO.C,R11*%
X91575399Y-110376360D02*
X91882681Y-110376360D01*
X91575399Y-109616360D02*
X91882681Y-109616360D01*
%TO.C,R10*%
X97015719Y-103188040D02*
X97323001Y-103188040D01*
X97015719Y-102428040D02*
X97323001Y-102428040D01*
%TO.C,R9*%
X97323001Y-103444040D02*
X97015719Y-103444040D01*
X97323001Y-104204040D02*
X97015719Y-104204040D01*
%TO.C,R8*%
X95820840Y-120352859D02*
X95820840Y-120660141D01*
X96580840Y-120352859D02*
X96580840Y-120660141D01*
%TO.C,R7*%
X97571440Y-120660141D02*
X97571440Y-120352859D01*
X96811440Y-120660141D02*
X96811440Y-120352859D01*
%TO.C,L4*%
X109790840Y-101469560D02*
X109790840Y-105777560D01*
X105482840Y-105777560D02*
X105482840Y-101469560D01*
%TO.C,L3*%
X94705840Y-105226160D02*
X99013840Y-105226160D01*
X99013840Y-109534160D02*
X94705840Y-109534160D01*
%TO.C,L2*%
X94404560Y-108657740D02*
X90096560Y-108657740D01*
X90096560Y-104349740D02*
X94404560Y-104349740D01*
%TO.C,L1*%
X93655840Y-125835500D02*
X89347840Y-125835500D01*
X89347840Y-121527500D02*
X93655840Y-121527500D01*
D13*
%TO.C,U3*%
X92224140Y-120609500D02*
G75*
G03*
X92224140Y-120609500I-100000J0D01*
G01*
X92099880Y-120609500D02*
X92099880Y-117609500D01*
X92099880Y-117609500D02*
X95099880Y-117609500D01*
X95099880Y-117609500D02*
X95099880Y-120609500D01*
X95099880Y-120609500D02*
X92099880Y-120609500D01*
%TO.C,PS1*%
D14*
X129285714Y-117952380D02*
X129285714Y-116952380D01*
X129666666Y-116952380D01*
X129761904Y-117000000D01*
X129809523Y-117047619D01*
X129857142Y-117142857D01*
X129857142Y-117285714D01*
X129809523Y-117380952D01*
X129761904Y-117428571D01*
X129666666Y-117476190D01*
X129285714Y-117476190D01*
X130238095Y-117904761D02*
X130380952Y-117952380D01*
X130619047Y-117952380D01*
X130714285Y-117904761D01*
X130761904Y-117857142D01*
X130809523Y-117761904D01*
X130809523Y-117666666D01*
X130761904Y-117571428D01*
X130714285Y-117523809D01*
X130619047Y-117476190D01*
X130428571Y-117428571D01*
X130333333Y-117380952D01*
X130285714Y-117333333D01*
X130238095Y-117238095D01*
X130238095Y-117142857D01*
X130285714Y-117047619D01*
X130333333Y-117000000D01*
X130428571Y-116952380D01*
X130666666Y-116952380D01*
X130809523Y-117000000D01*
X131761904Y-117952380D02*
X131190476Y-117952380D01*
X131476190Y-117952380D02*
X131476190Y-116952380D01*
X131380952Y-117095238D01*
X131285714Y-117190476D01*
X131190476Y-117238095D01*
%TO.C,D1*%
X115452380Y-114238095D02*
X114452380Y-114238095D01*
X114452380Y-114000000D01*
X114500000Y-113857142D01*
X114595238Y-113761904D01*
X114690476Y-113714285D01*
X114880952Y-113666666D01*
X115023809Y-113666666D01*
X115214285Y-113714285D01*
X115309523Y-113761904D01*
X115404761Y-113857142D01*
X115452380Y-114000000D01*
X115452380Y-114238095D01*
X115452380Y-112714285D02*
X115452380Y-113285714D01*
X115452380Y-113000000D02*
X114452380Y-113000000D01*
X114595238Y-113095238D01*
X114690476Y-113190476D01*
X114738095Y-113285714D01*
%TO.C,F1*%
X141066666Y-93978571D02*
X140733333Y-93978571D01*
X140733333Y-94502380D02*
X140733333Y-93502380D01*
X141209523Y-93502380D01*
X142114285Y-94502380D02*
X141542857Y-94502380D01*
X141828571Y-94502380D02*
X141828571Y-93502380D01*
X141733333Y-93645238D01*
X141638095Y-93740476D01*
X141542857Y-93788095D01*
%TO.C,J2*%
X140702380Y-103833333D02*
X141416666Y-103833333D01*
X141559523Y-103880952D01*
X141654761Y-103976190D01*
X141702380Y-104119047D01*
X141702380Y-104214285D01*
X140797619Y-103404761D02*
X140750000Y-103357142D01*
X140702380Y-103261904D01*
X140702380Y-103023809D01*
X140750000Y-102928571D01*
X140797619Y-102880952D01*
X140892857Y-102833333D01*
X140988095Y-102833333D01*
X141130952Y-102880952D01*
X141702380Y-103452380D01*
X141702380Y-102833333D01*
%TO.C,J1*%
X140702380Y-119583333D02*
X141416666Y-119583333D01*
X141559523Y-119630952D01*
X141654761Y-119726190D01*
X141702380Y-119869047D01*
X141702380Y-119964285D01*
X141702380Y-118583333D02*
X141702380Y-119154761D01*
X141702380Y-118869047D02*
X140702380Y-118869047D01*
X140845238Y-118964285D01*
X140940476Y-119059523D01*
X140988095Y-119154761D01*
%TO.C,L6*%
X111333333Y-119202380D02*
X110857142Y-119202380D01*
X110857142Y-118202380D01*
X112095238Y-118202380D02*
X111904761Y-118202380D01*
X111809523Y-118250000D01*
X111761904Y-118297619D01*
X111666666Y-118440476D01*
X111619047Y-118630952D01*
X111619047Y-119011904D01*
X111666666Y-119107142D01*
X111714285Y-119154761D01*
X111809523Y-119202380D01*
X112000000Y-119202380D01*
X112095238Y-119154761D01*
X112142857Y-119107142D01*
X112190476Y-119011904D01*
X112190476Y-118773809D01*
X112142857Y-118678571D01*
X112095238Y-118630952D01*
X112000000Y-118583333D01*
X111809523Y-118583333D01*
X111714285Y-118630952D01*
X111666666Y-118678571D01*
X111619047Y-118773809D01*
%TO.C,CY3*%
X120654761Y-100107142D02*
X120607142Y-100154761D01*
X120464285Y-100202380D01*
X120369047Y-100202380D01*
X120226190Y-100154761D01*
X120130952Y-100059523D01*
X120083333Y-99964285D01*
X120035714Y-99773809D01*
X120035714Y-99630952D01*
X120083333Y-99440476D01*
X120130952Y-99345238D01*
X120226190Y-99250000D01*
X120369047Y-99202380D01*
X120464285Y-99202380D01*
X120607142Y-99250000D01*
X120654761Y-99297619D01*
X121273809Y-99726190D02*
X121273809Y-100202380D01*
X120940476Y-99202380D02*
X121273809Y-99726190D01*
X121607142Y-99202380D01*
X121845238Y-99202380D02*
X122464285Y-99202380D01*
X122130952Y-99583333D01*
X122273809Y-99583333D01*
X122369047Y-99630952D01*
X122416666Y-99678571D01*
X122464285Y-99773809D01*
X122464285Y-100011904D01*
X122416666Y-100107142D01*
X122369047Y-100154761D01*
X122273809Y-100202380D01*
X121988095Y-100202380D01*
X121892857Y-100154761D01*
X121845238Y-100107142D01*
%TO.C,C5*%
X108833333Y-118357142D02*
X108785714Y-118404761D01*
X108642857Y-118452380D01*
X108547619Y-118452380D01*
X108404761Y-118404761D01*
X108309523Y-118309523D01*
X108261904Y-118214285D01*
X108214285Y-118023809D01*
X108214285Y-117880952D01*
X108261904Y-117690476D01*
X108309523Y-117595238D01*
X108404761Y-117500000D01*
X108547619Y-117452380D01*
X108642857Y-117452380D01*
X108785714Y-117500000D01*
X108833333Y-117547619D01*
X109738095Y-117452380D02*
X109261904Y-117452380D01*
X109214285Y-117928571D01*
X109261904Y-117880952D01*
X109357142Y-117833333D01*
X109595238Y-117833333D01*
X109690476Y-117880952D01*
X109738095Y-117928571D01*
X109785714Y-118023809D01*
X109785714Y-118261904D01*
X109738095Y-118357142D01*
X109690476Y-118404761D01*
X109595238Y-118452380D01*
X109357142Y-118452380D01*
X109261904Y-118404761D01*
X109214285Y-118357142D01*
%TO.C,C2*%
X125333333Y-114857142D02*
X125285714Y-114904761D01*
X125142857Y-114952380D01*
X125047619Y-114952380D01*
X124904761Y-114904761D01*
X124809523Y-114809523D01*
X124761904Y-114714285D01*
X124714285Y-114523809D01*
X124714285Y-114380952D01*
X124761904Y-114190476D01*
X124809523Y-114095238D01*
X124904761Y-114000000D01*
X125047619Y-113952380D01*
X125142857Y-113952380D01*
X125285714Y-114000000D01*
X125333333Y-114047619D01*
X125714285Y-114047619D02*
X125761904Y-114000000D01*
X125857142Y-113952380D01*
X126095238Y-113952380D01*
X126190476Y-114000000D01*
X126238095Y-114047619D01*
X126285714Y-114142857D01*
X126285714Y-114238095D01*
X126238095Y-114380952D01*
X125666666Y-114952380D01*
X126285714Y-114952380D01*
%TO.C,L5*%
D15*
X127893333Y-119789523D02*
X127588571Y-119789523D01*
X127588571Y-119149523D01*
X128411428Y-119149523D02*
X128106666Y-119149523D01*
X128076190Y-119454285D01*
X128106666Y-119423809D01*
X128167619Y-119393333D01*
X128320000Y-119393333D01*
X128380952Y-119423809D01*
X128411428Y-119454285D01*
X128441904Y-119515238D01*
X128441904Y-119667619D01*
X128411428Y-119728571D01*
X128380952Y-119759047D01*
X128320000Y-119789523D01*
X128167619Y-119789523D01*
X128106666Y-119759047D01*
X128076190Y-119728571D01*
%TO.C,C4*%
D14*
X110083333Y-128357142D02*
X110035714Y-128404761D01*
X109892857Y-128452380D01*
X109797619Y-128452380D01*
X109654761Y-128404761D01*
X109559523Y-128309523D01*
X109511904Y-128214285D01*
X109464285Y-128023809D01*
X109464285Y-127880952D01*
X109511904Y-127690476D01*
X109559523Y-127595238D01*
X109654761Y-127500000D01*
X109797619Y-127452380D01*
X109892857Y-127452380D01*
X110035714Y-127500000D01*
X110083333Y-127547619D01*
X110940476Y-127785714D02*
X110940476Y-128452380D01*
X110702380Y-127404761D02*
X110464285Y-128119047D01*
X111083333Y-128119047D01*
%TO.C,NTC1*%
X132702380Y-102142857D02*
X131702380Y-102142857D01*
X132702380Y-101571428D01*
X131702380Y-101571428D01*
X131702380Y-101238095D02*
X131702380Y-100666666D01*
X132702380Y-100952380D02*
X131702380Y-100952380D01*
X132607142Y-99761904D02*
X132654761Y-99809523D01*
X132702380Y-99952380D01*
X132702380Y-100047619D01*
X132654761Y-100190476D01*
X132559523Y-100285714D01*
X132464285Y-100333333D01*
X132273809Y-100380952D01*
X132130952Y-100380952D01*
X131940476Y-100333333D01*
X131845238Y-100285714D01*
X131750000Y-100190476D01*
X131702380Y-100047619D01*
X131702380Y-99952380D01*
X131750000Y-99809523D01*
X131797619Y-99761904D01*
X132702380Y-98809523D02*
X132702380Y-99380952D01*
X132702380Y-99095238D02*
X131702380Y-99095238D01*
X131845238Y-99190476D01*
X131940476Y-99285714D01*
X131988095Y-99380952D01*
%TO.C,C29*%
X119357142Y-120357142D02*
X119309523Y-120404761D01*
X119166666Y-120452380D01*
X119071428Y-120452380D01*
X118928571Y-120404761D01*
X118833333Y-120309523D01*
X118785714Y-120214285D01*
X118738095Y-120023809D01*
X118738095Y-119880952D01*
X118785714Y-119690476D01*
X118833333Y-119595238D01*
X118928571Y-119500000D01*
X119071428Y-119452380D01*
X119166666Y-119452380D01*
X119309523Y-119500000D01*
X119357142Y-119547619D01*
X119738095Y-119547619D02*
X119785714Y-119500000D01*
X119880952Y-119452380D01*
X120119047Y-119452380D01*
X120214285Y-119500000D01*
X120261904Y-119547619D01*
X120309523Y-119642857D01*
X120309523Y-119738095D01*
X120261904Y-119880952D01*
X119690476Y-120452380D01*
X120309523Y-120452380D01*
X120785714Y-120452380D02*
X120976190Y-120452380D01*
X121071428Y-120404761D01*
X121119047Y-120357142D01*
X121214285Y-120214285D01*
X121261904Y-120023809D01*
X121261904Y-119642857D01*
X121214285Y-119547619D01*
X121166666Y-119500000D01*
X121071428Y-119452380D01*
X120880952Y-119452380D01*
X120785714Y-119500000D01*
X120738095Y-119547619D01*
X120690476Y-119642857D01*
X120690476Y-119880952D01*
X120738095Y-119976190D01*
X120785714Y-120023809D01*
X120880952Y-120071428D01*
X121071428Y-120071428D01*
X121166666Y-120023809D01*
X121214285Y-119976190D01*
X121261904Y-119880952D01*
%TO.C,C1*%
X143333333Y-110007142D02*
X143285714Y-110054761D01*
X143142857Y-110102380D01*
X143047619Y-110102380D01*
X142904761Y-110054761D01*
X142809523Y-109959523D01*
X142761904Y-109864285D01*
X142714285Y-109673809D01*
X142714285Y-109530952D01*
X142761904Y-109340476D01*
X142809523Y-109245238D01*
X142904761Y-109150000D01*
X143047619Y-109102380D01*
X143142857Y-109102380D01*
X143285714Y-109150000D01*
X143333333Y-109197619D01*
X144285714Y-110102380D02*
X143714285Y-110102380D01*
X144000000Y-110102380D02*
X144000000Y-109102380D01*
X143904761Y-109245238D01*
X143809523Y-109340476D01*
X143714285Y-109388095D01*
%TO.C,C28*%
X114535714Y-99264285D02*
X114573809Y-99302380D01*
X114611904Y-99416666D01*
X114611904Y-99492857D01*
X114573809Y-99607142D01*
X114497619Y-99683333D01*
X114421428Y-99721428D01*
X114269047Y-99759523D01*
X114154761Y-99759523D01*
X114002380Y-99721428D01*
X113926190Y-99683333D01*
X113850000Y-99607142D01*
X113811904Y-99492857D01*
X113811904Y-99416666D01*
X113850000Y-99302380D01*
X113888095Y-99264285D01*
X113888095Y-98959523D02*
X113850000Y-98921428D01*
X113811904Y-98845238D01*
X113811904Y-98654761D01*
X113850000Y-98578571D01*
X113888095Y-98540476D01*
X113964285Y-98502380D01*
X114040476Y-98502380D01*
X114154761Y-98540476D01*
X114611904Y-98997619D01*
X114611904Y-98502380D01*
X114154761Y-98045238D02*
X114116666Y-98121428D01*
X114078571Y-98159523D01*
X114002380Y-98197619D01*
X113964285Y-98197619D01*
X113888095Y-98159523D01*
X113850000Y-98121428D01*
X113811904Y-98045238D01*
X113811904Y-97892857D01*
X113850000Y-97816666D01*
X113888095Y-97778571D01*
X113964285Y-97740476D01*
X114002380Y-97740476D01*
X114078571Y-97778571D01*
X114116666Y-97816666D01*
X114154761Y-97892857D01*
X114154761Y-98045238D01*
X114192857Y-98121428D01*
X114230952Y-98159523D01*
X114307142Y-98197619D01*
X114459523Y-98197619D01*
X114535714Y-98159523D01*
X114573809Y-98121428D01*
X114611904Y-98045238D01*
X114611904Y-97892857D01*
X114573809Y-97816666D01*
X114535714Y-97778571D01*
X114459523Y-97740476D01*
X114307142Y-97740476D01*
X114230952Y-97778571D01*
X114192857Y-97816666D01*
X114154761Y-97892857D01*
%TO.C,C26*%
X109235714Y-94428154D02*
X109197619Y-94466249D01*
X109083333Y-94504344D01*
X109007142Y-94504344D01*
X108892857Y-94466249D01*
X108816666Y-94390059D01*
X108778571Y-94313868D01*
X108740476Y-94161487D01*
X108740476Y-94047201D01*
X108778571Y-93894820D01*
X108816666Y-93818630D01*
X108892857Y-93742440D01*
X109007142Y-93704344D01*
X109083333Y-93704344D01*
X109197619Y-93742440D01*
X109235714Y-93780535D01*
X109540476Y-93780535D02*
X109578571Y-93742440D01*
X109654761Y-93704344D01*
X109845238Y-93704344D01*
X109921428Y-93742440D01*
X109959523Y-93780535D01*
X109997619Y-93856725D01*
X109997619Y-93932916D01*
X109959523Y-94047201D01*
X109502380Y-94504344D01*
X109997619Y-94504344D01*
X110683333Y-93704344D02*
X110530952Y-93704344D01*
X110454761Y-93742440D01*
X110416666Y-93780535D01*
X110340476Y-93894820D01*
X110302380Y-94047201D01*
X110302380Y-94351963D01*
X110340476Y-94428154D01*
X110378571Y-94466249D01*
X110454761Y-94504344D01*
X110607142Y-94504344D01*
X110683333Y-94466249D01*
X110721428Y-94428154D01*
X110759523Y-94351963D01*
X110759523Y-94161487D01*
X110721428Y-94085297D01*
X110683333Y-94047201D01*
X110607142Y-94009106D01*
X110454761Y-94009106D01*
X110378571Y-94047201D01*
X110340476Y-94085297D01*
X110302380Y-94161487D01*
%TO.C,C25*%
X102985714Y-109785714D02*
X102947619Y-109823809D01*
X102833333Y-109861904D01*
X102757142Y-109861904D01*
X102642857Y-109823809D01*
X102566666Y-109747619D01*
X102528571Y-109671428D01*
X102490476Y-109519047D01*
X102490476Y-109404761D01*
X102528571Y-109252380D01*
X102566666Y-109176190D01*
X102642857Y-109100000D01*
X102757142Y-109061904D01*
X102833333Y-109061904D01*
X102947619Y-109100000D01*
X102985714Y-109138095D01*
X103290476Y-109138095D02*
X103328571Y-109100000D01*
X103404761Y-109061904D01*
X103595238Y-109061904D01*
X103671428Y-109100000D01*
X103709523Y-109138095D01*
X103747619Y-109214285D01*
X103747619Y-109290476D01*
X103709523Y-109404761D01*
X103252380Y-109861904D01*
X103747619Y-109861904D01*
X104471428Y-109061904D02*
X104090476Y-109061904D01*
X104052380Y-109442857D01*
X104090476Y-109404761D01*
X104166666Y-109366666D01*
X104357142Y-109366666D01*
X104433333Y-109404761D01*
X104471428Y-109442857D01*
X104509523Y-109519047D01*
X104509523Y-109709523D01*
X104471428Y-109785714D01*
X104433333Y-109823809D01*
X104357142Y-109861904D01*
X104166666Y-109861904D01*
X104090476Y-109823809D01*
X104052380Y-109785714D01*
%TO.C,C24*%
X107785714Y-110514285D02*
X107823809Y-110552380D01*
X107861904Y-110666666D01*
X107861904Y-110742857D01*
X107823809Y-110857142D01*
X107747619Y-110933333D01*
X107671428Y-110971428D01*
X107519047Y-111009523D01*
X107404761Y-111009523D01*
X107252380Y-110971428D01*
X107176190Y-110933333D01*
X107100000Y-110857142D01*
X107061904Y-110742857D01*
X107061904Y-110666666D01*
X107100000Y-110552380D01*
X107138095Y-110514285D01*
X107138095Y-110209523D02*
X107100000Y-110171428D01*
X107061904Y-110095238D01*
X107061904Y-109904761D01*
X107100000Y-109828571D01*
X107138095Y-109790476D01*
X107214285Y-109752380D01*
X107290476Y-109752380D01*
X107404761Y-109790476D01*
X107861904Y-110247619D01*
X107861904Y-109752380D01*
X107328571Y-109066666D02*
X107861904Y-109066666D01*
X107023809Y-109257142D02*
X107595238Y-109447619D01*
X107595238Y-108952380D01*
%TO.C,C23*%
X102985714Y-108785714D02*
X102947619Y-108823809D01*
X102833333Y-108861904D01*
X102757142Y-108861904D01*
X102642857Y-108823809D01*
X102566666Y-108747619D01*
X102528571Y-108671428D01*
X102490476Y-108519047D01*
X102490476Y-108404761D01*
X102528571Y-108252380D01*
X102566666Y-108176190D01*
X102642857Y-108100000D01*
X102757142Y-108061904D01*
X102833333Y-108061904D01*
X102947619Y-108100000D01*
X102985714Y-108138095D01*
X103290476Y-108138095D02*
X103328571Y-108100000D01*
X103404761Y-108061904D01*
X103595238Y-108061904D01*
X103671428Y-108100000D01*
X103709523Y-108138095D01*
X103747619Y-108214285D01*
X103747619Y-108290476D01*
X103709523Y-108404761D01*
X103252380Y-108861904D01*
X103747619Y-108861904D01*
X104014285Y-108061904D02*
X104509523Y-108061904D01*
X104242857Y-108366666D01*
X104357142Y-108366666D01*
X104433333Y-108404761D01*
X104471428Y-108442857D01*
X104509523Y-108519047D01*
X104509523Y-108709523D01*
X104471428Y-108785714D01*
X104433333Y-108823809D01*
X104357142Y-108861904D01*
X104128571Y-108861904D01*
X104052380Y-108823809D01*
X104014285Y-108785714D01*
%TO.C,C22*%
X108785714Y-110514285D02*
X108823809Y-110552380D01*
X108861904Y-110666666D01*
X108861904Y-110742857D01*
X108823809Y-110857142D01*
X108747619Y-110933333D01*
X108671428Y-110971428D01*
X108519047Y-111009523D01*
X108404761Y-111009523D01*
X108252380Y-110971428D01*
X108176190Y-110933333D01*
X108100000Y-110857142D01*
X108061904Y-110742857D01*
X108061904Y-110666666D01*
X108100000Y-110552380D01*
X108138095Y-110514285D01*
X108138095Y-110209523D02*
X108100000Y-110171428D01*
X108061904Y-110095238D01*
X108061904Y-109904761D01*
X108100000Y-109828571D01*
X108138095Y-109790476D01*
X108214285Y-109752380D01*
X108290476Y-109752380D01*
X108404761Y-109790476D01*
X108861904Y-110247619D01*
X108861904Y-109752380D01*
X108138095Y-109447619D02*
X108100000Y-109409523D01*
X108061904Y-109333333D01*
X108061904Y-109142857D01*
X108100000Y-109066666D01*
X108138095Y-109028571D01*
X108214285Y-108990476D01*
X108290476Y-108990476D01*
X108404761Y-109028571D01*
X108861904Y-109485714D01*
X108861904Y-108990476D01*
%TO.C,C17*%
X100785714Y-108014285D02*
X100823809Y-108052380D01*
X100861904Y-108166666D01*
X100861904Y-108242857D01*
X100823809Y-108357142D01*
X100747619Y-108433333D01*
X100671428Y-108471428D01*
X100519047Y-108509523D01*
X100404761Y-108509523D01*
X100252380Y-108471428D01*
X100176190Y-108433333D01*
X100100000Y-108357142D01*
X100061904Y-108242857D01*
X100061904Y-108166666D01*
X100100000Y-108052380D01*
X100138095Y-108014285D01*
X100861904Y-107252380D02*
X100861904Y-107709523D01*
X100861904Y-107480952D02*
X100061904Y-107480952D01*
X100176190Y-107557142D01*
X100252380Y-107633333D01*
X100290476Y-107709523D01*
X100061904Y-106985714D02*
X100061904Y-106452380D01*
X100861904Y-106795238D01*
%TO.C,C16*%
X96675754Y-116962274D02*
X96637659Y-117000369D01*
X96523373Y-117038464D01*
X96447182Y-117038464D01*
X96332897Y-117000369D01*
X96256706Y-116924179D01*
X96218611Y-116847988D01*
X96180516Y-116695607D01*
X96180516Y-116581321D01*
X96218611Y-116428940D01*
X96256706Y-116352750D01*
X96332897Y-116276560D01*
X96447182Y-116238464D01*
X96523373Y-116238464D01*
X96637659Y-116276560D01*
X96675754Y-116314655D01*
X97437659Y-117038464D02*
X96980516Y-117038464D01*
X97209087Y-117038464D02*
X97209087Y-116238464D01*
X97132897Y-116352750D01*
X97056706Y-116428940D01*
X96980516Y-116467036D01*
X98123373Y-116238464D02*
X97970992Y-116238464D01*
X97894801Y-116276560D01*
X97856706Y-116314655D01*
X97780516Y-116428940D01*
X97742420Y-116581321D01*
X97742420Y-116886083D01*
X97780516Y-116962274D01*
X97818611Y-117000369D01*
X97894801Y-117038464D01*
X98047182Y-117038464D01*
X98123373Y-117000369D01*
X98161468Y-116962274D01*
X98199563Y-116886083D01*
X98199563Y-116695607D01*
X98161468Y-116619417D01*
X98123373Y-116581321D01*
X98047182Y-116543226D01*
X97894801Y-116543226D01*
X97818611Y-116581321D01*
X97780516Y-116619417D01*
X97742420Y-116695607D01*
%TO.C,C15*%
X86785714Y-102514285D02*
X86823809Y-102552380D01*
X86861904Y-102666666D01*
X86861904Y-102742857D01*
X86823809Y-102857142D01*
X86747619Y-102933333D01*
X86671428Y-102971428D01*
X86519047Y-103009523D01*
X86404761Y-103009523D01*
X86252380Y-102971428D01*
X86176190Y-102933333D01*
X86100000Y-102857142D01*
X86061904Y-102742857D01*
X86061904Y-102666666D01*
X86100000Y-102552380D01*
X86138095Y-102514285D01*
X86861904Y-101752380D02*
X86861904Y-102209523D01*
X86861904Y-101980952D02*
X86061904Y-101980952D01*
X86176190Y-102057142D01*
X86252380Y-102133333D01*
X86290476Y-102209523D01*
X86061904Y-101028571D02*
X86061904Y-101409523D01*
X86442857Y-101447619D01*
X86404761Y-101409523D01*
X86366666Y-101333333D01*
X86366666Y-101142857D01*
X86404761Y-101066666D01*
X86442857Y-101028571D01*
X86519047Y-100990476D01*
X86709523Y-100990476D01*
X86785714Y-101028571D01*
X86823809Y-101066666D01*
X86861904Y-101142857D01*
X86861904Y-101333333D01*
X86823809Y-101409523D01*
X86785714Y-101447619D01*
%TO.C,C14*%
X87785714Y-102514285D02*
X87823809Y-102552380D01*
X87861904Y-102666666D01*
X87861904Y-102742857D01*
X87823809Y-102857142D01*
X87747619Y-102933333D01*
X87671428Y-102971428D01*
X87519047Y-103009523D01*
X87404761Y-103009523D01*
X87252380Y-102971428D01*
X87176190Y-102933333D01*
X87100000Y-102857142D01*
X87061904Y-102742857D01*
X87061904Y-102666666D01*
X87100000Y-102552380D01*
X87138095Y-102514285D01*
X87861904Y-101752380D02*
X87861904Y-102209523D01*
X87861904Y-101980952D02*
X87061904Y-101980952D01*
X87176190Y-102057142D01*
X87252380Y-102133333D01*
X87290476Y-102209523D01*
X87328571Y-101066666D02*
X87861904Y-101066666D01*
X87023809Y-101257142D02*
X87595238Y-101447619D01*
X87595238Y-100952380D01*
%TO.C,C11*%
X87231674Y-99436154D02*
X87193579Y-99474249D01*
X87079293Y-99512344D01*
X87003102Y-99512344D01*
X86888817Y-99474249D01*
X86812626Y-99398059D01*
X86774531Y-99321868D01*
X86736436Y-99169487D01*
X86736436Y-99055201D01*
X86774531Y-98902820D01*
X86812626Y-98826630D01*
X86888817Y-98750440D01*
X87003102Y-98712344D01*
X87079293Y-98712344D01*
X87193579Y-98750440D01*
X87231674Y-98788535D01*
X87993579Y-99512344D02*
X87536436Y-99512344D01*
X87765007Y-99512344D02*
X87765007Y-98712344D01*
X87688817Y-98826630D01*
X87612626Y-98902820D01*
X87536436Y-98940916D01*
X88755483Y-99512344D02*
X88298340Y-99512344D01*
X88526912Y-99512344D02*
X88526912Y-98712344D01*
X88450721Y-98826630D01*
X88374531Y-98902820D01*
X88298340Y-98940916D01*
%TO.C,C10*%
X87009054Y-116992785D02*
X87047149Y-117030880D01*
X87085244Y-117145166D01*
X87085244Y-117221357D01*
X87047149Y-117335642D01*
X86970959Y-117411833D01*
X86894768Y-117449928D01*
X86742387Y-117488023D01*
X86628101Y-117488023D01*
X86475720Y-117449928D01*
X86399530Y-117411833D01*
X86323340Y-117335642D01*
X86285244Y-117221357D01*
X86285244Y-117145166D01*
X86323340Y-117030880D01*
X86361435Y-116992785D01*
X87085244Y-116230880D02*
X87085244Y-116688023D01*
X87085244Y-116459452D02*
X86285244Y-116459452D01*
X86399530Y-116535642D01*
X86475720Y-116611833D01*
X86513816Y-116688023D01*
X86285244Y-115735642D02*
X86285244Y-115659452D01*
X86323340Y-115583261D01*
X86361435Y-115545166D01*
X86437625Y-115507071D01*
X86590006Y-115468976D01*
X86780482Y-115468976D01*
X86932863Y-115507071D01*
X87009054Y-115545166D01*
X87047149Y-115583261D01*
X87085244Y-115659452D01*
X87085244Y-115735642D01*
X87047149Y-115811833D01*
X87009054Y-115849928D01*
X86932863Y-115888023D01*
X86780482Y-115926119D01*
X86590006Y-115926119D01*
X86437625Y-115888023D01*
X86361435Y-115849928D01*
X86323340Y-115811833D01*
X86285244Y-115735642D01*
%TO.C,C9*%
X88088554Y-116865833D02*
X88126649Y-116903928D01*
X88164744Y-117018214D01*
X88164744Y-117094404D01*
X88126649Y-117208690D01*
X88050459Y-117284880D01*
X87974268Y-117322976D01*
X87821887Y-117361071D01*
X87707601Y-117361071D01*
X87555220Y-117322976D01*
X87479030Y-117284880D01*
X87402840Y-117208690D01*
X87364744Y-117094404D01*
X87364744Y-117018214D01*
X87402840Y-116903928D01*
X87440935Y-116865833D01*
X88164744Y-116484880D02*
X88164744Y-116332500D01*
X88126649Y-116256309D01*
X88088554Y-116218214D01*
X87974268Y-116142023D01*
X87821887Y-116103928D01*
X87517125Y-116103928D01*
X87440935Y-116142023D01*
X87402840Y-116180119D01*
X87364744Y-116256309D01*
X87364744Y-116408690D01*
X87402840Y-116484880D01*
X87440935Y-116522976D01*
X87517125Y-116561071D01*
X87707601Y-116561071D01*
X87783792Y-116522976D01*
X87821887Y-116484880D01*
X87859982Y-116408690D01*
X87859982Y-116256309D01*
X87821887Y-116180119D01*
X87783792Y-116142023D01*
X87707601Y-116103928D01*
%TO.C,C6*%
X88866666Y-115285714D02*
X88828571Y-115323809D01*
X88714285Y-115361904D01*
X88638095Y-115361904D01*
X88523809Y-115323809D01*
X88447619Y-115247619D01*
X88409523Y-115171428D01*
X88371428Y-115019047D01*
X88371428Y-114904761D01*
X88409523Y-114752380D01*
X88447619Y-114676190D01*
X88523809Y-114600000D01*
X88638095Y-114561904D01*
X88714285Y-114561904D01*
X88828571Y-114600000D01*
X88866666Y-114638095D01*
X89552380Y-114561904D02*
X89400000Y-114561904D01*
X89323809Y-114600000D01*
X89285714Y-114638095D01*
X89209523Y-114752380D01*
X89171428Y-114904761D01*
X89171428Y-115209523D01*
X89209523Y-115285714D01*
X89247619Y-115323809D01*
X89323809Y-115361904D01*
X89476190Y-115361904D01*
X89552380Y-115323809D01*
X89590476Y-115285714D01*
X89628571Y-115209523D01*
X89628571Y-115019047D01*
X89590476Y-114942857D01*
X89552380Y-114904761D01*
X89476190Y-114866666D01*
X89323809Y-114866666D01*
X89247619Y-114904761D01*
X89209523Y-114942857D01*
X89171428Y-115019047D01*
%TO.C,C27*%
X107535714Y-97582805D02*
X107573809Y-97620900D01*
X107611904Y-97735186D01*
X107611904Y-97811377D01*
X107573809Y-97925662D01*
X107497619Y-98001853D01*
X107421428Y-98039948D01*
X107269047Y-98078043D01*
X107154761Y-98078043D01*
X107002380Y-98039948D01*
X106926190Y-98001853D01*
X106850000Y-97925662D01*
X106811904Y-97811377D01*
X106811904Y-97735186D01*
X106850000Y-97620900D01*
X106888095Y-97582805D01*
X106888095Y-97278043D02*
X106850000Y-97239948D01*
X106811904Y-97163758D01*
X106811904Y-96973281D01*
X106850000Y-96897091D01*
X106888095Y-96858996D01*
X106964285Y-96820900D01*
X107040476Y-96820900D01*
X107154761Y-96858996D01*
X107611904Y-97316139D01*
X107611904Y-96820900D01*
X106811904Y-96554234D02*
X106811904Y-96020900D01*
X107611904Y-96363758D01*
%TO.C,C21*%
X99735714Y-99285714D02*
X99697619Y-99323809D01*
X99583333Y-99361904D01*
X99507142Y-99361904D01*
X99392857Y-99323809D01*
X99316666Y-99247619D01*
X99278571Y-99171428D01*
X99240476Y-99019047D01*
X99240476Y-98904761D01*
X99278571Y-98752380D01*
X99316666Y-98676190D01*
X99392857Y-98600000D01*
X99507142Y-98561904D01*
X99583333Y-98561904D01*
X99697619Y-98600000D01*
X99735714Y-98638095D01*
X100040476Y-98638095D02*
X100078571Y-98600000D01*
X100154761Y-98561904D01*
X100345238Y-98561904D01*
X100421428Y-98600000D01*
X100459523Y-98638095D01*
X100497619Y-98714285D01*
X100497619Y-98790476D01*
X100459523Y-98904761D01*
X100002380Y-99361904D01*
X100497619Y-99361904D01*
X101259523Y-99361904D02*
X100802380Y-99361904D01*
X101030952Y-99361904D02*
X101030952Y-98561904D01*
X100954761Y-98676190D01*
X100878571Y-98752380D01*
X100802380Y-98790476D01*
%TO.C,C20*%
X101451234Y-98279874D02*
X101413139Y-98317969D01*
X101298853Y-98356064D01*
X101222662Y-98356064D01*
X101108377Y-98317969D01*
X101032186Y-98241779D01*
X100994091Y-98165588D01*
X100955996Y-98013207D01*
X100955996Y-97898921D01*
X100994091Y-97746540D01*
X101032186Y-97670350D01*
X101108377Y-97594160D01*
X101222662Y-97556064D01*
X101298853Y-97556064D01*
X101413139Y-97594160D01*
X101451234Y-97632255D01*
X101755996Y-97632255D02*
X101794091Y-97594160D01*
X101870281Y-97556064D01*
X102060758Y-97556064D01*
X102136948Y-97594160D01*
X102175043Y-97632255D01*
X102213139Y-97708445D01*
X102213139Y-97784636D01*
X102175043Y-97898921D01*
X101717900Y-98356064D01*
X102213139Y-98356064D01*
X102708377Y-97556064D02*
X102784567Y-97556064D01*
X102860758Y-97594160D01*
X102898853Y-97632255D01*
X102936948Y-97708445D01*
X102975043Y-97860826D01*
X102975043Y-98051302D01*
X102936948Y-98203683D01*
X102898853Y-98279874D01*
X102860758Y-98317969D01*
X102784567Y-98356064D01*
X102708377Y-98356064D01*
X102632186Y-98317969D01*
X102594091Y-98279874D01*
X102555996Y-98203683D01*
X102517900Y-98051302D01*
X102517900Y-97860826D01*
X102555996Y-97708445D01*
X102594091Y-97632255D01*
X102632186Y-97594160D01*
X102708377Y-97556064D01*
%TO.C,C19*%
X90735714Y-114785714D02*
X90697619Y-114823809D01*
X90583333Y-114861904D01*
X90507142Y-114861904D01*
X90392857Y-114823809D01*
X90316666Y-114747619D01*
X90278571Y-114671428D01*
X90240476Y-114519047D01*
X90240476Y-114404761D01*
X90278571Y-114252380D01*
X90316666Y-114176190D01*
X90392857Y-114100000D01*
X90507142Y-114061904D01*
X90583333Y-114061904D01*
X90697619Y-114100000D01*
X90735714Y-114138095D01*
X91497619Y-114861904D02*
X91040476Y-114861904D01*
X91269047Y-114861904D02*
X91269047Y-114061904D01*
X91192857Y-114176190D01*
X91116666Y-114252380D01*
X91040476Y-114290476D01*
X91878571Y-114861904D02*
X92030952Y-114861904D01*
X92107142Y-114823809D01*
X92145238Y-114785714D01*
X92221428Y-114671428D01*
X92259523Y-114519047D01*
X92259523Y-114214285D01*
X92221428Y-114138095D01*
X92183333Y-114100000D01*
X92107142Y-114061904D01*
X91954761Y-114061904D01*
X91878571Y-114100000D01*
X91840476Y-114138095D01*
X91802380Y-114214285D01*
X91802380Y-114404761D01*
X91840476Y-114480952D01*
X91878571Y-114519047D01*
X91954761Y-114557142D01*
X92107142Y-114557142D01*
X92183333Y-114519047D01*
X92221428Y-114480952D01*
X92259523Y-114404761D01*
%TO.C,C18*%
X91285714Y-113264285D02*
X91323809Y-113302380D01*
X91361904Y-113416666D01*
X91361904Y-113492857D01*
X91323809Y-113607142D01*
X91247619Y-113683333D01*
X91171428Y-113721428D01*
X91019047Y-113759523D01*
X90904761Y-113759523D01*
X90752380Y-113721428D01*
X90676190Y-113683333D01*
X90600000Y-113607142D01*
X90561904Y-113492857D01*
X90561904Y-113416666D01*
X90600000Y-113302380D01*
X90638095Y-113264285D01*
X91361904Y-112502380D02*
X91361904Y-112959523D01*
X91361904Y-112730952D02*
X90561904Y-112730952D01*
X90676190Y-112807142D01*
X90752380Y-112883333D01*
X90790476Y-112959523D01*
X90904761Y-112045238D02*
X90866666Y-112121428D01*
X90828571Y-112159523D01*
X90752380Y-112197619D01*
X90714285Y-112197619D01*
X90638095Y-112159523D01*
X90600000Y-112121428D01*
X90561904Y-112045238D01*
X90561904Y-111892857D01*
X90600000Y-111816666D01*
X90638095Y-111778571D01*
X90714285Y-111740476D01*
X90752380Y-111740476D01*
X90828571Y-111778571D01*
X90866666Y-111816666D01*
X90904761Y-111892857D01*
X90904761Y-112045238D01*
X90942857Y-112121428D01*
X90980952Y-112159523D01*
X91057142Y-112197619D01*
X91209523Y-112197619D01*
X91285714Y-112159523D01*
X91323809Y-112121428D01*
X91361904Y-112045238D01*
X91361904Y-111892857D01*
X91323809Y-111816666D01*
X91285714Y-111778571D01*
X91209523Y-111740476D01*
X91057142Y-111740476D01*
X90980952Y-111778571D01*
X90942857Y-111816666D01*
X90904761Y-111892857D01*
%TO.C,C13*%
X95035714Y-99014285D02*
X95073809Y-99052380D01*
X95111904Y-99166666D01*
X95111904Y-99242857D01*
X95073809Y-99357142D01*
X94997619Y-99433333D01*
X94921428Y-99471428D01*
X94769047Y-99509523D01*
X94654761Y-99509523D01*
X94502380Y-99471428D01*
X94426190Y-99433333D01*
X94350000Y-99357142D01*
X94311904Y-99242857D01*
X94311904Y-99166666D01*
X94350000Y-99052380D01*
X94388095Y-99014285D01*
X95111904Y-98252380D02*
X95111904Y-98709523D01*
X95111904Y-98480952D02*
X94311904Y-98480952D01*
X94426190Y-98557142D01*
X94502380Y-98633333D01*
X94540476Y-98709523D01*
X94311904Y-97985714D02*
X94311904Y-97490476D01*
X94616666Y-97757142D01*
X94616666Y-97642857D01*
X94654761Y-97566666D01*
X94692857Y-97528571D01*
X94769047Y-97490476D01*
X94959523Y-97490476D01*
X95035714Y-97528571D01*
X95073809Y-97566666D01*
X95111904Y-97642857D01*
X95111904Y-97871428D01*
X95073809Y-97947619D01*
X95035714Y-97985714D01*
%TO.C,C12*%
X97285714Y-99514285D02*
X97323809Y-99552380D01*
X97361904Y-99666666D01*
X97361904Y-99742857D01*
X97323809Y-99857142D01*
X97247619Y-99933333D01*
X97171428Y-99971428D01*
X97019047Y-100009523D01*
X96904761Y-100009523D01*
X96752380Y-99971428D01*
X96676190Y-99933333D01*
X96600000Y-99857142D01*
X96561904Y-99742857D01*
X96561904Y-99666666D01*
X96600000Y-99552380D01*
X96638095Y-99514285D01*
X97361904Y-98752380D02*
X97361904Y-99209523D01*
X97361904Y-98980952D02*
X96561904Y-98980952D01*
X96676190Y-99057142D01*
X96752380Y-99133333D01*
X96790476Y-99209523D01*
X96638095Y-98447619D02*
X96600000Y-98409523D01*
X96561904Y-98333333D01*
X96561904Y-98142857D01*
X96600000Y-98066666D01*
X96638095Y-98028571D01*
X96714285Y-97990476D01*
X96790476Y-97990476D01*
X96904761Y-98028571D01*
X97361904Y-98485714D01*
X97361904Y-97990476D01*
%TO.C,C8*%
X94535714Y-116383333D02*
X94573809Y-116421428D01*
X94611904Y-116535714D01*
X94611904Y-116611904D01*
X94573809Y-116726190D01*
X94497619Y-116802380D01*
X94421428Y-116840476D01*
X94269047Y-116878571D01*
X94154761Y-116878571D01*
X94002380Y-116840476D01*
X93926190Y-116802380D01*
X93850000Y-116726190D01*
X93811904Y-116611904D01*
X93811904Y-116535714D01*
X93850000Y-116421428D01*
X93888095Y-116383333D01*
X94154761Y-115926190D02*
X94116666Y-116002380D01*
X94078571Y-116040476D01*
X94002380Y-116078571D01*
X93964285Y-116078571D01*
X93888095Y-116040476D01*
X93850000Y-116002380D01*
X93811904Y-115926190D01*
X93811904Y-115773809D01*
X93850000Y-115697619D01*
X93888095Y-115659523D01*
X93964285Y-115621428D01*
X94002380Y-115621428D01*
X94078571Y-115659523D01*
X94116666Y-115697619D01*
X94154761Y-115773809D01*
X94154761Y-115926190D01*
X94192857Y-116002380D01*
X94230952Y-116040476D01*
X94307142Y-116078571D01*
X94459523Y-116078571D01*
X94535714Y-116040476D01*
X94573809Y-116002380D01*
X94611904Y-115926190D01*
X94611904Y-115773809D01*
X94573809Y-115697619D01*
X94535714Y-115659523D01*
X94459523Y-115621428D01*
X94307142Y-115621428D01*
X94230952Y-115659523D01*
X94192857Y-115697619D01*
X94154761Y-115773809D01*
%TO.C,C7*%
X97629554Y-118383333D02*
X97667649Y-118421428D01*
X97705744Y-118535714D01*
X97705744Y-118611904D01*
X97667649Y-118726190D01*
X97591459Y-118802380D01*
X97515268Y-118840476D01*
X97362887Y-118878571D01*
X97248601Y-118878571D01*
X97096220Y-118840476D01*
X97020030Y-118802380D01*
X96943840Y-118726190D01*
X96905744Y-118611904D01*
X96905744Y-118535714D01*
X96943840Y-118421428D01*
X96981935Y-118383333D01*
X96905744Y-118116666D02*
X96905744Y-117583333D01*
X97705744Y-117926190D01*
%TO.C,R19*%
X111111904Y-104264285D02*
X110730952Y-104530952D01*
X111111904Y-104721428D02*
X110311904Y-104721428D01*
X110311904Y-104416666D01*
X110350000Y-104340476D01*
X110388095Y-104302380D01*
X110464285Y-104264285D01*
X110578571Y-104264285D01*
X110654761Y-104302380D01*
X110692857Y-104340476D01*
X110730952Y-104416666D01*
X110730952Y-104721428D01*
X111111904Y-103502380D02*
X111111904Y-103959523D01*
X111111904Y-103730952D02*
X110311904Y-103730952D01*
X110426190Y-103807142D01*
X110502380Y-103883333D01*
X110540476Y-103959523D01*
X111111904Y-103121428D02*
X111111904Y-102969047D01*
X111073809Y-102892857D01*
X111035714Y-102854761D01*
X110921428Y-102778571D01*
X110769047Y-102740476D01*
X110464285Y-102740476D01*
X110388095Y-102778571D01*
X110350000Y-102816666D01*
X110311904Y-102892857D01*
X110311904Y-103045238D01*
X110350000Y-103121428D01*
X110388095Y-103159523D01*
X110464285Y-103197619D01*
X110654761Y-103197619D01*
X110730952Y-103159523D01*
X110769047Y-103121428D01*
X110807142Y-103045238D01*
X110807142Y-102892857D01*
X110769047Y-102816666D01*
X110730952Y-102778571D01*
X110654761Y-102740476D01*
%TO.C,U7*%
X111640476Y-95311904D02*
X111640476Y-95959523D01*
X111678571Y-96035714D01*
X111716666Y-96073809D01*
X111792857Y-96111904D01*
X111945238Y-96111904D01*
X112021428Y-96073809D01*
X112059523Y-96035714D01*
X112097619Y-95959523D01*
X112097619Y-95311904D01*
X112402380Y-95311904D02*
X112935714Y-95311904D01*
X112592857Y-96111904D01*
%TO.C,U6*%
X105306444Y-100931083D02*
X105954063Y-100931083D01*
X106030254Y-100892988D01*
X106068349Y-100854893D01*
X106106444Y-100778702D01*
X106106444Y-100626321D01*
X106068349Y-100550131D01*
X106030254Y-100512036D01*
X105954063Y-100473940D01*
X105306444Y-100473940D01*
X105306444Y-99750131D02*
X105306444Y-99902512D01*
X105344540Y-99978702D01*
X105382635Y-100016798D01*
X105496920Y-100092988D01*
X105649301Y-100131083D01*
X105954063Y-100131083D01*
X106030254Y-100092988D01*
X106068349Y-100054893D01*
X106106444Y-99978702D01*
X106106444Y-99826321D01*
X106068349Y-99750131D01*
X106030254Y-99712036D01*
X105954063Y-99673940D01*
X105763587Y-99673940D01*
X105687397Y-99712036D01*
X105649301Y-99750131D01*
X105611206Y-99826321D01*
X105611206Y-99978702D01*
X105649301Y-100054893D01*
X105687397Y-100092988D01*
X105763587Y-100131083D01*
%TO.C,U5*%
X92890476Y-109061904D02*
X92890476Y-109709523D01*
X92928571Y-109785714D01*
X92966666Y-109823809D01*
X93042857Y-109861904D01*
X93195238Y-109861904D01*
X93271428Y-109823809D01*
X93309523Y-109785714D01*
X93347619Y-109709523D01*
X93347619Y-109061904D01*
X94109523Y-109061904D02*
X93728571Y-109061904D01*
X93690476Y-109442857D01*
X93728571Y-109404761D01*
X93804761Y-109366666D01*
X93995238Y-109366666D01*
X94071428Y-109404761D01*
X94109523Y-109442857D01*
X94147619Y-109519047D01*
X94147619Y-109709523D01*
X94109523Y-109785714D01*
X94071428Y-109823809D01*
X93995238Y-109861904D01*
X93804761Y-109861904D01*
X93728571Y-109823809D01*
X93690476Y-109785714D01*
%TO.C,R18*%
X106111904Y-109764285D02*
X105730952Y-110030952D01*
X106111904Y-110221428D02*
X105311904Y-110221428D01*
X105311904Y-109916666D01*
X105350000Y-109840476D01*
X105388095Y-109802380D01*
X105464285Y-109764285D01*
X105578571Y-109764285D01*
X105654761Y-109802380D01*
X105692857Y-109840476D01*
X105730952Y-109916666D01*
X105730952Y-110221428D01*
X106111904Y-109002380D02*
X106111904Y-109459523D01*
X106111904Y-109230952D02*
X105311904Y-109230952D01*
X105426190Y-109307142D01*
X105502380Y-109383333D01*
X105540476Y-109459523D01*
X105654761Y-108545238D02*
X105616666Y-108621428D01*
X105578571Y-108659523D01*
X105502380Y-108697619D01*
X105464285Y-108697619D01*
X105388095Y-108659523D01*
X105350000Y-108621428D01*
X105311904Y-108545238D01*
X105311904Y-108392857D01*
X105350000Y-108316666D01*
X105388095Y-108278571D01*
X105464285Y-108240476D01*
X105502380Y-108240476D01*
X105578571Y-108278571D01*
X105616666Y-108316666D01*
X105654761Y-108392857D01*
X105654761Y-108545238D01*
X105692857Y-108621428D01*
X105730952Y-108659523D01*
X105807142Y-108697619D01*
X105959523Y-108697619D01*
X106035714Y-108659523D01*
X106073809Y-108621428D01*
X106111904Y-108545238D01*
X106111904Y-108392857D01*
X106073809Y-108316666D01*
X106035714Y-108278571D01*
X105959523Y-108240476D01*
X105807142Y-108240476D01*
X105730952Y-108278571D01*
X105692857Y-108316666D01*
X105654761Y-108392857D01*
%TO.C,R17*%
X102485714Y-110861904D02*
X102219047Y-110480952D01*
X102028571Y-110861904D02*
X102028571Y-110061904D01*
X102333333Y-110061904D01*
X102409523Y-110100000D01*
X102447619Y-110138095D01*
X102485714Y-110214285D01*
X102485714Y-110328571D01*
X102447619Y-110404761D01*
X102409523Y-110442857D01*
X102333333Y-110480952D01*
X102028571Y-110480952D01*
X103247619Y-110861904D02*
X102790476Y-110861904D01*
X103019047Y-110861904D02*
X103019047Y-110061904D01*
X102942857Y-110176190D01*
X102866666Y-110252380D01*
X102790476Y-110290476D01*
X103514285Y-110061904D02*
X104047619Y-110061904D01*
X103704761Y-110861904D01*
%TO.C,R16*%
X88235714Y-105861904D02*
X87969047Y-105480952D01*
X87778571Y-105861904D02*
X87778571Y-105061904D01*
X88083333Y-105061904D01*
X88159523Y-105100000D01*
X88197619Y-105138095D01*
X88235714Y-105214285D01*
X88235714Y-105328571D01*
X88197619Y-105404761D01*
X88159523Y-105442857D01*
X88083333Y-105480952D01*
X87778571Y-105480952D01*
X88997619Y-105861904D02*
X88540476Y-105861904D01*
X88769047Y-105861904D02*
X88769047Y-105061904D01*
X88692857Y-105176190D01*
X88616666Y-105252380D01*
X88540476Y-105290476D01*
X89683333Y-105061904D02*
X89530952Y-105061904D01*
X89454761Y-105100000D01*
X89416666Y-105138095D01*
X89340476Y-105252380D01*
X89302380Y-105404761D01*
X89302380Y-105709523D01*
X89340476Y-105785714D01*
X89378571Y-105823809D01*
X89454761Y-105861904D01*
X89607142Y-105861904D01*
X89683333Y-105823809D01*
X89721428Y-105785714D01*
X89759523Y-105709523D01*
X89759523Y-105519047D01*
X89721428Y-105442857D01*
X89683333Y-105404761D01*
X89607142Y-105366666D01*
X89454761Y-105366666D01*
X89378571Y-105404761D01*
X89340476Y-105442857D01*
X89302380Y-105519047D01*
%TO.C,R15*%
X87485714Y-123361904D02*
X87219047Y-122980952D01*
X87028571Y-123361904D02*
X87028571Y-122561904D01*
X87333333Y-122561904D01*
X87409523Y-122600000D01*
X87447619Y-122638095D01*
X87485714Y-122714285D01*
X87485714Y-122828571D01*
X87447619Y-122904761D01*
X87409523Y-122942857D01*
X87333333Y-122980952D01*
X87028571Y-122980952D01*
X88247619Y-123361904D02*
X87790476Y-123361904D01*
X88019047Y-123361904D02*
X88019047Y-122561904D01*
X87942857Y-122676190D01*
X87866666Y-122752380D01*
X87790476Y-122790476D01*
X88971428Y-122561904D02*
X88590476Y-122561904D01*
X88552380Y-122942857D01*
X88590476Y-122904761D01*
X88666666Y-122866666D01*
X88857142Y-122866666D01*
X88933333Y-122904761D01*
X88971428Y-122942857D01*
X89009523Y-123019047D01*
X89009523Y-123209523D01*
X88971428Y-123285714D01*
X88933333Y-123323809D01*
X88857142Y-123361904D01*
X88666666Y-123361904D01*
X88590476Y-123323809D01*
X88552380Y-123285714D01*
%TO.C,R14*%
X103611904Y-94764285D02*
X103230952Y-95030952D01*
X103611904Y-95221428D02*
X102811904Y-95221428D01*
X102811904Y-94916666D01*
X102850000Y-94840476D01*
X102888095Y-94802380D01*
X102964285Y-94764285D01*
X103078571Y-94764285D01*
X103154761Y-94802380D01*
X103192857Y-94840476D01*
X103230952Y-94916666D01*
X103230952Y-95221428D01*
X103611904Y-94002380D02*
X103611904Y-94459523D01*
X103611904Y-94230952D02*
X102811904Y-94230952D01*
X102926190Y-94307142D01*
X103002380Y-94383333D01*
X103040476Y-94459523D01*
X103078571Y-93316666D02*
X103611904Y-93316666D01*
X102773809Y-93507142D02*
X103345238Y-93697619D01*
X103345238Y-93202380D01*
%TO.C,R13*%
X104611904Y-94764285D02*
X104230952Y-95030952D01*
X104611904Y-95221428D02*
X103811904Y-95221428D01*
X103811904Y-94916666D01*
X103850000Y-94840476D01*
X103888095Y-94802380D01*
X103964285Y-94764285D01*
X104078571Y-94764285D01*
X104154761Y-94802380D01*
X104192857Y-94840476D01*
X104230952Y-94916666D01*
X104230952Y-95221428D01*
X104611904Y-94002380D02*
X104611904Y-94459523D01*
X104611904Y-94230952D02*
X103811904Y-94230952D01*
X103926190Y-94307142D01*
X104002380Y-94383333D01*
X104040476Y-94459523D01*
X103811904Y-93735714D02*
X103811904Y-93240476D01*
X104116666Y-93507142D01*
X104116666Y-93392857D01*
X104154761Y-93316666D01*
X104192857Y-93278571D01*
X104269047Y-93240476D01*
X104459523Y-93240476D01*
X104535714Y-93278571D01*
X104573809Y-93316666D01*
X104611904Y-93392857D01*
X104611904Y-93621428D01*
X104573809Y-93697619D01*
X104535714Y-93735714D01*
%TO.C,R12*%
X88985714Y-111361904D02*
X88719047Y-110980952D01*
X88528571Y-111361904D02*
X88528571Y-110561904D01*
X88833333Y-110561904D01*
X88909523Y-110600000D01*
X88947619Y-110638095D01*
X88985714Y-110714285D01*
X88985714Y-110828571D01*
X88947619Y-110904761D01*
X88909523Y-110942857D01*
X88833333Y-110980952D01*
X88528571Y-110980952D01*
X89747619Y-111361904D02*
X89290476Y-111361904D01*
X89519047Y-111361904D02*
X89519047Y-110561904D01*
X89442857Y-110676190D01*
X89366666Y-110752380D01*
X89290476Y-110790476D01*
X90052380Y-110638095D02*
X90090476Y-110600000D01*
X90166666Y-110561904D01*
X90357142Y-110561904D01*
X90433333Y-110600000D01*
X90471428Y-110638095D01*
X90509523Y-110714285D01*
X90509523Y-110790476D01*
X90471428Y-110904761D01*
X90014285Y-111361904D01*
X90509523Y-111361904D01*
%TO.C,R11*%
X88985714Y-110361904D02*
X88719047Y-109980952D01*
X88528571Y-110361904D02*
X88528571Y-109561904D01*
X88833333Y-109561904D01*
X88909523Y-109600000D01*
X88947619Y-109638095D01*
X88985714Y-109714285D01*
X88985714Y-109828571D01*
X88947619Y-109904761D01*
X88909523Y-109942857D01*
X88833333Y-109980952D01*
X88528571Y-109980952D01*
X89747619Y-110361904D02*
X89290476Y-110361904D01*
X89519047Y-110361904D02*
X89519047Y-109561904D01*
X89442857Y-109676190D01*
X89366666Y-109752380D01*
X89290476Y-109790476D01*
X90509523Y-110361904D02*
X90052380Y-110361904D01*
X90280952Y-110361904D02*
X90280952Y-109561904D01*
X90204761Y-109676190D01*
X90128571Y-109752380D01*
X90052380Y-109790476D01*
%TO.C,R10*%
X97985714Y-101111904D02*
X97719047Y-100730952D01*
X97528571Y-101111904D02*
X97528571Y-100311904D01*
X97833333Y-100311904D01*
X97909523Y-100350000D01*
X97947619Y-100388095D01*
X97985714Y-100464285D01*
X97985714Y-100578571D01*
X97947619Y-100654761D01*
X97909523Y-100692857D01*
X97833333Y-100730952D01*
X97528571Y-100730952D01*
X98747619Y-101111904D02*
X98290476Y-101111904D01*
X98519047Y-101111904D02*
X98519047Y-100311904D01*
X98442857Y-100426190D01*
X98366666Y-100502380D01*
X98290476Y-100540476D01*
X99242857Y-100311904D02*
X99319047Y-100311904D01*
X99395238Y-100350000D01*
X99433333Y-100388095D01*
X99471428Y-100464285D01*
X99509523Y-100616666D01*
X99509523Y-100807142D01*
X99471428Y-100959523D01*
X99433333Y-101035714D01*
X99395238Y-101073809D01*
X99319047Y-101111904D01*
X99242857Y-101111904D01*
X99166666Y-101073809D01*
X99128571Y-101035714D01*
X99090476Y-100959523D01*
X99052380Y-100807142D01*
X99052380Y-100616666D01*
X99090476Y-100464285D01*
X99128571Y-100388095D01*
X99166666Y-100350000D01*
X99242857Y-100311904D01*
%TO.C,R9*%
X98366666Y-102111904D02*
X98100000Y-101730952D01*
X97909523Y-102111904D02*
X97909523Y-101311904D01*
X98214285Y-101311904D01*
X98290476Y-101350000D01*
X98328571Y-101388095D01*
X98366666Y-101464285D01*
X98366666Y-101578571D01*
X98328571Y-101654761D01*
X98290476Y-101692857D01*
X98214285Y-101730952D01*
X97909523Y-101730952D01*
X98747619Y-102111904D02*
X98900000Y-102111904D01*
X98976190Y-102073809D01*
X99014285Y-102035714D01*
X99090476Y-101921428D01*
X99128571Y-101769047D01*
X99128571Y-101464285D01*
X99090476Y-101388095D01*
X99052380Y-101350000D01*
X98976190Y-101311904D01*
X98823809Y-101311904D01*
X98747619Y-101350000D01*
X98709523Y-101388095D01*
X98671428Y-101464285D01*
X98671428Y-101654761D01*
X98709523Y-101730952D01*
X98747619Y-101769047D01*
X98823809Y-101807142D01*
X98976190Y-101807142D01*
X99052380Y-101769047D01*
X99090476Y-101730952D01*
X99128571Y-101654761D01*
%TO.C,R8*%
X99594744Y-117389833D02*
X99213792Y-117656500D01*
X99594744Y-117846976D02*
X98794744Y-117846976D01*
X98794744Y-117542214D01*
X98832840Y-117466023D01*
X98870935Y-117427928D01*
X98947125Y-117389833D01*
X99061411Y-117389833D01*
X99137601Y-117427928D01*
X99175697Y-117466023D01*
X99213792Y-117542214D01*
X99213792Y-117846976D01*
X99137601Y-116932690D02*
X99099506Y-117008880D01*
X99061411Y-117046976D01*
X98985220Y-117085071D01*
X98947125Y-117085071D01*
X98870935Y-117046976D01*
X98832840Y-117008880D01*
X98794744Y-116932690D01*
X98794744Y-116780309D01*
X98832840Y-116704119D01*
X98870935Y-116666023D01*
X98947125Y-116627928D01*
X98985220Y-116627928D01*
X99061411Y-116666023D01*
X99099506Y-116704119D01*
X99137601Y-116780309D01*
X99137601Y-116932690D01*
X99175697Y-117008880D01*
X99213792Y-117046976D01*
X99289982Y-117085071D01*
X99442363Y-117085071D01*
X99518554Y-117046976D01*
X99556649Y-117008880D01*
X99594744Y-116932690D01*
X99594744Y-116780309D01*
X99556649Y-116704119D01*
X99518554Y-116666023D01*
X99442363Y-116627928D01*
X99289982Y-116627928D01*
X99213792Y-116666023D01*
X99175697Y-116704119D01*
X99137601Y-116780309D01*
%TO.C,R7*%
X100674244Y-117389833D02*
X100293292Y-117656500D01*
X100674244Y-117846976D02*
X99874244Y-117846976D01*
X99874244Y-117542214D01*
X99912340Y-117466023D01*
X99950435Y-117427928D01*
X100026625Y-117389833D01*
X100140911Y-117389833D01*
X100217101Y-117427928D01*
X100255197Y-117466023D01*
X100293292Y-117542214D01*
X100293292Y-117846976D01*
X99874244Y-117123166D02*
X99874244Y-116589833D01*
X100674244Y-116932690D01*
%TO.C,L4*%
X109116666Y-106861904D02*
X108735714Y-106861904D01*
X108735714Y-106061904D01*
X109726190Y-106328571D02*
X109726190Y-106861904D01*
X109535714Y-106023809D02*
X109345238Y-106595238D01*
X109840476Y-106595238D01*
%TO.C,L3*%
X99111904Y-104633333D02*
X99111904Y-105014285D01*
X98311904Y-105014285D01*
X98311904Y-104442857D02*
X98311904Y-103947619D01*
X98616666Y-104214285D01*
X98616666Y-104100000D01*
X98654761Y-104023809D01*
X98692857Y-103985714D01*
X98769047Y-103947619D01*
X98959523Y-103947619D01*
X99035714Y-103985714D01*
X99073809Y-104023809D01*
X99111904Y-104100000D01*
X99111904Y-104328571D01*
X99073809Y-104404761D01*
X99035714Y-104442857D01*
%TO.C,L2*%
X89861904Y-108383333D02*
X89861904Y-108764285D01*
X89061904Y-108764285D01*
X89138095Y-108154761D02*
X89100000Y-108116666D01*
X89061904Y-108040476D01*
X89061904Y-107850000D01*
X89100000Y-107773809D01*
X89138095Y-107735714D01*
X89214285Y-107697619D01*
X89290476Y-107697619D01*
X89404761Y-107735714D01*
X89861904Y-108192857D01*
X89861904Y-107697619D01*
%TO.C,L1*%
X89111904Y-125383333D02*
X89111904Y-125764285D01*
X88311904Y-125764285D01*
X89111904Y-124697619D02*
X89111904Y-125154761D01*
X89111904Y-124926190D02*
X88311904Y-124926190D01*
X88426190Y-125002380D01*
X88502380Y-125078571D01*
X88540476Y-125154761D01*
%TO.C,U3*%
X94175244Y-122576523D02*
X94822863Y-122576523D01*
X94899054Y-122538428D01*
X94937149Y-122500333D01*
X94975244Y-122424142D01*
X94975244Y-122271761D01*
X94937149Y-122195571D01*
X94899054Y-122157476D01*
X94822863Y-122119380D01*
X94175244Y-122119380D01*
X94175244Y-121814619D02*
X94175244Y-121319380D01*
X94480006Y-121586047D01*
X94480006Y-121471761D01*
X94518101Y-121395571D01*
X94556197Y-121357476D01*
X94632387Y-121319380D01*
X94822863Y-121319380D01*
X94899054Y-121357476D01*
X94937149Y-121395571D01*
X94975244Y-121471761D01*
X94975244Y-121700333D01*
X94937149Y-121776523D01*
X94899054Y-121814619D01*
%TD*%
M02*
