%TF.GenerationSoftware,KiCad,Pcbnew,5.1.10-1.fc33*%
%TF.CreationDate,2021-08-29T09:58:40-07:00*%
%TF.ProjectId,hardware,68617264-7761-4726-952e-6b696361645f,rev?*%
%TF.SameCoordinates,Original*%
%TF.FileFunction,Soldermask,Bot*%
%TF.FilePolarity,Negative*%
%FSLAX46Y46*%
G04 Gerber Fmt 4.6, Leading zero omitted, Abs format (unit mm)*
G04 Created by KiCad (PCBNEW 5.1.10-1.fc33) date 2021-08-29 09:58:40*
%MOMM*%
%LPD*%
G01*
G04 APERTURE LIST*
%ADD10R,3.000000X3.000000*%
%ADD11C,2.000000*%
%ADD12C,2.500000*%
%ADD13C,1.600000*%
%ADD14O,1.700000X1.700000*%
%ADD15R,1.700000X1.700000*%
%ADD16C,1.500000*%
%ADD17C,0.450000*%
G04 APERTURE END LIST*
D10*
%TO.C,PS1*%
X118750000Y-126750000D03*
X126750000Y-126750000D03*
X130750000Y-126750000D03*
X114750000Y-126750000D03*
X134750000Y-126750000D03*
X138750000Y-126750000D03*
%TD*%
D11*
%TO.C,F1*%
X143830000Y-97010000D03*
X138750000Y-97000000D03*
%TD*%
D12*
%TO.C,J2*%
X143700000Y-103540814D03*
X143000000Y-100740814D03*
X143100000Y-106240814D03*
%TD*%
%TO.C,J1*%
X143700000Y-119354000D03*
X143000000Y-116554000D03*
X143100000Y-122054000D03*
%TD*%
D11*
%TO.C,CY3*%
X131250000Y-96000000D03*
X121250000Y-96000000D03*
%TD*%
D13*
%TO.C,C2*%
X123000000Y-107000000D03*
X128000000Y-107000000D03*
%TD*%
D14*
%TO.C,J3*%
X105240000Y-96000000D03*
X102700000Y-96000000D03*
X100160000Y-96000000D03*
X97620000Y-96000000D03*
X95080000Y-96000000D03*
X92540000Y-96000000D03*
D15*
X90000000Y-96000000D03*
%TD*%
D16*
%TO.C,L5*%
X133500000Y-111500000D03*
X138500000Y-111500000D03*
%TD*%
D13*
%TO.C,NTC1*%
X134750000Y-98000000D03*
X134750000Y-103000000D03*
%TD*%
D17*
%TO.C,U6*%
X102651200Y-101111880D03*
X103651200Y-101111880D03*
X103151200Y-101611880D03*
X102651200Y-102111880D03*
X103651200Y-102111880D03*
%TD*%
%TO.C,U5*%
X94389880Y-112561380D03*
X94389880Y-111561380D03*
X94889880Y-112061380D03*
X95389880Y-112561380D03*
X95389880Y-111561380D03*
%TD*%
%TO.C,U4*%
X94557860Y-101241240D03*
X94557860Y-102241240D03*
X94057860Y-101741240D03*
X93557860Y-101241240D03*
X93557860Y-102241240D03*
%TD*%
%TO.C,U3*%
X94099880Y-118609500D03*
X94099880Y-119609500D03*
X93599880Y-119109500D03*
X93099880Y-118609500D03*
X93099880Y-119609500D03*
%TD*%
M02*
