M48
; DRILL file {KiCad 5.1.10-1.fc33} date Sun Aug 29 12:40:27 2021
; FORMAT={-:-/ absolute / inch / decimal}
; #@! TF.CreationDate,2021-08-29T12:40:27-07:00
; #@! TF.GenerationSoftware,Kicad,Pcbnew,5.1.10-1.fc33
; #@! TF.FileFunction,Plated,1,4,PTH
FMAT,2
INCH
T1C0.0079
T2C0.0374
T3C0.0394
T4C0.0906
%
G90
G05
T1
X3.8583Y-4.937
X3.9142Y-5.015
X3.9715Y-5.0551
X3.997Y-5.0551
X4.0315Y-4.1102
X4.0472Y-5.0591
X4.0698Y-4.7656
X4.0698Y-4.7912
X4.08Y-4.52
X4.0945Y-5.0709
X4.1Y-4.58
X4.14Y-4.42
X4.1575Y-5.0394
X4.269Y-3.9941
X4.276Y-4.0559
X4.28Y-3.96
X4.282Y-4.116
X4.2946Y-3.9941
X4.3075Y-4.0559
X4.36Y-3.98
X4.376Y-4.117
X4.376Y-4.305
X4.378Y-4.21
X4.3896Y-4.276
X4.4015Y-4.1585
X4.406Y-4.213
X4.407Y-4.242
X4.4252Y-3.8179
X4.439Y-4.306
X4.439Y-4.4
X4.471Y-4.3065
X4.471Y-4.3375
X4.5014Y-4.4321
X4.5025Y-4.2425
X4.5025Y-4.274
X4.5025Y-4.306
X4.503Y-4.337
X4.503Y-4.367
X4.521Y-4.013
X4.534Y-4.18
X4.5645Y-4.1485
X4.597Y-4.148
X4.5975Y-4.211
X4.6142Y-3.9528
X4.627Y-4.306
X4.6275Y-4.274
X4.628Y-4.117
X4.6283Y-4.3995
X4.6285Y-4.181
X4.66Y-4.211
X4.66Y-4.274
X4.66Y-4.305
X4.6887Y-4.1482
X4.69Y-4.306
X4.69Y-4.401
X4.691Y-4.0852
X4.691Y-4.274
X4.691Y-4.339
X4.691Y-4.369
X4.692Y-4.211
X4.721Y-4.339
X4.721Y-4.369
X4.7215Y-4.1805
X4.722Y-4.149
X4.722Y-4.401
X4.7224Y-4.085
X4.7226Y-4.2735
X4.723Y-4.055
X4.723Y-4.211
X4.723Y-4.305
X4.809Y-4.109
X4.8295Y-4.431
X4.83Y-4.071
X4.873Y-4.07
X4.873Y-4.7539
X4.876Y-4.1307
X4.878Y-4.4347
X4.8971Y-3.9711
X4.8989Y-4.4249
X4.9Y-3.85
X4.906Y-4.172
X4.9072Y-4.2145
X4.92Y-4.4143
X4.927Y-3.976
X4.9355Y-4.3985
X4.937Y-4.129
X4.939Y-4.752
X4.939Y-4.357
X4.94Y-4.02
X4.9405Y-4.184
X4.9449Y-5.0394
X4.9463Y-4.3317
X4.95Y-3.85
X4.9753Y-4.2173
X4.9975Y-4.151
X4.9985Y-4.3823
X5.0Y-3.85
X5.03Y-4.3713
X5.04Y-3.76
X5.0709Y-4.6457
X5.0709Y-4.7008
X5.0709Y-4.7559
X5.0709Y-4.9528
X5.072Y-3.8765
X5.115Y-4.082
X5.1158Y-4.0502
X5.133Y-4.126
X5.1468Y-4.0497
X5.1478Y-4.0822
X5.16Y-3.76
X5.18Y-3.83
X5.191Y-4.1405
X5.197Y-3.934
X5.207Y-4.1235
X5.208Y-4.012
X5.2092Y-4.0806
X5.225Y-3.989
X5.2295Y-4.2269
X5.242Y-3.8605
X5.247Y-4.003
X5.2505Y-4.2546
X5.2545Y-3.9455
X5.2551Y-4.227
X5.26Y-3.76
X5.2675Y-3.996
X5.2733Y-4.05
X5.279Y-4.26
X5.296Y-4.2743
X5.3047Y-3.8923
X5.3054Y-3.8618
X5.3065Y-3.9475
X5.3146Y-4.1491
X5.3192Y-4.2472
X5.323Y-4.274
X5.3252Y-4.1262
X5.3289Y-4.006
X5.3358Y-3.8923
X5.3361Y-4.0499
X5.3366Y-3.8615
X5.352Y-3.941
X5.352Y-4.294
X5.3678Y-4.0018
X5.3681Y-3.86
X5.3768Y-3.9466
X5.38Y-3.814
X5.383Y-4.238
X5.4005Y-3.9305
X5.4146Y-4.2112
X5.4155Y-4.0065
X5.4195Y-3.974
X5.421Y-4.273
X5.445Y-4.003
X5.446Y-4.124
X5.451Y-4.271
X5.458Y-3.935
X5.4623Y-3.8603
X5.4798Y-4.128
X5.494Y-3.828
X5.4941Y-3.86
X5.5156Y-4.1244
X5.522Y-3.8245
X5.5482Y-4.127
X5.554Y-3.824
X5.5816Y-4.1238
X5.6005Y-3.825
X5.6201Y-3.7697
X5.68Y-4.32
X5.7087Y-3.8819
X5.74Y-4.16
X5.74Y-4.22
X5.7677Y-3.7598
T2
X3.8976Y-4.2913
X3.8976Y-4.3898
X3.8976Y-4.4685
X3.8976Y-4.5669
T3
X3.5138Y-4.8228
X3.5138Y-4.9228
X3.5138Y-5.0228
X3.5433Y-3.7795
X3.6433Y-3.7795
X3.7433Y-3.7795
X3.8433Y-3.7795
X3.9433Y-3.7795
X4.0433Y-3.7795
X4.1433Y-3.7795
T4
X3.7909Y-4.1705
X3.7909Y-4.6878
T0
M30
