%TF.GenerationSoftware,KiCad,Pcbnew,5.1.10-1.fc33*%
%TF.CreationDate,2021-08-29T12:40:12-07:00*%
%TF.ProjectId,hardware,68617264-7761-4726-952e-6b696361645f,rev?*%
%TF.SameCoordinates,Original*%
%TF.FileFunction,Paste,Bot*%
%TF.FilePolarity,Positive*%
%FSLAX46Y46*%
G04 Gerber Fmt 4.6, Leading zero omitted, Abs format (unit mm)*
G04 Created by KiCad (PCBNEW 5.1.10-1.fc33) date 2021-08-29 12:40:12*
%MOMM*%
%LPD*%
G01*
G04 APERTURE LIST*
%ADD10R,2.200000X1.050000*%
%ADD11R,1.050000X1.000000*%
%ADD12R,2.000000X1.500000*%
G04 APERTURE END LIST*
D10*
%TO.C,AE2*%
X143475000Y-122475000D03*
D11*
X141950000Y-121000000D03*
D10*
X143475000Y-119525000D03*
%TD*%
%TO.C,AE1*%
X123475000Y-122475000D03*
D11*
X121950000Y-121000000D03*
D10*
X123475000Y-119525000D03*
%TD*%
%TO.C,C9*%
G36*
G01*
X104230000Y-127830000D02*
X104230000Y-128170000D01*
G75*
G02*
X104090000Y-128310000I-140000J0D01*
G01*
X103810000Y-128310000D01*
G75*
G02*
X103670000Y-128170000I0J140000D01*
G01*
X103670000Y-127830000D01*
G75*
G02*
X103810000Y-127690000I140000J0D01*
G01*
X104090000Y-127690000D01*
G75*
G02*
X104230000Y-127830000I0J-140000D01*
G01*
G37*
G36*
G01*
X105190000Y-127830000D02*
X105190000Y-128170000D01*
G75*
G02*
X105050000Y-128310000I-140000J0D01*
G01*
X104770000Y-128310000D01*
G75*
G02*
X104630000Y-128170000I0J140000D01*
G01*
X104630000Y-127830000D01*
G75*
G02*
X104770000Y-127690000I140000J0D01*
G01*
X105050000Y-127690000D01*
G75*
G02*
X105190000Y-127830000I0J-140000D01*
G01*
G37*
%TD*%
%TO.C,C8*%
G36*
G01*
X104230000Y-126830000D02*
X104230000Y-127170000D01*
G75*
G02*
X104090000Y-127310000I-140000J0D01*
G01*
X103810000Y-127310000D01*
G75*
G02*
X103670000Y-127170000I0J140000D01*
G01*
X103670000Y-126830000D01*
G75*
G02*
X103810000Y-126690000I140000J0D01*
G01*
X104090000Y-126690000D01*
G75*
G02*
X104230000Y-126830000I0J-140000D01*
G01*
G37*
G36*
G01*
X105190000Y-126830000D02*
X105190000Y-127170000D01*
G75*
G02*
X105050000Y-127310000I-140000J0D01*
G01*
X104770000Y-127310000D01*
G75*
G02*
X104630000Y-127170000I0J140000D01*
G01*
X104630000Y-126830000D01*
G75*
G02*
X104770000Y-126690000I140000J0D01*
G01*
X105050000Y-126690000D01*
G75*
G02*
X105190000Y-126830000I0J-140000D01*
G01*
G37*
%TD*%
%TO.C,C7*%
G36*
G01*
X124150000Y-128280000D02*
X124150000Y-128620000D01*
G75*
G02*
X124010000Y-128760000I-140000J0D01*
G01*
X123730000Y-128760000D01*
G75*
G02*
X123590000Y-128620000I0J140000D01*
G01*
X123590000Y-128280000D01*
G75*
G02*
X123730000Y-128140000I140000J0D01*
G01*
X124010000Y-128140000D01*
G75*
G02*
X124150000Y-128280000I0J-140000D01*
G01*
G37*
G36*
G01*
X125110000Y-128280000D02*
X125110000Y-128620000D01*
G75*
G02*
X124970000Y-128760000I-140000J0D01*
G01*
X124690000Y-128760000D01*
G75*
G02*
X124550000Y-128620000I0J140000D01*
G01*
X124550000Y-128280000D01*
G75*
G02*
X124690000Y-128140000I140000J0D01*
G01*
X124970000Y-128140000D01*
G75*
G02*
X125110000Y-128280000I0J-140000D01*
G01*
G37*
%TD*%
%TO.C,C6*%
G36*
G01*
X124150000Y-127280000D02*
X124150000Y-127620000D01*
G75*
G02*
X124010000Y-127760000I-140000J0D01*
G01*
X123730000Y-127760000D01*
G75*
G02*
X123590000Y-127620000I0J140000D01*
G01*
X123590000Y-127280000D01*
G75*
G02*
X123730000Y-127140000I140000J0D01*
G01*
X124010000Y-127140000D01*
G75*
G02*
X124150000Y-127280000I0J-140000D01*
G01*
G37*
G36*
G01*
X125110000Y-127280000D02*
X125110000Y-127620000D01*
G75*
G02*
X124970000Y-127760000I-140000J0D01*
G01*
X124690000Y-127760000D01*
G75*
G02*
X124550000Y-127620000I0J140000D01*
G01*
X124550000Y-127280000D01*
G75*
G02*
X124690000Y-127140000I140000J0D01*
G01*
X124970000Y-127140000D01*
G75*
G02*
X125110000Y-127280000I0J-140000D01*
G01*
G37*
%TD*%
D12*
%TO.C,U5*%
X127000000Y-122000000D03*
X127000000Y-128000000D03*
X127000000Y-125500000D03*
X127000000Y-119500000D03*
X139000000Y-118900000D03*
X139000000Y-120900000D03*
%TD*%
%TO.C,U4*%
X107000000Y-122000000D03*
X107000000Y-128000000D03*
X107000000Y-125500000D03*
X107000000Y-119500000D03*
X119000000Y-118900000D03*
X119000000Y-120900000D03*
%TD*%
%TO.C,C32*%
G36*
G01*
X134958000Y-106791100D02*
X135298000Y-106791100D01*
G75*
G02*
X135438000Y-106931100I0J-140000D01*
G01*
X135438000Y-107211100D01*
G75*
G02*
X135298000Y-107351100I-140000J0D01*
G01*
X134958000Y-107351100D01*
G75*
G02*
X134818000Y-107211100I0J140000D01*
G01*
X134818000Y-106931100D01*
G75*
G02*
X134958000Y-106791100I140000J0D01*
G01*
G37*
G36*
G01*
X134958000Y-105831100D02*
X135298000Y-105831100D01*
G75*
G02*
X135438000Y-105971100I0J-140000D01*
G01*
X135438000Y-106251100D01*
G75*
G02*
X135298000Y-106391100I-140000J0D01*
G01*
X134958000Y-106391100D01*
G75*
G02*
X134818000Y-106251100I0J140000D01*
G01*
X134818000Y-105971100D01*
G75*
G02*
X134958000Y-105831100I140000J0D01*
G01*
G37*
%TD*%
%TO.C,C99*%
G36*
G01*
X109782000Y-106560800D02*
X109782000Y-106900800D01*
G75*
G02*
X109642000Y-107040800I-140000J0D01*
G01*
X109362000Y-107040800D01*
G75*
G02*
X109222000Y-106900800I0J140000D01*
G01*
X109222000Y-106560800D01*
G75*
G02*
X109362000Y-106420800I140000J0D01*
G01*
X109642000Y-106420800D01*
G75*
G02*
X109782000Y-106560800I0J-140000D01*
G01*
G37*
G36*
G01*
X110742000Y-106560800D02*
X110742000Y-106900800D01*
G75*
G02*
X110602000Y-107040800I-140000J0D01*
G01*
X110322000Y-107040800D01*
G75*
G02*
X110182000Y-106900800I0J140000D01*
G01*
X110182000Y-106560800D01*
G75*
G02*
X110322000Y-106420800I140000J0D01*
G01*
X110602000Y-106420800D01*
G75*
G02*
X110742000Y-106560800I0J-140000D01*
G01*
G37*
%TD*%
%TO.C,C92*%
G36*
G01*
X128300300Y-97879500D02*
X127960300Y-97879500D01*
G75*
G02*
X127820300Y-97739500I0J140000D01*
G01*
X127820300Y-97459500D01*
G75*
G02*
X127960300Y-97319500I140000J0D01*
G01*
X128300300Y-97319500D01*
G75*
G02*
X128440300Y-97459500I0J-140000D01*
G01*
X128440300Y-97739500D01*
G75*
G02*
X128300300Y-97879500I-140000J0D01*
G01*
G37*
G36*
G01*
X128300300Y-98839500D02*
X127960300Y-98839500D01*
G75*
G02*
X127820300Y-98699500I0J140000D01*
G01*
X127820300Y-98419500D01*
G75*
G02*
X127960300Y-98279500I140000J0D01*
G01*
X128300300Y-98279500D01*
G75*
G02*
X128440300Y-98419500I0J-140000D01*
G01*
X128440300Y-98699500D01*
G75*
G02*
X128300300Y-98839500I-140000J0D01*
G01*
G37*
%TD*%
%TO.C,C91*%
G36*
G01*
X139519000Y-105783200D02*
X139519000Y-105443200D01*
G75*
G02*
X139659000Y-105303200I140000J0D01*
G01*
X139939000Y-105303200D01*
G75*
G02*
X140079000Y-105443200I0J-140000D01*
G01*
X140079000Y-105783200D01*
G75*
G02*
X139939000Y-105923200I-140000J0D01*
G01*
X139659000Y-105923200D01*
G75*
G02*
X139519000Y-105783200I0J140000D01*
G01*
G37*
G36*
G01*
X138559000Y-105783200D02*
X138559000Y-105443200D01*
G75*
G02*
X138699000Y-105303200I140000J0D01*
G01*
X138979000Y-105303200D01*
G75*
G02*
X139119000Y-105443200I0J-140000D01*
G01*
X139119000Y-105783200D01*
G75*
G02*
X138979000Y-105923200I-140000J0D01*
G01*
X138699000Y-105923200D01*
G75*
G02*
X138559000Y-105783200I0J140000D01*
G01*
G37*
%TD*%
%TO.C,C90*%
G36*
G01*
X130375000Y-102112900D02*
X130375000Y-101772900D01*
G75*
G02*
X130515000Y-101632900I140000J0D01*
G01*
X130795000Y-101632900D01*
G75*
G02*
X130935000Y-101772900I0J-140000D01*
G01*
X130935000Y-102112900D01*
G75*
G02*
X130795000Y-102252900I-140000J0D01*
G01*
X130515000Y-102252900D01*
G75*
G02*
X130375000Y-102112900I0J140000D01*
G01*
G37*
G36*
G01*
X129415000Y-102112900D02*
X129415000Y-101772900D01*
G75*
G02*
X129555000Y-101632900I140000J0D01*
G01*
X129835000Y-101632900D01*
G75*
G02*
X129975000Y-101772900I0J-140000D01*
G01*
X129975000Y-102112900D01*
G75*
G02*
X129835000Y-102252900I-140000J0D01*
G01*
X129555000Y-102252900D01*
G75*
G02*
X129415000Y-102112900I0J140000D01*
G01*
G37*
%TD*%
%TO.C,C89*%
G36*
G01*
X141611960Y-105798440D02*
X141611960Y-105458440D01*
G75*
G02*
X141751960Y-105318440I140000J0D01*
G01*
X142031960Y-105318440D01*
G75*
G02*
X142171960Y-105458440I0J-140000D01*
G01*
X142171960Y-105798440D01*
G75*
G02*
X142031960Y-105938440I-140000J0D01*
G01*
X141751960Y-105938440D01*
G75*
G02*
X141611960Y-105798440I0J140000D01*
G01*
G37*
G36*
G01*
X140651960Y-105798440D02*
X140651960Y-105458440D01*
G75*
G02*
X140791960Y-105318440I140000J0D01*
G01*
X141071960Y-105318440D01*
G75*
G02*
X141211960Y-105458440I0J-140000D01*
G01*
X141211960Y-105798440D01*
G75*
G02*
X141071960Y-105938440I-140000J0D01*
G01*
X140791960Y-105938440D01*
G75*
G02*
X140651960Y-105798440I0J140000D01*
G01*
G37*
%TD*%
%TO.C,C87*%
G36*
G01*
X128732100Y-103393900D02*
X128392100Y-103393900D01*
G75*
G02*
X128252100Y-103253900I0J140000D01*
G01*
X128252100Y-102973900D01*
G75*
G02*
X128392100Y-102833900I140000J0D01*
G01*
X128732100Y-102833900D01*
G75*
G02*
X128872100Y-102973900I0J-140000D01*
G01*
X128872100Y-103253900D01*
G75*
G02*
X128732100Y-103393900I-140000J0D01*
G01*
G37*
G36*
G01*
X128732100Y-104353900D02*
X128392100Y-104353900D01*
G75*
G02*
X128252100Y-104213900I0J140000D01*
G01*
X128252100Y-103933900D01*
G75*
G02*
X128392100Y-103793900I140000J0D01*
G01*
X128732100Y-103793900D01*
G75*
G02*
X128872100Y-103933900I0J-140000D01*
G01*
X128872100Y-104213900D01*
G75*
G02*
X128732100Y-104353900I-140000J0D01*
G01*
G37*
%TD*%
%TO.C,C86*%
G36*
G01*
X130442360Y-104483080D02*
X130442360Y-104823080D01*
G75*
G02*
X130302360Y-104963080I-140000J0D01*
G01*
X130022360Y-104963080D01*
G75*
G02*
X129882360Y-104823080I0J140000D01*
G01*
X129882360Y-104483080D01*
G75*
G02*
X130022360Y-104343080I140000J0D01*
G01*
X130302360Y-104343080D01*
G75*
G02*
X130442360Y-104483080I0J-140000D01*
G01*
G37*
G36*
G01*
X131402360Y-104483080D02*
X131402360Y-104823080D01*
G75*
G02*
X131262360Y-104963080I-140000J0D01*
G01*
X130982360Y-104963080D01*
G75*
G02*
X130842360Y-104823080I0J140000D01*
G01*
X130842360Y-104483080D01*
G75*
G02*
X130982360Y-104343080I140000J0D01*
G01*
X131262360Y-104343080D01*
G75*
G02*
X131402360Y-104483080I0J-140000D01*
G01*
G37*
%TD*%
%TO.C,C85*%
G36*
G01*
X131626000Y-102712700D02*
X131626000Y-103052700D01*
G75*
G02*
X131486000Y-103192700I-140000J0D01*
G01*
X131206000Y-103192700D01*
G75*
G02*
X131066000Y-103052700I0J140000D01*
G01*
X131066000Y-102712700D01*
G75*
G02*
X131206000Y-102572700I140000J0D01*
G01*
X131486000Y-102572700D01*
G75*
G02*
X131626000Y-102712700I0J-140000D01*
G01*
G37*
G36*
G01*
X132586000Y-102712700D02*
X132586000Y-103052700D01*
G75*
G02*
X132446000Y-103192700I-140000J0D01*
G01*
X132166000Y-103192700D01*
G75*
G02*
X132026000Y-103052700I0J140000D01*
G01*
X132026000Y-102712700D01*
G75*
G02*
X132166000Y-102572700I140000J0D01*
G01*
X132446000Y-102572700D01*
G75*
G02*
X132586000Y-102712700I0J-140000D01*
G01*
G37*
%TD*%
%TO.C,C82*%
G36*
G01*
X139138000Y-101058800D02*
X139138000Y-100718800D01*
G75*
G02*
X139278000Y-100578800I140000J0D01*
G01*
X139558000Y-100578800D01*
G75*
G02*
X139698000Y-100718800I0J-140000D01*
G01*
X139698000Y-101058800D01*
G75*
G02*
X139558000Y-101198800I-140000J0D01*
G01*
X139278000Y-101198800D01*
G75*
G02*
X139138000Y-101058800I0J140000D01*
G01*
G37*
G36*
G01*
X138178000Y-101058800D02*
X138178000Y-100718800D01*
G75*
G02*
X138318000Y-100578800I140000J0D01*
G01*
X138598000Y-100578800D01*
G75*
G02*
X138738000Y-100718800I0J-140000D01*
G01*
X138738000Y-101058800D01*
G75*
G02*
X138598000Y-101198800I-140000J0D01*
G01*
X138318000Y-101198800D01*
G75*
G02*
X138178000Y-101058800I0J140000D01*
G01*
G37*
%TD*%
%TO.C,C80*%
G36*
G01*
X133531000Y-97277100D02*
X133531000Y-97617100D01*
G75*
G02*
X133391000Y-97757100I-140000J0D01*
G01*
X133111000Y-97757100D01*
G75*
G02*
X132971000Y-97617100I0J140000D01*
G01*
X132971000Y-97277100D01*
G75*
G02*
X133111000Y-97137100I140000J0D01*
G01*
X133391000Y-97137100D01*
G75*
G02*
X133531000Y-97277100I0J-140000D01*
G01*
G37*
G36*
G01*
X134491000Y-97277100D02*
X134491000Y-97617100D01*
G75*
G02*
X134351000Y-97757100I-140000J0D01*
G01*
X134071000Y-97757100D01*
G75*
G02*
X133931000Y-97617100I0J140000D01*
G01*
X133931000Y-97277100D01*
G75*
G02*
X134071000Y-97137100I140000J0D01*
G01*
X134351000Y-97137100D01*
G75*
G02*
X134491000Y-97277100I0J-140000D01*
G01*
G37*
%TD*%
%TO.C,C79*%
G36*
G01*
X134102500Y-99232900D02*
X134102500Y-99572900D01*
G75*
G02*
X133962500Y-99712900I-140000J0D01*
G01*
X133682500Y-99712900D01*
G75*
G02*
X133542500Y-99572900I0J140000D01*
G01*
X133542500Y-99232900D01*
G75*
G02*
X133682500Y-99092900I140000J0D01*
G01*
X133962500Y-99092900D01*
G75*
G02*
X134102500Y-99232900I0J-140000D01*
G01*
G37*
G36*
G01*
X135062500Y-99232900D02*
X135062500Y-99572900D01*
G75*
G02*
X134922500Y-99712900I-140000J0D01*
G01*
X134642500Y-99712900D01*
G75*
G02*
X134502500Y-99572900I0J140000D01*
G01*
X134502500Y-99232900D01*
G75*
G02*
X134642500Y-99092900I140000J0D01*
G01*
X134922500Y-99092900D01*
G75*
G02*
X135062500Y-99232900I0J-140000D01*
G01*
G37*
%TD*%
%TO.C,C77*%
G36*
G01*
X138071200Y-97350400D02*
X138071200Y-97010400D01*
G75*
G02*
X138211200Y-96870400I140000J0D01*
G01*
X138491200Y-96870400D01*
G75*
G02*
X138631200Y-97010400I0J-140000D01*
G01*
X138631200Y-97350400D01*
G75*
G02*
X138491200Y-97490400I-140000J0D01*
G01*
X138211200Y-97490400D01*
G75*
G02*
X138071200Y-97350400I0J140000D01*
G01*
G37*
G36*
G01*
X137111200Y-97350400D02*
X137111200Y-97010400D01*
G75*
G02*
X137251200Y-96870400I140000J0D01*
G01*
X137531200Y-96870400D01*
G75*
G02*
X137671200Y-97010400I0J-140000D01*
G01*
X137671200Y-97350400D01*
G75*
G02*
X137531200Y-97490400I-140000J0D01*
G01*
X137251200Y-97490400D01*
G75*
G02*
X137111200Y-97350400I0J140000D01*
G01*
G37*
%TD*%
%TO.C,C76*%
G36*
G01*
X140293700Y-96575700D02*
X140293700Y-96235700D01*
G75*
G02*
X140433700Y-96095700I140000J0D01*
G01*
X140713700Y-96095700D01*
G75*
G02*
X140853700Y-96235700I0J-140000D01*
G01*
X140853700Y-96575700D01*
G75*
G02*
X140713700Y-96715700I-140000J0D01*
G01*
X140433700Y-96715700D01*
G75*
G02*
X140293700Y-96575700I0J140000D01*
G01*
G37*
G36*
G01*
X139333700Y-96575700D02*
X139333700Y-96235700D01*
G75*
G02*
X139473700Y-96095700I140000J0D01*
G01*
X139753700Y-96095700D01*
G75*
G02*
X139893700Y-96235700I0J-140000D01*
G01*
X139893700Y-96575700D01*
G75*
G02*
X139753700Y-96715700I-140000J0D01*
G01*
X139473700Y-96715700D01*
G75*
G02*
X139333700Y-96575700I0J140000D01*
G01*
G37*
%TD*%
%TO.C,C75*%
G36*
G01*
X142224100Y-96575700D02*
X142224100Y-96235700D01*
G75*
G02*
X142364100Y-96095700I140000J0D01*
G01*
X142644100Y-96095700D01*
G75*
G02*
X142784100Y-96235700I0J-140000D01*
G01*
X142784100Y-96575700D01*
G75*
G02*
X142644100Y-96715700I-140000J0D01*
G01*
X142364100Y-96715700D01*
G75*
G02*
X142224100Y-96575700I0J140000D01*
G01*
G37*
G36*
G01*
X141264100Y-96575700D02*
X141264100Y-96235700D01*
G75*
G02*
X141404100Y-96095700I140000J0D01*
G01*
X141684100Y-96095700D01*
G75*
G02*
X141824100Y-96235700I0J-140000D01*
G01*
X141824100Y-96575700D01*
G75*
G02*
X141684100Y-96715700I-140000J0D01*
G01*
X141404100Y-96715700D01*
G75*
G02*
X141264100Y-96575700I0J140000D01*
G01*
G37*
%TD*%
%TO.C,C74*%
G36*
G01*
X130660800Y-98331200D02*
X130660800Y-98671200D01*
G75*
G02*
X130520800Y-98811200I-140000J0D01*
G01*
X130240800Y-98811200D01*
G75*
G02*
X130100800Y-98671200I0J140000D01*
G01*
X130100800Y-98331200D01*
G75*
G02*
X130240800Y-98191200I140000J0D01*
G01*
X130520800Y-98191200D01*
G75*
G02*
X130660800Y-98331200I0J-140000D01*
G01*
G37*
G36*
G01*
X131620800Y-98331200D02*
X131620800Y-98671200D01*
G75*
G02*
X131480800Y-98811200I-140000J0D01*
G01*
X131200800Y-98811200D01*
G75*
G02*
X131060800Y-98671200I0J140000D01*
G01*
X131060800Y-98331200D01*
G75*
G02*
X131200800Y-98191200I140000J0D01*
G01*
X131480800Y-98191200D01*
G75*
G02*
X131620800Y-98331200I0J-140000D01*
G01*
G37*
%TD*%
%TO.C,C70*%
G36*
G01*
X110660000Y-111496500D02*
X110320000Y-111496500D01*
G75*
G02*
X110180000Y-111356500I0J140000D01*
G01*
X110180000Y-111076500D01*
G75*
G02*
X110320000Y-110936500I140000J0D01*
G01*
X110660000Y-110936500D01*
G75*
G02*
X110800000Y-111076500I0J-140000D01*
G01*
X110800000Y-111356500D01*
G75*
G02*
X110660000Y-111496500I-140000J0D01*
G01*
G37*
G36*
G01*
X110660000Y-112456500D02*
X110320000Y-112456500D01*
G75*
G02*
X110180000Y-112316500I0J140000D01*
G01*
X110180000Y-112036500D01*
G75*
G02*
X110320000Y-111896500I140000J0D01*
G01*
X110660000Y-111896500D01*
G75*
G02*
X110800000Y-112036500I0J-140000D01*
G01*
X110800000Y-112316500D01*
G75*
G02*
X110660000Y-112456500I-140000J0D01*
G01*
G37*
%TD*%
%TO.C,C69*%
G36*
G01*
X110290000Y-105570200D02*
X110290000Y-105910200D01*
G75*
G02*
X110150000Y-106050200I-140000J0D01*
G01*
X109870000Y-106050200D01*
G75*
G02*
X109730000Y-105910200I0J140000D01*
G01*
X109730000Y-105570200D01*
G75*
G02*
X109870000Y-105430200I140000J0D01*
G01*
X110150000Y-105430200D01*
G75*
G02*
X110290000Y-105570200I0J-140000D01*
G01*
G37*
G36*
G01*
X111250000Y-105570200D02*
X111250000Y-105910200D01*
G75*
G02*
X111110000Y-106050200I-140000J0D01*
G01*
X110830000Y-106050200D01*
G75*
G02*
X110690000Y-105910200I0J140000D01*
G01*
X110690000Y-105570200D01*
G75*
G02*
X110830000Y-105430200I140000J0D01*
G01*
X111110000Y-105430200D01*
G75*
G02*
X111250000Y-105570200I0J-140000D01*
G01*
G37*
%TD*%
%TO.C,C68*%
G36*
G01*
X111637900Y-111496500D02*
X111297900Y-111496500D01*
G75*
G02*
X111157900Y-111356500I0J140000D01*
G01*
X111157900Y-111076500D01*
G75*
G02*
X111297900Y-110936500I140000J0D01*
G01*
X111637900Y-110936500D01*
G75*
G02*
X111777900Y-111076500I0J-140000D01*
G01*
X111777900Y-111356500D01*
G75*
G02*
X111637900Y-111496500I-140000J0D01*
G01*
G37*
G36*
G01*
X111637900Y-112456500D02*
X111297900Y-112456500D01*
G75*
G02*
X111157900Y-112316500I0J140000D01*
G01*
X111157900Y-112036500D01*
G75*
G02*
X111297900Y-111896500I140000J0D01*
G01*
X111637900Y-111896500D01*
G75*
G02*
X111777900Y-112036500I0J-140000D01*
G01*
X111777900Y-112316500D01*
G75*
G02*
X111637900Y-112456500I-140000J0D01*
G01*
G37*
%TD*%
%TO.C,C67*%
G36*
G01*
X115585900Y-107614900D02*
X115585900Y-107954900D01*
G75*
G02*
X115445900Y-108094900I-140000J0D01*
G01*
X115165900Y-108094900D01*
G75*
G02*
X115025900Y-107954900I0J140000D01*
G01*
X115025900Y-107614900D01*
G75*
G02*
X115165900Y-107474900I140000J0D01*
G01*
X115445900Y-107474900D01*
G75*
G02*
X115585900Y-107614900I0J-140000D01*
G01*
G37*
G36*
G01*
X116545900Y-107614900D02*
X116545900Y-107954900D01*
G75*
G02*
X116405900Y-108094900I-140000J0D01*
G01*
X116125900Y-108094900D01*
G75*
G02*
X115985900Y-107954900I0J140000D01*
G01*
X115985900Y-107614900D01*
G75*
G02*
X116125900Y-107474900I140000J0D01*
G01*
X116405900Y-107474900D01*
G75*
G02*
X116545900Y-107614900I0J-140000D01*
G01*
G37*
%TD*%
%TO.C,C66*%
G36*
G01*
X110290000Y-107551400D02*
X110290000Y-107891400D01*
G75*
G02*
X110150000Y-108031400I-140000J0D01*
G01*
X109870000Y-108031400D01*
G75*
G02*
X109730000Y-107891400I0J140000D01*
G01*
X109730000Y-107551400D01*
G75*
G02*
X109870000Y-107411400I140000J0D01*
G01*
X110150000Y-107411400D01*
G75*
G02*
X110290000Y-107551400I0J-140000D01*
G01*
G37*
G36*
G01*
X111250000Y-107551400D02*
X111250000Y-107891400D01*
G75*
G02*
X111110000Y-108031400I-140000J0D01*
G01*
X110830000Y-108031400D01*
G75*
G02*
X110690000Y-107891400I0J140000D01*
G01*
X110690000Y-107551400D01*
G75*
G02*
X110830000Y-107411400I140000J0D01*
G01*
X111110000Y-107411400D01*
G75*
G02*
X111250000Y-107551400I0J-140000D01*
G01*
G37*
%TD*%
%TO.C,C65*%
G36*
G01*
X114087300Y-104363700D02*
X114087300Y-104703700D01*
G75*
G02*
X113947300Y-104843700I-140000J0D01*
G01*
X113667300Y-104843700D01*
G75*
G02*
X113527300Y-104703700I0J140000D01*
G01*
X113527300Y-104363700D01*
G75*
G02*
X113667300Y-104223700I140000J0D01*
G01*
X113947300Y-104223700D01*
G75*
G02*
X114087300Y-104363700I0J-140000D01*
G01*
G37*
G36*
G01*
X115047300Y-104363700D02*
X115047300Y-104703700D01*
G75*
G02*
X114907300Y-104843700I-140000J0D01*
G01*
X114627300Y-104843700D01*
G75*
G02*
X114487300Y-104703700I0J140000D01*
G01*
X114487300Y-104363700D01*
G75*
G02*
X114627300Y-104223700I140000J0D01*
G01*
X114907300Y-104223700D01*
G75*
G02*
X115047300Y-104363700I0J-140000D01*
G01*
G37*
%TD*%
%TO.C,C64*%
G36*
G01*
X116730600Y-104067000D02*
X116390600Y-104067000D01*
G75*
G02*
X116250600Y-103927000I0J140000D01*
G01*
X116250600Y-103647000D01*
G75*
G02*
X116390600Y-103507000I140000J0D01*
G01*
X116730600Y-103507000D01*
G75*
G02*
X116870600Y-103647000I0J-140000D01*
G01*
X116870600Y-103927000D01*
G75*
G02*
X116730600Y-104067000I-140000J0D01*
G01*
G37*
G36*
G01*
X116730600Y-105027000D02*
X116390600Y-105027000D01*
G75*
G02*
X116250600Y-104887000I0J140000D01*
G01*
X116250600Y-104607000D01*
G75*
G02*
X116390600Y-104467000I140000J0D01*
G01*
X116730600Y-104467000D01*
G75*
G02*
X116870600Y-104607000I0J-140000D01*
G01*
X116870600Y-104887000D01*
G75*
G02*
X116730600Y-105027000I-140000J0D01*
G01*
G37*
%TD*%
%TO.C,C59*%
G36*
G01*
X112582300Y-105097400D02*
X112582300Y-104757400D01*
G75*
G02*
X112722300Y-104617400I140000J0D01*
G01*
X113002300Y-104617400D01*
G75*
G02*
X113142300Y-104757400I0J-140000D01*
G01*
X113142300Y-105097400D01*
G75*
G02*
X113002300Y-105237400I-140000J0D01*
G01*
X112722300Y-105237400D01*
G75*
G02*
X112582300Y-105097400I0J140000D01*
G01*
G37*
G36*
G01*
X111622300Y-105097400D02*
X111622300Y-104757400D01*
G75*
G02*
X111762300Y-104617400I140000J0D01*
G01*
X112042300Y-104617400D01*
G75*
G02*
X112182300Y-104757400I0J-140000D01*
G01*
X112182300Y-105097400D01*
G75*
G02*
X112042300Y-105237400I-140000J0D01*
G01*
X111762300Y-105237400D01*
G75*
G02*
X111622300Y-105097400I0J140000D01*
G01*
G37*
%TD*%
%TO.C,C56*%
G36*
G01*
X113746100Y-111887600D02*
X113406100Y-111887600D01*
G75*
G02*
X113266100Y-111747600I0J140000D01*
G01*
X113266100Y-111467600D01*
G75*
G02*
X113406100Y-111327600I140000J0D01*
G01*
X113746100Y-111327600D01*
G75*
G02*
X113886100Y-111467600I0J-140000D01*
G01*
X113886100Y-111747600D01*
G75*
G02*
X113746100Y-111887600I-140000J0D01*
G01*
G37*
G36*
G01*
X113746100Y-112847600D02*
X113406100Y-112847600D01*
G75*
G02*
X113266100Y-112707600I0J140000D01*
G01*
X113266100Y-112427600D01*
G75*
G02*
X113406100Y-112287600I140000J0D01*
G01*
X113746100Y-112287600D01*
G75*
G02*
X113886100Y-112427600I0J-140000D01*
G01*
X113886100Y-112707600D01*
G75*
G02*
X113746100Y-112847600I-140000J0D01*
G01*
G37*
%TD*%
%TO.C,C55*%
G36*
G01*
X114087300Y-103347700D02*
X114087300Y-103687700D01*
G75*
G02*
X113947300Y-103827700I-140000J0D01*
G01*
X113667300Y-103827700D01*
G75*
G02*
X113527300Y-103687700I0J140000D01*
G01*
X113527300Y-103347700D01*
G75*
G02*
X113667300Y-103207700I140000J0D01*
G01*
X113947300Y-103207700D01*
G75*
G02*
X114087300Y-103347700I0J-140000D01*
G01*
G37*
G36*
G01*
X115047300Y-103347700D02*
X115047300Y-103687700D01*
G75*
G02*
X114907300Y-103827700I-140000J0D01*
G01*
X114627300Y-103827700D01*
G75*
G02*
X114487300Y-103687700I0J140000D01*
G01*
X114487300Y-103347700D01*
G75*
G02*
X114627300Y-103207700I140000J0D01*
G01*
X114907300Y-103207700D01*
G75*
G02*
X115047300Y-103347700I0J-140000D01*
G01*
G37*
%TD*%
%TO.C,C54*%
G36*
G01*
X115573200Y-109583400D02*
X115573200Y-109923400D01*
G75*
G02*
X115433200Y-110063400I-140000J0D01*
G01*
X115153200Y-110063400D01*
G75*
G02*
X115013200Y-109923400I0J140000D01*
G01*
X115013200Y-109583400D01*
G75*
G02*
X115153200Y-109443400I140000J0D01*
G01*
X115433200Y-109443400D01*
G75*
G02*
X115573200Y-109583400I0J-140000D01*
G01*
G37*
G36*
G01*
X116533200Y-109583400D02*
X116533200Y-109923400D01*
G75*
G02*
X116393200Y-110063400I-140000J0D01*
G01*
X116113200Y-110063400D01*
G75*
G02*
X115973200Y-109923400I0J140000D01*
G01*
X115973200Y-109583400D01*
G75*
G02*
X116113200Y-109443400I140000J0D01*
G01*
X116393200Y-109443400D01*
G75*
G02*
X116533200Y-109583400I0J-140000D01*
G01*
G37*
%TD*%
%TO.C,C53*%
G36*
G01*
X112899800Y-108653400D02*
X112899800Y-108313400D01*
G75*
G02*
X113039800Y-108173400I140000J0D01*
G01*
X113319800Y-108173400D01*
G75*
G02*
X113459800Y-108313400I0J-140000D01*
G01*
X113459800Y-108653400D01*
G75*
G02*
X113319800Y-108793400I-140000J0D01*
G01*
X113039800Y-108793400D01*
G75*
G02*
X112899800Y-108653400I0J140000D01*
G01*
G37*
G36*
G01*
X111939800Y-108653400D02*
X111939800Y-108313400D01*
G75*
G02*
X112079800Y-108173400I140000J0D01*
G01*
X112359800Y-108173400D01*
G75*
G02*
X112499800Y-108313400I0J-140000D01*
G01*
X112499800Y-108653400D01*
G75*
G02*
X112359800Y-108793400I-140000J0D01*
G01*
X112079800Y-108793400D01*
G75*
G02*
X111939800Y-108653400I0J140000D01*
G01*
G37*
%TD*%
%TO.C,C48*%
G36*
G01*
X117437560Y-110467320D02*
X117437560Y-110807320D01*
G75*
G02*
X117297560Y-110947320I-140000J0D01*
G01*
X117017560Y-110947320D01*
G75*
G02*
X116877560Y-110807320I0J140000D01*
G01*
X116877560Y-110467320D01*
G75*
G02*
X117017560Y-110327320I140000J0D01*
G01*
X117297560Y-110327320D01*
G75*
G02*
X117437560Y-110467320I0J-140000D01*
G01*
G37*
G36*
G01*
X118397560Y-110467320D02*
X118397560Y-110807320D01*
G75*
G02*
X118257560Y-110947320I-140000J0D01*
G01*
X117977560Y-110947320D01*
G75*
G02*
X117837560Y-110807320I0J140000D01*
G01*
X117837560Y-110467320D01*
G75*
G02*
X117977560Y-110327320I140000J0D01*
G01*
X118257560Y-110327320D01*
G75*
G02*
X118397560Y-110467320I0J-140000D01*
G01*
G37*
%TD*%
%TO.C,C43*%
G36*
G01*
X115473300Y-111895280D02*
X115133300Y-111895280D01*
G75*
G02*
X114993300Y-111755280I0J140000D01*
G01*
X114993300Y-111475280D01*
G75*
G02*
X115133300Y-111335280I140000J0D01*
G01*
X115473300Y-111335280D01*
G75*
G02*
X115613300Y-111475280I0J-140000D01*
G01*
X115613300Y-111755280D01*
G75*
G02*
X115473300Y-111895280I-140000J0D01*
G01*
G37*
G36*
G01*
X115473300Y-112855280D02*
X115133300Y-112855280D01*
G75*
G02*
X114993300Y-112715280I0J140000D01*
G01*
X114993300Y-112435280D01*
G75*
G02*
X115133300Y-112295280I140000J0D01*
G01*
X115473300Y-112295280D01*
G75*
G02*
X115613300Y-112435280I0J-140000D01*
G01*
X115613300Y-112715280D01*
G75*
G02*
X115473300Y-112855280I-140000J0D01*
G01*
G37*
%TD*%
%TO.C,C42*%
G36*
G01*
X115585900Y-108605500D02*
X115585900Y-108945500D01*
G75*
G02*
X115445900Y-109085500I-140000J0D01*
G01*
X115165900Y-109085500D01*
G75*
G02*
X115025900Y-108945500I0J140000D01*
G01*
X115025900Y-108605500D01*
G75*
G02*
X115165900Y-108465500I140000J0D01*
G01*
X115445900Y-108465500D01*
G75*
G02*
X115585900Y-108605500I0J-140000D01*
G01*
G37*
G36*
G01*
X116545900Y-108605500D02*
X116545900Y-108945500D01*
G75*
G02*
X116405900Y-109085500I-140000J0D01*
G01*
X116125900Y-109085500D01*
G75*
G02*
X115985900Y-108945500I0J140000D01*
G01*
X115985900Y-108605500D01*
G75*
G02*
X116125900Y-108465500I140000J0D01*
G01*
X116405900Y-108465500D01*
G75*
G02*
X116545900Y-108605500I0J-140000D01*
G01*
G37*
%TD*%
%TO.C,C40*%
G36*
G01*
X116418180Y-111895280D02*
X116078180Y-111895280D01*
G75*
G02*
X115938180Y-111755280I0J140000D01*
G01*
X115938180Y-111475280D01*
G75*
G02*
X116078180Y-111335280I140000J0D01*
G01*
X116418180Y-111335280D01*
G75*
G02*
X116558180Y-111475280I0J-140000D01*
G01*
X116558180Y-111755280D01*
G75*
G02*
X116418180Y-111895280I-140000J0D01*
G01*
G37*
G36*
G01*
X116418180Y-112855280D02*
X116078180Y-112855280D01*
G75*
G02*
X115938180Y-112715280I0J140000D01*
G01*
X115938180Y-112435280D01*
G75*
G02*
X116078180Y-112295280I140000J0D01*
G01*
X116418180Y-112295280D01*
G75*
G02*
X116558180Y-112435280I0J-140000D01*
G01*
X116558180Y-112715280D01*
G75*
G02*
X116418180Y-112855280I-140000J0D01*
G01*
G37*
%TD*%
%TO.C,C38*%
G36*
G01*
X115573200Y-110523200D02*
X115573200Y-110863200D01*
G75*
G02*
X115433200Y-111003200I-140000J0D01*
G01*
X115153200Y-111003200D01*
G75*
G02*
X115013200Y-110863200I0J140000D01*
G01*
X115013200Y-110523200D01*
G75*
G02*
X115153200Y-110383200I140000J0D01*
G01*
X115433200Y-110383200D01*
G75*
G02*
X115573200Y-110523200I0J-140000D01*
G01*
G37*
G36*
G01*
X116533200Y-110523200D02*
X116533200Y-110863200D01*
G75*
G02*
X116393200Y-111003200I-140000J0D01*
G01*
X116113200Y-111003200D01*
G75*
G02*
X115973200Y-110863200I0J140000D01*
G01*
X115973200Y-110523200D01*
G75*
G02*
X116113200Y-110383200I140000J0D01*
G01*
X116393200Y-110383200D01*
G75*
G02*
X116533200Y-110523200I0J-140000D01*
G01*
G37*
%TD*%
%TO.C,C37*%
G36*
G01*
X118163999Y-105671440D02*
X118163999Y-105331440D01*
G75*
G02*
X118303999Y-105191440I140000J0D01*
G01*
X118583999Y-105191440D01*
G75*
G02*
X118723999Y-105331440I0J-140000D01*
G01*
X118723999Y-105671440D01*
G75*
G02*
X118583999Y-105811440I-140000J0D01*
G01*
X118303999Y-105811440D01*
G75*
G02*
X118163999Y-105671440I0J140000D01*
G01*
G37*
G36*
G01*
X117203999Y-105671440D02*
X117203999Y-105331440D01*
G75*
G02*
X117343999Y-105191440I140000J0D01*
G01*
X117623999Y-105191440D01*
G75*
G02*
X117763999Y-105331440I0J-140000D01*
G01*
X117763999Y-105671440D01*
G75*
G02*
X117623999Y-105811440I-140000J0D01*
G01*
X117343999Y-105811440D01*
G75*
G02*
X117203999Y-105671440I0J140000D01*
G01*
G37*
%TD*%
%TO.C,C31*%
G36*
G01*
X112987000Y-107248300D02*
X113327000Y-107248300D01*
G75*
G02*
X113467000Y-107388300I0J-140000D01*
G01*
X113467000Y-107668300D01*
G75*
G02*
X113327000Y-107808300I-140000J0D01*
G01*
X112987000Y-107808300D01*
G75*
G02*
X112847000Y-107668300I0J140000D01*
G01*
X112847000Y-107388300D01*
G75*
G02*
X112987000Y-107248300I140000J0D01*
G01*
G37*
G36*
G01*
X112987000Y-106288300D02*
X113327000Y-106288300D01*
G75*
G02*
X113467000Y-106428300I0J-140000D01*
G01*
X113467000Y-106708300D01*
G75*
G02*
X113327000Y-106848300I-140000J0D01*
G01*
X112987000Y-106848300D01*
G75*
G02*
X112847000Y-106708300I0J140000D01*
G01*
X112847000Y-106428300D01*
G75*
G02*
X112987000Y-106288300I140000J0D01*
G01*
G37*
%TD*%
%TO.C,C3*%
G36*
G01*
X138670000Y-95500000D02*
X138330000Y-95500000D01*
G75*
G02*
X138190000Y-95360000I0J140000D01*
G01*
X138190000Y-95080000D01*
G75*
G02*
X138330000Y-94940000I140000J0D01*
G01*
X138670000Y-94940000D01*
G75*
G02*
X138810000Y-95080000I0J-140000D01*
G01*
X138810000Y-95360000D01*
G75*
G02*
X138670000Y-95500000I-140000J0D01*
G01*
G37*
G36*
G01*
X138670000Y-96460000D02*
X138330000Y-96460000D01*
G75*
G02*
X138190000Y-96320000I0J140000D01*
G01*
X138190000Y-96040000D01*
G75*
G02*
X138330000Y-95900000I140000J0D01*
G01*
X138670000Y-95900000D01*
G75*
G02*
X138810000Y-96040000I0J-140000D01*
G01*
X138810000Y-96320000D01*
G75*
G02*
X138670000Y-96460000I-140000J0D01*
G01*
G37*
%TD*%
%TO.C,C2*%
G36*
G01*
X137409100Y-98815500D02*
X137749100Y-98815500D01*
G75*
G02*
X137889100Y-98955500I0J-140000D01*
G01*
X137889100Y-99235500D01*
G75*
G02*
X137749100Y-99375500I-140000J0D01*
G01*
X137409100Y-99375500D01*
G75*
G02*
X137269100Y-99235500I0J140000D01*
G01*
X137269100Y-98955500D01*
G75*
G02*
X137409100Y-98815500I140000J0D01*
G01*
G37*
G36*
G01*
X137409100Y-97855500D02*
X137749100Y-97855500D01*
G75*
G02*
X137889100Y-97995500I0J-140000D01*
G01*
X137889100Y-98275500D01*
G75*
G02*
X137749100Y-98415500I-140000J0D01*
G01*
X137409100Y-98415500D01*
G75*
G02*
X137269100Y-98275500I0J140000D01*
G01*
X137269100Y-97995500D01*
G75*
G02*
X137409100Y-97855500I140000J0D01*
G01*
G37*
%TD*%
%TO.C,R30*%
G36*
G01*
X109843600Y-104285200D02*
X109843600Y-104655200D01*
G75*
G02*
X109708600Y-104790200I-135000J0D01*
G01*
X109438600Y-104790200D01*
G75*
G02*
X109303600Y-104655200I0J135000D01*
G01*
X109303600Y-104285200D01*
G75*
G02*
X109438600Y-104150200I135000J0D01*
G01*
X109708600Y-104150200D01*
G75*
G02*
X109843600Y-104285200I0J-135000D01*
G01*
G37*
G36*
G01*
X110863600Y-104285200D02*
X110863600Y-104655200D01*
G75*
G02*
X110728600Y-104790200I-135000J0D01*
G01*
X110458600Y-104790200D01*
G75*
G02*
X110323600Y-104655200I0J135000D01*
G01*
X110323600Y-104285200D01*
G75*
G02*
X110458600Y-104150200I135000J0D01*
G01*
X110728600Y-104150200D01*
G75*
G02*
X110863600Y-104285200I0J-135000D01*
G01*
G37*
%TD*%
%TO.C,R26*%
G36*
G01*
X114060000Y-105339300D02*
X114060000Y-105709300D01*
G75*
G02*
X113925000Y-105844300I-135000J0D01*
G01*
X113655000Y-105844300D01*
G75*
G02*
X113520000Y-105709300I0J135000D01*
G01*
X113520000Y-105339300D01*
G75*
G02*
X113655000Y-105204300I135000J0D01*
G01*
X113925000Y-105204300D01*
G75*
G02*
X114060000Y-105339300I0J-135000D01*
G01*
G37*
G36*
G01*
X115080000Y-105339300D02*
X115080000Y-105709300D01*
G75*
G02*
X114945000Y-105844300I-135000J0D01*
G01*
X114675000Y-105844300D01*
G75*
G02*
X114540000Y-105709300I0J135000D01*
G01*
X114540000Y-105339300D01*
G75*
G02*
X114675000Y-105204300I135000J0D01*
G01*
X114945000Y-105204300D01*
G75*
G02*
X115080000Y-105339300I0J-135000D01*
G01*
G37*
%TD*%
%TO.C,R6*%
G36*
G01*
X121179560Y-102465720D02*
X121179560Y-102095720D01*
G75*
G02*
X121314560Y-101960720I135000J0D01*
G01*
X121584560Y-101960720D01*
G75*
G02*
X121719560Y-102095720I0J-135000D01*
G01*
X121719560Y-102465720D01*
G75*
G02*
X121584560Y-102600720I-135000J0D01*
G01*
X121314560Y-102600720D01*
G75*
G02*
X121179560Y-102465720I0J135000D01*
G01*
G37*
G36*
G01*
X120159560Y-102465720D02*
X120159560Y-102095720D01*
G75*
G02*
X120294560Y-101960720I135000J0D01*
G01*
X120564560Y-101960720D01*
G75*
G02*
X120699560Y-102095720I0J-135000D01*
G01*
X120699560Y-102465720D01*
G75*
G02*
X120564560Y-102600720I-135000J0D01*
G01*
X120294560Y-102600720D01*
G75*
G02*
X120159560Y-102465720I0J135000D01*
G01*
G37*
%TD*%
M02*
