M48
; DRILL file {KiCad 5.1.10} date Thu May 13 15:13:19 2021
; FORMAT={-:-/ absolute / inch / decimal}
; #@! TF.CreationDate,2021-05-13T15:13:19-07:00
; #@! TF.GenerationSoftware,Kicad,Pcbnew,5.1.10
; #@! TF.FileFunction,Plated,1,4,PTH
FMAT,2
INCH
T1C0.0079
T2C0.0080
T3C0.0354
T4C0.0394
T5C0.0512
%
G90
G05
T1
X4.1105Y-4.6935
X4.145Y-4.1325
X4.267Y-4.775
X4.281Y-4.055
X4.281Y-4.337
X4.282Y-4.116
X4.31Y-4.776
X4.313Y-4.054
X4.313Y-4.3375
X4.338Y-5.104
X4.3455Y-4.338
X4.3584Y-4.8486
X4.376Y-4.117
X4.376Y-4.305
X4.378Y-4.21
X4.3896Y-4.276
X4.4015Y-4.1585
X4.406Y-4.213
X4.407Y-4.242
X4.424Y-3.912
X4.439Y-4.306
X4.439Y-4.4
X4.44Y-4.774
X4.471Y-4.3065
X4.471Y-4.3375
X4.484Y-4.774
X4.5014Y-4.4321
X4.5025Y-4.2425
X4.5025Y-4.274
X4.5025Y-4.306
X4.503Y-4.337
X4.503Y-4.367
X4.521Y-4.013
X4.527Y-4.775
X4.534Y-4.18
X4.5645Y-4.1485
X4.57Y-4.775
X4.597Y-4.148
X4.5975Y-4.211
X4.627Y-4.306
X4.6275Y-4.274
X4.628Y-4.117
X4.6283Y-4.3995
X4.6285Y-4.181
X4.66Y-4.211
X4.66Y-4.274
X4.66Y-4.305
X4.6887Y-4.1482
X4.69Y-4.306
X4.69Y-4.401
X4.691Y-4.0852
X4.691Y-4.274
X4.691Y-4.339
X4.691Y-4.369
X4.692Y-4.211
X4.721Y-4.117
X4.721Y-4.339
X4.721Y-4.369
X4.721Y-4.745
X4.7215Y-4.1805
X4.722Y-4.149
X4.722Y-4.401
X4.7224Y-4.085
X4.7226Y-4.2735
X4.723Y-4.055
X4.723Y-4.211
X4.723Y-4.305
X4.7425Y-4.7205
X4.76Y-5.248
X4.764Y-4.745
X4.7865Y-4.7205
X4.803Y-5.248
X4.809Y-4.109
X4.824Y-4.938
X4.8295Y-4.431
X4.83Y-4.071
X4.873Y-4.07
X4.876Y-4.1307
X4.878Y-4.4347
X4.8971Y-3.9711
X4.8989Y-4.4249
X4.906Y-4.172
X4.9072Y-4.2145
X4.92Y-4.4143
X4.927Y-3.976
X4.9355Y-4.3985
X4.937Y-4.129
X4.939Y-4.357
X4.9405Y-4.184
X4.9463Y-4.3317
X4.9753Y-4.2173
X4.9975Y-4.151
X4.9985Y-4.3823
X5.0053Y-5.0093
X5.022Y-4.899
X5.026Y-4.835
X5.03Y-4.3713
X5.032Y-4.94
X5.067Y-4.94
X5.072Y-3.8765
X5.08Y-5.1219
X5.108Y-4.7555
X5.108Y-4.788
X5.115Y-4.082
X5.1158Y-4.0502
X5.133Y-4.126
X5.1468Y-4.0497
X5.1478Y-4.0822
X5.1493Y-5.1836
X5.1495Y-5.152
X5.172Y-4.836
X5.18Y-3.83
X5.186Y-4.65
X5.186Y-4.6915
X5.1903Y-5.1386
X5.191Y-4.1405
X5.197Y-3.934
X5.207Y-4.1235
X5.208Y-4.012
X5.2092Y-4.0806
X5.211Y-4.882
X5.219Y-4.696
X5.225Y-3.989
X5.2295Y-4.2269
X5.242Y-3.8605
X5.243Y-4.854
X5.247Y-4.003
X5.2505Y-4.2546
X5.252Y-4.696
X5.2533Y-5.2886
X5.2543Y-5.1426
X5.2545Y-3.9455
X5.2551Y-4.227
X5.2675Y-3.996
X5.2733Y-4.05
X5.279Y-4.26
X5.287Y-5.2885
X5.296Y-4.2743
X5.3013Y-5.2246
X5.3047Y-3.8923
X5.3054Y-3.8618
X5.3065Y-3.9475
X5.3146Y-4.1491
X5.3192Y-4.2472
X5.323Y-4.274
X5.3252Y-4.1262
X5.3289Y-4.006
X5.3358Y-3.8923
X5.3361Y-4.0499
X5.3366Y-3.8615
X5.3395Y-5.224
X5.352Y-3.941
X5.352Y-4.294
X5.3678Y-4.0018
X5.3681Y-3.86
X5.3768Y-3.9466
X5.38Y-3.814
X5.383Y-4.238
X5.3933Y-5.333
X5.3933Y-5.3686
X5.4005Y-3.9305
X5.4125Y-5.3025
X5.4146Y-4.2112
X5.4155Y-4.0065
X5.4195Y-3.974
X5.421Y-4.273
X5.4306Y-5.0113
X5.445Y-4.003
X5.446Y-4.124
X5.4473Y-4.9011
X5.448Y-5.3025
X5.451Y-4.271
X5.4513Y-4.8371
X5.458Y-3.935
X5.462Y-4.942
X5.4623Y-3.8603
X5.4798Y-4.128
X5.4885Y-3.7331
X5.4923Y-4.9421
X5.494Y-3.828
X5.4941Y-3.86
X5.5125Y-4.548
X5.5125Y-4.577
X5.5156Y-4.1244
X5.522Y-3.8245
X5.5333Y-4.759
X5.5333Y-4.7901
X5.5395Y-4.5155
X5.54Y-4.548
X5.54Y-4.577
X5.54Y-5.089
X5.54Y-5.131
X5.5482Y-4.127
X5.554Y-3.824
X5.5715Y-5.089
X5.5715Y-5.131
X5.5816Y-4.1238
X5.5973Y-4.8381
X5.6005Y-3.825
X5.611Y-4.6521
X5.611Y-4.682
X5.636Y-4.6149
X5.6363Y-4.8841
X5.6423Y-4.6941
X5.645Y-4.4569
X5.666Y-4.6149
X5.6683Y-4.8561
X5.677Y-4.4289
X5.681Y-4.694
X5.702Y-4.63
X5.702Y-4.6609
X5.716Y-4.4745
X5.78Y-4.5229
X5.78Y-4.5429
X5.821Y-4.3709
X5.85Y-4.7775
X5.852Y-4.3709
X5.862Y-4.4759
X5.866Y-4.4115
X5.8827Y-4.3016
X5.889Y-4.7775
X5.93Y-4.7775
T2
X5.0983Y-4.8688
X5.0983Y-4.9082
X5.118Y-4.8885
X5.1377Y-4.8688
X5.1377Y-4.9082
X5.1811Y-5.2149
X5.1811Y-5.2543
X5.2008Y-5.2346
X5.2205Y-5.2149
X5.2205Y-5.2543
X5.5236Y-4.8709
X5.5236Y-4.9102
X5.5433Y-4.8906
X5.563Y-4.8709
X5.563Y-4.9102
X5.7503Y-4.4027
X5.7503Y-4.4421
X5.77Y-4.4224
X5.7897Y-4.4027
X5.7897Y-4.4421
T3
X4.3436Y-3.5906
X4.442Y-3.5906
X4.5208Y-3.5906
X4.6192Y-3.5906
X5.011Y-3.592
X5.1094Y-3.592
X5.1882Y-3.592
X5.2866Y-3.592
T4
X3.873Y-3.846
X3.873Y-3.946
X3.873Y-4.046
X3.873Y-4.146
X3.873Y-4.246
X3.873Y-4.346
X3.873Y-4.446
X3.873Y-4.546
X3.873Y-4.646
X3.873Y-4.746
X3.973Y-3.846
X3.973Y-3.946
X3.973Y-4.046
X3.973Y-4.146
X3.973Y-4.246
X3.973Y-4.346
X3.973Y-4.446
X3.973Y-4.546
X3.973Y-4.646
X3.973Y-4.746
T5
G00X4.2227Y-3.5867
M15
G01X4.2227Y-3.5473
M16
G05
G00X4.4617Y-3.4024
M15
G01X4.5011Y-3.4024
M16
G05
G00X4.7401Y-3.5473
M15
G01X4.7401Y-3.5867
M16
G05
G00X4.8901Y-3.5881
M15
G01X4.8901Y-3.5487
M16
G05
G00X5.1291Y-3.4038
M15
G01X5.1685Y-3.4038
M16
G05
G00X5.4075Y-3.5487
M15
G01X5.4075Y-3.5881
M16
G05
T0
M30
