%TF.GenerationSoftware,KiCad,Pcbnew,5.1.9-1.fc33*%
%TF.CreationDate,2021-05-17T09:51:24-07:00*%
%TF.ProjectId,hardware,68617264-7761-4726-952e-6b696361645f,rev?*%
%TF.SameCoordinates,Original*%
%TF.FileFunction,Soldermask,Bot*%
%TF.FilePolarity,Negative*%
%FSLAX46Y46*%
G04 Gerber Fmt 4.6, Leading zero omitted, Abs format (unit mm)*
G04 Created by KiCad (PCBNEW 5.1.9-1.fc33) date 2021-05-17 09:51:24*
%MOMM*%
%LPD*%
G01*
G04 APERTURE LIST*
%ADD10O,1.700000X1.700000*%
%ADD11R,1.700000X1.700000*%
%ADD12C,3.200000*%
%ADD13O,2.900000X1.900000*%
%ADD14O,1.900000X2.900000*%
%ADD15C,1.300000*%
%ADD16R,1.300000X1.300000*%
%ADD17C,0.450000*%
G04 APERTURE END LIST*
%TO.C,C32*%
G36*
G01*
X134958000Y-106791100D02*
X135298000Y-106791100D01*
G75*
G02*
X135438000Y-106931100I0J-140000D01*
G01*
X135438000Y-107211100D01*
G75*
G02*
X135298000Y-107351100I-140000J0D01*
G01*
X134958000Y-107351100D01*
G75*
G02*
X134818000Y-107211100I0J140000D01*
G01*
X134818000Y-106931100D01*
G75*
G02*
X134958000Y-106791100I140000J0D01*
G01*
G37*
G36*
G01*
X134958000Y-105831100D02*
X135298000Y-105831100D01*
G75*
G02*
X135438000Y-105971100I0J-140000D01*
G01*
X135438000Y-106251100D01*
G75*
G02*
X135298000Y-106391100I-140000J0D01*
G01*
X134958000Y-106391100D01*
G75*
G02*
X134818000Y-106251100I0J140000D01*
G01*
X134818000Y-105971100D01*
G75*
G02*
X134958000Y-105831100I140000J0D01*
G01*
G37*
%TD*%
D10*
%TO.C,J5*%
X100914200Y-120548400D03*
X98374200Y-120548400D03*
X100914200Y-118008400D03*
X98374200Y-118008400D03*
X100914200Y-115468400D03*
X98374200Y-115468400D03*
X100914200Y-112928400D03*
X98374200Y-112928400D03*
X100914200Y-110388400D03*
X98374200Y-110388400D03*
X100914200Y-107848400D03*
X98374200Y-107848400D03*
X100914200Y-105308400D03*
X98374200Y-105308400D03*
X100914200Y-102768400D03*
X98374200Y-102768400D03*
X100914200Y-100228400D03*
X98374200Y-100228400D03*
X100914200Y-97688400D03*
D11*
X98374200Y-97688400D03*
%TD*%
D12*
%TO.C,H4*%
X149000000Y-89000000D03*
%TD*%
%TO.C,H3*%
X100000000Y-88849200D03*
%TD*%
%TO.C,H2*%
X149000000Y-132000000D03*
%TD*%
%TO.C,H1*%
X100000000Y-132000000D03*
%TD*%
D13*
%TO.C,J3*%
X113827440Y-86421240D03*
D14*
X120397440Y-90601240D03*
X107257440Y-90601240D03*
D15*
X117327440Y-91201240D03*
X114827440Y-91201240D03*
X112827440Y-91201240D03*
D16*
X110327440Y-91201240D03*
%TD*%
%TO.C,C99*%
G36*
G01*
X109782000Y-106560800D02*
X109782000Y-106900800D01*
G75*
G02*
X109642000Y-107040800I-140000J0D01*
G01*
X109362000Y-107040800D01*
G75*
G02*
X109222000Y-106900800I0J140000D01*
G01*
X109222000Y-106560800D01*
G75*
G02*
X109362000Y-106420800I140000J0D01*
G01*
X109642000Y-106420800D01*
G75*
G02*
X109782000Y-106560800I0J-140000D01*
G01*
G37*
G36*
G01*
X110742000Y-106560800D02*
X110742000Y-106900800D01*
G75*
G02*
X110602000Y-107040800I-140000J0D01*
G01*
X110322000Y-107040800D01*
G75*
G02*
X110182000Y-106900800I0J140000D01*
G01*
X110182000Y-106560800D01*
G75*
G02*
X110322000Y-106420800I140000J0D01*
G01*
X110602000Y-106420800D01*
G75*
G02*
X110742000Y-106560800I0J-140000D01*
G01*
G37*
%TD*%
%TO.C,C94*%
G36*
G01*
X112633940Y-122762620D02*
X112973940Y-122762620D01*
G75*
G02*
X113113940Y-122902620I0J-140000D01*
G01*
X113113940Y-123182620D01*
G75*
G02*
X112973940Y-123322620I-140000J0D01*
G01*
X112633940Y-123322620D01*
G75*
G02*
X112493940Y-123182620I0J140000D01*
G01*
X112493940Y-122902620D01*
G75*
G02*
X112633940Y-122762620I140000J0D01*
G01*
G37*
G36*
G01*
X112633940Y-121802620D02*
X112973940Y-121802620D01*
G75*
G02*
X113113940Y-121942620I0J-140000D01*
G01*
X113113940Y-122222620D01*
G75*
G02*
X112973940Y-122362620I-140000J0D01*
G01*
X112633940Y-122362620D01*
G75*
G02*
X112493940Y-122222620I0J140000D01*
G01*
X112493940Y-121942620D01*
G75*
G02*
X112633940Y-121802620I140000J0D01*
G01*
G37*
%TD*%
%TO.C,C93*%
G36*
G01*
X111638260Y-122762620D02*
X111978260Y-122762620D01*
G75*
G02*
X112118260Y-122902620I0J-140000D01*
G01*
X112118260Y-123182620D01*
G75*
G02*
X111978260Y-123322620I-140000J0D01*
G01*
X111638260Y-123322620D01*
G75*
G02*
X111498260Y-123182620I0J140000D01*
G01*
X111498260Y-122902620D01*
G75*
G02*
X111638260Y-122762620I140000J0D01*
G01*
G37*
G36*
G01*
X111638260Y-121802620D02*
X111978260Y-121802620D01*
G75*
G02*
X112118260Y-121942620I0J-140000D01*
G01*
X112118260Y-122222620D01*
G75*
G02*
X111978260Y-122362620I-140000J0D01*
G01*
X111638260Y-122362620D01*
G75*
G02*
X111498260Y-122222620I0J140000D01*
G01*
X111498260Y-121942620D01*
G75*
G02*
X111638260Y-121802620I140000J0D01*
G01*
G37*
%TD*%
%TO.C,C92*%
G36*
G01*
X128300300Y-97879500D02*
X127960300Y-97879500D01*
G75*
G02*
X127820300Y-97739500I0J140000D01*
G01*
X127820300Y-97459500D01*
G75*
G02*
X127960300Y-97319500I140000J0D01*
G01*
X128300300Y-97319500D01*
G75*
G02*
X128440300Y-97459500I0J-140000D01*
G01*
X128440300Y-97739500D01*
G75*
G02*
X128300300Y-97879500I-140000J0D01*
G01*
G37*
G36*
G01*
X128300300Y-98839500D02*
X127960300Y-98839500D01*
G75*
G02*
X127820300Y-98699500I0J140000D01*
G01*
X127820300Y-98419500D01*
G75*
G02*
X127960300Y-98279500I140000J0D01*
G01*
X128300300Y-98279500D01*
G75*
G02*
X128440300Y-98419500I0J-140000D01*
G01*
X128440300Y-98699500D01*
G75*
G02*
X128300300Y-98839500I-140000J0D01*
G01*
G37*
%TD*%
%TO.C,C91*%
G36*
G01*
X139519000Y-105783200D02*
X139519000Y-105443200D01*
G75*
G02*
X139659000Y-105303200I140000J0D01*
G01*
X139939000Y-105303200D01*
G75*
G02*
X140079000Y-105443200I0J-140000D01*
G01*
X140079000Y-105783200D01*
G75*
G02*
X139939000Y-105923200I-140000J0D01*
G01*
X139659000Y-105923200D01*
G75*
G02*
X139519000Y-105783200I0J140000D01*
G01*
G37*
G36*
G01*
X138559000Y-105783200D02*
X138559000Y-105443200D01*
G75*
G02*
X138699000Y-105303200I140000J0D01*
G01*
X138979000Y-105303200D01*
G75*
G02*
X139119000Y-105443200I0J-140000D01*
G01*
X139119000Y-105783200D01*
G75*
G02*
X138979000Y-105923200I-140000J0D01*
G01*
X138699000Y-105923200D01*
G75*
G02*
X138559000Y-105783200I0J140000D01*
G01*
G37*
%TD*%
%TO.C,C90*%
G36*
G01*
X130375000Y-102112900D02*
X130375000Y-101772900D01*
G75*
G02*
X130515000Y-101632900I140000J0D01*
G01*
X130795000Y-101632900D01*
G75*
G02*
X130935000Y-101772900I0J-140000D01*
G01*
X130935000Y-102112900D01*
G75*
G02*
X130795000Y-102252900I-140000J0D01*
G01*
X130515000Y-102252900D01*
G75*
G02*
X130375000Y-102112900I0J140000D01*
G01*
G37*
G36*
G01*
X129415000Y-102112900D02*
X129415000Y-101772900D01*
G75*
G02*
X129555000Y-101632900I140000J0D01*
G01*
X129835000Y-101632900D01*
G75*
G02*
X129975000Y-101772900I0J-140000D01*
G01*
X129975000Y-102112900D01*
G75*
G02*
X129835000Y-102252900I-140000J0D01*
G01*
X129555000Y-102252900D01*
G75*
G02*
X129415000Y-102112900I0J140000D01*
G01*
G37*
%TD*%
%TO.C,C89*%
G36*
G01*
X141611960Y-105798440D02*
X141611960Y-105458440D01*
G75*
G02*
X141751960Y-105318440I140000J0D01*
G01*
X142031960Y-105318440D01*
G75*
G02*
X142171960Y-105458440I0J-140000D01*
G01*
X142171960Y-105798440D01*
G75*
G02*
X142031960Y-105938440I-140000J0D01*
G01*
X141751960Y-105938440D01*
G75*
G02*
X141611960Y-105798440I0J140000D01*
G01*
G37*
G36*
G01*
X140651960Y-105798440D02*
X140651960Y-105458440D01*
G75*
G02*
X140791960Y-105318440I140000J0D01*
G01*
X141071960Y-105318440D01*
G75*
G02*
X141211960Y-105458440I0J-140000D01*
G01*
X141211960Y-105798440D01*
G75*
G02*
X141071960Y-105938440I-140000J0D01*
G01*
X140791960Y-105938440D01*
G75*
G02*
X140651960Y-105798440I0J140000D01*
G01*
G37*
%TD*%
%TO.C,C87*%
G36*
G01*
X128732100Y-103393900D02*
X128392100Y-103393900D01*
G75*
G02*
X128252100Y-103253900I0J140000D01*
G01*
X128252100Y-102973900D01*
G75*
G02*
X128392100Y-102833900I140000J0D01*
G01*
X128732100Y-102833900D01*
G75*
G02*
X128872100Y-102973900I0J-140000D01*
G01*
X128872100Y-103253900D01*
G75*
G02*
X128732100Y-103393900I-140000J0D01*
G01*
G37*
G36*
G01*
X128732100Y-104353900D02*
X128392100Y-104353900D01*
G75*
G02*
X128252100Y-104213900I0J140000D01*
G01*
X128252100Y-103933900D01*
G75*
G02*
X128392100Y-103793900I140000J0D01*
G01*
X128732100Y-103793900D01*
G75*
G02*
X128872100Y-103933900I0J-140000D01*
G01*
X128872100Y-104213900D01*
G75*
G02*
X128732100Y-104353900I-140000J0D01*
G01*
G37*
%TD*%
%TO.C,C86*%
G36*
G01*
X130442360Y-104483080D02*
X130442360Y-104823080D01*
G75*
G02*
X130302360Y-104963080I-140000J0D01*
G01*
X130022360Y-104963080D01*
G75*
G02*
X129882360Y-104823080I0J140000D01*
G01*
X129882360Y-104483080D01*
G75*
G02*
X130022360Y-104343080I140000J0D01*
G01*
X130302360Y-104343080D01*
G75*
G02*
X130442360Y-104483080I0J-140000D01*
G01*
G37*
G36*
G01*
X131402360Y-104483080D02*
X131402360Y-104823080D01*
G75*
G02*
X131262360Y-104963080I-140000J0D01*
G01*
X130982360Y-104963080D01*
G75*
G02*
X130842360Y-104823080I0J140000D01*
G01*
X130842360Y-104483080D01*
G75*
G02*
X130982360Y-104343080I140000J0D01*
G01*
X131262360Y-104343080D01*
G75*
G02*
X131402360Y-104483080I0J-140000D01*
G01*
G37*
%TD*%
%TO.C,C85*%
G36*
G01*
X131626000Y-102712700D02*
X131626000Y-103052700D01*
G75*
G02*
X131486000Y-103192700I-140000J0D01*
G01*
X131206000Y-103192700D01*
G75*
G02*
X131066000Y-103052700I0J140000D01*
G01*
X131066000Y-102712700D01*
G75*
G02*
X131206000Y-102572700I140000J0D01*
G01*
X131486000Y-102572700D01*
G75*
G02*
X131626000Y-102712700I0J-140000D01*
G01*
G37*
G36*
G01*
X132586000Y-102712700D02*
X132586000Y-103052700D01*
G75*
G02*
X132446000Y-103192700I-140000J0D01*
G01*
X132166000Y-103192700D01*
G75*
G02*
X132026000Y-103052700I0J140000D01*
G01*
X132026000Y-102712700D01*
G75*
G02*
X132166000Y-102572700I140000J0D01*
G01*
X132446000Y-102572700D01*
G75*
G02*
X132586000Y-102712700I0J-140000D01*
G01*
G37*
%TD*%
%TO.C,C82*%
G36*
G01*
X139138000Y-101058800D02*
X139138000Y-100718800D01*
G75*
G02*
X139278000Y-100578800I140000J0D01*
G01*
X139558000Y-100578800D01*
G75*
G02*
X139698000Y-100718800I0J-140000D01*
G01*
X139698000Y-101058800D01*
G75*
G02*
X139558000Y-101198800I-140000J0D01*
G01*
X139278000Y-101198800D01*
G75*
G02*
X139138000Y-101058800I0J140000D01*
G01*
G37*
G36*
G01*
X138178000Y-101058800D02*
X138178000Y-100718800D01*
G75*
G02*
X138318000Y-100578800I140000J0D01*
G01*
X138598000Y-100578800D01*
G75*
G02*
X138738000Y-100718800I0J-140000D01*
G01*
X138738000Y-101058800D01*
G75*
G02*
X138598000Y-101198800I-140000J0D01*
G01*
X138318000Y-101198800D01*
G75*
G02*
X138178000Y-101058800I0J140000D01*
G01*
G37*
%TD*%
%TO.C,C80*%
G36*
G01*
X133531000Y-97277100D02*
X133531000Y-97617100D01*
G75*
G02*
X133391000Y-97757100I-140000J0D01*
G01*
X133111000Y-97757100D01*
G75*
G02*
X132971000Y-97617100I0J140000D01*
G01*
X132971000Y-97277100D01*
G75*
G02*
X133111000Y-97137100I140000J0D01*
G01*
X133391000Y-97137100D01*
G75*
G02*
X133531000Y-97277100I0J-140000D01*
G01*
G37*
G36*
G01*
X134491000Y-97277100D02*
X134491000Y-97617100D01*
G75*
G02*
X134351000Y-97757100I-140000J0D01*
G01*
X134071000Y-97757100D01*
G75*
G02*
X133931000Y-97617100I0J140000D01*
G01*
X133931000Y-97277100D01*
G75*
G02*
X134071000Y-97137100I140000J0D01*
G01*
X134351000Y-97137100D01*
G75*
G02*
X134491000Y-97277100I0J-140000D01*
G01*
G37*
%TD*%
%TO.C,C79*%
G36*
G01*
X134102500Y-99232900D02*
X134102500Y-99572900D01*
G75*
G02*
X133962500Y-99712900I-140000J0D01*
G01*
X133682500Y-99712900D01*
G75*
G02*
X133542500Y-99572900I0J140000D01*
G01*
X133542500Y-99232900D01*
G75*
G02*
X133682500Y-99092900I140000J0D01*
G01*
X133962500Y-99092900D01*
G75*
G02*
X134102500Y-99232900I0J-140000D01*
G01*
G37*
G36*
G01*
X135062500Y-99232900D02*
X135062500Y-99572900D01*
G75*
G02*
X134922500Y-99712900I-140000J0D01*
G01*
X134642500Y-99712900D01*
G75*
G02*
X134502500Y-99572900I0J140000D01*
G01*
X134502500Y-99232900D01*
G75*
G02*
X134642500Y-99092900I140000J0D01*
G01*
X134922500Y-99092900D01*
G75*
G02*
X135062500Y-99232900I0J-140000D01*
G01*
G37*
%TD*%
%TO.C,C78*%
G36*
G01*
X142224100Y-95521600D02*
X142224100Y-95181600D01*
G75*
G02*
X142364100Y-95041600I140000J0D01*
G01*
X142644100Y-95041600D01*
G75*
G02*
X142784100Y-95181600I0J-140000D01*
G01*
X142784100Y-95521600D01*
G75*
G02*
X142644100Y-95661600I-140000J0D01*
G01*
X142364100Y-95661600D01*
G75*
G02*
X142224100Y-95521600I0J140000D01*
G01*
G37*
G36*
G01*
X141264100Y-95521600D02*
X141264100Y-95181600D01*
G75*
G02*
X141404100Y-95041600I140000J0D01*
G01*
X141684100Y-95041600D01*
G75*
G02*
X141824100Y-95181600I0J-140000D01*
G01*
X141824100Y-95521600D01*
G75*
G02*
X141684100Y-95661600I-140000J0D01*
G01*
X141404100Y-95661600D01*
G75*
G02*
X141264100Y-95521600I0J140000D01*
G01*
G37*
%TD*%
%TO.C,C77*%
G36*
G01*
X138071200Y-97350400D02*
X138071200Y-97010400D01*
G75*
G02*
X138211200Y-96870400I140000J0D01*
G01*
X138491200Y-96870400D01*
G75*
G02*
X138631200Y-97010400I0J-140000D01*
G01*
X138631200Y-97350400D01*
G75*
G02*
X138491200Y-97490400I-140000J0D01*
G01*
X138211200Y-97490400D01*
G75*
G02*
X138071200Y-97350400I0J140000D01*
G01*
G37*
G36*
G01*
X137111200Y-97350400D02*
X137111200Y-97010400D01*
G75*
G02*
X137251200Y-96870400I140000J0D01*
G01*
X137531200Y-96870400D01*
G75*
G02*
X137671200Y-97010400I0J-140000D01*
G01*
X137671200Y-97350400D01*
G75*
G02*
X137531200Y-97490400I-140000J0D01*
G01*
X137251200Y-97490400D01*
G75*
G02*
X137111200Y-97350400I0J140000D01*
G01*
G37*
%TD*%
%TO.C,C76*%
G36*
G01*
X140293700Y-96575700D02*
X140293700Y-96235700D01*
G75*
G02*
X140433700Y-96095700I140000J0D01*
G01*
X140713700Y-96095700D01*
G75*
G02*
X140853700Y-96235700I0J-140000D01*
G01*
X140853700Y-96575700D01*
G75*
G02*
X140713700Y-96715700I-140000J0D01*
G01*
X140433700Y-96715700D01*
G75*
G02*
X140293700Y-96575700I0J140000D01*
G01*
G37*
G36*
G01*
X139333700Y-96575700D02*
X139333700Y-96235700D01*
G75*
G02*
X139473700Y-96095700I140000J0D01*
G01*
X139753700Y-96095700D01*
G75*
G02*
X139893700Y-96235700I0J-140000D01*
G01*
X139893700Y-96575700D01*
G75*
G02*
X139753700Y-96715700I-140000J0D01*
G01*
X139473700Y-96715700D01*
G75*
G02*
X139333700Y-96575700I0J140000D01*
G01*
G37*
%TD*%
%TO.C,C75*%
G36*
G01*
X142224100Y-96575700D02*
X142224100Y-96235700D01*
G75*
G02*
X142364100Y-96095700I140000J0D01*
G01*
X142644100Y-96095700D01*
G75*
G02*
X142784100Y-96235700I0J-140000D01*
G01*
X142784100Y-96575700D01*
G75*
G02*
X142644100Y-96715700I-140000J0D01*
G01*
X142364100Y-96715700D01*
G75*
G02*
X142224100Y-96575700I0J140000D01*
G01*
G37*
G36*
G01*
X141264100Y-96575700D02*
X141264100Y-96235700D01*
G75*
G02*
X141404100Y-96095700I140000J0D01*
G01*
X141684100Y-96095700D01*
G75*
G02*
X141824100Y-96235700I0J-140000D01*
G01*
X141824100Y-96575700D01*
G75*
G02*
X141684100Y-96715700I-140000J0D01*
G01*
X141404100Y-96715700D01*
G75*
G02*
X141264100Y-96575700I0J140000D01*
G01*
G37*
%TD*%
%TO.C,C74*%
G36*
G01*
X130660800Y-98331200D02*
X130660800Y-98671200D01*
G75*
G02*
X130520800Y-98811200I-140000J0D01*
G01*
X130240800Y-98811200D01*
G75*
G02*
X130100800Y-98671200I0J140000D01*
G01*
X130100800Y-98331200D01*
G75*
G02*
X130240800Y-98191200I140000J0D01*
G01*
X130520800Y-98191200D01*
G75*
G02*
X130660800Y-98331200I0J-140000D01*
G01*
G37*
G36*
G01*
X131620800Y-98331200D02*
X131620800Y-98671200D01*
G75*
G02*
X131480800Y-98811200I-140000J0D01*
G01*
X131200800Y-98811200D01*
G75*
G02*
X131060800Y-98671200I0J140000D01*
G01*
X131060800Y-98331200D01*
G75*
G02*
X131200800Y-98191200I140000J0D01*
G01*
X131480800Y-98191200D01*
G75*
G02*
X131620800Y-98331200I0J-140000D01*
G01*
G37*
%TD*%
%TO.C,C70*%
G36*
G01*
X110660000Y-111496500D02*
X110320000Y-111496500D01*
G75*
G02*
X110180000Y-111356500I0J140000D01*
G01*
X110180000Y-111076500D01*
G75*
G02*
X110320000Y-110936500I140000J0D01*
G01*
X110660000Y-110936500D01*
G75*
G02*
X110800000Y-111076500I0J-140000D01*
G01*
X110800000Y-111356500D01*
G75*
G02*
X110660000Y-111496500I-140000J0D01*
G01*
G37*
G36*
G01*
X110660000Y-112456500D02*
X110320000Y-112456500D01*
G75*
G02*
X110180000Y-112316500I0J140000D01*
G01*
X110180000Y-112036500D01*
G75*
G02*
X110320000Y-111896500I140000J0D01*
G01*
X110660000Y-111896500D01*
G75*
G02*
X110800000Y-112036500I0J-140000D01*
G01*
X110800000Y-112316500D01*
G75*
G02*
X110660000Y-112456500I-140000J0D01*
G01*
G37*
%TD*%
%TO.C,C69*%
G36*
G01*
X110290000Y-105570200D02*
X110290000Y-105910200D01*
G75*
G02*
X110150000Y-106050200I-140000J0D01*
G01*
X109870000Y-106050200D01*
G75*
G02*
X109730000Y-105910200I0J140000D01*
G01*
X109730000Y-105570200D01*
G75*
G02*
X109870000Y-105430200I140000J0D01*
G01*
X110150000Y-105430200D01*
G75*
G02*
X110290000Y-105570200I0J-140000D01*
G01*
G37*
G36*
G01*
X111250000Y-105570200D02*
X111250000Y-105910200D01*
G75*
G02*
X111110000Y-106050200I-140000J0D01*
G01*
X110830000Y-106050200D01*
G75*
G02*
X110690000Y-105910200I0J140000D01*
G01*
X110690000Y-105570200D01*
G75*
G02*
X110830000Y-105430200I140000J0D01*
G01*
X111110000Y-105430200D01*
G75*
G02*
X111250000Y-105570200I0J-140000D01*
G01*
G37*
%TD*%
%TO.C,C68*%
G36*
G01*
X111637900Y-111496500D02*
X111297900Y-111496500D01*
G75*
G02*
X111157900Y-111356500I0J140000D01*
G01*
X111157900Y-111076500D01*
G75*
G02*
X111297900Y-110936500I140000J0D01*
G01*
X111637900Y-110936500D01*
G75*
G02*
X111777900Y-111076500I0J-140000D01*
G01*
X111777900Y-111356500D01*
G75*
G02*
X111637900Y-111496500I-140000J0D01*
G01*
G37*
G36*
G01*
X111637900Y-112456500D02*
X111297900Y-112456500D01*
G75*
G02*
X111157900Y-112316500I0J140000D01*
G01*
X111157900Y-112036500D01*
G75*
G02*
X111297900Y-111896500I140000J0D01*
G01*
X111637900Y-111896500D01*
G75*
G02*
X111777900Y-112036500I0J-140000D01*
G01*
X111777900Y-112316500D01*
G75*
G02*
X111637900Y-112456500I-140000J0D01*
G01*
G37*
%TD*%
%TO.C,C67*%
G36*
G01*
X115585900Y-107614900D02*
X115585900Y-107954900D01*
G75*
G02*
X115445900Y-108094900I-140000J0D01*
G01*
X115165900Y-108094900D01*
G75*
G02*
X115025900Y-107954900I0J140000D01*
G01*
X115025900Y-107614900D01*
G75*
G02*
X115165900Y-107474900I140000J0D01*
G01*
X115445900Y-107474900D01*
G75*
G02*
X115585900Y-107614900I0J-140000D01*
G01*
G37*
G36*
G01*
X116545900Y-107614900D02*
X116545900Y-107954900D01*
G75*
G02*
X116405900Y-108094900I-140000J0D01*
G01*
X116125900Y-108094900D01*
G75*
G02*
X115985900Y-107954900I0J140000D01*
G01*
X115985900Y-107614900D01*
G75*
G02*
X116125900Y-107474900I140000J0D01*
G01*
X116405900Y-107474900D01*
G75*
G02*
X116545900Y-107614900I0J-140000D01*
G01*
G37*
%TD*%
%TO.C,C66*%
G36*
G01*
X110290000Y-107551400D02*
X110290000Y-107891400D01*
G75*
G02*
X110150000Y-108031400I-140000J0D01*
G01*
X109870000Y-108031400D01*
G75*
G02*
X109730000Y-107891400I0J140000D01*
G01*
X109730000Y-107551400D01*
G75*
G02*
X109870000Y-107411400I140000J0D01*
G01*
X110150000Y-107411400D01*
G75*
G02*
X110290000Y-107551400I0J-140000D01*
G01*
G37*
G36*
G01*
X111250000Y-107551400D02*
X111250000Y-107891400D01*
G75*
G02*
X111110000Y-108031400I-140000J0D01*
G01*
X110830000Y-108031400D01*
G75*
G02*
X110690000Y-107891400I0J140000D01*
G01*
X110690000Y-107551400D01*
G75*
G02*
X110830000Y-107411400I140000J0D01*
G01*
X111110000Y-107411400D01*
G75*
G02*
X111250000Y-107551400I0J-140000D01*
G01*
G37*
%TD*%
%TO.C,C65*%
G36*
G01*
X114087300Y-104363700D02*
X114087300Y-104703700D01*
G75*
G02*
X113947300Y-104843700I-140000J0D01*
G01*
X113667300Y-104843700D01*
G75*
G02*
X113527300Y-104703700I0J140000D01*
G01*
X113527300Y-104363700D01*
G75*
G02*
X113667300Y-104223700I140000J0D01*
G01*
X113947300Y-104223700D01*
G75*
G02*
X114087300Y-104363700I0J-140000D01*
G01*
G37*
G36*
G01*
X115047300Y-104363700D02*
X115047300Y-104703700D01*
G75*
G02*
X114907300Y-104843700I-140000J0D01*
G01*
X114627300Y-104843700D01*
G75*
G02*
X114487300Y-104703700I0J140000D01*
G01*
X114487300Y-104363700D01*
G75*
G02*
X114627300Y-104223700I140000J0D01*
G01*
X114907300Y-104223700D01*
G75*
G02*
X115047300Y-104363700I0J-140000D01*
G01*
G37*
%TD*%
%TO.C,C64*%
G36*
G01*
X116730600Y-104067000D02*
X116390600Y-104067000D01*
G75*
G02*
X116250600Y-103927000I0J140000D01*
G01*
X116250600Y-103647000D01*
G75*
G02*
X116390600Y-103507000I140000J0D01*
G01*
X116730600Y-103507000D01*
G75*
G02*
X116870600Y-103647000I0J-140000D01*
G01*
X116870600Y-103927000D01*
G75*
G02*
X116730600Y-104067000I-140000J0D01*
G01*
G37*
G36*
G01*
X116730600Y-105027000D02*
X116390600Y-105027000D01*
G75*
G02*
X116250600Y-104887000I0J140000D01*
G01*
X116250600Y-104607000D01*
G75*
G02*
X116390600Y-104467000I140000J0D01*
G01*
X116730600Y-104467000D01*
G75*
G02*
X116870600Y-104607000I0J-140000D01*
G01*
X116870600Y-104887000D01*
G75*
G02*
X116730600Y-105027000I-140000J0D01*
G01*
G37*
%TD*%
%TO.C,C59*%
G36*
G01*
X112582300Y-105097400D02*
X112582300Y-104757400D01*
G75*
G02*
X112722300Y-104617400I140000J0D01*
G01*
X113002300Y-104617400D01*
G75*
G02*
X113142300Y-104757400I0J-140000D01*
G01*
X113142300Y-105097400D01*
G75*
G02*
X113002300Y-105237400I-140000J0D01*
G01*
X112722300Y-105237400D01*
G75*
G02*
X112582300Y-105097400I0J140000D01*
G01*
G37*
G36*
G01*
X111622300Y-105097400D02*
X111622300Y-104757400D01*
G75*
G02*
X111762300Y-104617400I140000J0D01*
G01*
X112042300Y-104617400D01*
G75*
G02*
X112182300Y-104757400I0J-140000D01*
G01*
X112182300Y-105097400D01*
G75*
G02*
X112042300Y-105237400I-140000J0D01*
G01*
X111762300Y-105237400D01*
G75*
G02*
X111622300Y-105097400I0J140000D01*
G01*
G37*
%TD*%
%TO.C,C56*%
G36*
G01*
X113746100Y-111887600D02*
X113406100Y-111887600D01*
G75*
G02*
X113266100Y-111747600I0J140000D01*
G01*
X113266100Y-111467600D01*
G75*
G02*
X113406100Y-111327600I140000J0D01*
G01*
X113746100Y-111327600D01*
G75*
G02*
X113886100Y-111467600I0J-140000D01*
G01*
X113886100Y-111747600D01*
G75*
G02*
X113746100Y-111887600I-140000J0D01*
G01*
G37*
G36*
G01*
X113746100Y-112847600D02*
X113406100Y-112847600D01*
G75*
G02*
X113266100Y-112707600I0J140000D01*
G01*
X113266100Y-112427600D01*
G75*
G02*
X113406100Y-112287600I140000J0D01*
G01*
X113746100Y-112287600D01*
G75*
G02*
X113886100Y-112427600I0J-140000D01*
G01*
X113886100Y-112707600D01*
G75*
G02*
X113746100Y-112847600I-140000J0D01*
G01*
G37*
%TD*%
%TO.C,C55*%
G36*
G01*
X114087300Y-103347700D02*
X114087300Y-103687700D01*
G75*
G02*
X113947300Y-103827700I-140000J0D01*
G01*
X113667300Y-103827700D01*
G75*
G02*
X113527300Y-103687700I0J140000D01*
G01*
X113527300Y-103347700D01*
G75*
G02*
X113667300Y-103207700I140000J0D01*
G01*
X113947300Y-103207700D01*
G75*
G02*
X114087300Y-103347700I0J-140000D01*
G01*
G37*
G36*
G01*
X115047300Y-103347700D02*
X115047300Y-103687700D01*
G75*
G02*
X114907300Y-103827700I-140000J0D01*
G01*
X114627300Y-103827700D01*
G75*
G02*
X114487300Y-103687700I0J140000D01*
G01*
X114487300Y-103347700D01*
G75*
G02*
X114627300Y-103207700I140000J0D01*
G01*
X114907300Y-103207700D01*
G75*
G02*
X115047300Y-103347700I0J-140000D01*
G01*
G37*
%TD*%
%TO.C,C54*%
G36*
G01*
X115573200Y-109583400D02*
X115573200Y-109923400D01*
G75*
G02*
X115433200Y-110063400I-140000J0D01*
G01*
X115153200Y-110063400D01*
G75*
G02*
X115013200Y-109923400I0J140000D01*
G01*
X115013200Y-109583400D01*
G75*
G02*
X115153200Y-109443400I140000J0D01*
G01*
X115433200Y-109443400D01*
G75*
G02*
X115573200Y-109583400I0J-140000D01*
G01*
G37*
G36*
G01*
X116533200Y-109583400D02*
X116533200Y-109923400D01*
G75*
G02*
X116393200Y-110063400I-140000J0D01*
G01*
X116113200Y-110063400D01*
G75*
G02*
X115973200Y-109923400I0J140000D01*
G01*
X115973200Y-109583400D01*
G75*
G02*
X116113200Y-109443400I140000J0D01*
G01*
X116393200Y-109443400D01*
G75*
G02*
X116533200Y-109583400I0J-140000D01*
G01*
G37*
%TD*%
%TO.C,C53*%
G36*
G01*
X112899800Y-108653400D02*
X112899800Y-108313400D01*
G75*
G02*
X113039800Y-108173400I140000J0D01*
G01*
X113319800Y-108173400D01*
G75*
G02*
X113459800Y-108313400I0J-140000D01*
G01*
X113459800Y-108653400D01*
G75*
G02*
X113319800Y-108793400I-140000J0D01*
G01*
X113039800Y-108793400D01*
G75*
G02*
X112899800Y-108653400I0J140000D01*
G01*
G37*
G36*
G01*
X111939800Y-108653400D02*
X111939800Y-108313400D01*
G75*
G02*
X112079800Y-108173400I140000J0D01*
G01*
X112359800Y-108173400D01*
G75*
G02*
X112499800Y-108313400I0J-140000D01*
G01*
X112499800Y-108653400D01*
G75*
G02*
X112359800Y-108793400I-140000J0D01*
G01*
X112079800Y-108793400D01*
G75*
G02*
X111939800Y-108653400I0J140000D01*
G01*
G37*
%TD*%
%TO.C,C48*%
G36*
G01*
X117437560Y-110467320D02*
X117437560Y-110807320D01*
G75*
G02*
X117297560Y-110947320I-140000J0D01*
G01*
X117017560Y-110947320D01*
G75*
G02*
X116877560Y-110807320I0J140000D01*
G01*
X116877560Y-110467320D01*
G75*
G02*
X117017560Y-110327320I140000J0D01*
G01*
X117297560Y-110327320D01*
G75*
G02*
X117437560Y-110467320I0J-140000D01*
G01*
G37*
G36*
G01*
X118397560Y-110467320D02*
X118397560Y-110807320D01*
G75*
G02*
X118257560Y-110947320I-140000J0D01*
G01*
X117977560Y-110947320D01*
G75*
G02*
X117837560Y-110807320I0J140000D01*
G01*
X117837560Y-110467320D01*
G75*
G02*
X117977560Y-110327320I140000J0D01*
G01*
X118257560Y-110327320D01*
G75*
G02*
X118397560Y-110467320I0J-140000D01*
G01*
G37*
%TD*%
%TO.C,C43*%
G36*
G01*
X115473300Y-111895280D02*
X115133300Y-111895280D01*
G75*
G02*
X114993300Y-111755280I0J140000D01*
G01*
X114993300Y-111475280D01*
G75*
G02*
X115133300Y-111335280I140000J0D01*
G01*
X115473300Y-111335280D01*
G75*
G02*
X115613300Y-111475280I0J-140000D01*
G01*
X115613300Y-111755280D01*
G75*
G02*
X115473300Y-111895280I-140000J0D01*
G01*
G37*
G36*
G01*
X115473300Y-112855280D02*
X115133300Y-112855280D01*
G75*
G02*
X114993300Y-112715280I0J140000D01*
G01*
X114993300Y-112435280D01*
G75*
G02*
X115133300Y-112295280I140000J0D01*
G01*
X115473300Y-112295280D01*
G75*
G02*
X115613300Y-112435280I0J-140000D01*
G01*
X115613300Y-112715280D01*
G75*
G02*
X115473300Y-112855280I-140000J0D01*
G01*
G37*
%TD*%
%TO.C,C42*%
G36*
G01*
X115585900Y-108605500D02*
X115585900Y-108945500D01*
G75*
G02*
X115445900Y-109085500I-140000J0D01*
G01*
X115165900Y-109085500D01*
G75*
G02*
X115025900Y-108945500I0J140000D01*
G01*
X115025900Y-108605500D01*
G75*
G02*
X115165900Y-108465500I140000J0D01*
G01*
X115445900Y-108465500D01*
G75*
G02*
X115585900Y-108605500I0J-140000D01*
G01*
G37*
G36*
G01*
X116545900Y-108605500D02*
X116545900Y-108945500D01*
G75*
G02*
X116405900Y-109085500I-140000J0D01*
G01*
X116125900Y-109085500D01*
G75*
G02*
X115985900Y-108945500I0J140000D01*
G01*
X115985900Y-108605500D01*
G75*
G02*
X116125900Y-108465500I140000J0D01*
G01*
X116405900Y-108465500D01*
G75*
G02*
X116545900Y-108605500I0J-140000D01*
G01*
G37*
%TD*%
%TO.C,C40*%
G36*
G01*
X116418180Y-111895280D02*
X116078180Y-111895280D01*
G75*
G02*
X115938180Y-111755280I0J140000D01*
G01*
X115938180Y-111475280D01*
G75*
G02*
X116078180Y-111335280I140000J0D01*
G01*
X116418180Y-111335280D01*
G75*
G02*
X116558180Y-111475280I0J-140000D01*
G01*
X116558180Y-111755280D01*
G75*
G02*
X116418180Y-111895280I-140000J0D01*
G01*
G37*
G36*
G01*
X116418180Y-112855280D02*
X116078180Y-112855280D01*
G75*
G02*
X115938180Y-112715280I0J140000D01*
G01*
X115938180Y-112435280D01*
G75*
G02*
X116078180Y-112295280I140000J0D01*
G01*
X116418180Y-112295280D01*
G75*
G02*
X116558180Y-112435280I0J-140000D01*
G01*
X116558180Y-112715280D01*
G75*
G02*
X116418180Y-112855280I-140000J0D01*
G01*
G37*
%TD*%
%TO.C,C38*%
G36*
G01*
X115573200Y-110523200D02*
X115573200Y-110863200D01*
G75*
G02*
X115433200Y-111003200I-140000J0D01*
G01*
X115153200Y-111003200D01*
G75*
G02*
X115013200Y-110863200I0J140000D01*
G01*
X115013200Y-110523200D01*
G75*
G02*
X115153200Y-110383200I140000J0D01*
G01*
X115433200Y-110383200D01*
G75*
G02*
X115573200Y-110523200I0J-140000D01*
G01*
G37*
G36*
G01*
X116533200Y-110523200D02*
X116533200Y-110863200D01*
G75*
G02*
X116393200Y-111003200I-140000J0D01*
G01*
X116113200Y-111003200D01*
G75*
G02*
X115973200Y-110863200I0J140000D01*
G01*
X115973200Y-110523200D01*
G75*
G02*
X116113200Y-110383200I140000J0D01*
G01*
X116393200Y-110383200D01*
G75*
G02*
X116533200Y-110523200I0J-140000D01*
G01*
G37*
%TD*%
%TO.C,C37*%
G36*
G01*
X118163999Y-105671440D02*
X118163999Y-105331440D01*
G75*
G02*
X118303999Y-105191440I140000J0D01*
G01*
X118583999Y-105191440D01*
G75*
G02*
X118723999Y-105331440I0J-140000D01*
G01*
X118723999Y-105671440D01*
G75*
G02*
X118583999Y-105811440I-140000J0D01*
G01*
X118303999Y-105811440D01*
G75*
G02*
X118163999Y-105671440I0J140000D01*
G01*
G37*
G36*
G01*
X117203999Y-105671440D02*
X117203999Y-105331440D01*
G75*
G02*
X117343999Y-105191440I140000J0D01*
G01*
X117623999Y-105191440D01*
G75*
G02*
X117763999Y-105331440I0J-140000D01*
G01*
X117763999Y-105671440D01*
G75*
G02*
X117623999Y-105811440I-140000J0D01*
G01*
X117343999Y-105811440D01*
G75*
G02*
X117203999Y-105671440I0J140000D01*
G01*
G37*
%TD*%
%TO.C,C31*%
G36*
G01*
X112987000Y-107248300D02*
X113327000Y-107248300D01*
G75*
G02*
X113467000Y-107388300I0J-140000D01*
G01*
X113467000Y-107668300D01*
G75*
G02*
X113327000Y-107808300I-140000J0D01*
G01*
X112987000Y-107808300D01*
G75*
G02*
X112847000Y-107668300I0J140000D01*
G01*
X112847000Y-107388300D01*
G75*
G02*
X112987000Y-107248300I140000J0D01*
G01*
G37*
G36*
G01*
X112987000Y-106288300D02*
X113327000Y-106288300D01*
G75*
G02*
X113467000Y-106428300I0J-140000D01*
G01*
X113467000Y-106708300D01*
G75*
G02*
X113327000Y-106848300I-140000J0D01*
G01*
X112987000Y-106848300D01*
G75*
G02*
X112847000Y-106708300I0J140000D01*
G01*
X112847000Y-106428300D01*
G75*
G02*
X112987000Y-106288300I140000J0D01*
G01*
G37*
%TD*%
%TO.C,C2*%
G36*
G01*
X137409100Y-98815500D02*
X137749100Y-98815500D01*
G75*
G02*
X137889100Y-98955500I0J-140000D01*
G01*
X137889100Y-99235500D01*
G75*
G02*
X137749100Y-99375500I-140000J0D01*
G01*
X137409100Y-99375500D01*
G75*
G02*
X137269100Y-99235500I0J140000D01*
G01*
X137269100Y-98955500D01*
G75*
G02*
X137409100Y-98815500I140000J0D01*
G01*
G37*
G36*
G01*
X137409100Y-97855500D02*
X137749100Y-97855500D01*
G75*
G02*
X137889100Y-97995500I0J-140000D01*
G01*
X137889100Y-98275500D01*
G75*
G02*
X137749100Y-98415500I-140000J0D01*
G01*
X137409100Y-98415500D01*
G75*
G02*
X137269100Y-98275500I0J140000D01*
G01*
X137269100Y-97995500D01*
G75*
G02*
X137409100Y-97855500I140000J0D01*
G01*
G37*
%TD*%
D13*
%TO.C,J2*%
X130779400Y-86456800D03*
D14*
X137349400Y-90636800D03*
X124209400Y-90636800D03*
D15*
X134279400Y-91236800D03*
X131779400Y-91236800D03*
X129779400Y-91236800D03*
D16*
X127279400Y-91236800D03*
%TD*%
%TO.C,R30*%
G36*
G01*
X109843600Y-104285200D02*
X109843600Y-104655200D01*
G75*
G02*
X109708600Y-104790200I-135000J0D01*
G01*
X109438600Y-104790200D01*
G75*
G02*
X109303600Y-104655200I0J135000D01*
G01*
X109303600Y-104285200D01*
G75*
G02*
X109438600Y-104150200I135000J0D01*
G01*
X109708600Y-104150200D01*
G75*
G02*
X109843600Y-104285200I0J-135000D01*
G01*
G37*
G36*
G01*
X110863600Y-104285200D02*
X110863600Y-104655200D01*
G75*
G02*
X110728600Y-104790200I-135000J0D01*
G01*
X110458600Y-104790200D01*
G75*
G02*
X110323600Y-104655200I0J135000D01*
G01*
X110323600Y-104285200D01*
G75*
G02*
X110458600Y-104150200I135000J0D01*
G01*
X110728600Y-104150200D01*
G75*
G02*
X110863600Y-104285200I0J-135000D01*
G01*
G37*
%TD*%
%TO.C,R26*%
G36*
G01*
X114060000Y-105339300D02*
X114060000Y-105709300D01*
G75*
G02*
X113925000Y-105844300I-135000J0D01*
G01*
X113655000Y-105844300D01*
G75*
G02*
X113520000Y-105709300I0J135000D01*
G01*
X113520000Y-105339300D01*
G75*
G02*
X113655000Y-105204300I135000J0D01*
G01*
X113925000Y-105204300D01*
G75*
G02*
X114060000Y-105339300I0J-135000D01*
G01*
G37*
G36*
G01*
X115080000Y-105339300D02*
X115080000Y-105709300D01*
G75*
G02*
X114945000Y-105844300I-135000J0D01*
G01*
X114675000Y-105844300D01*
G75*
G02*
X114540000Y-105709300I0J135000D01*
G01*
X114540000Y-105339300D01*
G75*
G02*
X114675000Y-105204300I135000J0D01*
G01*
X114945000Y-105204300D01*
G75*
G02*
X115080000Y-105339300I0J-135000D01*
G01*
G37*
%TD*%
%TO.C,R24*%
G36*
G01*
X108566800Y-122403900D02*
X108196800Y-122403900D01*
G75*
G02*
X108061800Y-122268900I0J135000D01*
G01*
X108061800Y-121998900D01*
G75*
G02*
X108196800Y-121863900I135000J0D01*
G01*
X108566800Y-121863900D01*
G75*
G02*
X108701800Y-121998900I0J-135000D01*
G01*
X108701800Y-122268900D01*
G75*
G02*
X108566800Y-122403900I-135000J0D01*
G01*
G37*
G36*
G01*
X108566800Y-123423900D02*
X108196800Y-123423900D01*
G75*
G02*
X108061800Y-123288900I0J135000D01*
G01*
X108061800Y-123018900D01*
G75*
G02*
X108196800Y-122883900I135000J0D01*
G01*
X108566800Y-122883900D01*
G75*
G02*
X108701800Y-123018900I0J-135000D01*
G01*
X108701800Y-123288900D01*
G75*
G02*
X108566800Y-123423900I-135000J0D01*
G01*
G37*
%TD*%
%TO.C,R23*%
G36*
G01*
X109646300Y-122416600D02*
X109276300Y-122416600D01*
G75*
G02*
X109141300Y-122281600I0J135000D01*
G01*
X109141300Y-122011600D01*
G75*
G02*
X109276300Y-121876600I135000J0D01*
G01*
X109646300Y-121876600D01*
G75*
G02*
X109781300Y-122011600I0J-135000D01*
G01*
X109781300Y-122281600D01*
G75*
G02*
X109646300Y-122416600I-135000J0D01*
G01*
G37*
G36*
G01*
X109646300Y-123436600D02*
X109276300Y-123436600D01*
G75*
G02*
X109141300Y-123301600I0J135000D01*
G01*
X109141300Y-123031600D01*
G75*
G02*
X109276300Y-122896600I135000J0D01*
G01*
X109646300Y-122896600D01*
G75*
G02*
X109781300Y-123031600I0J-135000D01*
G01*
X109781300Y-123301600D01*
G75*
G02*
X109646300Y-123436600I-135000J0D01*
G01*
G37*
%TD*%
%TO.C,R22*%
G36*
G01*
X114078600Y-122340400D02*
X113708600Y-122340400D01*
G75*
G02*
X113573600Y-122205400I0J135000D01*
G01*
X113573600Y-121935400D01*
G75*
G02*
X113708600Y-121800400I135000J0D01*
G01*
X114078600Y-121800400D01*
G75*
G02*
X114213600Y-121935400I0J-135000D01*
G01*
X114213600Y-122205400D01*
G75*
G02*
X114078600Y-122340400I-135000J0D01*
G01*
G37*
G36*
G01*
X114078600Y-123360400D02*
X113708600Y-123360400D01*
G75*
G02*
X113573600Y-123225400I0J135000D01*
G01*
X113573600Y-122955400D01*
G75*
G02*
X113708600Y-122820400I135000J0D01*
G01*
X114078600Y-122820400D01*
G75*
G02*
X114213600Y-122955400I0J-135000D01*
G01*
X114213600Y-123225400D01*
G75*
G02*
X114078600Y-123360400I-135000J0D01*
G01*
G37*
%TD*%
%TO.C,R21*%
G36*
G01*
X115183500Y-122353100D02*
X114813500Y-122353100D01*
G75*
G02*
X114678500Y-122218100I0J135000D01*
G01*
X114678500Y-121948100D01*
G75*
G02*
X114813500Y-121813100I135000J0D01*
G01*
X115183500Y-121813100D01*
G75*
G02*
X115318500Y-121948100I0J-135000D01*
G01*
X115318500Y-122218100D01*
G75*
G02*
X115183500Y-122353100I-135000J0D01*
G01*
G37*
G36*
G01*
X115183500Y-123373100D02*
X114813500Y-123373100D01*
G75*
G02*
X114678500Y-123238100I0J135000D01*
G01*
X114678500Y-122968100D01*
G75*
G02*
X114813500Y-122833100I135000J0D01*
G01*
X115183500Y-122833100D01*
G75*
G02*
X115318500Y-122968100I0J-135000D01*
G01*
X115318500Y-123238100D01*
G75*
G02*
X115183500Y-123373100I-135000J0D01*
G01*
G37*
%TD*%
%TO.C,R20*%
G36*
G01*
X116275700Y-122353100D02*
X115905700Y-122353100D01*
G75*
G02*
X115770700Y-122218100I0J135000D01*
G01*
X115770700Y-121948100D01*
G75*
G02*
X115905700Y-121813100I135000J0D01*
G01*
X116275700Y-121813100D01*
G75*
G02*
X116410700Y-121948100I0J-135000D01*
G01*
X116410700Y-122218100D01*
G75*
G02*
X116275700Y-122353100I-135000J0D01*
G01*
G37*
G36*
G01*
X116275700Y-123373100D02*
X115905700Y-123373100D01*
G75*
G02*
X115770700Y-123238100I0J135000D01*
G01*
X115770700Y-122968100D01*
G75*
G02*
X115905700Y-122833100I135000J0D01*
G01*
X116275700Y-122833100D01*
G75*
G02*
X116410700Y-122968100I0J-135000D01*
G01*
X116410700Y-123238100D01*
G75*
G02*
X116275700Y-123373100I-135000J0D01*
G01*
G37*
%TD*%
D17*
%TO.C,U6*%
X131600320Y-133458840D03*
X131600320Y-132458840D03*
X132100320Y-132958840D03*
X132600320Y-133458840D03*
X132600320Y-132458840D03*
%TD*%
%TO.C,U5*%
X141299820Y-124720160D03*
X140299820Y-124720160D03*
X140799820Y-124220160D03*
X141299820Y-123720160D03*
X140299820Y-123720160D03*
%TD*%
%TO.C,U4*%
X130497200Y-124667900D03*
X129497200Y-124667900D03*
X129997200Y-124167900D03*
X130497200Y-123667900D03*
X129497200Y-123667900D03*
%TD*%
%TO.C,U3*%
X146058000Y-111828960D03*
X147058000Y-111828960D03*
X146558000Y-112328960D03*
X146058000Y-112828960D03*
X147058000Y-112828960D03*
%TD*%
%TO.C,R6*%
G36*
G01*
X121179560Y-102465720D02*
X121179560Y-102095720D01*
G75*
G02*
X121314560Y-101960720I135000J0D01*
G01*
X121584560Y-101960720D01*
G75*
G02*
X121719560Y-102095720I0J-135000D01*
G01*
X121719560Y-102465720D01*
G75*
G02*
X121584560Y-102600720I-135000J0D01*
G01*
X121314560Y-102600720D01*
G75*
G02*
X121179560Y-102465720I0J135000D01*
G01*
G37*
G36*
G01*
X120159560Y-102465720D02*
X120159560Y-102095720D01*
G75*
G02*
X120294560Y-101960720I135000J0D01*
G01*
X120564560Y-101960720D01*
G75*
G02*
X120699560Y-102095720I0J-135000D01*
G01*
X120699560Y-102465720D01*
G75*
G02*
X120564560Y-102600720I-135000J0D01*
G01*
X120294560Y-102600720D01*
G75*
G02*
X120159560Y-102465720I0J135000D01*
G01*
G37*
%TD*%
M02*
