%TF.GenerationSoftware,KiCad,Pcbnew,5.1.9-1.fc33*%
%TF.CreationDate,2021-05-17T09:51:24-07:00*%
%TF.ProjectId,hardware,68617264-7761-4726-952e-6b696361645f,rev?*%
%TF.SameCoordinates,Original*%
%TF.FileFunction,Paste,Top*%
%TF.FilePolarity,Positive*%
%FSLAX46Y46*%
G04 Gerber Fmt 4.6, Leading zero omitted, Abs format (unit mm)*
G04 Created by KiCad (PCBNEW 5.1.9-1.fc33) date 2021-05-17 09:51:24*
%MOMM*%
%LPD*%
G01*
G04 APERTURE LIST*
%ADD10C,0.340000*%
%ADD11C,0.399500*%
%ADD12R,1.000000X0.500000*%
%ADD13R,1.400000X1.200000*%
%ADD14R,1.300000X1.900000*%
%ADD15R,1.000000X2.800000*%
%ADD16R,1.000000X0.800000*%
%ADD17R,1.000000X1.200000*%
%ADD18R,0.700000X1.200000*%
%ADD19R,0.650000X1.060000*%
%ADD20R,1.700000X1.700000*%
%ADD21O,0.850000X0.280000*%
%ADD22O,0.280000X0.850000*%
%ADD23R,0.980000X3.400000*%
%ADD24R,3.400000X0.980000*%
G04 APERTURE END LIST*
%TO.C,R27*%
G36*
G01*
X123531600Y-110929000D02*
X123531600Y-110559000D01*
G75*
G02*
X123666600Y-110424000I135000J0D01*
G01*
X123936600Y-110424000D01*
G75*
G02*
X124071600Y-110559000I0J-135000D01*
G01*
X124071600Y-110929000D01*
G75*
G02*
X123936600Y-111064000I-135000J0D01*
G01*
X123666600Y-111064000D01*
G75*
G02*
X123531600Y-110929000I0J135000D01*
G01*
G37*
G36*
G01*
X122511600Y-110929000D02*
X122511600Y-110559000D01*
G75*
G02*
X122646600Y-110424000I135000J0D01*
G01*
X122916600Y-110424000D01*
G75*
G02*
X123051600Y-110559000I0J-135000D01*
G01*
X123051600Y-110929000D01*
G75*
G02*
X122916600Y-111064000I-135000J0D01*
G01*
X122646600Y-111064000D01*
G75*
G02*
X122511600Y-110929000I0J135000D01*
G01*
G37*
%TD*%
D10*
%TO.C,U2*%
X108357200Y-102566000D03*
X109157200Y-102566000D03*
X109957200Y-102566000D03*
X110757200Y-102566000D03*
X111557200Y-102566000D03*
X112357200Y-102566000D03*
X113157200Y-102566000D03*
X113957200Y-102566000D03*
X114757200Y-102566000D03*
X115557200Y-102566000D03*
X116357200Y-102566000D03*
X117157200Y-102566000D03*
X117957200Y-102566000D03*
X118757200Y-102566000D03*
X119557200Y-102566000D03*
X120357200Y-102566000D03*
X121157200Y-102566000D03*
X108357200Y-103366000D03*
X109157200Y-103366000D03*
X109957200Y-103366000D03*
X110757200Y-103366000D03*
X111557200Y-103366000D03*
X112357200Y-103366000D03*
X113157200Y-103366000D03*
X113957200Y-103366000D03*
X114757200Y-103366000D03*
X115557200Y-103366000D03*
X116357200Y-103366000D03*
X117157200Y-103366000D03*
X117957200Y-103366000D03*
X118757200Y-103366000D03*
X119557200Y-103366000D03*
X120357200Y-103366000D03*
X121157200Y-103366000D03*
X108357200Y-104166000D03*
X109157200Y-104166000D03*
X109957200Y-104166000D03*
X110757200Y-104166000D03*
X111557200Y-104166000D03*
X112357200Y-104166000D03*
X113157200Y-104166000D03*
X113957200Y-104166000D03*
X114757200Y-104166000D03*
X115557200Y-104166000D03*
X116357200Y-104166000D03*
X117157200Y-104166000D03*
X117957200Y-104166000D03*
X118757200Y-104166000D03*
X119557200Y-104166000D03*
X120357200Y-104166000D03*
X121157200Y-104166000D03*
X108357200Y-104966000D03*
X109157200Y-104966000D03*
X109957200Y-104966000D03*
X110757200Y-104966000D03*
X111557200Y-104966000D03*
X112357200Y-104966000D03*
X113157200Y-104966000D03*
X113957200Y-104966000D03*
X114757200Y-104966000D03*
X115557200Y-104966000D03*
X116357200Y-104966000D03*
X117157200Y-104966000D03*
X117957200Y-104966000D03*
X118757200Y-104966000D03*
X119557200Y-104966000D03*
X120357200Y-104966000D03*
X121157200Y-104966000D03*
X108357200Y-105766000D03*
X109157200Y-105766000D03*
X109957200Y-105766000D03*
X110757200Y-105766000D03*
X112357200Y-105766000D03*
X113157200Y-105766000D03*
X113957200Y-105766000D03*
X114757200Y-105766000D03*
X115557200Y-105766000D03*
X116357200Y-105766000D03*
X117157200Y-105766000D03*
X117957200Y-105766000D03*
X118757200Y-105766000D03*
X119557200Y-105766000D03*
X120357200Y-105766000D03*
X121157200Y-105766000D03*
X108357200Y-106566000D03*
X109157200Y-106566000D03*
X109957200Y-106566000D03*
X110757200Y-106566000D03*
X111557200Y-106566000D03*
X112357200Y-106566000D03*
X113157200Y-106566000D03*
X113957200Y-106566000D03*
X114757200Y-106566000D03*
X115557200Y-106566000D03*
X116357200Y-106566000D03*
X117157200Y-106566000D03*
X117957200Y-106566000D03*
X118757200Y-106566000D03*
X119557200Y-106566000D03*
X120357200Y-106566000D03*
X121157200Y-106566000D03*
X108357200Y-107366000D03*
X109157200Y-107366000D03*
X109957200Y-107366000D03*
X110757200Y-107366000D03*
X112357200Y-107366000D03*
X113157200Y-107366000D03*
X113957200Y-107366000D03*
X114757200Y-107366000D03*
X115557200Y-107366000D03*
X116357200Y-107366000D03*
X117157200Y-107366000D03*
X117957200Y-107366000D03*
X118757200Y-107366000D03*
X119557200Y-107366000D03*
X120357200Y-107366000D03*
X121157200Y-107366000D03*
X108357200Y-108166000D03*
X109157200Y-108166000D03*
X109957200Y-108166000D03*
X110757200Y-108166000D03*
X111557200Y-108166000D03*
X112357200Y-108166000D03*
X113157200Y-108166000D03*
X113957200Y-108166000D03*
X114757200Y-108166000D03*
X115557200Y-108166000D03*
X116357200Y-108166000D03*
X117157200Y-108166000D03*
X117957200Y-108166000D03*
X118757200Y-108166000D03*
X119557200Y-108166000D03*
X120357200Y-108166000D03*
X121157200Y-108166000D03*
X108357200Y-108966000D03*
X109157200Y-108966000D03*
X109957200Y-108966000D03*
X110757200Y-108966000D03*
X112357200Y-108966000D03*
X113157200Y-108966000D03*
X113957200Y-108966000D03*
X114757200Y-108966000D03*
X115557200Y-108966000D03*
X116357200Y-108966000D03*
X117157200Y-108966000D03*
X117957200Y-108966000D03*
X118757200Y-108966000D03*
X119557200Y-108966000D03*
X120357200Y-108966000D03*
X121157200Y-108966000D03*
X108357200Y-109766000D03*
X109157200Y-109766000D03*
X109957200Y-109766000D03*
X110757200Y-109766000D03*
X111557200Y-109766000D03*
X112357200Y-109766000D03*
X113157200Y-109766000D03*
X113957200Y-109766000D03*
X114757200Y-109766000D03*
X115557200Y-109766000D03*
X116357200Y-109766000D03*
X117157200Y-109766000D03*
X117957200Y-109766000D03*
X118757200Y-109766000D03*
X119557200Y-109766000D03*
X120357200Y-109766000D03*
X121157200Y-109766000D03*
X108357200Y-110566000D03*
X109157200Y-110566000D03*
X109957200Y-110566000D03*
X110757200Y-110566000D03*
X112357200Y-110566000D03*
X113157200Y-110566000D03*
X113957200Y-110566000D03*
X114757200Y-110566000D03*
X115557200Y-110566000D03*
X116357200Y-110566000D03*
X117157200Y-110566000D03*
X117957200Y-110566000D03*
X118757200Y-110566000D03*
X119557200Y-110566000D03*
X120357200Y-110566000D03*
X121157200Y-110566000D03*
X108357200Y-111366000D03*
X109157200Y-111366000D03*
X109957200Y-111366000D03*
X110757200Y-111366000D03*
X112357200Y-111366000D03*
X113157200Y-111366000D03*
X113957200Y-111366000D03*
X114757200Y-111366000D03*
X115557200Y-111366000D03*
X116357200Y-111366000D03*
X117157200Y-111366000D03*
X117957200Y-111366000D03*
X118757200Y-111366000D03*
X119557200Y-111366000D03*
X120357200Y-111366000D03*
X121157200Y-111366000D03*
X108357200Y-112166000D03*
X109157200Y-112166000D03*
X109957200Y-112166000D03*
X110757200Y-112166000D03*
X112357200Y-112166000D03*
X113157200Y-112166000D03*
X113957200Y-112166000D03*
X114757200Y-112166000D03*
X115557200Y-112166000D03*
X116357200Y-112166000D03*
X117157200Y-112166000D03*
X117957200Y-112166000D03*
X118757200Y-112166000D03*
X119557200Y-112166000D03*
X120357200Y-112166000D03*
X121157200Y-112166000D03*
X108357200Y-112966000D03*
X109157200Y-112966000D03*
X109957200Y-112966000D03*
X110757200Y-112966000D03*
X111557200Y-112966000D03*
X112357200Y-112966000D03*
X113157200Y-112966000D03*
X113957200Y-112966000D03*
X114757200Y-112966000D03*
X115557200Y-112966000D03*
X116357200Y-112966000D03*
X117157200Y-112966000D03*
X117957200Y-112966000D03*
X118757200Y-112966000D03*
X119557200Y-112966000D03*
X120357200Y-112966000D03*
X121157200Y-112966000D03*
X108357200Y-113766000D03*
X109157200Y-113766000D03*
X109957200Y-113766000D03*
X110757200Y-113766000D03*
X111557200Y-113766000D03*
X112357200Y-113766000D03*
X113157200Y-113766000D03*
X113957200Y-113766000D03*
X114757200Y-113766000D03*
X115557200Y-113766000D03*
X116357200Y-113766000D03*
X117157200Y-113766000D03*
X117957200Y-113766000D03*
X118757200Y-113766000D03*
X119557200Y-113766000D03*
X120357200Y-113766000D03*
X121157200Y-113766000D03*
X108357200Y-114566000D03*
X109157200Y-114566000D03*
X109957200Y-114566000D03*
X110757200Y-114566000D03*
X111557200Y-114566000D03*
X113157200Y-114566000D03*
X113957200Y-114566000D03*
X114757200Y-114566000D03*
X115557200Y-114566000D03*
X116357200Y-114566000D03*
X117157200Y-114566000D03*
X117957200Y-114566000D03*
X118757200Y-114566000D03*
X119557200Y-114566000D03*
X120357200Y-114566000D03*
X121157200Y-114566000D03*
X108357200Y-115366000D03*
X109157200Y-115366000D03*
X109957200Y-115366000D03*
X110757200Y-115366000D03*
X111557200Y-115366000D03*
X112357200Y-115366000D03*
X113157200Y-115366000D03*
X113957200Y-115366000D03*
X114757200Y-115366000D03*
X115557200Y-115366000D03*
X116357200Y-115366000D03*
X117157200Y-115366000D03*
X117957200Y-115366000D03*
X118757200Y-115366000D03*
X119557200Y-115366000D03*
X120357200Y-115366000D03*
X121157200Y-115366000D03*
%TD*%
%TO.C,C28*%
G36*
G01*
X121978400Y-130320200D02*
X122928400Y-130320200D01*
G75*
G02*
X123178400Y-130570200I0J-250000D01*
G01*
X123178400Y-131070200D01*
G75*
G02*
X122928400Y-131320200I-250000J0D01*
G01*
X121978400Y-131320200D01*
G75*
G02*
X121728400Y-131070200I0J250000D01*
G01*
X121728400Y-130570200D01*
G75*
G02*
X121978400Y-130320200I250000J0D01*
G01*
G37*
G36*
G01*
X121978400Y-128420200D02*
X122928400Y-128420200D01*
G75*
G02*
X123178400Y-128670200I0J-250000D01*
G01*
X123178400Y-129170200D01*
G75*
G02*
X122928400Y-129420200I-250000J0D01*
G01*
X121978400Y-129420200D01*
G75*
G02*
X121728400Y-129170200I0J250000D01*
G01*
X121728400Y-128670200D01*
G75*
G02*
X121978400Y-128420200I250000J0D01*
G01*
G37*
%TD*%
%TO.C,C26*%
G36*
G01*
X125773600Y-133494800D02*
X125773600Y-132544800D01*
G75*
G02*
X126023600Y-132294800I250000J0D01*
G01*
X126523600Y-132294800D01*
G75*
G02*
X126773600Y-132544800I0J-250000D01*
G01*
X126773600Y-133494800D01*
G75*
G02*
X126523600Y-133744800I-250000J0D01*
G01*
X126023600Y-133744800D01*
G75*
G02*
X125773600Y-133494800I0J250000D01*
G01*
G37*
G36*
G01*
X123873600Y-133494800D02*
X123873600Y-132544800D01*
G75*
G02*
X124123600Y-132294800I250000J0D01*
G01*
X124623600Y-132294800D01*
G75*
G02*
X124873600Y-132544800I0J-250000D01*
G01*
X124873600Y-133494800D01*
G75*
G02*
X124623600Y-133744800I-250000J0D01*
G01*
X124123600Y-133744800D01*
G75*
G02*
X123873600Y-133494800I0J250000D01*
G01*
G37*
%TD*%
%TO.C,C25*%
G36*
G01*
X137066000Y-133012600D02*
X138016000Y-133012600D01*
G75*
G02*
X138266000Y-133262600I0J-250000D01*
G01*
X138266000Y-133762600D01*
G75*
G02*
X138016000Y-134012600I-250000J0D01*
G01*
X137066000Y-134012600D01*
G75*
G02*
X136816000Y-133762600I0J250000D01*
G01*
X136816000Y-133262600D01*
G75*
G02*
X137066000Y-133012600I250000J0D01*
G01*
G37*
G36*
G01*
X137066000Y-131112600D02*
X138016000Y-131112600D01*
G75*
G02*
X138266000Y-131362600I0J-250000D01*
G01*
X138266000Y-131862600D01*
G75*
G02*
X138016000Y-132112600I-250000J0D01*
G01*
X137066000Y-132112600D01*
G75*
G02*
X136816000Y-131862600I0J250000D01*
G01*
X136816000Y-131362600D01*
G75*
G02*
X137066000Y-131112600I250000J0D01*
G01*
G37*
%TD*%
%TO.C,C24*%
G36*
G01*
X141013600Y-121379000D02*
X141013600Y-120429000D01*
G75*
G02*
X141263600Y-120179000I250000J0D01*
G01*
X141763600Y-120179000D01*
G75*
G02*
X142013600Y-120429000I0J-250000D01*
G01*
X142013600Y-121379000D01*
G75*
G02*
X141763600Y-121629000I-250000J0D01*
G01*
X141263600Y-121629000D01*
G75*
G02*
X141013600Y-121379000I0J250000D01*
G01*
G37*
G36*
G01*
X139113600Y-121379000D02*
X139113600Y-120429000D01*
G75*
G02*
X139363600Y-120179000I250000J0D01*
G01*
X139863600Y-120179000D01*
G75*
G02*
X140113600Y-120429000I0J-250000D01*
G01*
X140113600Y-121379000D01*
G75*
G02*
X139863600Y-121629000I-250000J0D01*
G01*
X139363600Y-121629000D01*
G75*
G02*
X139113600Y-121379000I0J250000D01*
G01*
G37*
%TD*%
%TO.C,C23*%
G36*
G01*
X135008600Y-133012600D02*
X135958600Y-133012600D01*
G75*
G02*
X136208600Y-133262600I0J-250000D01*
G01*
X136208600Y-133762600D01*
G75*
G02*
X135958600Y-134012600I-250000J0D01*
G01*
X135008600Y-134012600D01*
G75*
G02*
X134758600Y-133762600I0J250000D01*
G01*
X134758600Y-133262600D01*
G75*
G02*
X135008600Y-133012600I250000J0D01*
G01*
G37*
G36*
G01*
X135008600Y-131112600D02*
X135958600Y-131112600D01*
G75*
G02*
X136208600Y-131362600I0J-250000D01*
G01*
X136208600Y-131862600D01*
G75*
G02*
X135958600Y-132112600I-250000J0D01*
G01*
X135008600Y-132112600D01*
G75*
G02*
X134758600Y-131862600I0J250000D01*
G01*
X134758600Y-131362600D01*
G75*
G02*
X135008600Y-131112600I250000J0D01*
G01*
G37*
%TD*%
%TO.C,C22*%
G36*
G01*
X141008520Y-119347000D02*
X141008520Y-118397000D01*
G75*
G02*
X141258520Y-118147000I250000J0D01*
G01*
X141758520Y-118147000D01*
G75*
G02*
X142008520Y-118397000I0J-250000D01*
G01*
X142008520Y-119347000D01*
G75*
G02*
X141758520Y-119597000I-250000J0D01*
G01*
X141258520Y-119597000D01*
G75*
G02*
X141008520Y-119347000I0J250000D01*
G01*
G37*
G36*
G01*
X139108520Y-119347000D02*
X139108520Y-118397000D01*
G75*
G02*
X139358520Y-118147000I250000J0D01*
G01*
X139858520Y-118147000D01*
G75*
G02*
X140108520Y-118397000I0J-250000D01*
G01*
X140108520Y-119347000D01*
G75*
G02*
X139858520Y-119597000I-250000J0D01*
G01*
X139358520Y-119597000D01*
G75*
G02*
X139108520Y-119347000I0J250000D01*
G01*
G37*
%TD*%
%TO.C,C17*%
G36*
G01*
X135491600Y-136238000D02*
X135491600Y-135288000D01*
G75*
G02*
X135741600Y-135038000I250000J0D01*
G01*
X136241600Y-135038000D01*
G75*
G02*
X136491600Y-135288000I0J-250000D01*
G01*
X136491600Y-136238000D01*
G75*
G02*
X136241600Y-136488000I-250000J0D01*
G01*
X135741600Y-136488000D01*
G75*
G02*
X135491600Y-136238000I0J250000D01*
G01*
G37*
G36*
G01*
X133591600Y-136238000D02*
X133591600Y-135288000D01*
G75*
G02*
X133841600Y-135038000I250000J0D01*
G01*
X134341600Y-135038000D01*
G75*
G02*
X134591600Y-135288000I0J-250000D01*
G01*
X134591600Y-136238000D01*
G75*
G02*
X134341600Y-136488000I-250000J0D01*
G01*
X133841600Y-136488000D01*
G75*
G02*
X133591600Y-136238000I0J250000D01*
G01*
G37*
%TD*%
%TO.C,C16*%
G36*
G01*
X144315200Y-120631800D02*
X143365200Y-120631800D01*
G75*
G02*
X143115200Y-120381800I0J250000D01*
G01*
X143115200Y-119881800D01*
G75*
G02*
X143365200Y-119631800I250000J0D01*
G01*
X144315200Y-119631800D01*
G75*
G02*
X144565200Y-119881800I0J-250000D01*
G01*
X144565200Y-120381800D01*
G75*
G02*
X144315200Y-120631800I-250000J0D01*
G01*
G37*
G36*
G01*
X144315200Y-122531800D02*
X143365200Y-122531800D01*
G75*
G02*
X143115200Y-122281800I0J250000D01*
G01*
X143115200Y-121781800D01*
G75*
G02*
X143365200Y-121531800I250000J0D01*
G01*
X144315200Y-121531800D01*
G75*
G02*
X144565200Y-121781800I0J-250000D01*
G01*
X144565200Y-122281800D01*
G75*
G02*
X144315200Y-122531800I-250000J0D01*
G01*
G37*
%TD*%
%TO.C,C15*%
G36*
G01*
X130142400Y-119461300D02*
X130142400Y-118511300D01*
G75*
G02*
X130392400Y-118261300I250000J0D01*
G01*
X130892400Y-118261300D01*
G75*
G02*
X131142400Y-118511300I0J-250000D01*
G01*
X131142400Y-119461300D01*
G75*
G02*
X130892400Y-119711300I-250000J0D01*
G01*
X130392400Y-119711300D01*
G75*
G02*
X130142400Y-119461300I0J250000D01*
G01*
G37*
G36*
G01*
X128242400Y-119461300D02*
X128242400Y-118511300D01*
G75*
G02*
X128492400Y-118261300I250000J0D01*
G01*
X128992400Y-118261300D01*
G75*
G02*
X129242400Y-118511300I0J-250000D01*
G01*
X129242400Y-119461300D01*
G75*
G02*
X128992400Y-119711300I-250000J0D01*
G01*
X128492400Y-119711300D01*
G75*
G02*
X128242400Y-119461300I0J250000D01*
G01*
G37*
%TD*%
%TO.C,C14*%
G36*
G01*
X130142400Y-121493300D02*
X130142400Y-120543300D01*
G75*
G02*
X130392400Y-120293300I250000J0D01*
G01*
X130892400Y-120293300D01*
G75*
G02*
X131142400Y-120543300I0J-250000D01*
G01*
X131142400Y-121493300D01*
G75*
G02*
X130892400Y-121743300I-250000J0D01*
G01*
X130392400Y-121743300D01*
G75*
G02*
X130142400Y-121493300I0J250000D01*
G01*
G37*
G36*
G01*
X128242400Y-121493300D02*
X128242400Y-120543300D01*
G75*
G02*
X128492400Y-120293300I250000J0D01*
G01*
X128992400Y-120293300D01*
G75*
G02*
X129242400Y-120543300I0J-250000D01*
G01*
X129242400Y-121493300D01*
G75*
G02*
X128992400Y-121743300I-250000J0D01*
G01*
X128492400Y-121743300D01*
G75*
G02*
X128242400Y-121493300I0J250000D01*
G01*
G37*
%TD*%
%TO.C,C11*%
G36*
G01*
X133050300Y-120822300D02*
X132100300Y-120822300D01*
G75*
G02*
X131850300Y-120572300I0J250000D01*
G01*
X131850300Y-120072300D01*
G75*
G02*
X132100300Y-119822300I250000J0D01*
G01*
X133050300Y-119822300D01*
G75*
G02*
X133300300Y-120072300I0J-250000D01*
G01*
X133300300Y-120572300D01*
G75*
G02*
X133050300Y-120822300I-250000J0D01*
G01*
G37*
G36*
G01*
X133050300Y-122722300D02*
X132100300Y-122722300D01*
G75*
G02*
X131850300Y-122472300I0J250000D01*
G01*
X131850300Y-121972300D01*
G75*
G02*
X132100300Y-121722300I250000J0D01*
G01*
X133050300Y-121722300D01*
G75*
G02*
X133300300Y-121972300I0J-250000D01*
G01*
X133300300Y-122472300D01*
G75*
G02*
X133050300Y-122722300I-250000J0D01*
G01*
G37*
%TD*%
%TO.C,C10*%
G36*
G01*
X146362000Y-117127000D02*
X146362000Y-118077000D01*
G75*
G02*
X146112000Y-118327000I-250000J0D01*
G01*
X145612000Y-118327000D01*
G75*
G02*
X145362000Y-118077000I0J250000D01*
G01*
X145362000Y-117127000D01*
G75*
G02*
X145612000Y-116877000I250000J0D01*
G01*
X146112000Y-116877000D01*
G75*
G02*
X146362000Y-117127000I0J-250000D01*
G01*
G37*
G36*
G01*
X148262000Y-117127000D02*
X148262000Y-118077000D01*
G75*
G02*
X148012000Y-118327000I-250000J0D01*
G01*
X147512000Y-118327000D01*
G75*
G02*
X147262000Y-118077000I0J250000D01*
G01*
X147262000Y-117127000D01*
G75*
G02*
X147512000Y-116877000I250000J0D01*
G01*
X148012000Y-116877000D01*
G75*
G02*
X148262000Y-117127000I0J-250000D01*
G01*
G37*
%TD*%
%TO.C,C9*%
G36*
G01*
X146362000Y-115069600D02*
X146362000Y-116019600D01*
G75*
G02*
X146112000Y-116269600I-250000J0D01*
G01*
X145612000Y-116269600D01*
G75*
G02*
X145362000Y-116019600I0J250000D01*
G01*
X145362000Y-115069600D01*
G75*
G02*
X145612000Y-114819600I250000J0D01*
G01*
X146112000Y-114819600D01*
G75*
G02*
X146362000Y-115069600I0J-250000D01*
G01*
G37*
G36*
G01*
X148262000Y-115069600D02*
X148262000Y-116019600D01*
G75*
G02*
X148012000Y-116269600I-250000J0D01*
G01*
X147512000Y-116269600D01*
G75*
G02*
X147262000Y-116019600I0J250000D01*
G01*
X147262000Y-115069600D01*
G75*
G02*
X147512000Y-114819600I250000J0D01*
G01*
X148012000Y-114819600D01*
G75*
G02*
X148262000Y-115069600I0J-250000D01*
G01*
G37*
%TD*%
%TO.C,C6*%
G36*
G01*
X142755600Y-115385000D02*
X143705600Y-115385000D01*
G75*
G02*
X143955600Y-115635000I0J-250000D01*
G01*
X143955600Y-116135000D01*
G75*
G02*
X143705600Y-116385000I-250000J0D01*
G01*
X142755600Y-116385000D01*
G75*
G02*
X142505600Y-116135000I0J250000D01*
G01*
X142505600Y-115635000D01*
G75*
G02*
X142755600Y-115385000I250000J0D01*
G01*
G37*
G36*
G01*
X142755600Y-113485000D02*
X143705600Y-113485000D01*
G75*
G02*
X143955600Y-113735000I0J-250000D01*
G01*
X143955600Y-114235000D01*
G75*
G02*
X143705600Y-114485000I-250000J0D01*
G01*
X142755600Y-114485000D01*
G75*
G02*
X142505600Y-114235000I0J250000D01*
G01*
X142505600Y-113735000D01*
G75*
G02*
X142755600Y-113485000I250000J0D01*
G01*
G37*
%TD*%
D11*
%TO.C,U1*%
X141553200Y-97663200D03*
X141553200Y-98463200D03*
X141553200Y-99263200D03*
X141553200Y-102463200D03*
X141553200Y-103263200D03*
X141553200Y-104063200D03*
X140753200Y-97663200D03*
X140753200Y-98463200D03*
X140753200Y-99263200D03*
X140753200Y-102463200D03*
X140753200Y-103263200D03*
X140753200Y-104063200D03*
X139953200Y-97663200D03*
X139953200Y-98463200D03*
X139953200Y-99263200D03*
X139953200Y-102463200D03*
X139953200Y-103263200D03*
X139953200Y-104063200D03*
X139153200Y-97663200D03*
X139153200Y-98463200D03*
X139153200Y-99263200D03*
X139153200Y-102463200D03*
X139153200Y-103263200D03*
X139153200Y-104063200D03*
X138353200Y-97663200D03*
X138353200Y-98463200D03*
X138353200Y-99263200D03*
X138353200Y-102463200D03*
X138353200Y-103263200D03*
X138353200Y-104063200D03*
X137553200Y-97663200D03*
X137553200Y-98463200D03*
X137553200Y-99263200D03*
X137553200Y-102463200D03*
X137553200Y-103263200D03*
X137553200Y-104063200D03*
X136753200Y-97663200D03*
X136753200Y-98463200D03*
X136753200Y-99263200D03*
X136753200Y-102463200D03*
X136753200Y-103263200D03*
X136753200Y-104063200D03*
X135953200Y-97663200D03*
X135953200Y-98463200D03*
X135953200Y-99263200D03*
X135953200Y-102463200D03*
X135953200Y-103263200D03*
X135953200Y-104063200D03*
X135153200Y-97663200D03*
X135153200Y-98463200D03*
X135153200Y-99263200D03*
X135153200Y-102463200D03*
X135153200Y-103263200D03*
X135153200Y-104063200D03*
X134353200Y-97663200D03*
X134353200Y-98463200D03*
X134353200Y-99263200D03*
X134353200Y-102463200D03*
X134353200Y-103263200D03*
X134353200Y-104063200D03*
X133553200Y-97663200D03*
X133553200Y-98463200D03*
X133553200Y-99263200D03*
X133553200Y-102463200D03*
X133553200Y-103263200D03*
X133553200Y-104063200D03*
X132753200Y-97663200D03*
X132753200Y-98463200D03*
X132753200Y-99263200D03*
X132753200Y-102463200D03*
X132753200Y-103263200D03*
X132753200Y-104063200D03*
X131953200Y-97663200D03*
X131953200Y-98463200D03*
X131953200Y-99263200D03*
X131953200Y-102463200D03*
X131953200Y-103263200D03*
X131953200Y-104063200D03*
X131153200Y-97663200D03*
X131153200Y-98463200D03*
X131153200Y-99263200D03*
X131153200Y-102463200D03*
X131153200Y-103263200D03*
X131153200Y-104063200D03*
X130353200Y-97663200D03*
X130353200Y-98463200D03*
X130353200Y-99263200D03*
X130353200Y-102463200D03*
X130353200Y-103263200D03*
X130353200Y-104063200D03*
X129553200Y-97663200D03*
X129553200Y-98463200D03*
X129553200Y-99263200D03*
X129553200Y-102463200D03*
X129553200Y-103263200D03*
X129553200Y-104063200D03*
%TD*%
%TO.C,R28*%
G36*
G01*
X123379200Y-109913000D02*
X123379200Y-109543000D01*
G75*
G02*
X123514200Y-109408000I135000J0D01*
G01*
X123784200Y-109408000D01*
G75*
G02*
X123919200Y-109543000I0J-135000D01*
G01*
X123919200Y-109913000D01*
G75*
G02*
X123784200Y-110048000I-135000J0D01*
G01*
X123514200Y-110048000D01*
G75*
G02*
X123379200Y-109913000I0J135000D01*
G01*
G37*
G36*
G01*
X122359200Y-109913000D02*
X122359200Y-109543000D01*
G75*
G02*
X122494200Y-109408000I135000J0D01*
G01*
X122764200Y-109408000D01*
G75*
G02*
X122899200Y-109543000I0J-135000D01*
G01*
X122899200Y-109913000D01*
G75*
G02*
X122764200Y-110048000I-135000J0D01*
G01*
X122494200Y-110048000D01*
G75*
G02*
X122359200Y-109913000I0J135000D01*
G01*
G37*
%TD*%
%TO.C,C106*%
G36*
G01*
X126996800Y-93438800D02*
X126996800Y-93098800D01*
G75*
G02*
X127136800Y-92958800I140000J0D01*
G01*
X127416800Y-92958800D01*
G75*
G02*
X127556800Y-93098800I0J-140000D01*
G01*
X127556800Y-93438800D01*
G75*
G02*
X127416800Y-93578800I-140000J0D01*
G01*
X127136800Y-93578800D01*
G75*
G02*
X126996800Y-93438800I0J140000D01*
G01*
G37*
G36*
G01*
X126036800Y-93438800D02*
X126036800Y-93098800D01*
G75*
G02*
X126176800Y-92958800I140000J0D01*
G01*
X126456800Y-92958800D01*
G75*
G02*
X126596800Y-93098800I0J-140000D01*
G01*
X126596800Y-93438800D01*
G75*
G02*
X126456800Y-93578800I-140000J0D01*
G01*
X126176800Y-93578800D01*
G75*
G02*
X126036800Y-93438800I0J140000D01*
G01*
G37*
%TD*%
%TO.C,C105*%
G36*
G01*
X109013600Y-93591200D02*
X109013600Y-93251200D01*
G75*
G02*
X109153600Y-93111200I140000J0D01*
G01*
X109433600Y-93111200D01*
G75*
G02*
X109573600Y-93251200I0J-140000D01*
G01*
X109573600Y-93591200D01*
G75*
G02*
X109433600Y-93731200I-140000J0D01*
G01*
X109153600Y-93731200D01*
G75*
G02*
X109013600Y-93591200I0J140000D01*
G01*
G37*
G36*
G01*
X108053600Y-93591200D02*
X108053600Y-93251200D01*
G75*
G02*
X108193600Y-93111200I140000J0D01*
G01*
X108473600Y-93111200D01*
G75*
G02*
X108613600Y-93251200I0J-140000D01*
G01*
X108613600Y-93591200D01*
G75*
G02*
X108473600Y-93731200I-140000J0D01*
G01*
X108193600Y-93731200D01*
G75*
G02*
X108053600Y-93591200I0J140000D01*
G01*
G37*
%TD*%
%TO.C,C104*%
G36*
G01*
X106403800Y-108313400D02*
X106403800Y-108653400D01*
G75*
G02*
X106263800Y-108793400I-140000J0D01*
G01*
X105983800Y-108793400D01*
G75*
G02*
X105843800Y-108653400I0J140000D01*
G01*
X105843800Y-108313400D01*
G75*
G02*
X105983800Y-108173400I140000J0D01*
G01*
X106263800Y-108173400D01*
G75*
G02*
X106403800Y-108313400I0J-140000D01*
G01*
G37*
G36*
G01*
X107363800Y-108313400D02*
X107363800Y-108653400D01*
G75*
G02*
X107223800Y-108793400I-140000J0D01*
G01*
X106943800Y-108793400D01*
G75*
G02*
X106803800Y-108653400I0J140000D01*
G01*
X106803800Y-108313400D01*
G75*
G02*
X106943800Y-108173400I140000J0D01*
G01*
X107223800Y-108173400D01*
G75*
G02*
X107363800Y-108313400I0J-140000D01*
G01*
G37*
%TD*%
%TO.C,C103*%
G36*
G01*
X106403800Y-109304000D02*
X106403800Y-109644000D01*
G75*
G02*
X106263800Y-109784000I-140000J0D01*
G01*
X105983800Y-109784000D01*
G75*
G02*
X105843800Y-109644000I0J140000D01*
G01*
X105843800Y-109304000D01*
G75*
G02*
X105983800Y-109164000I140000J0D01*
G01*
X106263800Y-109164000D01*
G75*
G02*
X106403800Y-109304000I0J-140000D01*
G01*
G37*
G36*
G01*
X107363800Y-109304000D02*
X107363800Y-109644000D01*
G75*
G02*
X107223800Y-109784000I-140000J0D01*
G01*
X106943800Y-109784000D01*
G75*
G02*
X106803800Y-109644000I0J140000D01*
G01*
X106803800Y-109304000D01*
G75*
G02*
X106943800Y-109164000I140000J0D01*
G01*
X107223800Y-109164000D01*
G75*
G02*
X107363800Y-109304000I0J-140000D01*
G01*
G37*
%TD*%
%TO.C,C102*%
G36*
G01*
X104242260Y-107757140D02*
X104242260Y-108097140D01*
G75*
G02*
X104102260Y-108237140I-140000J0D01*
G01*
X103822260Y-108237140D01*
G75*
G02*
X103682260Y-108097140I0J140000D01*
G01*
X103682260Y-107757140D01*
G75*
G02*
X103822260Y-107617140I140000J0D01*
G01*
X104102260Y-107617140D01*
G75*
G02*
X104242260Y-107757140I0J-140000D01*
G01*
G37*
G36*
G01*
X105202260Y-107757140D02*
X105202260Y-108097140D01*
G75*
G02*
X105062260Y-108237140I-140000J0D01*
G01*
X104782260Y-108237140D01*
G75*
G02*
X104642260Y-108097140I0J140000D01*
G01*
X104642260Y-107757140D01*
G75*
G02*
X104782260Y-107617140I140000J0D01*
G01*
X105062260Y-107617140D01*
G75*
G02*
X105202260Y-107757140I0J-140000D01*
G01*
G37*
%TD*%
%TO.C,C101*%
G36*
G01*
X106429200Y-110370800D02*
X106429200Y-110710800D01*
G75*
G02*
X106289200Y-110850800I-140000J0D01*
G01*
X106009200Y-110850800D01*
G75*
G02*
X105869200Y-110710800I0J140000D01*
G01*
X105869200Y-110370800D01*
G75*
G02*
X106009200Y-110230800I140000J0D01*
G01*
X106289200Y-110230800D01*
G75*
G02*
X106429200Y-110370800I0J-140000D01*
G01*
G37*
G36*
G01*
X107389200Y-110370800D02*
X107389200Y-110710800D01*
G75*
G02*
X107249200Y-110850800I-140000J0D01*
G01*
X106969200Y-110850800D01*
G75*
G02*
X106829200Y-110710800I0J140000D01*
G01*
X106829200Y-110370800D01*
G75*
G02*
X106969200Y-110230800I140000J0D01*
G01*
X107249200Y-110230800D01*
G75*
G02*
X107389200Y-110370800I0J-140000D01*
G01*
G37*
%TD*%
%TO.C,C100*%
G36*
G01*
X106778400Y-106387720D02*
X106778400Y-106047720D01*
G75*
G02*
X106918400Y-105907720I140000J0D01*
G01*
X107198400Y-105907720D01*
G75*
G02*
X107338400Y-106047720I0J-140000D01*
G01*
X107338400Y-106387720D01*
G75*
G02*
X107198400Y-106527720I-140000J0D01*
G01*
X106918400Y-106527720D01*
G75*
G02*
X106778400Y-106387720I0J140000D01*
G01*
G37*
G36*
G01*
X105818400Y-106387720D02*
X105818400Y-106047720D01*
G75*
G02*
X105958400Y-105907720I140000J0D01*
G01*
X106238400Y-105907720D01*
G75*
G02*
X106378400Y-106047720I0J-140000D01*
G01*
X106378400Y-106387720D01*
G75*
G02*
X106238400Y-106527720I-140000J0D01*
G01*
X105958400Y-106527720D01*
G75*
G02*
X105818400Y-106387720I0J140000D01*
G01*
G37*
%TD*%
%TO.C,C98*%
G36*
G01*
X114638480Y-99077960D02*
X114638480Y-99417960D01*
G75*
G02*
X114498480Y-99557960I-140000J0D01*
G01*
X114218480Y-99557960D01*
G75*
G02*
X114078480Y-99417960I0J140000D01*
G01*
X114078480Y-99077960D01*
G75*
G02*
X114218480Y-98937960I140000J0D01*
G01*
X114498480Y-98937960D01*
G75*
G02*
X114638480Y-99077960I0J-140000D01*
G01*
G37*
G36*
G01*
X115598480Y-99077960D02*
X115598480Y-99417960D01*
G75*
G02*
X115458480Y-99557960I-140000J0D01*
G01*
X115178480Y-99557960D01*
G75*
G02*
X115038480Y-99417960I0J140000D01*
G01*
X115038480Y-99077960D01*
G75*
G02*
X115178480Y-98937960I140000J0D01*
G01*
X115458480Y-98937960D01*
G75*
G02*
X115598480Y-99077960I0J-140000D01*
G01*
G37*
%TD*%
%TO.C,C97*%
G36*
G01*
X121365680Y-97700920D02*
X121365680Y-97360920D01*
G75*
G02*
X121505680Y-97220920I140000J0D01*
G01*
X121785680Y-97220920D01*
G75*
G02*
X121925680Y-97360920I0J-140000D01*
G01*
X121925680Y-97700920D01*
G75*
G02*
X121785680Y-97840920I-140000J0D01*
G01*
X121505680Y-97840920D01*
G75*
G02*
X121365680Y-97700920I0J140000D01*
G01*
G37*
G36*
G01*
X120405680Y-97700920D02*
X120405680Y-97360920D01*
G75*
G02*
X120545680Y-97220920I140000J0D01*
G01*
X120825680Y-97220920D01*
G75*
G02*
X120965680Y-97360920I0J-140000D01*
G01*
X120965680Y-97700920D01*
G75*
G02*
X120825680Y-97840920I-140000J0D01*
G01*
X120545680Y-97840920D01*
G75*
G02*
X120405680Y-97700920I0J140000D01*
G01*
G37*
%TD*%
%TO.C,C96*%
G36*
G01*
X104177440Y-103131440D02*
X104177440Y-102791440D01*
G75*
G02*
X104317440Y-102651440I140000J0D01*
G01*
X104597440Y-102651440D01*
G75*
G02*
X104737440Y-102791440I0J-140000D01*
G01*
X104737440Y-103131440D01*
G75*
G02*
X104597440Y-103271440I-140000J0D01*
G01*
X104317440Y-103271440D01*
G75*
G02*
X104177440Y-103131440I0J140000D01*
G01*
G37*
G36*
G01*
X103217440Y-103131440D02*
X103217440Y-102791440D01*
G75*
G02*
X103357440Y-102651440I140000J0D01*
G01*
X103637440Y-102651440D01*
G75*
G02*
X103777440Y-102791440I0J-140000D01*
G01*
X103777440Y-103131440D01*
G75*
G02*
X103637440Y-103271440I-140000J0D01*
G01*
X103357440Y-103271440D01*
G75*
G02*
X103217440Y-103131440I0J140000D01*
G01*
G37*
%TD*%
%TO.C,C95*%
G36*
G01*
X104177440Y-104233800D02*
X104177440Y-103893800D01*
G75*
G02*
X104317440Y-103753800I140000J0D01*
G01*
X104597440Y-103753800D01*
G75*
G02*
X104737440Y-103893800I0J-140000D01*
G01*
X104737440Y-104233800D01*
G75*
G02*
X104597440Y-104373800I-140000J0D01*
G01*
X104317440Y-104373800D01*
G75*
G02*
X104177440Y-104233800I0J140000D01*
G01*
G37*
G36*
G01*
X103217440Y-104233800D02*
X103217440Y-103893800D01*
G75*
G02*
X103357440Y-103753800I140000J0D01*
G01*
X103637440Y-103753800D01*
G75*
G02*
X103777440Y-103893800I0J-140000D01*
G01*
X103777440Y-104233800D01*
G75*
G02*
X103637440Y-104373800I-140000J0D01*
G01*
X103357440Y-104373800D01*
G75*
G02*
X103217440Y-104233800I0J140000D01*
G01*
G37*
%TD*%
%TO.C,C73*%
G36*
G01*
X116817800Y-101125200D02*
X116817800Y-101465200D01*
G75*
G02*
X116677800Y-101605200I-140000J0D01*
G01*
X116397800Y-101605200D01*
G75*
G02*
X116257800Y-101465200I0J140000D01*
G01*
X116257800Y-101125200D01*
G75*
G02*
X116397800Y-100985200I140000J0D01*
G01*
X116677800Y-100985200D01*
G75*
G02*
X116817800Y-101125200I0J-140000D01*
G01*
G37*
G36*
G01*
X117777800Y-101125200D02*
X117777800Y-101465200D01*
G75*
G02*
X117637800Y-101605200I-140000J0D01*
G01*
X117357800Y-101605200D01*
G75*
G02*
X117217800Y-101465200I0J140000D01*
G01*
X117217800Y-101125200D01*
G75*
G02*
X117357800Y-100985200I140000J0D01*
G01*
X117637800Y-100985200D01*
G75*
G02*
X117777800Y-101125200I0J-140000D01*
G01*
G37*
%TD*%
%TO.C,C33*%
G36*
G01*
X106378400Y-107043400D02*
X106378400Y-107383400D01*
G75*
G02*
X106238400Y-107523400I-140000J0D01*
G01*
X105958400Y-107523400D01*
G75*
G02*
X105818400Y-107383400I0J140000D01*
G01*
X105818400Y-107043400D01*
G75*
G02*
X105958400Y-106903400I140000J0D01*
G01*
X106238400Y-106903400D01*
G75*
G02*
X106378400Y-107043400I0J-140000D01*
G01*
G37*
G36*
G01*
X107338400Y-107043400D02*
X107338400Y-107383400D01*
G75*
G02*
X107198400Y-107523400I-140000J0D01*
G01*
X106918400Y-107523400D01*
G75*
G02*
X106778400Y-107383400I0J140000D01*
G01*
X106778400Y-107043400D01*
G75*
G02*
X106918400Y-106903400I140000J0D01*
G01*
X107198400Y-106903400D01*
G75*
G02*
X107338400Y-107043400I0J-140000D01*
G01*
G37*
%TD*%
%TO.C,C30*%
G36*
G01*
X106429200Y-112453600D02*
X106429200Y-112793600D01*
G75*
G02*
X106289200Y-112933600I-140000J0D01*
G01*
X106009200Y-112933600D01*
G75*
G02*
X105869200Y-112793600I0J140000D01*
G01*
X105869200Y-112453600D01*
G75*
G02*
X106009200Y-112313600I140000J0D01*
G01*
X106289200Y-112313600D01*
G75*
G02*
X106429200Y-112453600I0J-140000D01*
G01*
G37*
G36*
G01*
X107389200Y-112453600D02*
X107389200Y-112793600D01*
G75*
G02*
X107249200Y-112933600I-140000J0D01*
G01*
X106969200Y-112933600D01*
G75*
G02*
X106829200Y-112793600I0J140000D01*
G01*
X106829200Y-112453600D01*
G75*
G02*
X106969200Y-112313600I140000J0D01*
G01*
X107249200Y-112313600D01*
G75*
G02*
X107389200Y-112453600I0J-140000D01*
G01*
G37*
%TD*%
%TO.C,C29*%
G36*
G01*
X106429200Y-111463000D02*
X106429200Y-111803000D01*
G75*
G02*
X106289200Y-111943000I-140000J0D01*
G01*
X106009200Y-111943000D01*
G75*
G02*
X105869200Y-111803000I0J140000D01*
G01*
X105869200Y-111463000D01*
G75*
G02*
X106009200Y-111323000I140000J0D01*
G01*
X106289200Y-111323000D01*
G75*
G02*
X106429200Y-111463000I0J-140000D01*
G01*
G37*
G36*
G01*
X107389200Y-111463000D02*
X107389200Y-111803000D01*
G75*
G02*
X107249200Y-111943000I-140000J0D01*
G01*
X106969200Y-111943000D01*
G75*
G02*
X106829200Y-111803000I0J140000D01*
G01*
X106829200Y-111463000D01*
G75*
G02*
X106969200Y-111323000I140000J0D01*
G01*
X107249200Y-111323000D01*
G75*
G02*
X107389200Y-111463000I0J-140000D01*
G01*
G37*
%TD*%
%TO.C,C27*%
G36*
G01*
X127515800Y-129663800D02*
X127855800Y-129663800D01*
G75*
G02*
X127995800Y-129803800I0J-140000D01*
G01*
X127995800Y-130083800D01*
G75*
G02*
X127855800Y-130223800I-140000J0D01*
G01*
X127515800Y-130223800D01*
G75*
G02*
X127375800Y-130083800I0J140000D01*
G01*
X127375800Y-129803800D01*
G75*
G02*
X127515800Y-129663800I140000J0D01*
G01*
G37*
G36*
G01*
X127515800Y-128703800D02*
X127855800Y-128703800D01*
G75*
G02*
X127995800Y-128843800I0J-140000D01*
G01*
X127995800Y-129123800D01*
G75*
G02*
X127855800Y-129263800I-140000J0D01*
G01*
X127515800Y-129263800D01*
G75*
G02*
X127375800Y-129123800I0J140000D01*
G01*
X127375800Y-128843800D01*
G75*
G02*
X127515800Y-128703800I140000J0D01*
G01*
G37*
%TD*%
%TO.C,C21*%
G36*
G01*
X130511000Y-135415200D02*
X130511000Y-135755200D01*
G75*
G02*
X130371000Y-135895200I-140000J0D01*
G01*
X130091000Y-135895200D01*
G75*
G02*
X129951000Y-135755200I0J140000D01*
G01*
X129951000Y-135415200D01*
G75*
G02*
X130091000Y-135275200I140000J0D01*
G01*
X130371000Y-135275200D01*
G75*
G02*
X130511000Y-135415200I0J-140000D01*
G01*
G37*
G36*
G01*
X131471000Y-135415200D02*
X131471000Y-135755200D01*
G75*
G02*
X131331000Y-135895200I-140000J0D01*
G01*
X131051000Y-135895200D01*
G75*
G02*
X130911000Y-135755200I0J140000D01*
G01*
X130911000Y-135415200D01*
G75*
G02*
X131051000Y-135275200I140000J0D01*
G01*
X131331000Y-135275200D01*
G75*
G02*
X131471000Y-135415200I0J-140000D01*
G01*
G37*
%TD*%
%TO.C,C20*%
G36*
G01*
X129293800Y-133905600D02*
X129633800Y-133905600D01*
G75*
G02*
X129773800Y-134045600I0J-140000D01*
G01*
X129773800Y-134325600D01*
G75*
G02*
X129633800Y-134465600I-140000J0D01*
G01*
X129293800Y-134465600D01*
G75*
G02*
X129153800Y-134325600I0J140000D01*
G01*
X129153800Y-134045600D01*
G75*
G02*
X129293800Y-133905600I140000J0D01*
G01*
G37*
G36*
G01*
X129293800Y-132945600D02*
X129633800Y-132945600D01*
G75*
G02*
X129773800Y-133085600I0J-140000D01*
G01*
X129773800Y-133365600D01*
G75*
G02*
X129633800Y-133505600I-140000J0D01*
G01*
X129293800Y-133505600D01*
G75*
G02*
X129153800Y-133365600I0J140000D01*
G01*
X129153800Y-133085600D01*
G75*
G02*
X129293800Y-132945600I140000J0D01*
G01*
G37*
%TD*%
%TO.C,C19*%
G36*
G01*
X143149500Y-125930000D02*
X143489500Y-125930000D01*
G75*
G02*
X143629500Y-126070000I0J-140000D01*
G01*
X143629500Y-126350000D01*
G75*
G02*
X143489500Y-126490000I-140000J0D01*
G01*
X143149500Y-126490000D01*
G75*
G02*
X143009500Y-126350000I0J140000D01*
G01*
X143009500Y-126070000D01*
G75*
G02*
X143149500Y-125930000I140000J0D01*
G01*
G37*
G36*
G01*
X143149500Y-124970000D02*
X143489500Y-124970000D01*
G75*
G02*
X143629500Y-125110000I0J-140000D01*
G01*
X143629500Y-125390000D01*
G75*
G02*
X143489500Y-125530000I-140000J0D01*
G01*
X143149500Y-125530000D01*
G75*
G02*
X143009500Y-125390000I0J140000D01*
G01*
X143009500Y-125110000D01*
G75*
G02*
X143149500Y-124970000I140000J0D01*
G01*
G37*
%TD*%
%TO.C,C18*%
G36*
G01*
X141500200Y-127119200D02*
X141500200Y-126779200D01*
G75*
G02*
X141640200Y-126639200I140000J0D01*
G01*
X141920200Y-126639200D01*
G75*
G02*
X142060200Y-126779200I0J-140000D01*
G01*
X142060200Y-127119200D01*
G75*
G02*
X141920200Y-127259200I-140000J0D01*
G01*
X141640200Y-127259200D01*
G75*
G02*
X141500200Y-127119200I0J140000D01*
G01*
G37*
G36*
G01*
X140540200Y-127119200D02*
X140540200Y-126779200D01*
G75*
G02*
X140680200Y-126639200I140000J0D01*
G01*
X140960200Y-126639200D01*
G75*
G02*
X141100200Y-126779200I0J-140000D01*
G01*
X141100200Y-127119200D01*
G75*
G02*
X140960200Y-127259200I-140000J0D01*
G01*
X140680200Y-127259200D01*
G75*
G02*
X140540200Y-127119200I0J140000D01*
G01*
G37*
%TD*%
%TO.C,C13*%
G36*
G01*
X133296000Y-125315800D02*
X133296000Y-124975800D01*
G75*
G02*
X133436000Y-124835800I140000J0D01*
G01*
X133716000Y-124835800D01*
G75*
G02*
X133856000Y-124975800I0J-140000D01*
G01*
X133856000Y-125315800D01*
G75*
G02*
X133716000Y-125455800I-140000J0D01*
G01*
X133436000Y-125455800D01*
G75*
G02*
X133296000Y-125315800I0J140000D01*
G01*
G37*
G36*
G01*
X132336000Y-125315800D02*
X132336000Y-124975800D01*
G75*
G02*
X132476000Y-124835800I140000J0D01*
G01*
X132756000Y-124835800D01*
G75*
G02*
X132896000Y-124975800I0J-140000D01*
G01*
X132896000Y-125315800D01*
G75*
G02*
X132756000Y-125455800I-140000J0D01*
G01*
X132476000Y-125455800D01*
G75*
G02*
X132336000Y-125315800I0J140000D01*
G01*
G37*
%TD*%
%TO.C,C12*%
G36*
G01*
X130679800Y-126941400D02*
X130679800Y-126601400D01*
G75*
G02*
X130819800Y-126461400I140000J0D01*
G01*
X131099800Y-126461400D01*
G75*
G02*
X131239800Y-126601400I0J-140000D01*
G01*
X131239800Y-126941400D01*
G75*
G02*
X131099800Y-127081400I-140000J0D01*
G01*
X130819800Y-127081400D01*
G75*
G02*
X130679800Y-126941400I0J140000D01*
G01*
G37*
G36*
G01*
X129719800Y-126941400D02*
X129719800Y-126601400D01*
G75*
G02*
X129859800Y-126461400I140000J0D01*
G01*
X130139800Y-126461400D01*
G75*
G02*
X130279800Y-126601400I0J-140000D01*
G01*
X130279800Y-126941400D01*
G75*
G02*
X130139800Y-127081400I-140000J0D01*
G01*
X129859800Y-127081400D01*
G75*
G02*
X129719800Y-126941400I0J140000D01*
G01*
G37*
%TD*%
%TO.C,C8*%
G36*
G01*
X144061000Y-110848800D02*
X143721000Y-110848800D01*
G75*
G02*
X143581000Y-110708800I0J140000D01*
G01*
X143581000Y-110428800D01*
G75*
G02*
X143721000Y-110288800I140000J0D01*
G01*
X144061000Y-110288800D01*
G75*
G02*
X144201000Y-110428800I0J-140000D01*
G01*
X144201000Y-110708800D01*
G75*
G02*
X144061000Y-110848800I-140000J0D01*
G01*
G37*
G36*
G01*
X144061000Y-111808800D02*
X143721000Y-111808800D01*
G75*
G02*
X143581000Y-111668800I0J140000D01*
G01*
X143581000Y-111388800D01*
G75*
G02*
X143721000Y-111248800I140000J0D01*
G01*
X144061000Y-111248800D01*
G75*
G02*
X144201000Y-111388800I0J-140000D01*
G01*
X144201000Y-111668800D01*
G75*
G02*
X144061000Y-111808800I-140000J0D01*
G01*
G37*
%TD*%
%TO.C,C7*%
G36*
G01*
X145773800Y-109456400D02*
X145773800Y-109796400D01*
G75*
G02*
X145633800Y-109936400I-140000J0D01*
G01*
X145353800Y-109936400D01*
G75*
G02*
X145213800Y-109796400I0J140000D01*
G01*
X145213800Y-109456400D01*
G75*
G02*
X145353800Y-109316400I140000J0D01*
G01*
X145633800Y-109316400D01*
G75*
G02*
X145773800Y-109456400I0J-140000D01*
G01*
G37*
G36*
G01*
X146733800Y-109456400D02*
X146733800Y-109796400D01*
G75*
G02*
X146593800Y-109936400I-140000J0D01*
G01*
X146313800Y-109936400D01*
G75*
G02*
X146173800Y-109796400I0J140000D01*
G01*
X146173800Y-109456400D01*
G75*
G02*
X146313800Y-109316400I140000J0D01*
G01*
X146593800Y-109316400D01*
G75*
G02*
X146733800Y-109456400I0J-140000D01*
G01*
G37*
%TD*%
%TO.C,C5*%
G36*
G01*
X115033400Y-101465200D02*
X115033400Y-101125200D01*
G75*
G02*
X115173400Y-100985200I140000J0D01*
G01*
X115453400Y-100985200D01*
G75*
G02*
X115593400Y-101125200I0J-140000D01*
G01*
X115593400Y-101465200D01*
G75*
G02*
X115453400Y-101605200I-140000J0D01*
G01*
X115173400Y-101605200D01*
G75*
G02*
X115033400Y-101465200I0J140000D01*
G01*
G37*
G36*
G01*
X114073400Y-101465200D02*
X114073400Y-101125200D01*
G75*
G02*
X114213400Y-100985200I140000J0D01*
G01*
X114493400Y-100985200D01*
G75*
G02*
X114633400Y-101125200I0J-140000D01*
G01*
X114633400Y-101465200D01*
G75*
G02*
X114493400Y-101605200I-140000J0D01*
G01*
X114213400Y-101605200D01*
G75*
G02*
X114073400Y-101465200I0J140000D01*
G01*
G37*
%TD*%
%TO.C,C4*%
G36*
G01*
X113090300Y-101465200D02*
X113090300Y-101125200D01*
G75*
G02*
X113230300Y-100985200I140000J0D01*
G01*
X113510300Y-100985200D01*
G75*
G02*
X113650300Y-101125200I0J-140000D01*
G01*
X113650300Y-101465200D01*
G75*
G02*
X113510300Y-101605200I-140000J0D01*
G01*
X113230300Y-101605200D01*
G75*
G02*
X113090300Y-101465200I0J140000D01*
G01*
G37*
G36*
G01*
X112130300Y-101465200D02*
X112130300Y-101125200D01*
G75*
G02*
X112270300Y-100985200I140000J0D01*
G01*
X112550300Y-100985200D01*
G75*
G02*
X112690300Y-101125200I0J-140000D01*
G01*
X112690300Y-101465200D01*
G75*
G02*
X112550300Y-101605200I-140000J0D01*
G01*
X112270300Y-101605200D01*
G75*
G02*
X112130300Y-101465200I0J140000D01*
G01*
G37*
%TD*%
%TO.C,C3*%
G36*
G01*
X138739700Y-94542000D02*
X138399700Y-94542000D01*
G75*
G02*
X138259700Y-94402000I0J140000D01*
G01*
X138259700Y-94122000D01*
G75*
G02*
X138399700Y-93982000I140000J0D01*
G01*
X138739700Y-93982000D01*
G75*
G02*
X138879700Y-94122000I0J-140000D01*
G01*
X138879700Y-94402000D01*
G75*
G02*
X138739700Y-94542000I-140000J0D01*
G01*
G37*
G36*
G01*
X138739700Y-95502000D02*
X138399700Y-95502000D01*
G75*
G02*
X138259700Y-95362000I0J140000D01*
G01*
X138259700Y-95082000D01*
G75*
G02*
X138399700Y-94942000I140000J0D01*
G01*
X138739700Y-94942000D01*
G75*
G02*
X138879700Y-95082000I0J-140000D01*
G01*
X138879700Y-95362000D01*
G75*
G02*
X138739700Y-95502000I-140000J0D01*
G01*
G37*
%TD*%
%TO.C,C1*%
G36*
G01*
X140344500Y-94353200D02*
X140344500Y-94013200D01*
G75*
G02*
X140484500Y-93873200I140000J0D01*
G01*
X140764500Y-93873200D01*
G75*
G02*
X140904500Y-94013200I0J-140000D01*
G01*
X140904500Y-94353200D01*
G75*
G02*
X140764500Y-94493200I-140000J0D01*
G01*
X140484500Y-94493200D01*
G75*
G02*
X140344500Y-94353200I0J140000D01*
G01*
G37*
G36*
G01*
X139384500Y-94353200D02*
X139384500Y-94013200D01*
G75*
G02*
X139524500Y-93873200I140000J0D01*
G01*
X139804500Y-93873200D01*
G75*
G02*
X139944500Y-94013200I0J-140000D01*
G01*
X139944500Y-94353200D01*
G75*
G02*
X139804500Y-94493200I-140000J0D01*
G01*
X139524500Y-94493200D01*
G75*
G02*
X139384500Y-94353200I0J140000D01*
G01*
G37*
%TD*%
D12*
%TO.C,Y2*%
X105640840Y-102960160D03*
X105640840Y-104060160D03*
%TD*%
%TO.C,R32*%
G36*
G01*
X104659400Y-109100200D02*
X104659400Y-108730200D01*
G75*
G02*
X104794400Y-108595200I135000J0D01*
G01*
X105064400Y-108595200D01*
G75*
G02*
X105199400Y-108730200I0J-135000D01*
G01*
X105199400Y-109100200D01*
G75*
G02*
X105064400Y-109235200I-135000J0D01*
G01*
X104794400Y-109235200D01*
G75*
G02*
X104659400Y-109100200I0J135000D01*
G01*
G37*
G36*
G01*
X103639400Y-109100200D02*
X103639400Y-108730200D01*
G75*
G02*
X103774400Y-108595200I135000J0D01*
G01*
X104044400Y-108595200D01*
G75*
G02*
X104179400Y-108730200I0J-135000D01*
G01*
X104179400Y-109100200D01*
G75*
G02*
X104044400Y-109235200I-135000J0D01*
G01*
X103774400Y-109235200D01*
G75*
G02*
X103639400Y-109100200I0J135000D01*
G01*
G37*
%TD*%
%TO.C,R31*%
G36*
G01*
X106351100Y-104958300D02*
X106351100Y-105328300D01*
G75*
G02*
X106216100Y-105463300I-135000J0D01*
G01*
X105946100Y-105463300D01*
G75*
G02*
X105811100Y-105328300I0J135000D01*
G01*
X105811100Y-104958300D01*
G75*
G02*
X105946100Y-104823300I135000J0D01*
G01*
X106216100Y-104823300D01*
G75*
G02*
X106351100Y-104958300I0J-135000D01*
G01*
G37*
G36*
G01*
X107371100Y-104958300D02*
X107371100Y-105328300D01*
G75*
G02*
X107236100Y-105463300I-135000J0D01*
G01*
X106966100Y-105463300D01*
G75*
G02*
X106831100Y-105328300I0J135000D01*
G01*
X106831100Y-104958300D01*
G75*
G02*
X106966100Y-104823300I135000J0D01*
G01*
X107236100Y-104823300D01*
G75*
G02*
X107371100Y-104958300I0J-135000D01*
G01*
G37*
%TD*%
%TO.C,R29*%
G36*
G01*
X107113920Y-103265000D02*
X106743920Y-103265000D01*
G75*
G02*
X106608920Y-103130000I0J135000D01*
G01*
X106608920Y-102860000D01*
G75*
G02*
X106743920Y-102725000I135000J0D01*
G01*
X107113920Y-102725000D01*
G75*
G02*
X107248920Y-102860000I0J-135000D01*
G01*
X107248920Y-103130000D01*
G75*
G02*
X107113920Y-103265000I-135000J0D01*
G01*
G37*
G36*
G01*
X107113920Y-104285000D02*
X106743920Y-104285000D01*
G75*
G02*
X106608920Y-104150000I0J135000D01*
G01*
X106608920Y-103880000D01*
G75*
G02*
X106743920Y-103745000I135000J0D01*
G01*
X107113920Y-103745000D01*
G75*
G02*
X107248920Y-103880000I0J-135000D01*
G01*
X107248920Y-104150000D01*
G75*
G02*
X107113920Y-104285000I-135000J0D01*
G01*
G37*
%TD*%
D13*
%TO.C,Y1*%
X116933800Y-97549600D03*
X119133800Y-97549600D03*
X119133800Y-99249600D03*
X116933800Y-99249600D03*
%TD*%
%TO.C,R25*%
G36*
G01*
X104767800Y-130389600D02*
X105137800Y-130389600D01*
G75*
G02*
X105272800Y-130524600I0J-135000D01*
G01*
X105272800Y-130794600D01*
G75*
G02*
X105137800Y-130929600I-135000J0D01*
G01*
X104767800Y-130929600D01*
G75*
G02*
X104632800Y-130794600I0J135000D01*
G01*
X104632800Y-130524600D01*
G75*
G02*
X104767800Y-130389600I135000J0D01*
G01*
G37*
G36*
G01*
X104767800Y-129369600D02*
X105137800Y-129369600D01*
G75*
G02*
X105272800Y-129504600I0J-135000D01*
G01*
X105272800Y-129774600D01*
G75*
G02*
X105137800Y-129909600I-135000J0D01*
G01*
X104767800Y-129909600D01*
G75*
G02*
X104632800Y-129774600I0J135000D01*
G01*
X104632800Y-129504600D01*
G75*
G02*
X104767800Y-129369600I135000J0D01*
G01*
G37*
%TD*%
%TO.C,R19*%
G36*
G01*
X124224200Y-127290800D02*
X124594200Y-127290800D01*
G75*
G02*
X124729200Y-127425800I0J-135000D01*
G01*
X124729200Y-127695800D01*
G75*
G02*
X124594200Y-127830800I-135000J0D01*
G01*
X124224200Y-127830800D01*
G75*
G02*
X124089200Y-127695800I0J135000D01*
G01*
X124089200Y-127425800D01*
G75*
G02*
X124224200Y-127290800I135000J0D01*
G01*
G37*
G36*
G01*
X124224200Y-126270800D02*
X124594200Y-126270800D01*
G75*
G02*
X124729200Y-126405800I0J-135000D01*
G01*
X124729200Y-126675800D01*
G75*
G02*
X124594200Y-126810800I-135000J0D01*
G01*
X124224200Y-126810800D01*
G75*
G02*
X124089200Y-126675800I0J135000D01*
G01*
X124089200Y-126405800D01*
G75*
G02*
X124224200Y-126270800I135000J0D01*
G01*
G37*
%TD*%
D14*
%TO.C,J1*%
X119984400Y-135264000D03*
D15*
X106484400Y-134814000D03*
D16*
X106484400Y-130664000D03*
D17*
X106484400Y-124464000D03*
X117634400Y-120164000D03*
D18*
X109484400Y-120164000D03*
X110584400Y-120164000D03*
X111684400Y-120164000D03*
X112784400Y-120164000D03*
X113884400Y-120164000D03*
X114984400Y-120164000D03*
X116084400Y-120164000D03*
X108384400Y-120164000D03*
X107434400Y-120164000D03*
%TD*%
D19*
%TO.C,U7*%
X124383760Y-128912440D03*
X126283760Y-128912440D03*
X126283760Y-131112440D03*
X125333760Y-131112440D03*
X124383760Y-131112440D03*
%TD*%
D20*
%TO.C,U6*%
X132100320Y-132958840D03*
D21*
X133576060Y-132208840D03*
X133576060Y-132708840D03*
X133576060Y-133208840D03*
X133576060Y-133708840D03*
D22*
X132850320Y-134434580D03*
X132350320Y-134434580D03*
X131850320Y-134434580D03*
X131350320Y-134434580D03*
D21*
X130624580Y-133708840D03*
X130624580Y-133208840D03*
X130624580Y-132708840D03*
X130624580Y-132208840D03*
D22*
X131350320Y-131483100D03*
X131850320Y-131483100D03*
X132350320Y-131483100D03*
X132850320Y-131483100D03*
%TD*%
D20*
%TO.C,U5*%
X140799820Y-124220160D03*
D22*
X140049820Y-122744420D03*
X140549820Y-122744420D03*
X141049820Y-122744420D03*
X141549820Y-122744420D03*
D21*
X142275560Y-123470160D03*
X142275560Y-123970160D03*
X142275560Y-124470160D03*
X142275560Y-124970160D03*
D22*
X141549820Y-125695900D03*
X141049820Y-125695900D03*
X140549820Y-125695900D03*
X140049820Y-125695900D03*
D21*
X139324080Y-124970160D03*
X139324080Y-124470160D03*
X139324080Y-123970160D03*
X139324080Y-123470160D03*
%TD*%
D20*
%TO.C,U4*%
X129997200Y-124167900D03*
D22*
X129247200Y-122692160D03*
X129747200Y-122692160D03*
X130247200Y-122692160D03*
X130747200Y-122692160D03*
D21*
X131472940Y-123417900D03*
X131472940Y-123917900D03*
X131472940Y-124417900D03*
X131472940Y-124917900D03*
D22*
X130747200Y-125643640D03*
X130247200Y-125643640D03*
X129747200Y-125643640D03*
X129247200Y-125643640D03*
D21*
X128521460Y-124917900D03*
X128521460Y-124417900D03*
X128521460Y-123917900D03*
X128521460Y-123417900D03*
%TD*%
%TO.C,R18*%
G36*
G01*
X139333000Y-131158400D02*
X139333000Y-131528400D01*
G75*
G02*
X139198000Y-131663400I-135000J0D01*
G01*
X138928000Y-131663400D01*
G75*
G02*
X138793000Y-131528400I0J135000D01*
G01*
X138793000Y-131158400D01*
G75*
G02*
X138928000Y-131023400I135000J0D01*
G01*
X139198000Y-131023400D01*
G75*
G02*
X139333000Y-131158400I0J-135000D01*
G01*
G37*
G36*
G01*
X140353000Y-131158400D02*
X140353000Y-131528400D01*
G75*
G02*
X140218000Y-131663400I-135000J0D01*
G01*
X139948000Y-131663400D01*
G75*
G02*
X139813000Y-131528400I0J135000D01*
G01*
X139813000Y-131158400D01*
G75*
G02*
X139948000Y-131023400I135000J0D01*
G01*
X140218000Y-131023400D01*
G75*
G02*
X140353000Y-131158400I0J-135000D01*
G01*
G37*
%TD*%
%TO.C,R17*%
G36*
G01*
X139159400Y-117080000D02*
X139529400Y-117080000D01*
G75*
G02*
X139664400Y-117215000I0J-135000D01*
G01*
X139664400Y-117485000D01*
G75*
G02*
X139529400Y-117620000I-135000J0D01*
G01*
X139159400Y-117620000D01*
G75*
G02*
X139024400Y-117485000I0J135000D01*
G01*
X139024400Y-117215000D01*
G75*
G02*
X139159400Y-117080000I135000J0D01*
G01*
G37*
G36*
G01*
X139159400Y-116060000D02*
X139529400Y-116060000D01*
G75*
G02*
X139664400Y-116195000I0J-135000D01*
G01*
X139664400Y-116465000D01*
G75*
G02*
X139529400Y-116600000I-135000J0D01*
G01*
X139159400Y-116600000D01*
G75*
G02*
X139024400Y-116465000I0J135000D01*
G01*
X139024400Y-116195000D01*
G75*
G02*
X139159400Y-116060000I135000J0D01*
G01*
G37*
%TD*%
%TO.C,R16*%
G36*
G01*
X128288200Y-117207000D02*
X128658200Y-117207000D01*
G75*
G02*
X128793200Y-117342000I0J-135000D01*
G01*
X128793200Y-117612000D01*
G75*
G02*
X128658200Y-117747000I-135000J0D01*
G01*
X128288200Y-117747000D01*
G75*
G02*
X128153200Y-117612000I0J135000D01*
G01*
X128153200Y-117342000D01*
G75*
G02*
X128288200Y-117207000I135000J0D01*
G01*
G37*
G36*
G01*
X128288200Y-116187000D02*
X128658200Y-116187000D01*
G75*
G02*
X128793200Y-116322000I0J-135000D01*
G01*
X128793200Y-116592000D01*
G75*
G02*
X128658200Y-116727000I-135000J0D01*
G01*
X128288200Y-116727000D01*
G75*
G02*
X128153200Y-116592000I0J135000D01*
G01*
X128153200Y-116322000D01*
G75*
G02*
X128288200Y-116187000I135000J0D01*
G01*
G37*
%TD*%
%TO.C,R15*%
G36*
G01*
X148063800Y-119419400D02*
X147693800Y-119419400D01*
G75*
G02*
X147558800Y-119284400I0J135000D01*
G01*
X147558800Y-119014400D01*
G75*
G02*
X147693800Y-118879400I135000J0D01*
G01*
X148063800Y-118879400D01*
G75*
G02*
X148198800Y-119014400I0J-135000D01*
G01*
X148198800Y-119284400D01*
G75*
G02*
X148063800Y-119419400I-135000J0D01*
G01*
G37*
G36*
G01*
X148063800Y-120439400D02*
X147693800Y-120439400D01*
G75*
G02*
X147558800Y-120304400I0J135000D01*
G01*
X147558800Y-120034400D01*
G75*
G02*
X147693800Y-119899400I135000J0D01*
G01*
X148063800Y-119899400D01*
G75*
G02*
X148198800Y-120034400I0J-135000D01*
G01*
X148198800Y-120304400D01*
G75*
G02*
X148063800Y-120439400I-135000J0D01*
G01*
G37*
%TD*%
%TO.C,R14*%
G36*
G01*
X128766600Y-131869600D02*
X128766600Y-132239600D01*
G75*
G02*
X128631600Y-132374600I-135000J0D01*
G01*
X128361600Y-132374600D01*
G75*
G02*
X128226600Y-132239600I0J135000D01*
G01*
X128226600Y-131869600D01*
G75*
G02*
X128361600Y-131734600I135000J0D01*
G01*
X128631600Y-131734600D01*
G75*
G02*
X128766600Y-131869600I0J-135000D01*
G01*
G37*
G36*
G01*
X129786600Y-131869600D02*
X129786600Y-132239600D01*
G75*
G02*
X129651600Y-132374600I-135000J0D01*
G01*
X129381600Y-132374600D01*
G75*
G02*
X129246600Y-132239600I0J135000D01*
G01*
X129246600Y-131869600D01*
G75*
G02*
X129381600Y-131734600I135000J0D01*
G01*
X129651600Y-131734600D01*
G75*
G02*
X129786600Y-131869600I0J-135000D01*
G01*
G37*
%TD*%
%TO.C,R13*%
G36*
G01*
X129246600Y-131223600D02*
X129246600Y-130853600D01*
G75*
G02*
X129381600Y-130718600I135000J0D01*
G01*
X129651600Y-130718600D01*
G75*
G02*
X129786600Y-130853600I0J-135000D01*
G01*
X129786600Y-131223600D01*
G75*
G02*
X129651600Y-131358600I-135000J0D01*
G01*
X129381600Y-131358600D01*
G75*
G02*
X129246600Y-131223600I0J135000D01*
G01*
G37*
G36*
G01*
X128226600Y-131223600D02*
X128226600Y-130853600D01*
G75*
G02*
X128361600Y-130718600I135000J0D01*
G01*
X128631600Y-130718600D01*
G75*
G02*
X128766600Y-130853600I0J-135000D01*
G01*
X128766600Y-131223600D01*
G75*
G02*
X128631600Y-131358600I-135000J0D01*
G01*
X128361600Y-131358600D01*
G75*
G02*
X128226600Y-131223600I0J135000D01*
G01*
G37*
%TD*%
%TO.C,R12*%
G36*
G01*
X139565800Y-127621000D02*
X139935800Y-127621000D01*
G75*
G02*
X140070800Y-127756000I0J-135000D01*
G01*
X140070800Y-128026000D01*
G75*
G02*
X139935800Y-128161000I-135000J0D01*
G01*
X139565800Y-128161000D01*
G75*
G02*
X139430800Y-128026000I0J135000D01*
G01*
X139430800Y-127756000D01*
G75*
G02*
X139565800Y-127621000I135000J0D01*
G01*
G37*
G36*
G01*
X139565800Y-126601000D02*
X139935800Y-126601000D01*
G75*
G02*
X140070800Y-126736000I0J-135000D01*
G01*
X140070800Y-127006000D01*
G75*
G02*
X139935800Y-127141000I-135000J0D01*
G01*
X139565800Y-127141000D01*
G75*
G02*
X139430800Y-127006000I0J135000D01*
G01*
X139430800Y-126736000D01*
G75*
G02*
X139565800Y-126601000I135000J0D01*
G01*
G37*
%TD*%
%TO.C,R11*%
G36*
G01*
X138919800Y-127141000D02*
X138549800Y-127141000D01*
G75*
G02*
X138414800Y-127006000I0J135000D01*
G01*
X138414800Y-126736000D01*
G75*
G02*
X138549800Y-126601000I135000J0D01*
G01*
X138919800Y-126601000D01*
G75*
G02*
X139054800Y-126736000I0J-135000D01*
G01*
X139054800Y-127006000D01*
G75*
G02*
X138919800Y-127141000I-135000J0D01*
G01*
G37*
G36*
G01*
X138919800Y-128161000D02*
X138549800Y-128161000D01*
G75*
G02*
X138414800Y-128026000I0J135000D01*
G01*
X138414800Y-127756000D01*
G75*
G02*
X138549800Y-127621000I135000J0D01*
G01*
X138919800Y-127621000D01*
G75*
G02*
X139054800Y-127756000I0J-135000D01*
G01*
X139054800Y-128026000D01*
G75*
G02*
X138919800Y-128161000I-135000J0D01*
G01*
G37*
%TD*%
%TO.C,R10*%
G36*
G01*
X128745400Y-127519400D02*
X129115400Y-127519400D01*
G75*
G02*
X129250400Y-127654400I0J-135000D01*
G01*
X129250400Y-127924400D01*
G75*
G02*
X129115400Y-128059400I-135000J0D01*
G01*
X128745400Y-128059400D01*
G75*
G02*
X128610400Y-127924400I0J135000D01*
G01*
X128610400Y-127654400D01*
G75*
G02*
X128745400Y-127519400I135000J0D01*
G01*
G37*
G36*
G01*
X128745400Y-126499400D02*
X129115400Y-126499400D01*
G75*
G02*
X129250400Y-126634400I0J-135000D01*
G01*
X129250400Y-126904400D01*
G75*
G02*
X129115400Y-127039400I-135000J0D01*
G01*
X128745400Y-127039400D01*
G75*
G02*
X128610400Y-126904400I0J135000D01*
G01*
X128610400Y-126634400D01*
G75*
G02*
X128745400Y-126499400I135000J0D01*
G01*
G37*
%TD*%
%TO.C,R9*%
G36*
G01*
X128099400Y-127039400D02*
X127729400Y-127039400D01*
G75*
G02*
X127594400Y-126904400I0J135000D01*
G01*
X127594400Y-126634400D01*
G75*
G02*
X127729400Y-126499400I135000J0D01*
G01*
X128099400Y-126499400D01*
G75*
G02*
X128234400Y-126634400I0J-135000D01*
G01*
X128234400Y-126904400D01*
G75*
G02*
X128099400Y-127039400I-135000J0D01*
G01*
G37*
G36*
G01*
X128099400Y-128059400D02*
X127729400Y-128059400D01*
G75*
G02*
X127594400Y-127924400I0J135000D01*
G01*
X127594400Y-127654400D01*
G75*
G02*
X127729400Y-127519400I135000J0D01*
G01*
X128099400Y-127519400D01*
G75*
G02*
X128234400Y-127654400I0J-135000D01*
G01*
X128234400Y-127924400D01*
G75*
G02*
X128099400Y-128059400I-135000J0D01*
G01*
G37*
%TD*%
%TO.C,R8*%
G36*
G01*
X148195000Y-109913000D02*
X148195000Y-109543000D01*
G75*
G02*
X148330000Y-109408000I135000J0D01*
G01*
X148600000Y-109408000D01*
G75*
G02*
X148735000Y-109543000I0J-135000D01*
G01*
X148735000Y-109913000D01*
G75*
G02*
X148600000Y-110048000I-135000J0D01*
G01*
X148330000Y-110048000D01*
G75*
G02*
X148195000Y-109913000I0J135000D01*
G01*
G37*
G36*
G01*
X147175000Y-109913000D02*
X147175000Y-109543000D01*
G75*
G02*
X147310000Y-109408000I135000J0D01*
G01*
X147580000Y-109408000D01*
G75*
G02*
X147715000Y-109543000I0J-135000D01*
G01*
X147715000Y-109913000D01*
G75*
G02*
X147580000Y-110048000I-135000J0D01*
G01*
X147310000Y-110048000D01*
G75*
G02*
X147175000Y-109913000I0J135000D01*
G01*
G37*
%TD*%
%TO.C,R7*%
G36*
G01*
X147715000Y-108552400D02*
X147715000Y-108922400D01*
G75*
G02*
X147580000Y-109057400I-135000J0D01*
G01*
X147310000Y-109057400D01*
G75*
G02*
X147175000Y-108922400I0J135000D01*
G01*
X147175000Y-108552400D01*
G75*
G02*
X147310000Y-108417400I135000J0D01*
G01*
X147580000Y-108417400D01*
G75*
G02*
X147715000Y-108552400I0J-135000D01*
G01*
G37*
G36*
G01*
X148735000Y-108552400D02*
X148735000Y-108922400D01*
G75*
G02*
X148600000Y-109057400I-135000J0D01*
G01*
X148330000Y-109057400D01*
G75*
G02*
X148195000Y-108922400I0J135000D01*
G01*
X148195000Y-108552400D01*
G75*
G02*
X148330000Y-108417400I135000J0D01*
G01*
X148600000Y-108417400D01*
G75*
G02*
X148735000Y-108552400I0J-135000D01*
G01*
G37*
%TD*%
D23*
%TO.C,L4*%
X135297000Y-128473200D03*
X132927000Y-128473200D03*
%TD*%
D24*
%TO.C,L3*%
X136118600Y-121065200D03*
X136118600Y-123435200D03*
%TD*%
%TO.C,L2*%
X125234700Y-121175600D03*
X125234700Y-123545600D03*
%TD*%
%TO.C,L1*%
X151130000Y-115612000D03*
X151130000Y-113242000D03*
%TD*%
D20*
%TO.C,U3*%
X146558000Y-112328960D03*
D22*
X147308000Y-113804700D03*
X146808000Y-113804700D03*
X146308000Y-113804700D03*
X145808000Y-113804700D03*
D21*
X145082260Y-113078960D03*
X145082260Y-112578960D03*
X145082260Y-112078960D03*
X145082260Y-111578960D03*
D22*
X145808000Y-110853220D03*
X146308000Y-110853220D03*
X146808000Y-110853220D03*
X147308000Y-110853220D03*
D21*
X148033740Y-111578960D03*
X148033740Y-112078960D03*
X148033740Y-112578960D03*
X148033740Y-113078960D03*
%TD*%
%TO.C,R5*%
G36*
G01*
X115073400Y-100464200D02*
X115073400Y-100094200D01*
G75*
G02*
X115208400Y-99959200I135000J0D01*
G01*
X115478400Y-99959200D01*
G75*
G02*
X115613400Y-100094200I0J-135000D01*
G01*
X115613400Y-100464200D01*
G75*
G02*
X115478400Y-100599200I-135000J0D01*
G01*
X115208400Y-100599200D01*
G75*
G02*
X115073400Y-100464200I0J135000D01*
G01*
G37*
G36*
G01*
X114053400Y-100464200D02*
X114053400Y-100094200D01*
G75*
G02*
X114188400Y-99959200I135000J0D01*
G01*
X114458400Y-99959200D01*
G75*
G02*
X114593400Y-100094200I0J-135000D01*
G01*
X114593400Y-100464200D01*
G75*
G02*
X114458400Y-100599200I-135000J0D01*
G01*
X114188400Y-100599200D01*
G75*
G02*
X114053400Y-100464200I0J135000D01*
G01*
G37*
%TD*%
%TO.C,R4*%
G36*
G01*
X113133480Y-100462840D02*
X113133480Y-100092840D01*
G75*
G02*
X113268480Y-99957840I135000J0D01*
G01*
X113538480Y-99957840D01*
G75*
G02*
X113673480Y-100092840I0J-135000D01*
G01*
X113673480Y-100462840D01*
G75*
G02*
X113538480Y-100597840I-135000J0D01*
G01*
X113268480Y-100597840D01*
G75*
G02*
X113133480Y-100462840I0J135000D01*
G01*
G37*
G36*
G01*
X112113480Y-100462840D02*
X112113480Y-100092840D01*
G75*
G02*
X112248480Y-99957840I135000J0D01*
G01*
X112518480Y-99957840D01*
G75*
G02*
X112653480Y-100092840I0J-135000D01*
G01*
X112653480Y-100462840D01*
G75*
G02*
X112518480Y-100597840I-135000J0D01*
G01*
X112248480Y-100597840D01*
G75*
G02*
X112113480Y-100462840I0J135000D01*
G01*
G37*
%TD*%
%TO.C,R3*%
G36*
G01*
X137381400Y-94982000D02*
X137751400Y-94982000D01*
G75*
G02*
X137886400Y-95117000I0J-135000D01*
G01*
X137886400Y-95387000D01*
G75*
G02*
X137751400Y-95522000I-135000J0D01*
G01*
X137381400Y-95522000D01*
G75*
G02*
X137246400Y-95387000I0J135000D01*
G01*
X137246400Y-95117000D01*
G75*
G02*
X137381400Y-94982000I135000J0D01*
G01*
G37*
G36*
G01*
X137381400Y-93962000D02*
X137751400Y-93962000D01*
G75*
G02*
X137886400Y-94097000I0J-135000D01*
G01*
X137886400Y-94367000D01*
G75*
G02*
X137751400Y-94502000I-135000J0D01*
G01*
X137381400Y-94502000D01*
G75*
G02*
X137246400Y-94367000I0J135000D01*
G01*
X137246400Y-94097000D01*
G75*
G02*
X137381400Y-93962000I135000J0D01*
G01*
G37*
%TD*%
%TO.C,R2*%
G36*
G01*
X142329100Y-93361000D02*
X142329100Y-92991000D01*
G75*
G02*
X142464100Y-92856000I135000J0D01*
G01*
X142734100Y-92856000D01*
G75*
G02*
X142869100Y-92991000I0J-135000D01*
G01*
X142869100Y-93361000D01*
G75*
G02*
X142734100Y-93496000I-135000J0D01*
G01*
X142464100Y-93496000D01*
G75*
G02*
X142329100Y-93361000I0J135000D01*
G01*
G37*
G36*
G01*
X141309100Y-93361000D02*
X141309100Y-92991000D01*
G75*
G02*
X141444100Y-92856000I135000J0D01*
G01*
X141714100Y-92856000D01*
G75*
G02*
X141849100Y-92991000I0J-135000D01*
G01*
X141849100Y-93361000D01*
G75*
G02*
X141714100Y-93496000I-135000J0D01*
G01*
X141444100Y-93496000D01*
G75*
G02*
X141309100Y-93361000I0J135000D01*
G01*
G37*
%TD*%
%TO.C,R1*%
G36*
G01*
X140384500Y-93364900D02*
X140384500Y-92994900D01*
G75*
G02*
X140519500Y-92859900I135000J0D01*
G01*
X140789500Y-92859900D01*
G75*
G02*
X140924500Y-92994900I0J-135000D01*
G01*
X140924500Y-93364900D01*
G75*
G02*
X140789500Y-93499900I-135000J0D01*
G01*
X140519500Y-93499900D01*
G75*
G02*
X140384500Y-93364900I0J135000D01*
G01*
G37*
G36*
G01*
X139364500Y-93364900D02*
X139364500Y-92994900D01*
G75*
G02*
X139499500Y-92859900I135000J0D01*
G01*
X139769500Y-92859900D01*
G75*
G02*
X139904500Y-92994900I0J-135000D01*
G01*
X139904500Y-93364900D01*
G75*
G02*
X139769500Y-93499900I-135000J0D01*
G01*
X139499500Y-93499900D01*
G75*
G02*
X139364500Y-93364900I0J135000D01*
G01*
G37*
%TD*%
M02*
